<svg width="12" height="12" viewBox="0 0 12 12" fill="none" xmlns="http://www.w3.org/2000/svg">
<g clip-path="url(#clip0_10_10)">
<path fill-rule="evenodd" clip-rule="evenodd" d="M0.0427684 2.51118C0.0216707 2.57582 0.0698395 2.64221 0.137833 2.64221H0.739002C0.78469 2.64221 0.824568 2.61125 0.835885 2.56698L0.951017 2.1167H1.74796L1.86309 2.56698C1.87441 2.61125 1.91428 2.64221 1.95997 2.64221H2.56114C2.62914 2.64221 2.6773 2.57582 2.65621 2.51118L1.85906 0.0689708C1.84563 0.0278335 1.80727 0 1.764 0H1.4678C1.46495 0 1.46214 0.000118816 1.45935 0.000351748C1.45657 0.000118813 1.45375 0 1.4509 0H0.934979C0.891705 0 0.853342 0.0278332 0.839915 0.0689705L0.0427684 2.51118ZM1.36991 0.637756C1.34179 0.649645 1.31987 0.674118 1.31194 0.705111L1.091 1.56921H1.60797L1.37091 0.642073L1.36991 0.637756ZM3.13477 2.54221C3.13477 2.59744 3.17954 2.64221 3.23477 2.64221H4.30664C4.57275 2.64221 4.79736 2.59033 4.98047 2.48657C5.16357 2.38281 5.30212 2.23022 5.39612 2.02881C5.49133 1.82739 5.53894 1.58081 5.53894 1.28906V1.2854C5.53894 1.01074 5.49072 0.777588 5.39429 0.585938C5.29907 0.394287 5.15991 0.249023 4.97681 0.150146C4.7937 0.0500488 4.57031 0 4.30664 0H3.23477C3.17954 0 3.13477 0.0447714 3.13477 0.0999999V2.54221ZM4.01113 2.02698C3.9559 2.02698 3.91113 1.98221 3.91113 1.92698V0.715234C3.91113 0.660006 3.9559 0.615234 4.01113 0.615234H4.15466C4.27917 0.615234 4.38538 0.641479 4.47327 0.69397C4.56238 0.74646 4.63013 0.823975 4.67651 0.926514C4.72412 1.02783 4.74792 1.15234 4.74792 1.30005V1.30371C4.74792 1.46484 4.72534 1.59912 4.68018 1.70654C4.63501 1.81396 4.56848 1.89453 4.48059 1.94824C4.3927 2.00073 4.28406 2.02698 4.15466 2.02698H4.01113ZM9.76378 3.96836L8.80278 4.52318L7.8402 5.07893L6.56413 5.81567L5.25478 3.54782L5.25449 3.54799L5.25294 3.54526C5.14938 3.3659 4.92004 3.30445 4.74068 3.408L0.886087 5.63345C0.706727 5.737 0.645274 5.96635 0.748828 6.14571C0.852381 6.32507 1.08173 6.38652 1.26109 6.28297L4.79119 4.24486L6.10057 6.51277L6.10102 6.51251L6.10332 6.51655C6.20731 6.69667 6.43762 6.75838 6.61774 6.65439L8.21678 5.73118L9.17936 5.17544L10.1404 4.62061L10.5193 5.27693L10.8475 4.5086L11.0103 4.12744L11.2567 3.55066L10.634 3.47566L10.2225 3.42609L9.39301 3.32617L9.76378 3.96836ZM3.8125 7.40797C3.6578 7.49728 3.5625 7.66235 3.5625 7.84098V11.25H2.4375V9.06786C2.4375 8.68296 2.02083 8.4424 1.6875 8.63485L0.8125 9.14003C0.657799 9.22935 0.5625 9.39441 0.5625 9.57305V11.25H0.375C0.167893 11.25 0 11.4179 0 11.625C0 11.8321 0.167893 12 0.375 12L0.5625 12H2.4375L3.5625 12H5.4375L6.5625 12H8.4375L9.5625 12V12H11.4375V12H11.625C11.8321 12 12 11.8321 12 11.625C12 11.4179 11.8321 11.25 11.625 11.25H11.4375V7.33581C11.4375 6.95091 11.0208 6.71035 10.6875 6.9028L9.8125 7.40798C9.6578 7.4973 9.5625 7.66236 9.5625 7.84099V11.25H8.4375V9.06785C8.4375 8.68295 8.02083 8.44239 7.6875 8.63484L6.8125 9.14002C6.6578 9.22934 6.5625 9.3944 6.5625 9.57303V11.25H5.4375V7.3358C5.4375 6.9509 5.02083 6.71033 4.6875 6.90278L3.8125 7.40797Z" fill="#6E6E6E"/>
</g>
<defs>
<clipPath id="clip0_10_10">
<rect width="12" height="12" fill="white"/>
</clipPath>
</defs>
</svg>
