<svg width="16" height="16" viewBox="0 0 17 16" fill="none" xmlns="http://www.w3.org/2000/svg">
<path fill-rule="evenodd" clip-rule="evenodd" d="M9.54079 1.65991C9.58105 2.38093 9.93028 3.10983 10.56 3.63821C10.9686 3.98109 11.4399 4.19299 11.9164 4.27614C12.5012 4.37818 13.0938 4.2863 13.5881 4.0046C13.3136 4.52673 13.2741 5.13157 13.457 5.67168C13.5764 6.02425 13.7907 6.34924 14.0962 6.60562C14.4682 6.91775 14.9168 7.07892 15.3681 7.09581C15.5944 7.10427 15.8214 7.07645 16.0397 7.01319C16.0795 7.33655 16.1 7.66588 16.1 8C16.1 8.18191 16.0939 8.3624 16.082 8.54128C15.8036 12.7071 12.3363 16 8.09998 16C3.6817 16 0.0999756 12.4183 0.0999756 8C0.0999756 3.58172 3.6817 0 8.09998 0C8.18085 0 8.26144 0.00119997 8.34173 0.00358309C8.88742 0.0197791 9.41938 0.0906214 9.93234 0.210826C9.63932 0.640174 9.5122 1.14805 9.54079 1.65991ZM9.59579 4.78727C10.2764 5.35841 11.0972 5.70185 11.9347 5.79271C12.1021 6.53337 12.5037 7.22749 13.132 7.75468C13.568 8.12051 14.0649 8.36476 14.5816 8.49215C14.3301 11.8521 11.5243 14.5 8.09998 14.5C4.51012 14.5 1.59998 11.5899 1.59998 8C1.59998 4.43208 4.47468 1.53558 8.03426 1.50033C8.03181 2.73235 8.60681 3.95742 9.59579 4.78727ZM7.59998 4.5H6.09998V6H7.59998V4.5ZM10.1 10H11.1V11H10.1V10ZM5.59998 8.5H4.09998V10H5.59998V8.5Z" fill="white"/>
</svg>
