<svg width="11" height="11" viewBox="0 0 11 11" fill="none" xmlns="http://www.w3.org/2000/svg">
<path d="M10.6093 1.2323C10.418 1.04122 10.1587 0.933899 9.88826 0.933899C9.61787 0.933899 9.35854 1.04122 9.16723 1.2323L5.91917 4.48035L2.67112 1.2357C2.47769 1.05547 2.22187 0.957348 1.95753 0.962011C1.6932 0.966675 1.44099 1.07376 1.25405 1.2607C1.06711 1.44764 0.960023 1.69985 0.955359 1.96419C0.950695 2.22852 1.04881 2.48435 1.22905 2.67777L4.4771 5.92242L1.22905 9.16708C1.1288 9.26049 1.04839 9.37314 0.992627 9.4983C0.93686 9.62346 0.906873 9.75857 0.904456 9.89557C0.902038 10.0326 0.92724 10.1687 0.978558 10.2957C1.02988 10.4227 1.10626 10.5382 1.20314 10.6351C1.30003 10.7319 1.41545 10.8083 1.5425 10.8596C1.66954 10.911 1.80563 10.9362 1.94263 10.9337C2.07963 10.9313 2.21474 10.9013 2.3399 10.8456C2.46506 10.7898 2.5777 10.7094 2.67112 10.6091L5.91917 7.36449L9.16723 10.6091C9.36065 10.7894 9.61648 10.8875 9.88081 10.8828C10.1451 10.8782 10.3974 10.7711 10.5843 10.5841C10.7712 10.3972 10.8783 10.145 10.883 9.88066C10.8877 9.61633 10.7895 9.3605 10.6093 9.16708L7.36124 5.92242L10.6093 2.67777C10.7044 2.58298 10.7799 2.47034 10.8314 2.34632C10.8829 2.22229 10.9094 2.08932 10.9094 1.95503C10.9094 1.82074 10.8829 1.68777 10.8314 1.56375C10.7799 1.43973 10.7044 1.32709 10.6093 1.2323Z" fill="#FF0000"/>
</svg>
