<svg width="12" height="12" viewBox="0 0 12 12" fill="none" xmlns="http://www.w3.org/2000/svg">
<g clip-path="url(#clip0_10_33)">
<path fill-rule="evenodd" clip-rule="evenodd" d="M6.5 2C8.81655 2 10.7243 3.75044 10.9726 6.0008C11.0029 6.27528 10.7761 6.5 10.5 6.5V6.5C10.2239 6.5 10.0038 6.27486 9.96477 6.00148C9.72279 4.30461 8.26375 3 6.5 3C4.567 3 3 4.567 3 6.5C3 8.25755 3.60401 9.87307 4.6164 11.1517C4.78782 11.3682 4.77363 11.6834 4.56896 11.8688V11.8688C4.36429 12.0542 4.04684 12.0394 3.87375 11.8242C2.70183 10.3674 2 8.51519 2 6.5C2 4.01472 4.01472 2 6.5 2ZM6.5 4C7.88071 4 9 5.11929 9 6.5C9 7.15649 9.42173 7.71447 10.0091 7.91781C10.27 8.00816 10.5 8.22386 10.5 8.5V8.5C10.5 8.77614 10.2739 9.00522 10.0032 8.95064C8.86048 8.72024 8 7.71061 8 6.5C8 5.67157 7.32843 5 6.5 5C5.67157 5 5 5.67157 5 6.5C5 8.38908 5.95221 10.0563 7.40466 11.047C7.63279 11.2026 7.72113 11.5053 7.58686 11.7466V11.7466C7.45259 11.9879 7.14684 12.0762 6.91657 11.9238C5.15993 10.7609 4 8.76621 4 6.5C4 5.11929 5.11929 4 6.5 4ZM6.5 1C3.46243 1 1 3.46243 1 6.5C1 8.21832 1.45578 9.82894 2.25292 11.2189C2.3903 11.4585 2.32491 11.7673 2.09293 11.9171V11.9171C1.86094 12.0669 1.55034 12.0009 1.41176 11.762C0.513985 10.2146 0 8.41667 0 6.5C0 2.91015 2.91015 0 6.5 0C8.764 0 10.757 1.15767 11.9204 2.91144C12.073 3.14156 11.985 3.4474 11.7438 3.58189V3.58189C11.5026 3.71639 11.1999 3.62834 11.0441 3.40036C10.053 1.95033 8.38721 1 6.5 1ZM10.5 10.5C10.5 10.7761 10.2753 11.0029 10.0008 10.9726C7.91435 10.7424 6.25764 9.08565 6.02738 6.9992C5.99708 6.72472 6.22386 6.5 6.5 6.5V6.5C6.77614 6.5 6.99625 6.72514 7.03523 6.99852C7.25399 8.53256 8.46744 9.74601 10.0015 9.96477C10.2749 10.0038 10.5 10.2239 10.5 10.5V10.5Z" fill="white"/>
</g>
<defs>
<clipPath id="clip0_10_33">
<rect width="12" height="12" fill="white"/>
</clipPath>
</defs>
</svg>
