<svg width="17" height="16" viewBox="0 0 17 16" fill="none" xmlns="http://www.w3.org/2000/svg">
<path d="M8.64051 4.08895C10.4842 4.08895 12.4454 3.54685 12.4454 2.54447C12.4454 1.5421 10.4867 1 8.64051 1C6.7943 1 4.83813 1.53954 4.83813 2.54447C4.83813 3.54685 6.79686 4.08895 8.64051 4.08895ZM8.64051 1.44749C10.5609 1.44749 11.998 2.02795 11.998 2.54447C11.998 3.06356 10.5634 3.64146 8.64051 3.64146C6.71759 3.64146 5.28562 3.061 5.28562 2.54447C5.28562 2.02539 6.72014 1.44749 8.64051 1.44749Z" fill="white" stroke="#636363" stroke-width="0.5"/>
<path d="M5.06064 10.97H3.10703L2.6621 10.5251C2.62119 10.4816 2.56237 10.4586 2.50356 10.4586H1.22502C1.10228 10.4586 1 10.5584 1 10.6837V14.775C1 14.8977 1.09973 15 1.22502 15H5.06064C5.18338 15 5.28566 14.9003 5.28566 14.775V11.1951C5.28566 11.0698 5.18338 10.97 5.06064 10.97ZM1.45005 14.5525V11.4201H3.14411H4.83817V14.5525H1.45005Z" fill="white" stroke="#636363" stroke-width="0.5"/>
<path d="M16.281 11.1951C16.281 11.0723 16.1813 10.97 16.056 10.97H14.1024L13.6575 10.5251C13.6165 10.4842 13.5577 10.4586 13.4989 10.4586H12.2204C12.0976 10.4586 11.9954 10.5584 11.9954 10.6837V14.775C11.9954 14.8977 12.0951 15 12.2204 15H16.056C16.1787 15 16.281 14.9003 16.281 14.775V11.1951ZM12.4454 14.5525V11.4201H15.8335V14.5525H12.4454Z" fill="white" stroke="#636363" stroke-width="0.5"/>
<path d="M10.6862 10.97H8.73258L8.28765 10.5251C8.24674 10.4842 8.18792 10.4586 8.12911 10.4586H6.85057C6.72783 10.4586 6.62555 10.5584 6.62555 10.6837V14.775C6.62555 14.8977 6.72528 15 6.85057 15H10.6862C10.8089 15 10.9112 14.9003 10.9112 14.775V11.1951C10.9112 11.0698 10.8089 10.97 10.6862 10.97ZM7.0756 14.5525V11.4201H10.4637V14.5525H7.0756Z" fill="white" stroke="#636363" stroke-width="0.5"/>
<path d="M3.01494 9.88584C3.13768 9.88584 3.23996 9.78612 3.23996 9.66082V8.60475H8.41804V9.66082C8.41804 9.78356 8.51777 9.88584 8.64307 9.88584C8.76836 9.88584 8.86809 9.78612 8.86809 9.66082V8.60475H14.0462V9.66082C14.0462 9.78356 14.1459 9.88584 14.2712 9.88584C14.3965 9.88584 14.4962 9.78612 14.4962 9.66082V8.38228C14.4962 8.25954 14.3965 8.15726 14.2712 8.15726H8.86553V6.32639C10.6401 6.28548 12.4454 5.74849 12.4454 4.78447V3.77954C12.4454 3.6568 12.3457 3.55452 12.2204 3.55452C12.0951 3.55452 11.9954 3.65425 11.9954 3.77954V4.78447C11.9954 5.30356 10.5609 5.88146 8.63795 5.88146C6.71503 5.88146 5.28051 5.301 5.28051 4.78447V3.77954C5.28051 3.6568 5.18078 3.55452 5.05549 3.55452C4.93019 3.55452 4.83046 3.65425 4.83046 3.77954V4.78447C4.83046 5.74849 6.63576 6.28292 8.41037 6.32639V8.15726H3.01494C2.8922 8.15726 2.78992 8.25699 2.78992 8.38228V9.66082C2.79247 9.78356 2.8922 9.88584 3.01494 9.88584Z" fill="white" stroke="#636363" stroke-width="0.5"/>
</svg>
