<svg width="12" height="12" viewBox="0 0 12 12" fill="none" xmlns="http://www.w3.org/2000/svg">
<g clip-path="url(#clip0_10_4)">
<path fill-rule="evenodd" clip-rule="evenodd" d="M2.25 1.5C2.25 1.91421 1.91421 2.25 1.5 2.25C1.08579 2.25 0.75 1.91421 0.75 1.5C0.75 1.08579 1.08579 0.75 1.5 0.75C1.91421 0.75 2.25 1.08579 2.25 1.5ZM3 1.5C3 2.32843 2.32843 3 1.5 3C0.671573 3 0 2.32843 0 1.5C0 0.671573 0.671573 0 1.5 0C2.32843 0 3 0.671573 3 1.5ZM2.25 10.5C2.25 10.9142 1.91421 11.25 1.5 11.25C1.08579 11.25 0.75 10.9142 0.75 10.5C0.75 10.0858 1.08579 9.75 1.5 9.75C1.91421 9.75 2.25 10.0858 2.25 10.5ZM3 10.5C3 11.3284 2.32843 12 1.5 12C0.671573 12 0 11.3284 0 10.5C0 9.67157 0.671573 9 1.5 9C2.32843 9 3 9.67157 3 10.5ZM1.5 6.75C1.91421 6.75 2.25 6.41421 2.25 6C2.25 5.58579 1.91421 5.25 1.5 5.25C1.08579 5.25 0.75 5.58579 0.75 6C0.75 6.41421 1.08579 6.75 1.5 6.75ZM1.5 7.5C2.32843 7.5 3 6.82843 3 6C3 5.17157 2.32843 4.5 1.5 4.5C0.671573 4.5 0 5.17157 0 6C0 6.82843 0.671573 7.5 1.5 7.5ZM11.625 1.875C11.8321 1.875 12 1.70711 12 1.5C12 1.29289 11.8321 1.125 11.625 1.125H4.875C4.66789 1.125 4.5 1.29289 4.5 1.5C4.5 1.70711 4.66789 1.875 4.875 1.875H11.625ZM10.125 6.375C10.3321 6.375 10.5 6.20711 10.5 6C10.5 5.79289 10.3321 5.625 10.125 5.625H4.875C4.66789 5.625 4.5 5.79289 4.5 6C4.5 6.20711 4.66789 6.375 4.875 6.375H10.125ZM8.625 10.875C8.83211 10.875 9 10.7071 9 10.5C9 10.2929 8.83211 10.125 8.625 10.125H4.875C4.66789 10.125 4.5 10.2929 4.5 10.5C4.5 10.7071 4.66789 10.875 4.875 10.875H8.625Z" fill="white"/>
</g>
<defs>
<clipPath id="clip0_10_4">
<rect width="12" height="12" fill="white"/>
</clipPath>
</defs>
</svg>
