<svg width="48" height="48" viewBox="0 0 48 48" fill="none" xmlns="http://www.w3.org/2000/svg">
<path fill-rule="evenodd" clip-rule="evenodd" d="M39.1217 6.89444C38.8444 7.33989 38.2586 7.47626 37.8132 7.19905C35.0563 5.48335 31.1841 5.2629 26.9174 6.55938C22.6664 7.85107 18.1358 10.6216 14.1956 14.6943C10.623 18.387 8.13464 22.5313 6.8441 26.4744C5.54958 30.4295 5.48235 34.1053 6.62857 36.925C6.82614 37.4111 6.59229 37.9652 6.10626 38.1628C5.62022 38.3604 5.06605 38.1265 4.86848 37.6405C3.50132 34.2772 3.6537 30.1141 5.03841 25.8834C6.42709 21.6405 9.07755 17.2519 12.8301 13.3732C16.9662 9.09805 21.7682 6.13829 26.365 4.7415C30.9461 3.3495 35.4368 3.48237 38.817 5.58597C39.2625 5.86318 39.3989 6.449 39.1217 6.89444Z" fill="#3BD897"/>
<circle cx="24.0001" cy="24" r="18.2078" fill="#4285FA"/>
<circle cx="24.0001" cy="17.6671" r="7.12479" fill="white"/>
<path d="M13.545 36.9265C13.6701 31.1162 18.5304 26.3752 24 26.3752C29.5225 26.3752 34.1015 30.886 34.3629 37.0005C31.521 39.2689 27.9188 40.6248 24 40.6248C20.0387 40.6248 16.4009 39.2393 13.545 36.9265Z" fill="white"/>
<path fill-rule="evenodd" clip-rule="evenodd" d="M24 1.99223C19.173 1.99223 14.4234 3.57795 10.7827 6.36201C10.3659 6.68072 9.76972 6.60122 9.45101 6.18446C9.13231 5.76769 9.21181 5.17148 9.62857 4.85278C13.614 1.80507 18.773 0.0922852 24 0.0922852C37.2038 0.0922852 47.9077 10.7961 47.9077 23.9999C47.9077 29.9496 45.7331 35.3939 42.1366 39.5775C41.7945 39.9753 41.1948 40.0206 40.7969 39.6786C40.399 39.3366 40.3538 38.7368 40.6958 38.3389C44.0073 34.4869 46.0077 29.4782 46.0077 23.9999C46.0077 11.8454 36.1545 1.99223 24 1.99223ZM6.20906 9.58244C6.61512 9.91467 6.67497 10.5132 6.34274 10.9192C3.47526 14.4239 1.99232 19.1566 1.99232 23.9999C1.99232 28.7986 3.52702 33.2359 6.13254 36.8517C6.43927 37.2773 6.34286 37.871 5.91721 38.1778C5.49156 38.4845 4.89784 38.3881 4.59111 37.9624C1.76027 34.034 0.0923767 29.2103 0.0923767 23.9999C0.0923767 18.7918 1.68367 13.6133 4.87226 9.71612C5.20449 9.31006 5.803 9.25021 6.20906 9.58244ZM40.14 40.3539C40.4929 40.7421 40.4643 41.3429 40.076 41.6958C35.8309 45.5545 30.1892 47.9076 24 47.9076C18.4679 47.9076 13.3723 46.0274 9.32102 42.8719C8.9071 42.5495 8.83291 41.9526 9.15531 41.5387C9.4777 41.1248 10.0746 41.0506 10.4885 41.373C14.218 44.2779 18.9057 46.0076 24 46.0076C29.6984 46.0076 34.889 43.8431 38.7981 40.2899C39.1863 39.937 39.7871 39.9656 40.14 40.3539Z" fill="#3BD897"/>
<path fill-rule="evenodd" clip-rule="evenodd" d="M39.1938 6.95008C39.5586 6.57301 40.16 6.56307 40.5371 6.92787C43.7283 10.0152 44.5356 14.7615 43.4924 19.7554C42.4463 24.7634 39.5223 30.1698 35.011 34.8328C30.9247 39.0565 26.1888 41.9959 21.6431 43.4131C17.1129 44.8254 12.6632 44.7532 9.27083 42.769C8.81795 42.5041 8.66555 41.9223 8.93044 41.4694C9.19533 41.0165 9.77719 40.8641 10.2301 41.129C13.0059 42.7526 16.8557 42.9155 21.0777 41.5993C25.2841 40.2878 29.753 37.535 33.6455 33.5117C37.9464 29.0662 40.6706 23.9723 41.6326 19.3669C42.5976 14.7474 41.7729 10.7671 39.216 8.29336C38.839 7.92855 38.829 7.32715 39.1938 6.95008Z" fill="#3BD897"/>
<circle cx="7.6526" cy="7.65251" r="1.82078" fill="#DC9AF8"/>
<circle cx="7.20399" cy="40.1761" r="1.82078" fill="#DC9AF8"/>
<path d="M39.8633 2.24286L36.5615 3.47145V7.00366C36.5359 7.72034 37.1604 9.4762 39.8633 10.7662C42.5663 9.4762 43.1908 7.72034 43.1652 7.00366V3.47145L39.8633 2.24286Z" fill="#DC9AF8"/>
</svg>
