<svg width="14" height="14" viewBox="0 0 14 14" fill="none" xmlns="http://www.w3.org/2000/svg">
<path fill-rule="evenodd" clip-rule="evenodd" d="M12.5 7C12.5 10.0376 10.0376 12.5 7 12.5C5.70413 12.5 4.51293 12.0518 3.57295 11.302L11.302 3.57295C12.0518 4.51293 12.5 5.70413 12.5 7ZM2.53771 10.216L10.216 2.53771C9.31156 1.88476 8.20071 1.5 7 1.5C3.96243 1.5 1.5 3.96243 1.5 7C1.5 8.20071 1.88476 9.31156 2.53771 10.216ZM14 7C14 10.866 10.866 14 7 14C3.13401 14 0 10.866 0 7C0 3.13401 3.13401 0 7 0C10.866 0 14 3.13401 14 7Z" fill="#6E6E6E"/>
</svg>
