<svg xmlns="http://www.w3.org/2000/svg" width="20" height="20" fill="currentColor" viewBox="0 0 20 20">
    <g fill="currentColor" fill-rule="evenodd" clip-rule="evenodd">
        <path d="M10 14a4 4 0 1 0 0-8 4 4 0 0 0 0 8zm0-1a3 3 0 1 1 0-6 3 3 0 0 1 0 6z" />
        <path
            d="M11 1a1 1 0 0 1 1 1l.001 1.29c.465.139.91.324 1.329.551l.913-.912a1 1 0 0 1 1.414 0l1.414 1.414a1 1 0 0 1 0 1.414l-.912.914c.227.419.413.864.551 1.33L18 8a1 1 0 0 1 1 1v2a1 1 0 0 1-1 1h-1.29c-.138.466-.324.91-.55 1.33l.911.913a1 1 0 0 1 0 1.414l-1.414 1.414a1 1 0 0 1-1.414 0l-.914-.912a6.952 6.952 0 0 1-1.328.55L12 18a1 1 0 0 1-1 1H9a1 1 0 0 1-1-1v-1.29a6.958 6.958 0 0 1-1.329-.55l-.914.911a1 1 0 0 1-1.414 0L2.93 15.657a1 1 0 0 1 0-1.414l.912-.914A6.957 6.957 0 0 1 3.29 12H2a1 1 0 0 1-1-1V9a1 1 0 0 1 1-1l1.29-.001c.139-.465.324-.91.551-1.328l-.912-.914a1 1 0 0 1 0-1.414L4.343 2.93a1 1 0 0 1 1.414 0l.913.912c.42-.227.865-.413 1.33-.551V2a1 1 0 0 1 1-1zm4.965 8l-.213-.715a5.952 5.952 0 0 0-.472-1.138l-.355-.655 1.439-1.442-1.414-1.414-1.441 1.44-.656-.356a5.958 5.958 0 0 0-1.137-.471l-.714-.213L11 2H9v2.036l-.715.212a5.957 5.957 0 0 0-1.138.472l-.656.355-1.44-1.439L3.635 5.05l1.44 1.441-.356.656a5.957 5.957 0 0 0-.471 1.137l-.213.714L2 9v2h2.036l.212.715c.118.395.276.776.472 1.138l.355.655-1.439 1.442 1.414 1.414 1.442-1.439.655.355c.362.196.743.354 1.138.472l.715.212V18h2l.002-2.036.714-.213a5.954 5.954 0 0 0 1.137-.471l.655-.355 1.442 1.439 1.414-1.414-1.439-1.442.355-.655c.196-.362.354-.743.471-1.138l.213-.714L18 11V9z" />
    </g>
</svg>