<svg id="Layer_1" data-name="Layer 1" xmlns="http://www.w3.org/2000/svg" viewBox="0 0 122.88 117.72"><title>big-data</title><path d="M75.19,52.64l-.54.28-.57.32c-.59.35-1.17.73-1.74,1.13s-1.15.86-1.75,1.35a.53.53,0,0,1-.74-.08l-2.54-2.91a.52.52,0,0,1,0-.73c.45-.41.92-.82,1.4-1.19s1-.74,1.52-1.09.84-.52,1.27-.76.88-.47,1.31-.67l.53-.25a15,15,0,0,0-6.32-5.72A16,16,0,0,0,62.92,41a16.57,16.57,0,0,0-4.39-.17,15.89,15.89,0,0,0-4.25,1,14.68,14.68,0,0,0-3.72,2.09A14.25,14.25,0,0,0,47,48a16.32,16.32,0,0,0-1.94,5.24l-.25,1.33a.53.53,0,0,1-.43.42l-1.32.23c-.63.11-1.23.24-1.79.39s-1.09.33-1.57.52a10.14,10.14,0,0,0-1.33.61,9.91,9.91,0,0,0-1.17.72,8.78,8.78,0,0,0-.8.66,8,8,0,0,0-2.11,3.25,9,9,0,0,0-.48,3,9.93,9.93,0,0,0,.51,3,10.26,10.26,0,0,0,1.39,2.74,10.87,10.87,0,0,0,.74.91,10.35,10.35,0,0,0,.84.79,7.23,7.23,0,0,0,1,.68l0,0a7.33,7.33,0,0,0,1,.52,8.59,8.59,0,0,0,1.21.41,10.12,10.12,0,0,0,1.31.26H80.08a21.38,21.38,0,0,0,2.49-.76,14.83,14.83,0,0,0,2.2-1,11,11,0,0,0,1.81-1.23,8.48,8.48,0,0,0,2.77-4.31,13.18,13.18,0,0,0,.52-3.64,14.87,14.87,0,0,0-.45-3.85,11.07,11.07,0,0,0-1.35-3.17c-.18-.27-.37-.53-.55-.77s-.39-.48-.59-.69A8.84,8.84,0,0,0,84,52.18a9.19,9.19,0,0,0-3.55-.72,11.65,11.65,0,0,0-2.61.28,14.43,14.43,0,0,0-2.67.89Zm-30.38-10-8-8a12.73,12.73,0,0,1-15.48-2h0a12.69,12.69,0,0,1-.16-17.81l.16-.18h0a12.72,12.72,0,0,1,18,0h0a12.72,12.72,0,0,1,2,15.46l8.44,8.44a20.29,20.29,0,0,1,2.74-1.32,20.86,20.86,0,0,1,5.61-1.33A21.15,21.15,0,0,1,63,36v-11a12.66,12.66,0,0,1-5.83-3.33h0A12.73,12.73,0,0,1,75,3.56l.18.17a12.71,12.71,0,0,1,0,18h0a12.68,12.68,0,0,1-5.82,3.33V37.94a20,20,0,0,1,9,8.73l10-9.89a12.73,12.73,0,0,1,2-15.46h0A12.69,12.69,0,0,1,108,21.16l.18.16h0a12.72,12.72,0,0,1,0,18h0a12.73,12.73,0,0,1-15.45,2l-6.45,6.5a13.56,13.56,0,0,1,4.25,3.1c.29.32.58.66.86,1s.53.72.79,1.11a15.92,15.92,0,0,1,2,4.51,19.55,19.55,0,0,1,.65,5.24V63h3a12.66,12.66,0,0,1,3.33-5.83h0A12.73,12.73,0,0,1,119.32,75l-.17.18a12.74,12.74,0,0,1-18,0v0a12.6,12.6,0,0,1-3.33-5.81h-4.3a12.75,12.75,0,0,1-1.6,2.84,13.69,13.69,0,0,1-2.12,2.25,15.72,15.72,0,0,1-2.61,1.81,21,21,0,0,1-3,1.35,30.65,30.65,0,0,1-3.35,1A37.83,37.83,0,0,1,76.8,79l9.28,9.28a12.73,12.73,0,0,1,15.48,2h0a12.69,12.69,0,0,1,.16,17.81l-.16.18h0a12.72,12.72,0,0,1-18,0h0a12.72,12.72,0,0,1-2-15.46L68,79.14c-2.6,0-5.35,0-8.09-.11V92.66A12.84,12.84,0,0,1,65.74,96h0a12.73,12.73,0,0,1-17.83,18.16l-.18-.16a12.72,12.72,0,0,1,0-18h0a12.86,12.86,0,0,1,5.82-3.33V78.87c-4.54-.12-8.65-.24-11.47-.24l-7.46,7.45a12.73,12.73,0,0,1-2,15.48h0a12.69,12.69,0,0,1-17.81.16l-.18-.16h0a12.72,12.72,0,0,1,0-18h0a12.72,12.72,0,0,1,15.46-2l5.18-5.17a11.1,11.1,0,0,1-1.15-.86l0,0a14.26,14.26,0,0,1-1.26-1.19A13.38,13.38,0,0,1,31.76,73a14.91,14.91,0,0,1-2.83-8.66,14.15,14.15,0,0,1,.67-4.42H25.06a12.66,12.66,0,0,1-3.33,5.83h0A12.73,12.73,0,0,1,3.56,47.91l.17-.18a12.71,12.71,0,0,1,18,0h0a12.68,12.68,0,0,1,3.33,5.82h9.08l.2-.14a14.5,14.5,0,0,1,1.71-1.06A15.89,15.89,0,0,1,38,51.48c.47-.18.95-.35,1.45-.5s.8-.23,1.21-.33a20.55,20.55,0,0,1,2.54-5.81,18,18,0,0,1,1.65-2.2Zm21.33-23A6.89,6.89,0,0,0,71,7.86l-.12-.13a6.9,6.9,0,0,0-9.62,9.88h0a6.86,6.86,0,0,0,4.87,2Zm-30.82,8.8a6.91,6.91,0,0,0-.12-9.62h0a6.89,6.89,0,0,0-9.74,0h0l-.12.12a6.92,6.92,0,0,0,.12,9.63h0a6.9,6.9,0,0,0,9.75,0h0l.13-.12ZM19.62,56.74A6.89,6.89,0,0,0,7.86,51.86L7.73,52a6.9,6.9,0,0,0,9.88,9.62h0a6.82,6.82,0,0,0,2-4.86Zm8.8,30.82a6.92,6.92,0,0,0-9.63.12h0a6.89,6.89,0,0,0,0,9.74h0l.12.12a6.91,6.91,0,0,0,9.62-.12h0a6.9,6.9,0,0,0,0-9.75h0l-.12-.13ZM56.73,98.11a6.89,6.89,0,0,0-4.87,11.75L52,110a6.89,6.89,0,0,0,9.62-9.87h0a6.86,6.86,0,0,0-4.87-2Zm30.83-3.65a6.92,6.92,0,0,0,.12,9.63h0a6.89,6.89,0,0,0,9.74,0h0l.12-.12a6.91,6.91,0,0,0-.12-9.62h0a6.9,6.9,0,0,0-9.75,0h0l-.13.12Zm15.7-28.32A6.89,6.89,0,0,0,115,71l.13-.12a6.9,6.9,0,0,0-9.88-9.62h0a6.86,6.86,0,0,0-2,4.87Zm-8.8-30.82a6.91,6.91,0,0,0,9.62-.12h0a6.89,6.89,0,0,0,0-9.74h0l-.12-.12a6.92,6.92,0,0,0-9.63.12h0a6.9,6.9,0,0,0,0,9.75h0l.12.13Z"/></svg>