<svg width="14" height="16" viewBox="0 0 14 16" fill="none" xmlns="http://www.w3.org/2000/svg">
<path d="M7.21314 1.00006C7.149 1.00161 7.08957 1.01421 7.03325 1.03895L1.27711 3.58158C1.11288 3.65462 0.999488 3.82967 1 4.0094C1 7.55601 1.78351 9.88718 2.94465 11.5303C4.10579 13.1734 5.61635 14.1077 6.97978 14.9334C7.12529 15.0222 7.32044 15.0222 7.46594 14.9334C8.82937 14.1077 10.3398 13.1734 11.5011 11.5303C12.6624 9.88718 13.4457 7.55604 13.4457 4.0094C13.4457 3.82967 13.3328 3.65462 13.1686 3.58158L7.41247 1.03895C7.34614 1.01036 7.27728 0.999092 7.21314 1.00006ZM7.22279 1.97238L12.4976 4.30595C12.4527 7.5281 11.7413 9.57556 10.7377 10.9955C9.76316 12.3744 8.49894 13.2023 7.22279 13.9805C5.94668 13.2023 4.6774 12.3744 3.70298 10.9955C2.69954 9.57558 1.99291 7.52812 1.94795 4.30595L7.22279 1.97238ZM7.22279 4.88935C6.28281 4.88935 5.5115 5.66065 5.5115 6.60063V7.06735C5.44456 7.06735 5.37096 7.06735 5.30731 7.06735C5.07959 7.09121 4.88798 7.30509 4.88921 7.53406V10.0232C4.88924 10.2676 5.11157 10.4899 5.35593 10.4899H9.08964C9.33402 10.4899 9.55634 10.2676 9.55636 10.0232V7.53406C9.55634 7.28969 9.33402 7.06738 9.08964 7.06735H8.93407V6.60063C8.93407 5.66065 8.16276 4.88935 7.22279 4.88935ZM7.22279 5.82277C7.66179 5.82277 8.00064 6.16162 8.00064 6.60063V7.06735H6.44493V6.60063C6.44493 6.16162 6.78378 5.82277 7.22279 5.82277ZM5.82264 8.00078H8.62293V9.55649H5.82264V8.00078Z" fill="#636363" stroke="#636363" stroke-width="0.3"/>
</svg>
