<svg width="15" height="15" viewBox="0 0 15 15" fill="none" xmlns="http://www.w3.org/2000/svg">
<path d="M5 7.1875H10L7.5 4.6875L5 7.1875ZM3.125 13.125C2.78125 13.125 2.48698 13.0026 2.24219 12.7578C1.9974 12.513 1.875 12.2188 1.875 11.875V3.125C1.875 2.78125 1.9974 2.48698 2.24219 2.24219C2.48698 1.9974 2.78125 1.875 3.125 1.875H11.875C12.2188 1.875 12.513 1.9974 12.7578 2.24219C13.0026 2.48698 13.125 2.78125 13.125 3.125V11.875C13.125 12.2188 13.0026 12.513 12.7578 12.7578C12.513 13.0026 12.2188 13.125 11.875 13.125H3.125ZM3.125 10V11.875H11.875V10H3.125ZM3.125 8.75H11.875V3.125H3.125V8.75Z" fill="#A0A0A0"/>
</svg>
