<svg width="12" height="12" viewBox="0 0 12 12" fill="none" xmlns="http://www.w3.org/2000/svg">
<g clip-path="url(#clip0_10_25)">
<path fill-rule="evenodd" clip-rule="evenodd" d="M11 2.80769H1L1 11H2.75C2.47386 11 2.25 10.7761 2.25 10.5C2.25 10.2239 2.47386 10 2.75 10H5.85521C5.30582 8.44563 3.92669 7.28323 2.25 7.04498C2.45865 7.01534 2.6719 7 2.88874 7C4.23264 7 5.43895 7.58912 6.26351 8.52319C6.53404 7.06595 7.23083 5.75737 8.21901 4.73023L8.42987 4.93972L7.49015 4H9.7425V6.25235L9.0162 5.52605C7.93171 6.66092 7.26491 8.19612 7.26491 9.88435C7.26491 9.92298 7.26526 9.96153 7.26596 10H9.25C9.52614 10 9.75 10.2239 9.75 10.5C9.75 10.7761 9.52614 11 9.25 11H11V2.80769ZM11 1.80769H1V1H11V1.80769ZM12 1.80769V1C12 0.447715 11.5523 0 11 0H1C0.447715 0 0 0.447715 0 1V1.80769V2.30769V2.80769V11C0 11.5523 0.447715 12 1 12H11C11.5523 12 12 11.5523 12 11V2.80769V2.30769V1.80769ZM1.84615 1.38462C1.84615 1.51207 1.74283 1.61538 1.61538 1.61538C1.48793 1.61538 1.38462 1.51207 1.38462 1.38462C1.38462 1.25717 1.48793 1.15385 1.61538 1.15385C1.74283 1.15385 1.84615 1.25717 1.84615 1.38462ZM2.53846 1.61538C2.66591 1.61538 2.76923 1.51207 2.76923 1.38461C2.76923 1.25716 2.66591 1.15385 2.53846 1.15385C2.41101 1.15385 2.30769 1.25716 2.30769 1.38461C2.30769 1.51207 2.41101 1.61538 2.53846 1.61538ZM3.69231 1.38461C3.69231 1.51207 3.58899 1.61538 3.46154 1.61538C3.33409 1.61538 3.23077 1.51207 3.23077 1.38461C3.23077 1.25716 3.33409 1.15385 3.46154 1.15385C3.58899 1.15385 3.69231 1.25716 3.69231 1.38461Z" fill="#6E6E6E"/>
</g>
<defs>
<clipPath id="clip0_10_25">
<rect width="12" height="12" fill="white"/>
</clipPath>
</defs>
</svg>
