<svg width="18" height="18" viewBox="0 0 18 18" fill="none" xmlns="http://www.w3.org/2000/svg">
<path fill-rule="evenodd" clip-rule="evenodd" d="M15.3541 15.3L2.70009 2.646L1.74609 3.6L3.54609 5.4H3.15009C2.79205 5.4 2.44867 5.54223 2.1955 5.7954C1.94233 6.04858 1.80009 6.39195 1.80009 6.75V11.25C1.80009 11.608 1.94233 11.9514 2.1955 12.2046C2.44867 12.4578 2.79205 12.6 3.15009 12.6H10.7461L14.4001 16.254L15.3541 15.3ZM9.39609 11.25L4.89609 6.75H3.15009V11.25H9.39609ZM16.2001 9L13.7521 11.7972L12.7954 10.8405L14.4064 9L12.4372 6.75H8.70489L7.35489 5.4H12.4372C12.6298 5.39982 12.8202 5.44085 12.9956 5.52033C13.171 5.59981 13.3274 5.7159 13.4542 5.8608L16.2001 9Z" fill="currentColor"/>
</svg>
