<svg width="16" height="16" viewBox="0 0 16 16" fill="currentColor" xmlns="http://www.w3.org/2000/svg">
<path d="M1.33325 14V2H7.99992V4.66667H14.6666V14H1.33325ZM2.66659 12.6667H3.99992V11.3333H2.66659V12.6667ZM2.66659 10H3.99992V8.66667H2.66659V10ZM2.66659 7.33333H3.99992V6H2.66659V7.33333ZM2.66659 4.66667H3.99992V3.33333H2.66659V4.66667ZM5.33325 12.6667H6.66658V11.3333H5.33325V12.6667ZM5.33325 10H6.66658V8.66667H5.33325V10ZM5.33325 7.33333H6.66658V6H5.33325V7.33333ZM5.33325 4.66667H6.66658V3.33333H5.33325V4.66667ZM7.99992 12.6667H13.3333V6H7.99992V7.33333H9.33325V8.66667H7.99992V10H9.33325V11.3333H7.99992V12.6667ZM10.6666 8.66667V7.33333H11.9999V8.66667H10.6666ZM10.6666 11.3333V10H11.9999V11.3333H10.6666Z" fill="#5F6368"/>
</svg>
