<svg width="18" height="16" viewBox="0 0 18 16" fill="none" xmlns="http://www.w3.org/2000/svg">
<path fill-rule="evenodd" clip-rule="evenodd" d="M6.73256 15C5.95777 15 5.20985 14.8477 4.50224 14.5477C3.8215 14.261 3.20793 13.8445 2.67946 13.3205C2.15099 12.7965 1.73896 12.183 1.45234 11.4978C1.15227 10.7901 1 10.0422 1 9.26743C1 8.49264 1.15227 7.74472 1.45234 7.03711C1.73896 6.35636 2.15547 5.7428 2.67946 5.21433C3.20345 4.68586 3.81702 4.27383 4.50224 3.9872C5.20985 3.68714 5.95777 3.53487 6.73256 3.53487C6.88036 3.53487 7.02815 3.53934 7.17594 3.55278C7.31926 3.56174 7.42227 3.68714 7.41331 3.83045C7.40435 3.97377 7.27895 4.07677 7.13564 4.06782C7.00128 4.05886 6.86692 4.05438 6.73256 4.05438C3.85733 4.05438 1.51951 6.39219 1.51951 9.26743C1.51951 12.1427 3.85733 14.4805 6.73256 14.4805C8.53295 14.4805 10.1811 13.5713 11.144 12.0486C11.2201 11.9277 11.3813 11.8919 11.4978 11.968C11.6187 12.0441 11.6545 12.2054 11.5784 12.3218C11.0723 13.1235 10.3647 13.7953 9.54063 14.261C8.68522 14.7447 7.71785 15 6.73256 15Z" fill="white" stroke="white" stroke-width="0.3"/>
<path fill-rule="evenodd" clip-rule="evenodd" d="M4.71275 7.97313C4.18428 7.97313 3.75433 7.54319 3.75433 7.01472C3.75433 6.48625 4.18428 6.0563 4.71275 6.0563C5.24122 6.0563 5.67116 6.48625 5.67116 7.01472C5.67116 7.54319 5.24122 7.97313 4.71275 7.97313ZM4.71275 6.57134C4.4709 6.57134 4.26937 6.7684 4.26937 7.01472C4.26937 7.26104 4.46643 7.4581 4.71275 7.4581C4.95907 7.4581 5.15612 7.26104 5.15612 7.01472C5.15612 6.7684 4.95459 6.57134 4.71275 6.57134Z" fill="white" stroke="white" stroke-width="0.3"/>
<path fill-rule="evenodd" clip-rule="evenodd" d="M6.54447 13.4683C6.016 13.4683 5.58606 13.0384 5.58606 12.5099C5.58606 11.9814 6.016 11.5515 6.54447 11.5515C7.07294 11.5515 7.50289 11.9814 7.50289 12.5099C7.50289 13.0384 7.07294 13.4683 6.54447 13.4683ZM6.54447 12.0665C6.30263 12.0665 6.10109 12.2636 6.10109 12.5099C6.10109 12.7562 6.29815 12.9533 6.54447 12.9533C6.79079 12.9533 6.98785 12.7562 6.98785 12.5099C6.98785 12.2636 6.78632 12.0665 6.54447 12.0665Z" fill="white" stroke="white" stroke-width="0.3"/>
<path fill-rule="evenodd" clip-rule="evenodd" d="M5.55468 10.5797C5.55468 10.3468 5.36658 10.1587 5.13369 10.1587C4.90081 10.1587 4.71271 10.3468 4.71271 10.5797C4.71271 10.8125 4.90081 11.0006 5.13369 11.0006C5.36658 11.0006 5.55468 10.8125 5.55468 10.5797Z" fill="white" stroke="white" stroke-width="0.3"/>
<path fill-rule="evenodd" clip-rule="evenodd" d="M3.60204 9.32118C3.60204 9.08829 3.41394 8.90019 3.18106 8.90019C2.94817 8.90019 2.76007 9.08829 2.76007 9.32118C2.76007 9.55406 2.94817 9.74216 3.18106 9.74216C3.41394 9.74216 3.60204 9.55406 3.60204 9.32118Z" fill="white" stroke="white" stroke-width="0.3"/>
<path fill-rule="evenodd" clip-rule="evenodd" d="M11.7844 12.4607C11.0096 12.4607 10.2617 12.3084 9.55406 12.0083C8.87332 11.7217 8.25975 11.3052 7.73128 10.7812C7.20729 10.2572 6.79078 9.64363 6.50415 8.95841C6.20409 8.2508 6.05182 7.50288 6.05182 6.72809C6.05182 5.95777 6.19961 5.21433 6.4952 4.5112C6.78183 3.83045 7.18937 3.22137 7.70889 2.69738C8.2284 2.17338 8.83749 1.75688 9.51375 1.46577C10.2124 1.16571 10.9558 1.00896 11.7262 1C11.7262 1 11.7262 1 11.7306 1C11.8113 1 11.8874 1.03583 11.9322 1.09853C11.9814 1.16123 11.9994 1.24632 11.977 1.32246C11.9008 1.60461 11.9859 1.90915 12.1919 2.11964C12.2681 2.19578 12.3621 2.25848 12.4606 2.29878C12.5816 2.34805 12.6443 2.47793 12.6129 2.60333C12.5323 2.88995 12.6174 3.19898 12.8279 3.40947C12.9443 3.52591 13.0966 3.60653 13.2578 3.63788C13.334 3.65131 13.4011 3.70058 13.437 3.76775C13.4728 3.83493 13.4773 3.91555 13.4504 3.9872C13.3295 4.29623 13.4011 4.64555 13.634 4.87844C13.8669 5.11132 14.2162 5.18298 14.5253 5.06206C14.5969 5.03519 14.6775 5.03967 14.7447 5.0755C14.8119 5.11132 14.8612 5.1785 14.8746 5.25464C14.9059 5.42034 14.9821 5.56814 15.103 5.68906C15.3135 5.89955 15.6225 5.98017 15.9091 5.90403C16.0345 5.8682 16.1644 5.93538 16.2137 6.0563C16.254 6.15931 16.3167 6.24888 16.3928 6.32502C16.5988 6.53103 16.9034 6.61612 17.19 6.53999C17.2661 6.51759 17.3512 6.53551 17.4139 6.58477C17.4766 6.63404 17.5125 6.71017 17.5125 6.79079C17.5035 7.55662 17.3468 8.30006 17.0467 9.0032C16.7556 9.67946 16.3391 10.2841 15.8151 10.8081C15.2911 11.3276 14.6775 11.7351 14.0013 12.0218C13.2981 12.3129 12.5502 12.4607 11.7844 12.4607ZM11.4351 1.53295C8.72552 1.71209 6.57133 3.9872 6.57133 6.73704C6.57133 9.61228 8.90915 11.9501 11.7844 11.9501C14.5342 11.9501 16.8049 9.79143 16.9885 7.08637H16.984C16.6302 7.08637 16.2853 6.94754 16.0301 6.69226C15.9539 6.61612 15.8912 6.53551 15.833 6.44594C15.7837 6.45042 15.7345 6.45489 15.6897 6.45489C15.3359 6.45489 14.9955 6.31606 14.7402 6.06078C14.6148 5.93538 14.5163 5.78759 14.4491 5.62636C14.0237 5.69802 13.5848 5.56366 13.2713 5.25016C12.9578 4.93666 12.8234 4.49776 12.8951 4.0723C12.7338 4.00512 12.586 3.90659 12.4606 3.78119C12.1695 3.49008 12.0307 3.08701 12.0755 2.68394C11.9859 2.6302 11.9053 2.56302 11.8292 2.48688C11.5739 2.23161 11.4351 1.88676 11.4351 1.53295Z" fill="white" stroke="white" stroke-width="0.3"/>
<path fill-rule="evenodd" clip-rule="evenodd" d="M9.62132 6.13692C9.09284 6.13692 8.6629 5.70698 8.6629 5.17851C8.6629 4.65003 9.09284 4.22009 9.62132 4.22009C10.1498 4.22009 10.5797 4.65003 10.5797 5.17851C10.5797 5.70698 10.1498 6.13692 9.62132 6.13692ZM9.62132 4.73513C9.37947 4.73513 9.17794 4.93218 9.17794 5.17851C9.17794 5.42483 9.37499 5.62188 9.62132 5.62188C9.86764 5.62188 10.0647 5.42483 10.0647 5.17851C10.0647 4.93218 9.86764 4.73513 9.62132 4.73513Z" fill="white" stroke="white" stroke-width="0.3"/>
<path fill-rule="evenodd" clip-rule="evenodd" d="M15.4255 7.99552C15.4255 7.76264 15.2374 7.57454 15.0045 7.57454C14.7717 7.57454 14.5836 7.76264 14.5836 7.99552C14.5836 8.22841 14.7717 8.41651 15.0045 8.41651C15.2374 8.41651 15.4255 8.22393 15.4255 7.99552Z" fill="white" stroke="white" stroke-width="0.3"/>
<path fill-rule="evenodd" clip-rule="evenodd" d="M9.24065 7.57453C9.24065 7.34165 9.05255 7.15355 8.81967 7.15355C8.58678 7.15355 8.39868 7.34165 8.39868 7.57453C8.39868 7.80742 8.58678 7.99552 8.81967 7.99552C9.04807 7.99552 9.24065 7.80742 9.24065 7.57453Z" fill="white" stroke="white" stroke-width="0.3"/>
<path fill-rule="evenodd" clip-rule="evenodd" d="M12.201 6.92515C12.201 6.69227 12.0129 6.50417 11.78 6.50417C11.5471 6.50417 11.359 6.69227 11.359 6.92515C11.359 7.15804 11.5471 7.34614 11.78 7.34614C12.0129 7.34614 12.201 7.15804 12.201 6.92515Z" fill="white" stroke="white" stroke-width="0.3"/>
<path fill-rule="evenodd" clip-rule="evenodd" d="M10.9962 9.32118C10.9962 9.08829 10.8081 8.90019 10.5752 8.90019C10.3423 8.90019 10.1542 9.08829 10.1542 9.32118C10.1542 9.55406 10.3423 9.74216 10.5752 9.74216C10.8036 9.74216 10.9962 9.55406 10.9962 9.32118Z" fill="white" stroke="white" stroke-width="0.3"/>
<path fill-rule="evenodd" clip-rule="evenodd" d="M12.8056 10.9782C12.2771 10.9782 11.8472 10.5483 11.8472 10.0198C11.8472 9.49136 12.2771 9.06142 12.8056 9.06142C13.3341 9.06142 13.764 9.49136 13.764 10.0198C13.764 10.5483 13.3341 10.9782 12.8056 10.9782ZM12.8056 9.58093C12.5637 9.58093 12.3622 9.77799 12.3622 10.0243C12.3622 10.2706 12.5593 10.4677 12.8056 10.4677C13.0519 10.4677 13.249 10.2706 13.249 10.0243C13.249 9.77799 13.0519 9.58093 12.8056 9.58093Z" fill="white" stroke="white" stroke-width="0.3"/>
</svg>
