<?xml version="1.0" encoding="UTF-8"?>
<svg id="Layer_2" data-name="Layer 2" xmlns="http://www.w3.org/2000/svg" viewBox="0 0 299.78 200">
  <defs>
    <style>
      .cls-1 {
        fill: #9dc0fd;
      }

      .cls-2 {
        fill: #efd1fb;
      }

      .cls-3 {
        fill: #4285fa;
      }

      .cls-4 {
        fill: #3bd897;
      }

      .cls-5 {
        fill: #c2f2df;
      }

      .cls-6 {
        fill: #dc9bf8;
      }

      .cls-7 {
        fill: #96bbfc;
      }

      .cls-8 {
        fill: #6ea1fb;
      }

      .cls-9 {
        fill: #4386fa;
      }

      .cls-10 {
        fill: #dc9af8;
      }
    </style>
  </defs>
  <g id="Layer_1-2" data-name="Layer 1">
    <g id="Demo_Center" data-name="Demo Center">
      <path class="cls-7" d="m16.52.13s.02-.08.02-.13h266.84s0,.09.01.13c-.49,0-.97.01-1.46.01-70.32,0-140.64,0-210.96,0-17.76,0-35.51,0-53.27,0-.39,0-.78-.01-1.17-.02Z"/>
      <path class="cls-7" d="m0,182.63V63.36s.09,0,.14,0c0,.34,0,.68,0,1.02,0,38.98,0,77.96,0,116.94,0,.44-.01.88-.02,1.31-.04,0-.09,0-.13-.02Z"/>
      <path class="cls-7" d="m0,16.68s.08-.02.12-.02c0,.39.02.78.02,1.17,0,11.76,0,23.52,0,35.29-.05,0-.09,0-.14,0V16.68Z"/>
      <path class="cls-8" d="m0,53.12s.09,0,.14,0c0,3.42,0,6.84,0,10.25-.05,0-.09,0-.14,0v-10.24Z"/>
      <path class="cls-3" d="m.22,184.07c-.03-.48-.06-.95-.09-1.43,0-.44.02-.88.02-1.31,0-38.98,0-77.96,0-116.94,0-.34,0-.68,0-1.02,0-3.42,0-6.84,0-10.25,0-11.76,0-23.52,0-35.29,0-.39-.01-.78-.02-1.17.29-4.26,1.92-7.93,4.84-11.04C7,3.46,9.43,1.91,12.26.97c1.39-.46,2.8-.8,4.27-.84.39,0,.78.02,1.17.02,17.76,0,35.51,0,53.27,0,70.32,0,140.64,0,210.96,0,.49,0,.97,0,1.46-.01.44.05.87.09,1.31.14.1.01.2.02.29.04.87.21,1.73.43,2.6.64.12.05.25.1.37.16,6.21,2.4,10.03,6.84,11.46,13.34l.08.34c.09,1.33.27,2.67.27,4,.01,54.08.01,108.16.02,162.24,0,2.87-.56,5.61-1.81,8.18-1.17,2.39-2.82,4.42-4.91,6.09-1.71,1.37-3.61,2.38-5.69,3.05-1.39.45-2.82.73-4.28.81-.25-.19-.5-.22-.73.02-7.27,0-14.54,0-21.81.02-1.81,0-3.37-.6-4.61-1.86-1.62-1.64-2.16-3.66-1.66-5.91.61-2.74,3.14-4.84,6.1-4.84,7.07-.01,14.15-.02,21.22,0,1.35,0,2.54-.32,3.6-1.16,1.31-1.04,1.9-2.42,1.99-4.06.01-.24,0-.49,0-.73,0-27.73,0-55.46,0-83.19s0-52.78,0-79.16c0-1.33-.3-2.54-1.13-3.61-1.04-1.35-2.44-1.96-4.09-2.08-.17-.01-.34,0-.51,0-69.18,0-138.36,0-207.54,0-18.59,0-37.18,0-55.76,0-.71,0-1.41.06-2.05.41-.6.11-1.09.42-1.51.87-.28.29-.56.59-.84.88-.6.56-.79,1.31-.98,2.06-.05.58-.15,1.16-.15,1.74,0,11.26-.01,22.53,0,33.79,0,3.26.08,6.53.08,9.79-.02,39.57-.05,79.13-.07,118.7,0,.55.12,1.1.19,1.65.18.89.53,1.7,1.22,2.33.94,1.14,2.17,1.68,3.63,1.75.39.02.78.01,1.17.01,68.52,0,137.04,0,205.56,0,2.25,0,4.05.91,5.36,2.75,1.1,1.54,1.38,3.27.93,5.07-.67,2.67-2.78,4.43-5.41,4.74-.16-.18-.3-.19-.44.02-.29,0-.59,0-.88,0-68.65,0-137.3,0-205.94,0-.15,0-.29,0-.44,0-.24-.24-.48-.22-.73-.02-2.33-.12-4.54-.72-6.65-1.72-1.96-.93-3.67-2.19-5.17-3.74-1.88-1.96-3.27-4.22-4.07-6.82-.28-.92-.49-1.87-.73-2.81Z"/>
      <path class="cls-10" d="m207.42,107.41c.09-.49.21-.98.27-1.47.08-.62.1-1.25.16-1.88.3-2.77.14-5.55.11-8.32-.01-1.3-.24-2.6-.4-3.89-.12-.98-.25-1.96-.44-2.93-.27-1.42-.53-2.85-.9-4.24-.5-1.89-1.07-3.76-1.67-5.62-.3-.92-.72-1.8-1.1-2.69-.51-1.19-1.01-2.39-1.58-3.55-.52-1.06-1.1-2.1-1.7-3.13-.69-1.17-1.17-2.39-1.1-3.76.12-2.31,1.13-4.07,3.15-5.28,1.77-1.06,3.63-1.08,5.45-.45,1.35.47,2.47,1.4,3.14,2.77.45.91,1.03,1.74,1.5,2.64.63,1.19,1.22,2.41,1.8,3.63.41.87.79,1.77,1.16,2.66.33.8.62,1.62.92,2.43.34.93.7,1.85,1,2.79.41,1.31.81,2.63,1.15,3.96.35,1.38.65,2.77.94,4.16.22,1.06.4,2.13.55,3.21.22,1.53.41,3.06.57,4.6.09.89.12,1.79.16,2.69.05,1.11.13,2.23.13,3.35,0,.97-.08,1.94-.12,2.91-.05,1.12-.04,2.24-.17,3.34-.24,2.04-.57,4.06-.84,6.09-.29,2.23-.86,4.4-1.41,6.57-.76,2.98-1.78,5.88-2.95,8.71-.9,2.16-1.91,4.28-3.02,6.36-1.13,2.12-2.34,4.19-3.68,6.16-1.53,2.26-3.13,4.5-4.98,6.53-1.15,1.26-2.29,2.52-3.46,3.75-1.74,1.83-3.61,3.52-5.55,5.14-2.08,1.76-4.29,3.33-6.55,4.84-1.58,1.06-3.27,1.94-4.92,2.89-.63.36-1.27.71-1.91,1.04-.55.29-1.11.57-1.69.82-2,.85-4.01,1.7-6.03,2.5-.94.37-1.92.66-2.89.96-1.2.37-2.41.7-3.61,1.06-1.69.51-3.41.86-5.15,1.14-1.02.16-2.04.39-3.06.53-1.13.15-2.26.26-3.39.35-1.55.12-3.09.23-4.64.28-1.46.05-2.93.04-4.39,0-1.28-.04-2.56-.16-3.84-.27-1.11-.09-2.22-.16-3.32-.32-1.53-.22-3.06-.45-4.56-.78-2.12-.46-4.22-1-6.32-1.56-1.03-.27-2.03-.63-3.03-.98-1.23-.44-2.45-.89-3.66-1.38-1.3-.53-2.6-1.07-3.87-1.67-1.09-.52-2.15-1.1-3.2-1.7-1.58-.9-3.16-1.79-4.69-2.76-1.41-.89-2.8-1.83-4.12-2.86-1.82-1.42-3.59-2.89-5.31-4.42-1.52-1.36-3.01-2.78-4.4-4.28-2.59-2.8-4.97-5.77-7.07-8.95-.74-1.13-1.48-2.26-2.13-3.44-.63-1.14-.8-2.38-.63-3.71.24-1.9,1.22-3.29,2.72-4.36.92-.66,1.95-1.06,3.11-1.06.37,0,.73,0,1.1-.01.7.14,1.39.26,2.05.63.9.5,1.73,1.02,2.31,1.89.08.12.21.19.32.28h0c.02.09.03.2.08.27.92,1.42,1.85,2.83,2.78,4.24.05.08.15.12.22.18.05.09.11.18.16.27.44.61.83,1.25,1.33,1.8.31.34.48.86,1,.99h0c.26.58,1.6,2.16,2.12,2.49.02.01.05.01.07.02.1.13.2.27.3.4.24.2.49.4.73.59h0c.13.2.23.42.39.58.84.81,1.67,1.63,2.55,2.4,1.21,1.05,2.41,2.11,3.69,3.06,2.66,1.99,5.45,3.79,8.43,5.26,1.21.6,2.46,1.14,3.69,1.7.04.01.09.02.14.02.1.05.2.09.3.14.1.05.19.09.29.14l1.03.43s.09.02.13.01l3.53,1.3c.19.05.39.11.58.16l1.61.45c.39.1.78.2,1.17.31.78.19,1.57.38,2.35.56l1.02.27c.49.06.98.12,1.46.17l1.01.16c.15.04.3.08.45.12l.43.02,1.32.25c.15,0,.29.01.44.02.24,0,.49.01.73.02.38.05.76.13,1.14.14,2.01.05,4.02.09,6.03.14.15,0,.29,0,.44,0,1.07-.09,2.15-.17,3.22-.26.24,0,.49-.01.73-.02.2,0,.39-.01.59-.02.39-.08.79-.16,1.18-.24l.58-.04c.93-.15,1.85-.3,2.78-.45.15-.04.29-.08.44-.13.39-.09.78-.19,1.18-.28.1,0,.19-.01.29-.02.4-.08.81-.13,1.2-.23,2.44-.62,4.85-1.34,7.18-2.29,1.86-.75,3.71-1.55,5.5-2.46,2.59-1.32,5.07-2.85,7.44-4.55.17-.12.33-.27.49-.41,0,0,0,0,0,0,.49-.38.98-.77,1.47-1.15.14-.1.29-.2.43-.31.29-.24.59-.49.88-.73h0c.31-.17.69-.28.74-.72h0c.61-.12.94-.6,1.31-1.03.05-.05.1-.09.14-.14,1.47-1.17,2.76-2.51,3.95-3.96.06-.09.12-.18.17-.27.17-.13.37-.22.5-.38.79-.95,1.59-1.89,2.33-2.88.99-1.32,1.98-2.63,2.86-4.02,1.05-1.65,2.05-3.34,2.97-5.07.74-1.41,1.33-2.9,1.98-4.35.05-.14.11-.29.16-.43.19-.43.41-.86.56-1.3.64-1.95,1.27-3.91,1.9-5.87.01-.14.02-.29.04-.43.05-.19.1-.39.15-.58.05-.2.1-.39.14-.59.08-.36.15-.72.25-1.06.42-1.42.68-2.87.76-4.36Z"/>
      <path class="cls-4" d="m131.86,65.49c.25.13.5.26.75.39.59.34,1.17.67,1.76,1.01.28.17.57.33.85.5.93.53,1.86,1.07,2.79,1.6.09.06.19.11.28.17.4.23.79.46,1.19.69.25.14.49.28.74.42.49.29.98.57,1.47.86.09.06.19.11.28.17.59.33,1.17.67,1.76,1,.34.2.69.4,1.03.6.34.2.68.39,1.02.59.1.05.19.1.29.16.44.24.87.48,1.31.73h0c.45.27.89.55,1.34.82.23.13.47.26.7.38,1.28.75,2.56,1.49,3.84,2.24.47.26.94.53,1.41.79.6.35,1.2.7,1.8,1.04.08.04.17.09.25.13l2.1,1.19s.06.04.09.06c.19.14.37.31.57.43.87.51,1.75,1.01,2.63,1.5.46.26.92.5,1.39.75,1.06.63,2.12,1.27,3.19,1.89,1.85,1.08,3.7,2.16,5.55,3.22,2.06,1.19,4.14,2.36,6.2,3.55,1.77,1.02,3.54,2.04,5.3,3.07.59.35,1.09.8,1.47,1.39,1.15,1.73.68,4.1-.72,5.32-.09.08-.16.18-.25.27-1.03.58-2.06,1.16-3.08,1.76-.73.42-1.44.87-2.17,1.3-.1.06-.19.11-.29.17-.41.24-.81.48-1.22.72l-.25.14c-.1.05-.19.11-.29.16-.15.09-.3.17-.45.26-.44.25-.87.51-1.31.76-.09.05-.19.11-.28.16-.15.08-.3.17-.45.25-.14.08-.28.15-.42.23-1.28.75-2.56,1.49-3.84,2.24-.28.16-.57.32-.85.49-.41.24-.81.48-1.22.72-.04,0-.07,0-.09.03-.74.43-1.49.87-2.23,1.3-.38.21-.76.42-1.14.63-.2.09-.4.16-.58.28-.56.36-1.1.73-1.65,1.1,0,0,0,0,0,0-.47.25-.95.5-1.42.75-.34.2-.68.4-1.02.59-.4.24-.79.48-1.19.73,0,0,0,0,0,0-.93.52-1.86,1.05-2.79,1.57-.28.17-.57.33-.85.5-.6.36-1.21.71-1.81,1.07-.07.05-.14.1-.22.16l-1.95,1.06c-.09.06-.19.11-.28.17-1.21.68-2.42,1.35-3.62,2.04-.9.52-1.79,1.07-2.68,1.61-.05,0-.09.02-.12.06-.15.09-.3.18-.45.27-.09.05-.19.11-.28.16-.41.24-.81.48-1.22.72-.09.04-.17.09-.26.13-.54.3-1.07.61-1.61.91-.24.14-.48.29-.73.43-1.51.87-3.03,1.75-4.54,2.62-.34.2-.68.39-1.02.59-.41.24-.81.48-1.22.72-.04,0-.07,0-.09.03-.25.14-.49.28-.74.42-.24.11-.49.21-.73.32-.23.04-.47.08-.7.12-.11.01-.21.02-.32.03-.2,0-.39,0-.59,0-.11-.01-.21-.02-.32-.04-.14-.03-.28-.06-.42-.08-.15-.05-.29-.09-.44-.14-1.2-.48-1.98-1.37-2.49-2.53-.05-.53-.15-1.06-.15-1.59,0-19.62,0-39.25,0-58.87,0-.53.09-1.06.15-1.59l.63-1.28-.04-.03s.04.03.04.03c.28-.25.57-.5.85-.75.24-.15.49-.29.73-.44,1.1-.38,2.21-.43,3.33-.09Z"/>
      <path class="cls-10" d="m77.14,92.05c0-.19.02-.39.02-.58.04-.2.08-.39.12-.59,0-.14.01-.29.02-.43.04-.08.11-.16.12-.25.1-.67.19-1.34.28-2,.11-.76.21-1.53.31-2.29,0-.09.02-.19.02-.29l.39-1.62c.05-.29.11-.59.16-.88.24-.93.48-1.85.72-2.78,0-.05,0-.1.01-.15.29-.89.56-1.79.87-2.67.62-1.77,1.24-3.53,1.88-5.3.29-.81.62-1.61.93-2.42.05-.1.09-.2.14-.3.63-1.22,1.22-2.47,1.9-3.67,1.02-1.82,2.03-3.64,3.14-5.4,1.01-1.59,2.11-3.13,3.22-4.65.62-.86,1.32-1.67,2.01-2.48.77-.9,1.54-1.81,2.36-2.67,1.42-1.47,2.88-2.89,4.31-4.34.28-.29.51-.62.77-.93h0c.11-.04.24-.06.33-.13.58-.47,1.14-.97,1.73-1.43,1.57-1.21,3.12-2.44,4.74-3.59,3.59-2.57,7.44-4.69,11.44-6.53.94-.43,1.92-.8,2.88-1.2.71-.29,1.43-.59,2.14-.88.15-.05.29-.1.44-.15,1.17-.39,2.34-.77,3.51-1.16.25-.09.49-.18.74-.27.28-.05.57-.09.85-.15,1.78-.4,3.55-.81,5.33-1.21.58-.13,1.15-.26,1.73-.4.34-.05.68-.11,1.02-.16,1.12-.11,2.25-.2,3.37-.32.44-.05.88-.16,1.32-.24.29,0,.58-.02.87-.03.24,0,.49-.01.73-.02.45-.04.91-.11,1.36-.11,1.94-.02,3.87-.02,5.81-.02.24,0,.49,0,.73,0,1.02.06,2.05.11,3.07.17.16.04.31.11.47.13.43.05.86.09,1.29.13.1,0,.2,0,.29.01.34.04.68.09,1.02.13.1,0,.2.01.29.02.1,0,.19,0,.29.01.39.05.78.1,1.17.16.29.05.59.1.88.14.04,0,.09.02.14.02.51.12,1.02.24,1.52.36,2.13.5,4.26,1,6.39,1.5,1.15.36,2.31.7,3.44,1.09,1.07.37,2.13.79,3.18,1.22,1.27.52,2.55,1.03,3.79,1.62.85.4,1.7.85,2.42,1.45,1.02.85,1.6,2.04,1.94,3.33.34,1.28.11,2.53-.34,3.7-.44,1.15-1.25,2.09-2.28,2.83-.88.63-1.85.89-2.89,1.03-1.48.2-2.79-.21-4.08-.88-1.11-.57-2.28-1.05-3.46-1.49-1.65-.62-3.3-1.23-4.98-1.72-1.66-.48-3.37-.81-5.06-1.21-.4-.09-.8-.18-1.2-.27l-1.61-.17s-.09-.01-.14-.01c-.25-.04-.49-.09-.74-.13h-.07s-.07,0-.07,0l-.74-.13-.43-.02c-.39-.04-.78-.09-1.18-.13l-1.02-.13c-.39-.04-.78-.08-1.17-.12-.44-.01-.88-.02-1.32-.04-.1-.18-.19-.18-.29,0-1.12,0-2.24,0-3.37,0-.15-.2-.3-.2-.44,0-.44.04-.88.09-1.32.13-.34,0-.68.01-1.02.02-.39.04-.78.09-1.17.13-.24,0-.49.01-.73.02-.63.09-1.27.19-1.9.28-.85.06-1.7.09-2.51.43h-.06s-.06,0-.06,0c-.39.09-.79.18-1.18.27l-.72.05c-.64.18-1.27.36-1.91.54-.05,0-.09,0-.14.02-.4.08-.81.12-1.19.25-1.96.65-3.93,1.3-5.88,1.99-.74.26-1.44.65-2.16.98-.2.09-.39.19-.59.28-.24.1-.49.21-.73.31-.15.09-.3.18-.45.27-.16.05-.33.07-.48.14-2.21,1.05-4.31,2.29-6.35,3.63-1.43.94-2.8,1.98-4.15,3.02-.42.32-.95.57-1.16,1.13h0c-.49.16-.87.46-1.16.89,0,0,0,0,0,0-.44.39-.88.78-1.31,1.17-.05.05-.1.09-.15.14-.78.78-1.56,1.56-2.35,2.35l-.14.14c-.6.49-1.15,1.02-1.47,1.75h0c-.16.1-.36.16-.47.3-.93,1.15-1.85,2.3-2.75,3.47-.24.32-.41.7-.61,1.05-.09.1-.18.2-.27.3-.24.3-.51.58-.71.9-1.07,1.76-2.13,3.52-3.15,5.3-.42.73-.73,1.53-1.09,2.29-.06.14-.11.29-.17.43-.24.54-.48,1.08-.72,1.62-.01.04-.02.08-.02.13l-.55,1.19c-.1.24-.2.49-.29.73-.13.32-.3.63-.39.96-.04.15.04.35.06.52,0,.03,0,.06.02.08-.29,0-.39.17-.47.43-.31,1.1-.64,2.19-.97,3.28,0,.09-.02.19-.03.28-.43.93-.61,1.93-.72,2.94-.05.19-.1.39-.15.58-.27.81-.44,1.63-.44,2.49,0,.04-.01.09-.01.13-.04.15-.08.3-.12.45l-.28,1.76c-.04.34-.09.68-.13,1.02,0,.15-.01.29-.02.44,0,.24-.01.49-.02.73-.04.29-.08.59-.12.88,0,.15,0,.29,0,.44-.04.78-.09,1.56-.13,2.34,0,.15,0,.29-.01.44,0,.63,0,1.27,0,1.9,0,.19,0,.39.01.58.09,1.27.18,2.54.27,3.81,0,.2,0,.39.01.59,0,.2.01.39.02.59.04.29.08.59.13.88.05.34.1.68.14,1.02.04.15.08.3.12.45,0,.05,0,.09.01.14.17,1.07.31,2.15.52,3.21.16.8.41,1.57.63,2.36.06.39.12.77.18,1.16,0,.15,0,.29.01.44-.06.73-.13,1.46-.19,2.19-.39.73-.78,1.46-1.17,2.19-.53.42-1.03.89-1.59,1.26-.85.56-1.78.93-2.83.96-.93.02-1.84-.03-2.73-.31-.1-.07-.18-.16-.29-.2-1.07-.35-1.9-1.03-2.52-1.95-.36-.54-.66-1.11-.99-1.67l-.03-.28c-.14-.6-.28-1.2-.42-1.8-.23-.96-.47-1.93-.7-2.89,0-.09-.02-.19-.02-.28-.05-.24-.1-.49-.14-.73-.04-.2-.09-.39-.13-.59-.06-.66-.1-1.33-.19-1.99-.05-.41-.17-.82-.26-1.23-.05-.53-.11-1.07-.16-1.6l-.02-.73c-.04-.24-.08-.49-.12-.73,0-.29-.01-.59-.02-.88,0-.34-.02-.68-.02-1.03-.04-.78-.08-1.56-.12-2.34,0-1.02,0-2.05,0-3.07.04-.73.08-1.46.11-2.19,0-.34.02-.68.02-1.03,0-.29.01-.59.02-.88.04-.24.08-.49.12-.73,0-.24.02-.49.02-.73Z"/>
      <path class="cls-6" d="m186.04,51.06c-.08-4.02,3.23-7.16,7.02-7.15,4.11,0,7.14,3.13,7.16,7.12.02,3.95-3.18,7.06-7.1,7.08-3.83.02-7.16-3.24-7.08-7.04Z"/>
      <path class="cls-9" d="m242.67,185.83c3.8-.14,7.11,3.03,7.19,6.92.07,4.02-3.07,7.22-7,7.26-4.07.04-7.11-3.18-7.2-7-.08-3.87,3.2-7.23,7.01-7.17Z"/>
      <path class="cls-7" d="m282.35,199.18c.24-.24.48-.21.73-.02-.24.21-.48.19-.73.02Z"/>
      <path class="cls-7" d="m16.83,199.16c.25-.19.5-.22.73.02-.25.16-.49.19-.73-.02Z"/>
      <path class="cls-2" d="m147.1,39.95s0,.1,0,.15c-.14-.05-.29-.09-.43-.14.14-.2.29-.2.44,0Z"/>
      <path class="cls-1" d="m224.83,199.18c.14-.21.28-.2.44-.02-.14.19-.28.18-.44.02Z"/>
      <path class="cls-1" d="m284.99.31c-.1-.01-.2-.02-.29-.04.1.01.2.02.29.04Z"/>
      <path class="cls-2" d="m150.47,40.09s0-.1,0-.14c.1-.18.2-.17.29,0-.1.05-.19.09-.29.14Z"/>
      <path class="cls-1" d="m287.95,1.11c-.12-.05-.25-.1-.37-.16.12.05.25.1.37.16Z"/>
      <path class="cls-5" d="m129.69,133.01c-.01-.05-.02-.11-.03-.16.11.01.21.02.32.04-.1.04-.19.08-.29.12Z"/>
      <path class="cls-1" d="m299.49,14.78l-.08-.34c.13.09.3.17.08.34Z"/>
      <path class="cls-5" d="m130.88,132.86c-.01.05-.02.1-.03.15l-.29-.12c.11-.01.21-.02.32-.03Z"/>
      <path class="cls-5" d="m128.94,132.89s0,.08,0,.11c-.04,0-.07,0-.11,0,.04-.04.08-.08.11-.12Z"/>
      <path class="cls-5" d="m129.24,132.77c-.09.03-.19.06-.28.1-.05-.08-.11-.16-.16-.24.15.05.29.09.44.14Z"/>
      <circle class="cls-9" cx="30.52" cy="30.95" r="6.95"/>
      <circle class="cls-9" cx="50.67" cy="30.95" r="6.95"/>
      <circle class="cls-9" cx="70.81" cy="30.95" r="6.95"/>
    </g>
  </g>
</svg>