<svg width="16" height="16" viewBox="0 0 16 16" fill="currentColor" xmlns="http://www.w3.org/2000/svg">
<path d="M0.666748 13.3332V11.4665C0.666748 11.0887 0.76397 10.7415 0.958415 10.4248C1.15286 10.1082 1.41119 9.8665 1.73341 9.69984C2.4223 9.35539 3.1223 9.09706 3.83341 8.92484C4.54453 8.75261 5.26675 8.6665 6.00008 8.6665C6.73342 8.6665 7.45564 8.75261 8.16675 8.92484C8.87786 9.09706 9.57786 9.35539 10.2667 9.69984C10.589 9.8665 10.8473 10.1082 11.0417 10.4248C11.2362 10.7415 11.3334 11.0887 11.3334 11.4665V13.3332H0.666748ZM12.6667 13.3332V11.3332C12.6667 10.8443 12.5306 10.3748 12.2584 9.92484C11.9862 9.47484 11.6001 9.08873 11.1001 8.7665C11.6667 8.83317 12.2001 8.94706 12.7001 9.10817C13.2001 9.26928 13.6667 9.4665 14.1001 9.69984C14.5001 9.92206 14.8056 10.1693 15.0167 10.4415C15.2279 10.7137 15.3334 11.0109 15.3334 11.3332V13.3332H12.6667ZM6.00008 7.99984C5.26675 7.99984 4.63897 7.73873 4.11675 7.2165C3.59453 6.69428 3.33341 6.0665 3.33341 5.33317C3.33341 4.59984 3.59453 3.97206 4.11675 3.44984C4.63897 2.92761 5.26675 2.6665 6.00008 2.6665C6.73342 2.6665 7.36119 2.92761 7.88342 3.44984C8.40564 3.97206 8.66675 4.59984 8.66675 5.33317C8.66675 6.0665 8.40564 6.69428 7.88342 7.2165C7.36119 7.73873 6.73342 7.99984 6.00008 7.99984ZM12.6667 5.33317C12.6667 6.0665 12.4056 6.69428 11.8834 7.2165C11.3612 7.73873 10.7334 7.99984 10.0001 7.99984C9.87786 7.99984 9.7223 7.98595 9.53341 7.95817C9.34453 7.93039 9.18897 7.89984 9.06675 7.8665C9.36675 7.51095 9.5973 7.1165 9.75842 6.68317C9.91953 6.24984 10.0001 5.79984 10.0001 5.33317C10.0001 4.8665 9.91953 4.4165 9.75842 3.98317C9.5973 3.54984 9.36675 3.15539 9.06675 2.79984C9.2223 2.74428 9.37786 2.70817 9.53341 2.6915C9.68897 2.67484 9.84453 2.6665 10.0001 2.6665C10.7334 2.6665 11.3612 2.92761 11.8834 3.44984C12.4056 3.97206 12.6667 4.59984 12.6667 5.33317ZM2.00008 11.9998H10.0001V11.4665C10.0001 11.3443 9.96953 11.2332 9.90841 11.1332C9.8473 11.0332 9.76675 10.9554 9.66675 10.8998C9.06675 10.5998 8.46119 10.3748 7.85008 10.2248C7.23897 10.0748 6.6223 9.99984 6.00008 9.99984C5.37786 9.99984 4.76119 10.0748 4.15008 10.2248C3.53897 10.3748 2.93341 10.5998 2.33341 10.8998C2.23341 10.9554 2.15286 11.0332 2.09175 11.1332C2.03064 11.2332 2.00008 11.3443 2.00008 11.4665V11.9998ZM6.00008 6.6665C6.36675 6.6665 6.68064 6.53595 6.94175 6.27484C7.20286 6.01373 7.33342 5.69984 7.33342 5.33317C7.33342 4.9665 7.20286 4.65261 6.94175 4.3915C6.68064 4.13039 6.36675 3.99984 6.00008 3.99984C5.63341 3.99984 5.31953 4.13039 5.05841 4.3915C4.7973 4.65261 4.66675 4.9665 4.66675 5.33317C4.66675 5.69984 4.7973 6.01373 5.05841 6.27484C5.31953 6.53595 5.63341 6.6665 6.00008 6.6665Z" fill="#5F6368"/>
</svg>
