<svg width="15" height="15" viewBox="0 0 15 15" fill="currentColor" xmlns="http://www.w3.org/2000/svg">
<g clip-path="url(#clip0_4_21)">
<path d="M0.75 14.25H14.25" stroke="currentColor" stroke-width="2" stroke-linecap="square"/>
<path d="M6.96966 10.7803C7.26256 11.0732 7.73745 11.0732 8.03035 10.7803L11.5607 6.81065C11.8536 6.51775 11.8536 6.0429 11.5607 5.75C11.2678 5.4571 10.7929 5.4571 10.5 5.75L7.5 9.18934L4.5 5.75C4.2071 5.4571 3.73225 5.4571 3.43935 5.75C3.14645 6.0429 3.14645 6.51775 3.43935 6.81065L6.96966 10.7803ZM6.75 0.25L6.75 10.25H8.25L8.25 0.25H6.75Z" fill="currentColor"/>
<path d="M0.75 12.75V13.125" stroke="currentColor" stroke-width="3" stroke-linecap="square"/>
<path d="M14.25 12.75V13.25" stroke="currentColor" stroke-width="3" stroke-linecap="square"/>
</g>
<defs>
<clipPath id="clip0_4_21">
<rect width="15" height="15" fill="white"/>
</clipPath>
</defs>
</svg>
