<?xml version="1.0" encoding="UTF-8"?>
<svg id="Layer_2" data-name="Layer 2" xmlns="http://www.w3.org/2000/svg" viewBox="0 0 325.66 200">
  <defs>
    <style>
      .cls-1 {
        fill: #3cd897;
      }

      .cls-2 {
        fill: #adcafd;
      }

      .cls-3 {
        fill: #9fc1fc;
      }

      .cls-4 {
        fill: #83affb;
      }

      .cls-5 {
        fill: #dc9af8;
      }

      .cls-6 {
        fill: #4385fa;
      }
    </style>
  </defs>
  <g id="Layer_1-2" data-name="Layer 1">
    <g id="Help_Center" data-name="Help Center">
      <path class="cls-1" d="m325.66,102.28c-.05.11-.13.22-.14.34-.49,3.99-2.39,7.18-5.63,9.52-1.19.86-2.51,1.55-3.8,2.28-5.07,2.89-10.14,5.77-15.22,8.65-1.98,1.12-3.9,2.37-5.97,3.26-5.08,2.19-9.89,1.53-14.32-1.81-1.68-1.27-2.86-2.94-3.87-4.76-.97-1.76-1.97-3.5-2.96-5.24-.1-.18-.25-.33-.37-.5-.08-.19-.14-.4-.24-.58-1.4-2.47-2.81-4.94-4.22-7.41-.51-.89-1.03-1.77-1.55-2.65-.27-.51-.54-1.03-.82-1.53-1.88-3.34-3.77-6.67-5.66-10-2.34-4.11-4.68-8.22-7.02-12.33-2.32-4.09-4.63-8.19-6.96-12.28-3.51-6.18-7.03-12.36-10.55-18.53-.12-.21-.35-.36-.52-.54.05-.64-.4-1.07-.67-1.56-1.41-2.52-2.84-5.04-4.27-7.56-.3-.52-.65-1.01-.97-1.52-.35-.67-.7-1.35-1.05-2.02-.68-1.31-1.44-2.59-2.02-3.94-.97-2.26-1.11-4.66-.75-7.08.56-3.77,2.44-6.77,5.47-9.04.86-.65,1.83-1.16,2.77-1.7,4.36-2.49,8.73-4.96,13.1-7.44,2.74-1.55,5.47-3.11,8.22-4.64,1.63-.91,3.39-1.41,5.26-1.6,3.47-.37,6.61.5,9.44,2.46,1.72,1.19,3.07,2.74,4.1,4.56,2.84,5.01,5.69,10.01,8.54,15.02,2.3,4.04,4.59,8.09,6.89,12.13,3,5.28,6.02,10.56,9.02,15.84,2.18,3.84,4.34,7.68,6.52,11.52,2.26,3.97,4.53,7.94,6.79,11.91,2.14,3.77,4.27,7.54,6.41,11.31,1.67,2.94,3.34,5.88,5.02,8.82,1,1.76,1.76,3.6,1.9,5.65,0,.09.09.18.13.26,0,.9,0,1.8,0,2.7ZM237.96,26.62c.13.34.22.7.4,1.01,1.93,3.43,3.86,6.86,5.81,10.28,2.52,4.43,5.05,8.86,7.57,13.29,2.34,4.11,4.66,8.23,7,12.34,2.43,4.27,4.86,8.54,7.29,12.81,2.42,4.25,4.83,8.5,7.24,12.75,1.85,3.26,3.7,6.53,5.55,9.79,2.43,4.27,4.85,8.55,7.28,12.82.53.94,1.05,1.89,1.62,2.82.56.92,1.43,1.15,2.38.67.66-.33,1.3-.71,1.94-1.07,3.68-2.09,7.35-4.18,11.03-6.27,3.15-1.79,6.3-3.57,9.44-5.37.99-.57,1.27-1.5.73-2.49-.78-1.44-1.59-2.86-2.4-4.29-2.81-4.94-5.62-9.87-8.43-14.81-2.12-3.72-4.24-7.44-6.35-11.16-2.29-4.02-4.57-8.04-6.85-12.06-1.92-3.38-3.82-6.76-5.74-10.14-2.82-4.96-5.64-9.92-8.46-14.88-2.44-4.29-4.89-8.59-7.32-12.89-1.21-2.14-2.42-4.28-3.63-6.41-.75-1.31-1.63-1.57-2.89-.86-1.68.95-3.36,1.91-5.03,2.86-3.63,2.06-7.26,4.12-10.89,6.18-2.07,1.17-4.14,2.34-6.21,3.52-.58.33-.97.81-1.05,1.55Z"/>
      <path class="cls-5" d="m50.24,118.16c-.17.14-.39.26-.5.44-.49.81-.92,1.66-1.41,2.47-1.62,2.65-3.88,4.53-6.75,5.71-2.1.86-4.28,1.08-6.5.92-2.16-.15-4.14-.92-6-2-1.69-.98-3.38-1.94-5.07-2.9-1.81-1.03-3.61-2.06-5.42-3.09-1.72-.97-3.44-1.94-5.16-2.91-2.36-1.34-4.75-2.62-7.06-4.03-1.8-1.1-3.2-2.63-4.31-4.43-.94-1.52-1.48-3.18-1.86-4.9-.07-.3-.01-.63-.04-.95-.02-.17-.1-.33-.15-.5,0-.58,0-1.17,0-1.75.05-.14.14-.28.15-.42.06-1.49.4-2.92,1.08-4.24.96-1.87,2-3.7,3.02-5.54.79-1.43,1.61-2.84,2.42-4.26,1.03-1.81,2.07-3.61,3.09-5.42.99-1.74,1.96-3.49,2.95-5.23,1.24-2.17,2.48-4.34,3.72-6.52.98-1.72,1.94-3.44,2.92-5.16,1.26-2.22,2.54-4.44,3.8-6.66.99-1.74,1.95-3.49,2.94-5.23,1.24-2.18,2.49-4.34,3.73-6.51.98-1.72,1.94-3.44,2.92-5.16,1.25-2.2,2.51-4.39,3.76-6.59.99-1.74,1.96-3.49,2.95-5.23,1.24-2.18,2.49-4.34,3.73-6.52.96-1.69,1.91-3.39,2.88-5.09,1-1.76,2.02-3.51,3.03-5.28.79-1.4,1.55-2.82,2.36-4.2,1.29-2.21,3.08-3.91,5.35-5.13,1.41-.76,2.9-1.29,4.46-1.52,1.07-.16,2.17-.25,3.29-.11,1.56.19,3.06.5,4.47,1.16,1.21.57,2.38,1.23,3.55,1.89,1.68.94,3.34,1.91,5.01,2.86,2.2,1.25,4.39,2.51,6.59,3.75,1.74.99,3.5,1.94,5.23,2.95,1.7.99,3.5,1.84,5.07,3.06,1.36,1.05,2.44,2.32,3.34,3.76,1.02,1.63,1.65,3.42,1.87,5.31.23,1.9.1,3.8-.41,5.68-.53,1.94-1.61,3.59-2.57,5.31-.16.29-.22.63-.32.94-.19.2-.43.38-.57.62-.57.98-1.11,1.97-1.67,2.96-.96,1.69-1.94,3.38-2.89,5.08-.34.61-.61,1.26-.92,1.89-.11.11-.24.21-.32.34-.59,1-1.17,2-1.74,3.01-.99,1.74-1.96,3.49-2.95,5.23-1.25,2.2-2.5,4.39-3.75,6.58-.98,1.72-1.94,3.44-2.91,5.16-1.43,2.51-2.88,5.02-4.31,7.54-1.21,2.13-2.39,4.27-3.61,6.4-1.64,2.88-3.3,5.75-4.94,8.63-1.27,2.24-2.52,4.5-3.79,6.75-1.64,2.88-3.3,5.75-4.94,8.63-.34.59-.62,1.21-.93,1.82-.34.53-.69,1.05-1.01,1.59-1.51,2.62-3.01,5.24-4.49,7.88-.2.35-.27.78-.39,1.17Zm-38.09-17.13c0,.72.3,1.22.86,1.56.74.45,1.51.86,2.27,1.29,1.74.98,3.49,1.96,5.23,2.95,1.72.98,3.43,1.96,5.15,2.94,1.35.77,2.71,1.53,4.06,2.29,1.93,1.09,3.86,2.16,5.77,3.28,1.16.67,2.09.11,2.58-.79.73-1.34,1.49-2.67,2.25-3.99,1.25-2.2,2.5-4.39,3.75-6.59.77-1.35,1.53-2.71,2.29-4.06,1.24-2.17,2.48-4.34,3.72-6.52.77-1.35,1.52-2.71,2.28-4.06,1-1.76,2.02-3.51,3.02-5.28.96-1.69,1.92-3.39,2.88-5.09,1.25-2.2,2.51-4.39,3.76-6.59.99-1.74,1.97-3.48,2.96-5.22,1.2-2.1,2.41-4.2,3.6-6.31,1.01-1.79,2.01-3.58,3.03-5.37,1.25-2.2,2.51-4.39,3.76-6.59.98-1.72,1.94-3.44,2.91-5.16,1.26-2.22,2.53-4.44,3.8-6.66.8-1.4,1.6-2.79,2.4-4.18.96-1.69,1.92-3.39,2.88-5.09.58-1.02.21-2.04-.73-2.57-2-1.13-3.99-2.26-5.99-3.39-2.25-1.27-4.51-2.51-6.76-3.79-3.21-1.82-6.4-3.67-9.6-5.5-.2-.11-.44-.17-.67-.19-.94-.1-1.52.37-1.95,1.17-.95,1.73-1.94,3.44-2.91,5.16-1.3,2.29-2.6,4.58-3.9,6.87-.78,1.37-1.55,2.76-2.33,4.13-1.17,2.06-2.36,4.11-3.54,6.17-.99,1.74-1.96,3.49-2.95,5.23-1.22,2.15-2.46,4.29-3.69,6.45-1,1.76-1.98,3.54-2.98,5.3-1.24,2.18-2.49,4.34-3.73,6.51-.99,1.74-1.96,3.49-2.95,5.23-1.24,2.17-2.49,4.34-3.73,6.51-.99,1.74-1.96,3.49-2.94,5.23-1.26,2.22-2.53,4.44-3.79,6.66-.98,1.72-1.94,3.44-2.92,5.16-1.24,2.17-2.48,4.34-3.72,6.52-1.02,1.78-2.04,3.57-3.04,5.36-.17.31-.26.67-.39,1Z"/>
      <path class="cls-4" d="m135.32,200c0-.05,0-.11,0-.16,1.54,0,3.07,0,4.61,0,0,.05,0,.11,0,.16h-4.61Z"/>
      <path class="cls-6" d="m139.93,199.84c-1.54,0-3.07,0-4.61,0-2.09-.29-4.08-.88-5.9-1.95-1.73-1.02-3.48-2.03-4.97-3.4-.83-.77-1.57-1.64-2.35-2.46-.11-.11-.21-.23-.35-.38-.35.19-.7.37-1.04.57-1.69,1.03-3.52,1.7-5.46,2.05-4.31.79-8.37.07-12.11-2.22-1.91-1.17-3.82-2.36-5.39-4.02-2.1-2.22-3.55-4.78-4.27-7.75-.13-.54-.25-1.08-.39-1.67-.53-.06-1.1-.14-1.67-.2-3.14-.29-5.88-1.58-8.46-3.32-1.45-.98-2.89-1.96-4.08-3.26-2.31-2.52-3.81-5.43-4.35-8.82-.25-1.54-.37-3.09-.16-4.65.18-.09.2-.2.02-.32.2-1.63.66-3.18,1.3-4.75-.39-.13-.74-.24-1.08-.36-1.4-.5-2.7-1.19-3.95-2-1.62-1.06-3.25-2.09-4.59-3.5-2.44-2.56-3.97-5.55-4.58-9.04-.68-3.84,0-7.45,1.74-10.89.17-.33.36-.65.54-.96.17-.29.35-.57.58-.93-4.76-2.51-9.45-4.99-14.13-7.47.13-.39.2-.82.39-1.17,1.48-2.64,2.98-5.26,4.49-7.88.31-.54.67-1.06,1.01-1.59,4.97,2.63,9.93,5.26,14.85,7.87.15-.09.21-.11.23-.15.2-.28.38-.57.58-.85,2.01-2.84,4.64-4.9,7.9-6.14,2.25-.85,4.57-1.22,6.98-1.09,1.27.07,2.52.27,3.74.6,1.77.48,3.4,1.29,4.94,2.29,1.89,1.23,3.77,2.45,5.25,4.19.32.38.64.76.97,1.14.14-.06.24-.1.33-.15.78-.45,1.53-.95,2.34-1.34,2.72-1.31,5.59-1.84,8.61-1.63,2,.14,3.9.62,5.73,1.43,1.73.77,3.28,1.83,4.82,2.9,3.21,2.24,5.41,5.24,6.53,9,.26.85.46,1.72.68,2.59.4.05.76.12,1.13.14,1.63.06,3.18.48,4.7,1.04,1.75.65,3.28,1.7,4.83,2.7,1.39.89,2.65,1.92,3.75,3.14,2.42,2.67,3.84,5.82,4.25,9.37.32,2.78.06,5.54-1.03,8.17-.15.35-.26.72-.41,1.14,1.99.58,3.72,1.52,5.38,2.62,1.48.98,2.97,1.95,4.19,3.25,2.05,2.18,3.49,4.7,4.21,7.61.45,1.83.71,3.68.47,5.57-.09.73-.16,1.46-.23,2.17.28.17.5.32.73.44,2.27,1.25,4.54,2.5,6.81,3.75,3.54,1.95,7.07,3.93,10.63,5.85,1.9,1.03,3.86.99,5.75-.08,2.03-1.14,3.12-2.89,3.16-5.23.04-2.4-1.02-4.23-3.09-5.43-2.01-1.16-4.06-2.26-6.1-3.39-3.59-1.98-7.18-3.95-10.76-5.95-2.96-1.66-3.81-5.35-2.31-8.13,1.63-3.03,5.4-4.06,8.42-2.37,2.65,1.49,5.31,2.96,7.97,4.43,4.97,2.75,9.95,5.5,14.92,8.25,3.15,1.74,7.09.42,8.56-2.85,1.22-2.72.4-6.16-2.6-7.88-1.38-.79-2.76-1.56-4.15-2.33-4.28-2.37-8.56-4.74-12.83-7.11-1.94-1.08-3.93-2.09-5.81-3.26-2.29-1.42-3.19-3.8-2.66-6.31.84-4.02,5.22-6.03,8.77-4.11,2.74,1.48,5.47,2.99,8.2,4.5,4.84,2.67,9.67,5.35,14.5,8.03,2.73,1.51,5.46,3.02,8.18,4.54,1.18.66,2.42,1.03,3.79.94,1.76-.12,3.22-.85,4.31-2.21,2.4-2.98,1.38-7.29-1.66-8.99-.67-.37-1.32-.77-1.99-1.14-4.32-2.4-8.65-4.8-12.97-7.19-5.76-3.18-11.53-6.35-17.29-9.54-2.41-1.33-3.55-3.36-3.29-6.14.17-1.78,1-3.18,2.42-4.18,2.24-1.58,4.57-1.52,6.94-.2,5.06,2.82,10.12,5.62,15.19,8.42,5.76,3.18,11.53,6.35,17.29,9.53,2.73,1.51,5.45,3.03,8.18,4.55,1.77.98,3.59,1.18,5.49.39,2.4-1,3.92-3.3,3.8-5.87-.11-2.3-1.2-4.07-3.24-5.21-4.85-2.7-9.71-5.38-14.57-8.07-3.4-1.88-6.8-3.75-10.2-5.64-4.99-2.77-9.98-5.54-14.98-8.31-4.14-2.29-8.28-4.58-12.42-6.87-4.12-2.28-8.23-4.57-12.34-6.85-3.61-2-7.22-3.99-10.83-5.99-3.82-2.11-7.9-2.94-12.23-2.34-3.29.46-5.97,2.02-7.99,4.68-2.45,3.23-5.05,6.32-8.1,9.01-2.01,1.78-4.16,3.34-6.55,4.57-2.63,1.35-5.4,2.23-8.35,2.58-2.5.3-4.98.23-7.42-.26-2.01-.4-3.98-1.03-5.93-1.68-2.79-.93-5.31-2.38-7.41-4.47-4.81-4.78-6.85-10.52-5.94-17.28.41-3.07,1.56-5.85,3.29-8.39,2.17-3.19,4.36-6.37,6.53-9.56.17-.25.32-.51.51-.82-1.6-.85-3.12-1.66-4.63-2.46-2.54-1.35-5.09-2.7-7.64-4.05-2.52-1.33-5.05-2.66-7.58-3.98.3-.63.57-1.28.92-1.89.95-1.7,1.93-3.38,2.89-5.08.56-.98,1.1-1.98,1.67-2.96.14-.24.38-.41.57-.62,5.86,3.1,11.73,6.2,17.59,9.3.98.52,1.95,1.06,2.93,1.58.54.29.57.26.98-.22,1.61-1.93,3.17-3.9,4.85-5.76,2.12-2.35,4.66-4.22,7.37-5.84,4.18-2.5,8.68-4.21,13.34-5.57,3.6-1.05,7.27-1.78,10.96-2.43,1.12-.2,2.24-.33,3.37-.49.11,0,.21-.02.32-.03,2.28-.25,4.56-.51,6.85-.75.71-.08,1.42-.12,2.13-.15,1.61-.08,3.22-.18,4.84-.21,3.7-.06,7.41-.18,11.11-.1,2.1.04,4.21.36,6.29.66,2.61.38,5.17,1.04,7.67,1.88,2.07.69,4.14,1.45,6.15,2.3,3.79,1.61,7.54,3.33,11.31,4.97,2.42,1.06,4.92,1.91,7.54,2.32,1.86.29,3.74.26,5.59-.18.79-.19,1.58-.42,2.37-.63.33.5.68,1,.97,1.52,1.43,2.51,2.86,5.03,4.27,7.56.28.49.73.92.67,1.56-2.91,1.24-5.91,2.07-9.07,2.35-2.02.18-4.02.14-6.01-.11-3.15-.4-6.21-1.22-9.14-2.46-3.45-1.45-6.88-2.97-10.31-4.49-3.99-1.77-8.02-3.38-12.3-4.3-2.25-.48-4.53-.83-6.82-.88-2.78-.06-5.56.06-8.33.09-3.94.05-7.87.32-11.78.81-2.46.31-4.93.6-7.37,1.03-2.96.52-5.89,1.2-8.77,2.08-3.22.98-6.34,2.18-9.26,3.87-1.73,1-3.39,2.1-4.73,3.57-1.74,1.91-3.42,3.9-5,5.95-4.9,6.37-9.46,12.99-13.91,19.68-2.66,4-1.06,9.44,3.37,11.3,1.6.67,3.28,1.19,4.97,1.55,1.87.4,3.78.34,5.64-.25,1.68-.53,3.2-1.36,4.62-2.4,2.73-2.01,4.93-4.54,7.05-7.16.96-1.19,1.87-2.44,2.91-3.56,3.1-3.33,6.89-5.53,11.28-6.73,2.34-.64,4.72-.87,7.13-.93,1.26-.03,2.53.14,3.79.27,3.15.31,6.19,1.11,9.05,2.44,2.25,1.04,4.41,2.28,6.58,3.47,4.86,2.67,9.71,5.38,14.57,8.07,6.43,3.56,12.86,7.12,19.28,10.67,4.21,2.33,8.42,4.65,12.63,6.98,6.22,3.44,12.44,6.89,18.65,10.34,2.75,1.53,5.49,3.06,8.32,4.64,4.79-3.54,9.64-7.12,14.48-10.7.52.88,1.04,1.76,1.55,2.65,1.41,2.47,2.82,4.94,4.22,7.41.1.18.16.38.24.58-2.38,1.76-4.75,3.53-7.13,5.29-1.98,1.46-3.96,2.92-5.95,4.37-.41.29-.45.58-.34,1.07,1.37,6.17,0,11.67-4.15,16.45-2.78,3.19-6.34,5.05-10.46,5.83-1.85.35-3.73.32-5.67.1-.62,5.04-2.78,9.28-6.78,12.46-4,3.17-8.59,4.38-13.7,3.85-.5,4.69-2.39,8.67-5.82,11.85-3.42,3.17-7.51,4.72-12.21,4.88-.05.28-.12.56-.14.84-.58,6.75-3.91,11.72-9.82,14.94-2.74,1.49-5.73,2.08-8.87,2.01-3.14-.07-6.03-.95-8.75-2.46-2.87-1.59-5.73-3.18-8.6-4.76-2.75-1.52-5.51-3.04-8.26-4.56-.16-.09-.33-.15-.58-.27-.55.83-1.07,1.64-1.61,2.44-1.15,1.71-2.22,3.48-3.46,5.12-2.06,2.73-4.78,4.61-8.05,5.64-1,.31-2.05.49-3.07.74Zm-28.22-75.49c-1.84-.02-3.33.8-4.37,2.41-1.7,2.61-3.39,5.23-5.1,7.84-3.12,4.77-6.26,9.54-9.39,14.31-1.85,2.83-3.7,5.66-5.56,8.48-.57.87-.92,1.83-.87,2.83.07,1.66.75,3.06,2.18,4.02.7.47,1.4.94,2.12,1.39,2.2,1.4,4.96.87,6.49-1.05.34-.43.62-.92.93-1.38,3-4.57,6.01-9.13,9.01-13.71,2.13-3.25,4.24-6.5,6.36-9.75,1.47-2.26,2.98-4.49,4.41-6.77,1.42-2.26.45-5.06-1.28-6.29-.78-.55-1.59-1.05-2.37-1.58-.77-.52-1.62-.76-2.54-.75Zm25.53,22.4c0-1.7-.63-3.06-1.88-4-.8-.6-1.66-1.13-2.5-1.67-2.12-1.36-5.23-.76-6.64,1.47-.49.78-1.03,1.54-1.53,2.31-3.63,5.55-7.25,11.11-10.89,16.66-2.62,4-5.25,8-7.88,11.99-1.54,2.35-.8,5.16,1.27,6.69.72.53,1.5.99,2.25,1.48,2.37,1.55,5.5.56,6.81-1.54,1.89-3.05,3.89-6.04,5.86-9.05,2.29-3.52,4.59-7.04,6.89-10.55,2.43-3.69,4.87-7.36,7.31-11.04.58-.88.95-1.82.92-2.74Zm-63.81-11.44c0,1.97.72,3.33,2.16,4.31.63.43,1.3.82,1.91,1.27,1.93,1.41,5.35,1.18,6.98-1.37,2.45-3.83,4.97-7.61,7.45-11.41,1.13-1.74,1.09-3.8-.13-5.42-1.18-1.56-2.87-2.62-4.71-3.21-2.18-.7-4.24.18-5.5,2.1-2.46,3.73-4.9,7.46-7.35,11.19-.55.84-.88,1.74-.81,2.54Zm76.54,36.46c0-1.54-.26-2.35-1.22-3.44-.94-1.07-2.2-1.72-3.41-2.42-2.13-1.23-5.08-.39-6.35,1.64-2.43,3.84-4.93,7.64-7.46,11.41-1.56,2.32-.76,5.36,1.38,6.77.68.45,1.36.92,2.06,1.35,1.73,1.07,3.49,1.06,5.25.07.83-.47,1.38-1.21,1.89-1.99,2.35-3.61,4.71-7.21,7.07-10.82.53-.82.87-1.69.81-2.57Z"/>
      <path class="cls-2" d="m158.06,27.43c-.11,0-.21.02-.32.03.11,0,.21-.02.32-.03Z"/>
      <path class="cls-3" d="m74.42,158.05c.17.12.16.22-.02.32,0-.11.01-.21.02-.32Z"/>
    </g>
  </g>
</svg>