<svg width="11" height="11" viewBox="0 0 11 11" fill="none" xmlns="http://www.w3.org/2000/svg">
<path fill-rule="evenodd" clip-rule="evenodd" d="M5.5 10.0833C8.03131 10.0833 10.0833 8.03131 10.0833 5.5C10.0833 2.96869 8.03131 0.916667 5.5 0.916667C2.96869 0.916667 0.916667 2.96869 0.916667 5.5C0.916667 8.03131 2.96869 10.0833 5.5 10.0833ZM5.5 11C8.53757 11 11 8.53757 11 5.5C11 2.46243 8.53757 0 5.5 0C2.46243 0 0 2.46243 0 5.5C0 8.53757 2.46243 11 5.5 11ZM5 8V5H6V8H5ZM5 3V3.5H6V3H5Z" fill="#616161"/>
</svg>
