<?xml version="1.0" encoding="UTF-8"?>
<svg xmlns="http://www.w3.org/2000/svg" xmlns:xlink="http://www.w3.org/1999/xlink" width="14px" height="14px" viewBox="0 0 15 15" version="1.1">
<g id="surface1">
<path style=" stroke:none;fill-rule:evenodd;fill:rgb(5.490196%,38.823529%,61.176471%);fill-opacity:1;" d="M 6.503906 6.746094 L 14.566406 6.746094 L 14.566406 8.214844 L 7.96875 8.214844 L 7.96875 14.566406 L 6.503906 14.566406 Z M 6.503906 6.746094 "/>
<path style=" stroke:none;fill-rule:evenodd;fill:rgb(5.490196%,38.823529%,61.176471%);fill-opacity:1;" d="M 0.394531 0.394531 L 1.921875 0.394531 L 1.921875 1.859375 L 1.859375 1.859375 L 1.859375 1.921875 L 0.394531 1.921875 Z M 5.097656 1.859375 L 3.511719 1.859375 L 3.511719 0.394531 L 5.097656 0.394531 Z M 8.273438 1.859375 L 6.6875 1.859375 L 6.6875 0.394531 L 8.273438 0.394531 Z M 11.449219 1.859375 L 9.863281 1.859375 L 9.863281 0.394531 L 11.449219 0.394531 Z M 13.097656 1.859375 L 13.039062 1.859375 L 13.039062 0.394531 L 14.566406 0.394531 L 14.566406 2.105469 L 13.097656 2.105469 Z M 1.859375 3.511719 L 1.859375 5.097656 L 0.394531 5.097656 L 0.394531 3.511719 Z M 13.097656 5.035156 L 13.097656 4.058594 L 14.566406 4.058594 L 14.566406 5.035156 Z M 1.859375 6.6875 L 1.859375 8.273438 L 0.394531 8.273438 L 0.394531 6.6875 Z M 1.859375 9.863281 L 1.859375 11.449219 L 0.394531 11.449219 L 0.394531 9.863281 Z M 2.105469 14.566406 L 0.394531 14.566406 L 0.394531 13.039062 L 1.859375 13.039062 L 1.859375 13.097656 L 2.105469 13.097656 Z M 4.058594 13.097656 L 5.035156 13.097656 L 5.035156 14.566406 L 4.058594 14.566406 Z M 4.058594 13.097656 "/>
<path style=" stroke:none;fill-rule:evenodd;fill:rgb(5.490196%,38.823529%,61.176471%);fill-opacity:1;" d="M 13.570312 14.605469 L 7.460938 8.742188 L 8.476562 7.683594 L 14.585938 13.546875 Z M 13.570312 14.605469 "/>
</g>
</svg>
