<svg width="16" height="16" viewBox="0 0 16 16" fill="currentColor" xmlns="http://www.w3.org/2000/svg">
<path d="M8.00008 7.99984C7.26675 7.99984 6.63897 7.73873 6.11675 7.2165C5.59453 6.69428 5.33341 6.0665 5.33341 5.33317C5.33341 4.59984 5.59453 3.97206 6.11675 3.44984C6.63897 2.92762 7.26675 2.6665 8.00008 2.6665C8.73342 2.6665 9.36119 2.92762 9.88342 3.44984C10.4056 3.97206 10.6667 4.59984 10.6667 5.33317C10.6667 6.0665 10.4056 6.69428 9.88342 7.2165C9.36119 7.73873 8.73342 7.99984 8.00008 7.99984ZM2.66675 13.3332V11.4665C2.66675 11.0887 2.76397 10.7415 2.95841 10.4248C3.15286 10.1082 3.41119 9.8665 3.73341 9.69984C4.4223 9.35539 5.1223 9.09706 5.83341 8.92484C6.54453 8.75262 7.26675 8.6665 8.00008 8.6665C8.73342 8.6665 9.45564 8.75262 10.1667 8.92484C10.8779 9.09706 11.5779 9.35539 12.2667 9.69984C12.589 9.8665 12.8473 10.1082 13.0417 10.4248C13.2362 10.7415 13.3334 11.0887 13.3334 11.4665V13.3332H2.66675ZM4.00008 11.9998H12.0001V11.4665C12.0001 11.3443 11.9695 11.2332 11.9084 11.1332C11.8473 11.0332 11.7667 10.9554 11.6667 10.8998C11.0667 10.5998 10.4612 10.3748 9.85008 10.2248C9.23897 10.0748 8.6223 9.99984 8.00008 9.99984C7.37786 9.99984 6.76119 10.0748 6.15008 10.2248C5.53897 10.3748 4.93341 10.5998 4.33341 10.8998C4.23341 10.9554 4.15286 11.0332 4.09175 11.1332C4.03064 11.2332 4.00008 11.3443 4.00008 11.4665V11.9998ZM8.00008 6.6665C8.36675 6.6665 8.68064 6.53595 8.94175 6.27484C9.20286 6.01373 9.33342 5.69984 9.33342 5.33317C9.33342 4.9665 9.20286 4.65262 8.94175 4.3915C8.68064 4.13039 8.36675 3.99984 8.00008 3.99984C7.63341 3.99984 7.31953 4.13039 7.05841 4.3915C6.7973 4.65262 6.66675 4.9665 6.66675 5.33317C6.66675 5.69984 6.7973 6.01373 7.05841 6.27484C7.31953 6.53595 7.63341 6.6665 8.00008 6.6665Z" fill="#5F6368"/>
</svg>
