
<?xml version="1.0" encoding="UTF-8"?>
<svg xmlns="http://www.w3.org/2000/svg" xmlns:xlink="http://www.w3.org/1999/xlink" width="24px" height="24px" viewBox="0 0 24 24" version="1.1">
<defs>
<filter id="alpha" filterUnits="objectBoundingBox" x="0%" y="0%" width="100%" height="100%">
  <feColorMatrix type="matrix" in="SourceGraphic" values="0 0 0 0 1 0 0 0 0 1 0 0 0 0 1 0 0 0 1 0"/>
</filter>
<mask id="mask0">
  <g filter="url(#alpha)">
<rect x="0" y="0" width="24" height="24" style="fill:rgb(0%,0%,0%);fill-opacity:0.937255;stroke:none;"/>
  </g>
</mask>
<clipPath id="clip1">
  <rect x="0" y="0" width="24" height="24"/>
</clipPath>
<g id="surface5" clip-path="url(#clip1)">
<path style=" stroke:none;fill-rule:evenodd;fill:rgb(23.137255%,84.705883%,59.215689%);fill-opacity:1;" d="M 17.625 2.730469 C 17.625 3.195312 17.625 3.660156 17.625 4.125 C 16.582031 3.789062 15.546875 3.753906 14.519531 4.019531 C 13.742188 3.859375 12.957031 3.75 12.160156 3.695312 C 13.269531 3.179688 14.449219 2.910156 15.695312 2.894531 C 12.273438 1.601562 9.058594 1.996094 6.054688 4.070312 C 5.519531 4.214844 5.285156 4.015625 5.355469 3.480469 C 7.265625 1.910156 9.460938 1.160156 11.945312 1.230469 C 13.980469 1.207031 15.875 1.707031 17.625 2.730469 Z M 17.625 2.730469 "/>
</g>
<mask id="mask1">
  <g filter="url(#alpha)">
<rect x="0" y="0" width="24" height="24" style="fill:rgb(0%,0%,0%);fill-opacity:0.964706;stroke:none;"/>
  </g>
</mask>
<clipPath id="clip2">
  <rect x="0" y="0" width="24" height="24"/>
</clipPath>
<g id="surface8" clip-path="url(#clip2)">
<path style=" stroke:none;fill-rule:evenodd;fill:rgb(85.882354%,60.392159%,96.862745%);fill-opacity:1;" d="M 20.410156 5.195312 C 20.054688 5.371094 19.769531 5.621094 19.554688 5.945312 C 19.375 5.972656 19.214844 6.042969 19.070312 6.160156 C 18.101562 5.816406 17.617188 5.140625 17.625 4.125 C 17.625 3.660156 17.625 3.195312 17.625 2.730469 C 18.085938 2.523438 18.566406 2.347656 19.070312 2.195312 C 19.550781 2.355469 20.03125 2.5 20.519531 2.625 C 20.546875 3.488281 20.511719 4.34375 20.410156 5.195312 Z M 20.410156 5.195312 "/>
</g>
<mask id="mask2">
  <g filter="url(#alpha)">
<rect x="0" y="0" width="24" height="24" style="fill:rgb(0%,0%,0%);fill-opacity:0.992157;stroke:none;"/>
  </g>
</mask>
<clipPath id="clip3">
  <rect x="0" y="0" width="24" height="24"/>
</clipPath>
<g id="surface11" clip-path="url(#clip3)">
<path style=" stroke:none;fill-rule:evenodd;fill:rgb(25.882354%,52.156866%,97.647059%);fill-opacity:1;" d="M 12.160156 3.695312 C 12.957031 3.75 13.742188 3.859375 14.519531 4.019531 C 17.164062 4.984375 18.949219 6.808594 19.875 9.480469 C 19.386719 12.074219 18.171875 14.253906 16.230469 16.019531 C 15.171875 13.757812 13.386719 12.808594 10.875 13.179688 C 8.8125 13.773438 7.636719 15.132812 7.339844 17.25 C 7.375 17.445312 7.410156 17.644531 7.445312 17.839844 C 8.632812 18.78125 9.988281 19.28125 11.519531 19.339844 C 10.949219 19.636719 10.34375 19.851562 9.695312 19.980469 C 6.84375 19.058594 4.949219 17.164062 4.019531 14.304688 C 3.875 13.597656 3.769531 12.882812 3.695312 12.160156 C 3.859375 7.570312 6.179688 4.769531 10.660156 3.75 C 11.160156 3.695312 11.660156 3.679688 12.160156 3.695312 Z M 12.160156 3.695312 "/>
</g>
<mask id="mask3">
  <g filter="url(#alpha)">
<rect x="0" y="0" width="24" height="24" style="fill:rgb(0%,0%,0%);fill-opacity:0.921569;stroke:none;"/>
  </g>
</mask>
<clipPath id="clip4">
  <rect x="0" y="0" width="24" height="24"/>
</clipPath>
<g id="surface14" clip-path="url(#clip4)">
<path style=" stroke:none;fill-rule:evenodd;fill:rgb(86.274511%,60.392159%,97.254902%);fill-opacity:1;" d="M 4.660156 3.804688 C 5.386719 3.933594 5.65625 4.363281 5.464844 5.089844 C 5.097656 5.546875 4.652344 5.632812 4.125 5.355469 C 3.652344 4.609375 3.832031 4.09375 4.660156 3.804688 Z M 4.660156 3.804688 "/>
</g>
<mask id="mask4">
  <g filter="url(#alpha)">
<rect x="0" y="0" width="24" height="24" style="fill:rgb(0%,0%,0%);fill-opacity:0.92549;stroke:none;"/>
  </g>
</mask>
<clipPath id="clip5">
  <rect x="0" y="0" width="24" height="24"/>
</clipPath>
<g id="surface17" clip-path="url(#clip5)">
<path style=" stroke:none;fill-rule:evenodd;fill:rgb(23.137255%,84.313726%,59.215689%);fill-opacity:1;" d="M 3.695312 12.160156 C 3.769531 12.882812 3.875 13.597656 4.019531 14.304688 C 3.714844 15.511719 3.75 16.726562 4.125 17.945312 C 4.019531 18.335938 3.769531 18.460938 3.375 18.320312 C 1.34375 15.609375 0.71875 12.589844 1.5 9.269531 C 1.863281 7.808594 2.523438 6.503906 3.480469 5.355469 C 4.015625 5.285156 4.214844 5.519531 4.070312 6.054688 C 2.054688 8.9375 1.628906 12.046875 2.785156 15.375 C 2.929688 14.246094 3.234375 13.175781 3.695312 12.160156 Z M 3.695312 12.160156 "/>
</g>
<mask id="mask5">
  <g filter="url(#alpha)">
<rect x="0" y="0" width="24" height="24" style="fill:rgb(0%,0%,0%);fill-opacity:0.945098;stroke:none;"/>
  </g>
</mask>
<clipPath id="clip6">
  <rect x="0" y="0" width="24" height="24"/>
</clipPath>
<g id="surface20" clip-path="url(#clip6)">
<path style=" stroke:none;fill-rule:evenodd;fill:rgb(23.529412%,84.313726%,59.607846%);fill-opacity:1;" d="M 20.410156 5.195312 C 23.34375 9.4375 23.46875 13.757812 20.785156 18.160156 C 20.5 18.589844 20.140625 18.949219 19.714844 19.230469 C 19.277344 19.15625 19.132812 18.90625 19.285156 18.480469 C 21.835938 15.417969 22.40625 12.027344 21 8.304688 C 20.949219 9.535156 20.683594 10.714844 20.195312 11.839844 C 19.324219 13.820312 18.109375 15.570312 16.554688 17.089844 C 15.820312 17.722656 15.070312 18.332031 14.304688 18.910156 C 13.515625 19.339844 12.730469 19.769531 11.945312 20.195312 C 10.851562 20.667969 9.710938 20.96875 8.519531 21.105469 C 12.246094 22.378906 15.605469 21.734375 18.589844 19.179688 C 19.277344 19.082031 19.476562 19.351562 19.179688 19.980469 C 15.308594 23.078125 11.144531 23.523438 6.695312 21.320312 C 6.1875 21.023438 5.703125 20.683594 5.25 20.304688 C 5.109375 19.910156 5.234375 19.660156 5.625 19.554688 C 6.9375 20.089844 8.292969 20.230469 9.695312 19.980469 C 10.34375 19.851562 10.949219 19.636719 11.519531 19.339844 C 13.347656 18.601562 14.921875 17.496094 16.230469 16.019531 C 18.171875 14.253906 19.386719 12.074219 19.875 9.480469 C 20.203125 8.277344 20.09375 7.097656 19.554688 5.945312 C 19.769531 5.621094 20.054688 5.371094 20.410156 5.195312 Z M 20.410156 5.195312 "/>
</g>
<mask id="mask6">
  <g filter="url(#alpha)">
<rect x="0" y="0" width="24" height="24" style="fill:rgb(0%,0%,0%);fill-opacity:0.968627;stroke:none;"/>
  </g>
</mask>
<clipPath id="clip7">
  <rect x="0" y="0" width="24" height="24"/>
</clipPath>
<g id="surface23" clip-path="url(#clip7)">
<path style=" stroke:none;fill-rule:evenodd;fill:rgb(26.666668%,52.549022%,97.647059%);fill-opacity:1;" d="M 20.195312 11.839844 C 20.121094 15.476562 18.441406 18.066406 15.160156 19.605469 C 14.136719 20.046875 13.0625 20.242188 11.945312 20.195312 C 12.730469 19.769531 13.515625 19.339844 14.304688 18.910156 C 15.074219 18.667969 15.789062 18.3125 16.445312 17.839844 C 16.550781 17.597656 16.585938 17.347656 16.554688 17.089844 C 18.109375 15.570312 19.324219 13.820312 20.195312 11.839844 Z M 20.195312 11.839844 "/>
</g>
<mask id="mask7">
  <g filter="url(#alpha)">
<rect x="0" y="0" width="24" height="24" style="fill:rgb(0%,0%,0%);fill-opacity:0.92549;stroke:none;"/>
  </g>
</mask>
<clipPath id="clip8">
  <rect x="0" y="0" width="24" height="24"/>
</clipPath>
<g id="surface26" clip-path="url(#clip8)">
<path style=" stroke:none;fill-rule:evenodd;fill:rgb(86.274511%,60.392159%,97.254902%);fill-opacity:1;" d="M 4.230469 18.269531 C 5.109375 18.269531 5.449219 18.699219 5.25 19.554688 C 4.75 20.125 4.25 20.125 3.75 19.554688 C 3.570312 18.976562 3.730469 18.550781 4.230469 18.269531 Z M 4.230469 18.269531 "/>
</g>
</defs>
<g id="surface1">
<use xlink:href="#surface5" mask="url(#mask0)"/>
<use xlink:href="#surface8" mask="url(#mask1)"/>
<use xlink:href="#surface11" mask="url(#mask2)"/>
<use xlink:href="#surface14" mask="url(#mask3)"/>
<use xlink:href="#surface17" mask="url(#mask4)"/>
<use xlink:href="#surface20" mask="url(#mask5)"/>
<path style=" stroke:none;fill-rule:evenodd;fill:rgb(99.215686%,99.215686%,99.607843%);fill-opacity:1;" d="M 11.089844 6.054688 C 13.101562 5.804688 14.441406 6.625 15.105469 8.519531 C 15.25 11.199219 13.980469 12.5 11.304688 12.429688 C 9.386719 11.828125 8.546875 10.527344 8.785156 8.519531 C 9.171875 7.328125 9.9375 6.507812 11.089844 6.054688 Z M 11.089844 6.054688 "/>
<use xlink:href="#surface23" mask="url(#mask6)"/>
<path style=" stroke:none;fill-rule:evenodd;fill:rgb(99.215686%,99.607843%,99.607843%);fill-opacity:1;" d="M 16.230469 16.019531 C 14.921875 17.496094 13.347656 18.601562 11.519531 19.339844 C 9.988281 19.28125 8.632812 18.78125 7.445312 17.839844 C 7.410156 17.644531 7.375 17.445312 7.339844 17.25 C 7.636719 15.132812 8.8125 13.773438 10.875 13.179688 C 13.386719 12.808594 15.171875 13.757812 16.230469 16.019531 Z M 16.230469 16.019531 "/>
<path style=" stroke:none;fill-rule:evenodd;fill:rgb(96.078432%,98.431373%,98.431373%);fill-opacity:1;" d="M 16.554688 17.089844 C 16.585938 17.347656 16.550781 17.597656 16.445312 17.839844 C 15.789062 18.3125 15.074219 18.667969 14.304688 18.910156 C 15.070312 18.332031 15.820312 17.722656 16.554688 17.089844 Z M 16.554688 17.089844 "/>
<use xlink:href="#surface26" mask="url(#mask7)"/>
</g>
</svg>
