<svg width="16" height="16" viewBox="0 0 16 16" fill="none" xmlns="http://www.w3.org/2000/svg">
<path d="M11.2933 11.2933C13.8927 8.69381 14.5256 5.11209 12.7067 3.29327C10.8879 1.47445 7.30619 2.10727 4.70673 4.70673C2.10728 7.30619 1.47445 10.8879 3.29327 12.7067C5.11209 14.5256 8.69381 13.8927 11.2933 11.2933Z" stroke="white" stroke-miterlimit="9.9999"/>
<path d="M8.00026 14.6567C11.6765 14.6567 14.6566 11.6766 14.6566 8.00035C14.6566 4.32412 11.6765 1.34396 8.00026 1.34396C4.32404 1.34396 1.34387 4.32412 1.34387 8.00035C1.34387 11.6766 4.32404 14.6567 8.00026 14.6567Z" stroke="white" stroke-miterlimit="10"/>
<path d="M4.82258 2.80842H3.3173C2.93971 2.80842 2.63483 2.50226 2.63483 2.12594C2.63483 1.74834 2.94098 1.44346 3.3173 1.44346H4.82258C5.20018 1.44346 5.50506 1.74962 5.50506 2.12594C5.50506 2.50098 5.20018 2.80842 4.82258 2.80842Z" fill="white"/>
<path d="M3.51762 10.1945V11.1168C3.51762 12.0021 2.93337 12.8211 2.14501 13.0634C1.35793 12.8198 0.773682 12.0046 0.773682 11.1168V10.1945L2.14629 9.58471L3.51762 10.1945Z" fill="white"/>
<path d="M13.1258 4.74104C13.8839 4.74104 14.4985 4.1265 14.4985 3.36843C14.4985 2.61036 13.8839 1.99582 13.1258 1.99582C12.3678 1.99582 11.7532 2.61036 11.7532 3.36843C11.7532 4.1265 12.3678 4.74104 13.1258 4.74104Z" fill="white"/>
<path d="M8.83251 7.61814C9.35409 7.09656 9.35409 6.2509 8.83251 5.72932C8.31092 5.20773 7.46527 5.20773 6.94368 5.72932C6.4221 6.2509 6.4221 7.09656 6.94368 7.61814C7.46527 8.13973 8.31092 8.13973 8.83251 7.61814Z" fill="white"/>
<path d="M5.37238 10.2991C5.37238 9.76203 5.69257 9.27473 6.18625 9.06425C7.36878 8.54888 8.7146 8.54888 9.89841 9.06425C10.3934 9.27473 10.7123 9.76203 10.7123 10.2991V10.6805H5.37238V10.2991Z" fill="white"/>
<path d="M13.0493 13.0622H10.7059L10.3347 13.7446L10.7059 14.4271H13.0493L13.4205 13.7446L13.0493 13.0622Z" fill="white"/>
</svg>
