<svg width="16" height="14" viewBox="0 0 16 14" fill="none" xmlns="http://www.w3.org/2000/svg">
<path d="M14.1833 9.13075V8.02661C14.1833 7.02048 13.4451 6.18421 12.4814 6.02741V2.49288C12.4814 1.66968 11.8117 1.00001 10.9885 1.00001H2.49287C1.66967 0.996745 1 1.66968 1 2.49288V9.37248C1 10.1957 1.66967 10.8653 2.49287 10.8653H9.316V11.1953C9.316 12.1981 10.1327 13.0148 11.1355 13.0148H13.1805C14.1833 13.0148 15 12.1981 15 11.1953V9.94741C15 9.49988 14.6341 9.13401 14.1833 9.13075ZM12.158 6.65135C12.9159 6.65135 13.5333 7.26875 13.5333 8.02661V9.13075H10.786V8.02661C10.7827 7.26875 11.4001 6.65135 12.158 6.65135ZM11.8313 2.49288V6.02741C10.8677 6.18421 10.1294 7.02048 10.1294 8.02661V8.08541L7.944 5.93268L11.766 2.16948C11.8085 2.26748 11.8313 2.37855 11.8313 2.49288ZM2.49287 1.65008H10.9885C11.0963 1.65008 11.2009 1.67295 11.2956 1.70888L7.2482 5.70075L6.40213 6.53375C5.94807 6.98128 7.41667 6.45574 7.08907 6.53375L6.243 5.70075L2.1858 1.71215C2.28053 1.67295 2.38507 1.65008 2.49287 1.65008ZM1.65333 9.37248V2.49288C1.65333 2.37855 1.6762 2.27075 1.71867 2.16948L5.54067 5.93268L1.71867 9.69588C1.6762 9.59788 1.65333 9.48681 1.65333 9.37248ZM9.316 9.95068V10.2153H2.49287C2.38507 10.2153 2.28053 10.1924 2.1858 10.1565L6.00453 6.39328L6.6252 7.00415C6.978 7.35368 6.83333 6.25 6.83333 6.25C6.83333 6.25 6.5034 7.35368 6.85947 7.00415L7.48013 6.39328L10.1327 9.00335V9.13075C9.68187 9.13401 9.316 9.49988 9.316 9.95068ZM14.3467 11.1953C14.3467 11.8388 13.824 12.3615 13.1805 12.3615H11.1355C10.492 12.3615 9.96933 11.8388 9.96933 11.1953V9.94741C9.96933 9.85595 10.0445 9.78081 10.1359 9.78081H10.4561H13.8567H14.1768C14.2683 9.78081 14.3434 9.85595 14.3434 9.94741V11.1953H14.3467Z" fill="white" stroke="white" stroke-width="0.5"/>
</svg>
