<svg width="10" height="10" viewBox="0 0 10 10" fill="none" xmlns="http://www.w3.org/2000/svg">
<path d="M5.68114 3.60263C5.68114 3.37632 5.61295 3.19474 5.47657 3.05789C5.34019 2.92105 5.15938 2.85263 4.93412 2.85263C4.79525 2.85263 4.66959 2.88558 4.55716 2.95147C4.44472 3.01737 4.3477 3.11337 4.2661 3.23947C4.18949 3.36053 4.08529 3.43032 3.9535 3.44884C3.82172 3.46737 3.70804 3.42916 3.61246 3.33421C3.54542 3.26579 3.50835 3.18158 3.50126 3.08158C3.49418 2.98158 3.51688 2.88684 3.56936 2.79737C3.7226 2.54474 3.91778 2.34874 4.15491 2.20937C4.39205 2.07 4.65178 2.00021 4.93412 2C5.39862 2 5.77577 2.14474 6.06558 2.43421C6.35538 2.72368 6.50019 3.10263 6.5 3.57105C6.5 3.80789 6.45451 4.02105 6.36352 4.21053C6.27254 4.4 6.10494 4.62368 5.86072 4.88158C5.68354 5.06579 5.56382 5.20926 5.50157 5.312C5.43932 5.41474 5.39862 5.53179 5.37946 5.66316C5.36031 5.78947 5.31117 5.89474 5.23207 5.97895C5.15296 6.06316 5.05843 6.10526 4.94848 6.10526C4.83835 6.10526 4.74382 6.06453 4.6649 5.98305C4.58598 5.90158 4.54643 5.80021 4.54624 5.67895C4.54624 5.47368 4.58694 5.28558 4.66835 5.11463C4.74976 4.94368 4.88623 4.76337 5.07778 4.57368C5.322 4.33684 5.48366 4.154 5.56277 4.02516C5.64188 3.89632 5.68134 3.75547 5.68114 3.60263ZM4.93412 8C4.77609 8 4.64086 7.93821 4.52843 7.81463C4.41599 7.69105 4.35967 7.54232 4.35948 7.36842C4.35948 7.19474 4.4158 7.0461 4.52843 6.92253C4.64105 6.79895 4.77628 6.73705 4.93412 6.73684C5.09214 6.73684 5.22747 6.79874 5.3401 6.92253C5.45273 7.04631 5.50894 7.19495 5.50875 7.36842C5.50875 7.5421 5.45254 7.69084 5.3401 7.81463C5.22766 7.93842 5.09233 8.00021 4.93412 8Z" fill="#64696F"/>
<circle cx="5" cy="5" r="4.5" stroke="#64696F"/>
</svg>
