<svg width="16" height="16" viewBox="0 0 16 16" fill="currentColor" xmlns="http://www.w3.org/2000/svg">
<path d="M2.66659 12C2.29992 12 1.98603 11.8694 1.72492 11.6083C1.46381 11.3472 1.33325 11.0333 1.33325 10.6667V5.33333C1.33325 4.96667 1.46381 4.65278 1.72492 4.39167C1.98603 4.13056 2.29992 4 2.66659 4H13.3333C13.6999 4 14.0138 4.13056 14.2749 4.39167C14.536 4.65278 14.6666 4.96667 14.6666 5.33333V10.6667C14.6666 11.0333 14.536 11.3472 14.2749 11.6083C14.0138 11.8694 13.6999 12 13.3333 12H2.66659ZM2.66659 10.6667H13.3333V5.33333H11.3333V8H9.99992V5.33333H8.66658V8H7.33325V5.33333H5.99992V8H4.66658V5.33333H2.66659V10.6667Z" fill="#5F6368"/>
</svg>
