<svg width="18" height="18" viewBox="0 0 18 18" fill="none" xmlns="http://www.w3.org/2000/svg">
<path d="M3.75 15.75C3.3375 15.75 2.98438 15.6031 2.69063 15.3094C2.39687 15.0156 2.25 14.6625 2.25 14.25V11.25H3.75V14.25H6.75V15.75H3.75ZM11.25 15.75V14.25H14.25V11.25H15.75V14.25C15.75 14.6625 15.6031 15.0156 15.3094 15.3094C15.0156 15.6031 14.6625 15.75 14.25 15.75H11.25ZM2.25 6.75V3.75C2.25 3.3375 2.39687 2.98438 2.69063 2.69063C2.98438 2.39687 3.3375 2.25 3.75 2.25H6.75V3.75H3.75V6.75H2.25ZM14.25 6.75V3.75H11.25V2.25H14.25C14.6625 2.25 15.0156 2.39687 15.3094 2.69063C15.6031 2.98438 15.75 3.3375 15.75 3.75V6.75H14.25Z" fill="currentColor"/>
</svg>
