<?xml version="1.0" encoding="UTF-8"?>
<svg version="1.1" xmlns="http://www.w3.org/2000/svg" width="1024" height="768">
<path d="M0 0 C337.92 0 675.84 0 1024 0 C1024 253.44 1024 506.88 1024 768 C686.08 768 348.16 768 0 768 C0 514.56 0 261.12 0 0 Z " fill="#F1F1E7" transform="translate(0,0)"/>
<path d="M0 0 C0.11214844 0.53625 0.22429687 1.0725 0.33984375 1.625 C5.01489165 20.20296813 18.94928799 36.48117846 29.83374023 51.82470703 C31.79670988 54.59519009 33.75106524 57.37162074 35.70019531 60.15185547 C36.89319166 61.84813315 38.09835563 63.53583626 39.3046875 65.22265625 C45.05445537 73.61639369 45.05445537 73.61639369 44.578125 78.91015625 C43.56863853 82.55931344 41.78147965 85.85765191 40.1328125 89.25390625 C38.4808216 93.25856005 37.95449709 96.76657018 39 101 C43.60171207 107.32735409 51.71927063 110.93861799 58.59521484 114.3840332 C80.5531612 125.43166788 97.40151401 139.52553013 111 160 C113.65194708 157.43434187 115.98014209 154.82904442 118.1875 151.875 C132.99667521 132.69538879 151.39321588 121.1553113 172.63793945 110.19799805 C179.28704712 106.72722215 179.28704712 106.72722215 184 101 C184.78211292 94.296175 183.31249091 87.96895603 179.8984375 82.109375 C178.66747059 79.21927878 178.6963568 77.1192438 179 74 C182.17112068 66.56464195 187.35720475 60.05946992 192.17041016 53.62109375 C210.84413972 28.84092598 210.84413972 28.84092598 224 1 C231.91254021 4.35576482 236.72802886 12.40902696 240 20 C242.97167445 28.91502335 241.57767838 38.89500646 237.6171875 47.21875 C234.88476293 51.91799226 231.63732642 55.97422124 228 60 C227.23623047 60.88558594 227.23623047 60.88558594 226.45703125 61.7890625 C220.56086964 68.18541263 213.05366716 72.97982247 206 78 C216.97656545 77.18259619 224.50356633 74.35180372 234 69 C234.66 68.67 235.32 68.34 236 68 C234.98767687 79.38863525 230.53407673 88.81133702 222.2265625 96.6796875 C216.50139688 101.34195318 209.73687074 104.10396715 203 107 C210.06161951 109.35387317 218.08514695 108.51449202 225 106 C223.81841894 113.81767003 218.82623415 120.03494983 212.70703125 124.84765625 C207.25992059 128.52476756 201.34972289 128.51997731 195 128 C192.55889483 127.49703694 190.36101837 126.82122378 188 126 C191.13053788 130.24858712 193.2912835 132.56496371 198.578125 133.4140625 C199.45984375 133.48367188 200.3415625 133.55328125 201.25 133.625 C202.14203125 133.69976562 203.0340625 133.77453125 203.953125 133.8515625 C204.96632813 133.92503906 204.96632813 133.92503906 206 134 C203.37848926 141.54995093 197.84356116 146.3226851 190.8125 149.875 C189.22061041 150.61050957 187.61627217 151.31974189 186 152 C184.79923828 152.52980469 184.79923828 152.52980469 183.57421875 153.0703125 C178.82009928 154.78727826 174.26712689 155.05964505 169.24047852 155.13549805 C162.80323971 155.29855333 157.19695926 155.67874079 152.0078125 159.83203125 C147.5036496 164.69547562 144.20959205 170.23894296 141 176 C140.4119458 177.0526001 140.4119458 177.0526001 139.81201172 178.12646484 C138.63982057 180.25890114 137.50016312 182.40491931 136.375 184.5625 C136.01978271 185.22878418 135.66456543 185.89506836 135.29858398 186.58154297 C133.92288795 189.32874829 132.98655217 191.47790795 133.06640625 194.578125 C136.70046117 204.00538044 143.55884148 212.35703203 150 220 C150.75216797 220.97066406 150.75216797 220.97066406 151.51953125 221.9609375 C155.84755817 227.42164364 161.3406927 231.7802309 168 234 C173.94 234.33 179.88 234.66 186 235 C186 221.14 186 207.28 186 193 C193.858125 190.525 193.858125 190.525 201.875 188 C204.35362549 187.21689453 204.35362549 187.21689453 206.88232422 186.41796875 C208.18970769 186.0075864 209.4971576 185.59741558 210.8046875 185.1875 C211.82574585 184.86362305 211.82574585 184.86362305 212.86743164 184.53320312 C217.7718564 183 217.7718564 183 220 183 C220 211.38 220 239.76 220 269 C207.00625 269.0928125 207.00625 269.0928125 193.75 269.1875 C191.04006836 269.21481201 188.33013672 269.24212402 185.53808594 269.27026367 C183.35352014 269.27903798 181.16894937 269.28667967 178.984375 269.29296875 C177.32752686 269.3159906 177.32752686 269.3159906 175.63720703 269.33947754 C156.32315172 269.34587292 141.647755 261.03693363 128 248 C121.88347625 241.86488499 116.77538131 235.2168142 112 228 C111.43152344 228.70125 110.86304688 229.4025 110.27734375 230.125 C105.62266597 235.84427019 100.96534263 241.54626301 96 247 C95.45988281 247.59425781 94.91976562 248.18851563 94.36328125 248.80078125 C86.82255272 256.7282138 78.06375696 261.87246834 68 266 C67.19175781 266.35449219 66.38351562 266.70898438 65.55078125 267.07421875 C60.92879462 268.75172385 56.34148507 269.12521886 51.45361328 269.11352539 C50.37829346 269.11340454 49.30297363 269.11328369 48.19506836 269.11315918 C46.52456421 269.10548523 46.52456421 269.10548523 44.8203125 269.09765625 C43.78447021 269.09664917 42.74862793 269.09564209 41.68139648 269.09460449 C37.82925299 269.0893909 33.97712533 269.07542967 30.125 269.0625 C21.50375 269.041875 12.8825 269.02125 4 269 C4 240.95 4 212.9 4 184 C8.58876431 184.65553776 12.0750809 185.19230244 16.3203125 186.59375 C17.26777344 186.90183594 18.21523438 187.20992187 19.19140625 187.52734375 C20.15949219 187.84832031 21.12757813 188.16929687 22.125 188.5 C24.06429194 189.13789127 26.00437212 189.77339222 27.9453125 190.40625 C28.79625488 190.68791016 29.64719727 190.96957031 30.52392578 191.25976562 C32.97536983 191.99263669 35.49103953 192.49820791 38 193 C38 206.86 38 220.72 38 235 C51.74283656 235.14002404 51.74283656 235.14002404 63 230 C63.77214844 229.40316406 64.54429687 228.80632812 65.33984375 228.19140625 C75.06276188 220.02655204 85.3264714 207.8947208 90 196 C89.98228134 189.94021673 86.5933618 184.48852885 83.9375 179.1875 C83.48439453 178.24068359 83.03128906 177.29386719 82.56445312 176.31835938 C78.86784395 168.88935089 73.57119273 159.30210341 65.2265625 156.40625 C60.81562349 155.60144709 56.32218022 155.52664009 51.8515625 155.29296875 C39.13110962 154.32538866 29.2648338 149.71957459 20.27734375 140.7109375 C18.86234816 138.81562231 18.40882857 137.31164796 18 135 C18.73605469 134.82984375 19.47210938 134.6596875 20.23046875 134.484375 C21.20628906 134.24203125 22.18210937 133.9996875 23.1875 133.75 C24.15042969 133.51796875 25.11335938 133.2859375 26.10546875 133.046875 C29.34540621 131.87507576 31.43408721 130.27038718 34 128 C32.44152344 128.08701172 32.44152344 128.08701172 30.8515625 128.17578125 C21.22403263 128.5537167 13.6329198 128.16451069 6.16796875 121.3203125 C2.44242564 117.2412507 -1 112.68503826 -1 107 C-0.2575 107.165 0.485 107.33 1.25 107.5 C7.35206927 108.31360924 14.10285401 108.96571533 20 107 C18.92621094 106.49210937 17.85242188 105.98421875 16.74609375 105.4609375 C3.21431621 98.96022203 -4.98021213 93.12887509 -10.875 78.75 C-11.93830294 75.20565688 -12.09283418 72.65147777 -12 69 C-11.20078125 69.39832031 -10.4015625 69.79664063 -9.578125 70.20703125 C-1.07111287 74.31076598 7.42123158 78 17 78 C16.17757812 77.38253906 15.35515625 76.76507813 14.5078125 76.12890625 C-15.18435422 53.68330805 -15.18435422 53.68330805 -18 36 C-19.0681653 23.61978908 -15.88399586 15.73115996 -8.09765625 6.2265625 C-2.23157895 0 -2.23157895 0 0 0 Z " fill="#242121" transform="translate(413,234)"/>
<path d="M0 0 C-0.33 1.98 -0.66 3.96 -1 6 C2.02419525 5.41196203 5.01758453 4.77321882 8 4 C7.75 6.375 7.75 6.375 7 9 C4.9375 10.3125 4.9375 10.3125 3 11 C2.67 10.01 2.34 9.02 2 8 C1.50371094 8.34933594 1.00742187 8.69867188 0.49609375 9.05859375 C-4.10584605 12.14110751 -7.46239061 13.65389941 -13 14 C-12.0409375 13.5978125 -12.0409375 13.5978125 -11.0625 13.1875 C-8.66868314 12.11332248 -8.66868314 12.11332248 -8 9 C-8.226875 8.195625 -8.45375 7.39125 -8.6875 6.5625 C-9 4 -9 4 -7.375 1.6875 C-4.63099885 -0.26218503 -3.28993102 -0.36554789 0 0 Z " fill="#F6F7F2" transform="translate(646,295)"/>
<path d="M0 0 C0.99 3.63 1.98 7.26 3 11 C1.02 11.99 1.02 11.99 -1 13 C-3.125 12.0625 -3.125 12.0625 -5 11 C-5.99 11.495 -5.99 11.495 -7 12 C-7 10.68 -7 9.36 -7 8 C-7.66 7.67 -8.32 7.34 -9 7 C-7.69013727 5.83037314 -6.3770374 4.66437056 -5.0625 3.5 C-3.96615234 2.52546875 -3.96615234 2.52546875 -2.84765625 1.53125 C-1 0 -1 0 0 0 Z " fill="#2E2B2B" transform="translate(413,234)"/>
<path d="M0 0 C0.66 0.33 1.32 0.66 2 1 C-0.97 3.97 -0.97 3.97 -4 7 C-1.03 7.495 -1.03 7.495 2 8 C2 8.33 2 8.66 2 9 C0.10448978 9.05441656 -1.7914792 9.09298035 -3.6875 9.125 C-4.74324219 9.14820313 -5.79898438 9.17140625 -6.88671875 9.1953125 C-10.02251859 8.99858729 -12.17645373 8.33057654 -15 7 C-12.0356239 5.02374927 -9.21212254 3.70113094 -5.9375 2.3125 C-4.87402344 1.85488281 -3.81054688 1.39726562 -2.71484375 0.92578125 C-1.81894531 0.62027344 -0.92304687 0.31476563 0 0 Z " fill="#DBDAD7" transform="translate(629,334)"/>
<path d="M0 0 C2.97 0.495 2.97 0.495 6 1 C5.34 2.98 4.68 4.96 4 7 C4.66 7 5.32 7 6 7 C6 7.99 6 8.98 6 10 C6.99 10.33 7.98 10.66 9 11 C8.67 11.99 8.34 12.98 8 14 C4.32770991 10.62546316 1.91051157 7.62544907 0 3 C0 2.01 0 1.02 0 0 Z " fill="#2E2B2B" transform="translate(412,341)"/>
<path d="M0 0 C0.99 0.33 1.98 0.66 3 1 C2 4 2 4 0 6 C0 7.32 0 8.64 0 10 C-2.31 10 -4.62 10 -7 10 C-7.33 9.34 -7.66 8.68 -8 8 C-6.50260417 6.79557292 -5.00520833 5.59114583 -3.5078125 4.38671875 C-1.74707893 2.87729455 -1.74707893 2.87729455 0 0 Z " fill="#F7F7F3" transform="translate(632,332)"/>
<path d="M0 0 C1.46726798 3.81489674 0.43336419 6.29011622 -1 10 C-2.98 9.34 -4.96 8.68 -7 8 C-6.25 5.0625 -6.25 5.0625 -5 2 C-2.9375 1.1875 -2.9375 1.1875 -1 1 C-0.67 0.67 -0.34 0.34 0 0 Z " fill="#F5F5F0" transform="translate(655,278)"/>
<path d="M0 0 C4 2 4 2 6 5 C5.01 4.67 4.02 4.34 3 4 C2.5875 4.969375 2.175 5.93875 1.75 6.9375 C1.1725 7.948125 0.595 8.95875 0 10 C-1.32 10.33 -2.64 10.66 -4 11 C-2.68 7.37 -1.36 3.74 0 0 Z " fill="#2D2A29" transform="translate(637,235)"/>
<path d="M0 0 C3.93673644 1.31224548 6.22719294 2.91910327 9 6 C5.37 5.67 1.74 5.34 -2 5 C-1.34 3.35 -0.68 1.7 0 0 Z " fill="#E6E5E3" transform="translate(423,307)"/>
<path d="M0 0 C0.66 0 1.32 0 2 0 C2 2.64 2 5.28 2 8 C0.02 8.99 0.02 8.99 -2 10 C-2.33 8.68 -2.66 7.36 -3 6 C-2.34 6 -1.68 6 -1 6 C-0.67 4.02 -0.34 2.04 0 0 Z " fill="#F7F7F3" transform="translate(620,257)"/>
<path d="M0 0 C0.66 0.66 1.32 1.32 2 2 C0.02 4.97 0.02 4.97 -2 8 C-2.33 7.34 -2.66 6.68 -3 6 C-3.66 6 -4.32 6 -5 6 C-3.86695008 2.60085025 -2.87481525 1.94745549 0 0 Z " fill="#F8F8F6" transform="translate(524,464)"/>
<path d="M0 0 C4.875 4.625 4.875 4.625 6 8 C5.34 8.66 4.68 9.32 4 10 C4 9.34 4 8.68 4 8 C3.01 8 2.02 8 1 8 C0.40267181 5.23735711 0 2.83967231 0 0 Z " fill="#2E2A2A" transform="translate(434,275)"/>
<path d="M0 0 C0.33 0.99 0.66 1.98 1 3 C0.01 3 -0.98 3 -2 3 C-2 3.99 -2 4.98 -2 6 C-3.32 6.33 -4.64 6.66 -6 7 C-5.37162381 3.35541809 -4.14650034 0 0 0 Z " fill="#FAFAF5" transform="translate(643,295)"/>
<path d="M0 0 C2.31 0 4.62 0 7 0 C6.34 1.65 5.68 3.3 5 5 C3.68 4.67 2.36 4.34 1 4 C0.67 2.68 0.34 1.36 0 0 Z " fill="#4A4848" transform="translate(612,368)"/>
<path d="M0 0 C-0.99 1.485 -0.99 1.485 -2 3 C-2.66 3 -3.32 3 -4 3 C-4.33 3.66 -4.66 4.32 -5 5 C-5.66 3.35 -6.32 1.7 -7 0 C-2.25 -1.125 -2.25 -1.125 0 0 Z " fill="#2F2C2D" transform="translate(438,369)"/>
<path d="M0 0 C0.66 0 1.32 0 2 0 C1.67 1.98 1.34 3.96 1 6 C-0.32 6.33 -1.64 6.66 -3 7 C-1.125 2.25 -1.125 2.25 0 0 Z " fill="#F6F6F4" transform="translate(620,367)"/>
<path d="M0 0 C1.65 0.99 3.3 1.98 5 3 C4.01 3.495 4.01 3.495 3 4 C2.67 4.99 2.34 5.98 2 7 C1.34 6.67 0.68 6.34 0 6 C0 4.02 0 2.04 0 0 Z " fill="#302D2D" transform="translate(401,303)"/>
<path d="M0 0 C0.99 0 1.98 0 3 0 C3 0.66 3 1.32 3 2 C3.99 2 4.98 2 6 2 C5.67 2.99 5.34 3.98 5 5 C3.125 4.6875 3.125 4.6875 1 4 C0.34 3.01 -0.32 2.02 -1 1 C-0.67 0.67 -0.34 0.34 0 0 Z " fill="#F6F5F1" transform="translate(639,233)"/>
<path d="M0 0 C0 0.66 0 1.32 0 2 C-2.64 2.33 -5.28 2.66 -8 3 C-6 0 -6 0 -4 -0.75 C-2 -1 -2 -1 0 0 Z " fill="#EFEFEC" transform="translate(626,310)"/>
<path d="M0 0 C0.66 0.99 1.32 1.98 2 3 C1.67 3.99 1.34 4.98 1 6 C-0.65 6.33 -2.3 6.66 -4 7 C-2.68 4.69 -1.36 2.38 0 0 Z " fill="#343231" transform="translate(620,266)"/>
<path d="M0 0 C0.66 0.33 1.32 0.66 2 1 C-0.97 3.475 -0.97 3.475 -4 6 C-4 5.34 -4 4.68 -4 4 C-4.66 3.67 -5.32 3.34 -6 3 C-4.03533587 1.93224776 -2.03144641 0.93446535 0 0 Z " fill="#E1E0DD" transform="translate(629,334)"/>
<path d="M0 0 C1.0625 1.875 1.0625 1.875 2 4 C1.67 4.66 1.34 5.32 1 6 C-0.32 5.34 -1.64 4.68 -3 4 C-2.01 2.68 -1.02 1.36 0 0 Z " fill="#2A2626" transform="translate(615,274)"/>
</svg>
