<?xml version="1.0" encoding="UTF-8"?>
<svg version="1.1" xmlns="http://www.w3.org/2000/svg" width="512" height="512">
<path d="M0 0 C8.23244982 5.41253562 16.52310074 9.93231577 25.67919922 13.56469727 C26.30697266 13.81396973 26.93474609 14.06324219 27.58154297 14.32006836 C58.19901115 26.13580127 87.57028325 22.41960762 117.24951172 10.08032227 C126.08461329 5.9501784 134.09619631 0.52616195 142.15893555 -4.92944336 C161.02027525 -17.58344027 161.02027525 -17.58344027 171.42919922 -16.99780273 C172.19087402 -16.97411621 172.95254883 -16.95042969 173.73730469 -16.92602539 C199.00918455 -15.81039629 222.89045385 -5.53168926 240.18847656 13.19897461 C272.65926464 50.49781215 280.79520215 103.8186947 281.67919922 151.56469727 C281.71916016 152.77512695 281.75912109 153.98555664 281.80029297 155.23266602 C282.26184125 177.08833477 278.01971307 201.2972091 263.05419922 218.12719727 C261.61122851 219.62135444 260.15495703 221.10291444 258.67919922 222.56469727 C257.81294922 223.47219727 256.94669922 224.37969727 256.05419922 225.31469727 C255.27044922 226.05719727 254.48669922 226.79969727 253.67919922 227.56469727 C252.96957031 228.24918945 252.96957031 228.24918945 252.24560547 228.94750977 C231.63851551 247.82498786 205.14627484 249.0190901 178.83422852 248.96875 C176.13218085 248.97446024 173.43015786 248.98132791 170.7281189 248.98954773 C164.18085007 249.00664702 157.63367758 249.00759426 151.08639225 249.00233483 C145.75842434 248.99827497 140.43048466 248.9997581 135.10251808 249.00508308 C134.34097238 249.00583151 133.57942668 249.00657993 132.79480383 249.00735103 C131.247161 249.00888269 129.69951817 249.01042103 128.15187535 249.011966 C113.67420426 249.02565914 99.19658736 249.020276 84.71891753 249.00878078 C71.51116405 248.99885342 58.30355076 249.01178615 45.0958189 249.03571498 C31.4921533 249.060173 17.8885528 249.06969734 4.28486568 249.06306225 C-3.33575372 249.05958465 -10.95626544 249.06170476 -18.57686806 249.07931328 C-25.06447634 249.09411954 -31.55190111 249.09456193 -38.03950612 249.07724237 C-41.34118922 249.06879805 -44.64228036 249.06863375 -47.94398689 249.08189392 C-76.92838168 249.18934121 -101.88530341 244.6174179 -123.32080078 223.56469727 C-124.09423828 222.81575195 -124.86767578 222.06680664 -125.66455078 221.29516602 C-139.87660198 206.62073644 -146.42259888 186.16021182 -146.52392578 166.01391602 C-146.53094009 165.09107819 -146.53795441 164.16824036 -146.54518127 163.21743774 C-146.5627085 160.22897479 -146.56904046 157.24070985 -146.57080078 154.25219727 C-146.57147552 153.2333847 -146.57215027 152.21457214 -146.57284546 151.16488647 C-146.55657975 135.73541996 -145.99359049 120.79236085 -143.32080078 105.56469727 C-143.14387695 104.49815918 -142.96695313 103.43162109 -142.78466797 102.33276367 C-140.38688289 88.02680759 -137.2574552 74.21252982 -132.32080078 60.56469727 C-132.08780273 59.91001465 -131.85480469 59.25533203 -131.61474609 58.58081055 C-125.88466031 42.70386623 -118.09853656 28.53137077 -107.32080078 15.56469727 C-106.78841797 14.88020508 -106.25603516 14.19571289 -105.70751953 13.49047852 C-91.93315818 -3.77597444 -68.9257204 -13.71426518 -47.41137695 -16.21923828 C-27.53983089 -18.27299494 -16.22132607 -10.77252972 0 0 Z " fill="#000000" transform="translate(188.32080078125,263.435302734375)"/>
<path d="M0 0 C8.63343407 7.23490584 16.24072333 14.5746549 23.0625 23.56640625 C23.66707031 24.3553125 24.27164063 25.14421875 24.89453125 25.95703125 C36.3392112 41.5610644 42.65062987 58.57058878 46.0625 77.56640625 C46.248125 78.58992188 46.43375 79.6134375 46.625 80.66796875 C50.40049771 114.31035015 42.71127407 146.56952935 22.0625 173.56640625 C19.19504469 177.03807536 16.18074703 180.31951867 13.0625 183.56640625 C12.21945312 184.47261719 11.37640625 185.37882813 10.5078125 186.3125 C3.90871233 193.20808149 -2.93415447 198.44506846 -10.9375 203.56640625 C-11.76894531 204.12070313 -12.60039062 204.675 -13.45703125 205.24609375 C-31.91503947 217.06166783 -54.52526058 221.98717822 -76.1875 221.87890625 C-77.36481689 221.8739917 -78.54213379 221.86907715 -79.75512695 221.86401367 C-89.12507562 221.73875557 -97.85982578 220.85893497 -106.9375 218.56640625 C-107.9270166 218.31697266 -107.9270166 218.31697266 -108.93652344 218.0625 C-126.97741793 213.36299058 -144.05282057 204.43718855 -157.66796875 191.6796875 C-159.55892527 189.91891731 -161.48255063 188.30072793 -163.5 186.69140625 C-168.31461607 182.59048621 -172.08996359 177.55446238 -175.9375 172.56640625 C-176.535625 171.79554688 -177.13375 171.0246875 -177.75 170.23046875 C-193.33148842 149.09446826 -200.34821723 124.73495197 -200.3125 98.62890625 C-200.31195618 97.95375977 -200.31141235 97.27861328 -200.31085205 96.58300781 C-200.24534074 78.79747375 -197.45674007 62.73844016 -189.9375 46.56640625 C-189.48632812 45.54546875 -189.03515625 44.52453125 -188.5703125 43.47265625 C-178.94738595 22.81326592 -161.94776161 4.84029888 -142.9375 -7.43359375 C-142.05835938 -8.00851563 -141.17921875 -8.5834375 -140.2734375 -9.17578125 C-97.93816684 -35.41665149 -38.54918249 -31.3581053 0 0 Z " fill="#000000" transform="translate(328.9375,25.43359375)"/>
</svg>
