<?xml version="1.0" encoding="UTF-8"?>
<svg version="1.1" xmlns="http://www.w3.org/2000/svg" width="512" height="512">
<path d="M0 0 C2.16452111 -0.00644676 4.32904139 -0.01317642 6.49356079 -0.02017212 C11.01704929 -0.03208905 15.54046178 -0.03585901 20.06396484 -0.03466797 C25.78972879 -0.03446574 31.51499109 -0.06169429 37.24063683 -0.09621239 C41.71092858 -0.11873208 46.18110469 -0.12249785 50.6514473 -0.12144852 C52.75843651 -0.12376985 54.86543069 -0.13239083 56.97236252 -0.14811325 C110.84223489 -0.51231891 158.93820334 21.11974507 197.1640625 58.5234375 C208.66176491 70.03302538 218.3815477 83.31228069 226.6015625 97.3359375 C227.19831787 98.35083252 227.19831787 98.35083252 227.80712891 99.38623047 C239.32025358 119.29948903 246.29851238 140.81409755 250.6015625 163.3359375 C250.96894531 165.10130859 250.96894531 165.10130859 251.34375 166.90234375 C252.76397597 174.83031751 252.86348792 182.79826567 252.9765625 190.8359375 C253.00274658 191.9712793 253.02893066 193.10662109 253.0559082 194.27636719 C253.06823552 200.4071546 253.04054717 204.66970105 248.6015625 209.3359375 C244.45162866 212.42677641 241.37845244 212.71222162 236.25637913 212.71625423 C235.52303005 212.72091415 234.78968098 212.72557407 234.03410921 212.7303752 C231.56931638 212.74235486 229.10507177 212.73291854 226.64027405 212.72361755 C224.85831775 212.72778917 223.07636411 212.73326574 221.29441541 212.73993737 C216.39176325 212.75443321 211.48927861 212.75013435 206.58661711 212.74277055 C201.30158941 212.73805141 196.01659862 212.75053759 190.73158264 212.76078796 C180.37559395 212.77800584 170.01966585 212.7788098 159.66366655 212.77357506 C151.24849826 212.76953776 142.8333479 212.77097168 134.41818047 212.77632332 C132.62336106 212.77744595 132.62336106 212.77744595 130.79228268 212.77859126 C128.36170073 212.7801227 125.93111879 212.78166105 123.50053685 212.78320623 C100.69434403 212.79694203 77.88818549 212.79148595 55.08199345 212.78002102 C34.2059167 212.77008702 13.32992856 212.78303031 -7.54613452 212.80695521 C-28.96910612 212.83132239 -50.3920364 212.84095998 -71.81502157 212.83430248 C-83.84745552 212.83080503 -95.8798213 212.83307702 -107.9122448 212.85055351 C-118.15498438 212.86524571 -128.39760779 212.86595002 -138.64034503 212.8484826 C-143.8684088 212.83994571 -149.09626477 212.83788849 -154.32431793 212.85313416 C-159.10791226 212.86691128 -163.89111939 212.86230842 -168.67469091 212.84289492 C-170.40747542 212.83911308 -172.14029044 212.84211927 -173.87304794 212.85250657 C-176.22497272 212.86560573 -178.57554706 212.85415782 -180.92741299 212.83650875 C-182.88840015 212.83634775 -182.88840015 212.83634775 -184.88900322 212.83618349 C-189.97471082 212.11125046 -193.14832514 209.97236415 -196.24633789 205.91699219 C-197.51132406 203.08303715 -197.79867922 201.13170504 -197.83203125 198.0390625 C-197.84363281 197.01103516 -197.85523438 195.98300781 -197.8671875 194.92382812 C-197.856875 193.82232422 -197.8465625 192.72082031 -197.8359375 191.5859375 C-197.82691406 190.43287109 -197.81789062 189.27980469 -197.80859375 188.09179688 C-197.26482703 160.37479884 -189.87480228 133.05487778 -177.3984375 108.3359375 C-177.03556641 107.61035645 -176.67269531 106.88477539 -176.29882812 106.13720703 C-167.59199617 88.98954358 -156.2722428 73.50000554 -142.81005859 59.77832031 C-141.42411118 58.36217066 -140.06138108 56.92341769 -138.69921875 55.484375 C-102.34782313 17.80628611 -51.55998508 0.03648386 0 0 Z " fill="#000000" transform="translate(228.3984375,299.6640625)"/>
<path d="M0 0 C0.79841309 0.22042969 1.59682617 0.44085938 2.41943359 0.66796875 C25.58400493 7.2652247 44.51441228 18.49870033 62 35 C62.73734375 35.67289063 63.4746875 36.34578125 64.234375 37.0390625 C81.86358538 53.73054892 92.61255006 75.86417074 99 99 C99.28810547 100.0216626 99.28810547 100.0216626 99.58203125 101.06396484 C104.71348695 120.28244158 104.38713665 145.89645419 99 165 C98.77957031 165.79841309 98.55914062 166.59682617 98.33203125 167.41943359 C91.7347753 190.58400493 80.50129967 209.51441228 64 227 C63.32710937 227.73734375 62.65421875 228.4746875 61.9609375 229.234375 C45.26945108 246.86358538 23.13582926 257.61255006 0 264 C-1.0216626 264.28810547 -1.0216626 264.28810547 -2.06396484 264.58203125 C-21.28244158 269.71348695 -46.89645419 269.38713665 -66 264 C-66.79841309 263.77957031 -67.59682617 263.55914062 -68.41943359 263.33203125 C-91.58400493 256.7347753 -110.51441228 245.50129967 -128 229 C-128.73734375 228.32710937 -129.4746875 227.65421875 -130.234375 226.9609375 C-147.86358538 210.26945108 -158.61255006 188.13582926 -165 165 C-165.19207031 164.3188916 -165.38414062 163.6377832 -165.58203125 162.93603516 C-170.71348695 143.71755842 -170.38713665 118.10354581 -165 99 C-164.66935547 97.80238037 -164.66935547 97.80238037 -164.33203125 96.58056641 C-157.7347753 73.41599507 -146.50129967 54.48558772 -130 37 C-129.32710937 36.26265625 -128.65421875 35.5253125 -127.9609375 34.765625 C-111.26945108 17.13641462 -89.13582926 6.38744994 -66 0 C-64.9783374 -0.28810547 -64.9783374 -0.28810547 -63.93603516 -0.58203125 C-44.71755842 -5.71348695 -19.10354581 -5.38713665 0 0 Z " fill="#000000" transform="translate(289,3)"/>
</svg>
