<?xml version="1.0" encoding="UTF-8"?>
<svg version="1.1" xmlns="http://www.w3.org/2000/svg" width="1240" height="775">
<path d="M0 0 C409.2 0 818.4 0 1240 0 C1240 255.75 1240 511.5 1240 775 C830.8 775 421.6 775 0 775 C0 519.25 0 263.5 0 0 Z " fill="#FEFEFE" transform="translate(0,0)"/>
<path d="M0 0 C0.33 0 0.66 0 1 0 C1.89875259 4.62974655 2.17372039 9.1335274 2.203125 13.8359375 C2.21357849 14.95780708 2.21357849 14.95780708 2.22424316 16.1023407 C2.24165281 18.52661766 2.24797194 20.95066296 2.25 23.375 C2.25100708 24.20401825 2.25201416 25.0330365 2.25305176 25.88717651 C2.24164336 39.78813925 1.39328803 53.28501537 -1 67 C-1.13921875 67.8362793 -1.2784375 68.67255859 -1.421875 69.53417969 C-4.6394836 88.51956009 -9.17747511 107.81241447 -18 125 C-18.60721065 126.326267 -19.20699431 127.65595021 -19.80078125 128.98828125 C-28.13568393 147.58952574 -39.23068567 163.88378517 -53.046875 178.859375 C-54.62902608 180.59341258 -56.10946881 182.34699382 -57.5625 184.1875 C-60.73744802 187.85090156 -64.30711188 190.87363449 -68 194 C-68.66 194.58652344 -69.32 195.17304688 -70 195.77734375 C-70.61875 196.32519531 -71.2375 196.87304688 -71.875 197.4375 C-72.42929687 197.93121094 -72.98359375 198.42492187 -73.5546875 198.93359375 C-75 200 -75 200 -77 200 C-77.02868164 200.74701172 -77.05736328 201.49402344 -77.08691406 202.26367188 C-77.56981758 210.92426935 -79.12600599 218.98512924 -81.21875 227.36572266 C-81.74863668 229.49452289 -82.25814903 231.62747859 -82.765625 233.76171875 C-84.87495547 242.46455294 -87.54331819 250.72010711 -91 259 C-91.32500488 259.79390137 -91.65000977 260.58780273 -91.98486328 261.40576172 C-101.29943861 283.80209578 -113.37829471 304.66979559 -130.30859375 322.16796875 C-133.02317448 324.94532442 -133.02317448 324.94532442 -135.34765625 327.92578125 C-152.67738392 349.01405207 -182.38988547 364.84176976 -208 373 C-208.75410156 373.25007813 -209.50820313 373.50015625 -210.28515625 373.7578125 C-242.03335516 383.82819279 -276.25714959 386.52500069 -309 380 C-309.9576123 379.81244141 -310.91522461 379.62488281 -311.90185547 379.43164062 C-347.31790452 372.38151393 -380.2226638 358.46726699 -410 338 C-410.74137207 337.49065918 -411.48274414 336.98131836 -412.24658203 336.45654297 C-427.77109809 325.70166701 -441.49167421 313.66711536 -454.875 300.375 C-455.36173187 299.89371643 -455.84846375 299.41243286 -456.34994507 298.91656494 C-463.02809601 292.2941723 -469.18590656 285.39655271 -475 278 C-475.57975586 277.26894043 -476.15951172 276.53788086 -476.75683594 275.78466797 C-499.21781983 247.2566367 -517.42110986 215.50461249 -529 181 C-529.26796387 180.21238281 -529.53592773 179.42476562 -529.81201172 178.61328125 C-531.33569219 174.10384914 -531.33569219 174.10384914 -532 172 C-532.24991699 171.38070618 -532.49983398 170.76141235 -532.75732422 170.12335205 C-533 168 -533 168 -531.6396637 166.03839111 C-530.94461227 165.35444275 -530.24956085 164.67049438 -529.53344727 163.96582031 C-528.75256241 163.18531311 -527.97167755 162.40480591 -527.16712952 161.60064697 C-526.30889084 160.76821472 -525.45065216 159.93578247 -524.56640625 159.078125 C-523.69934555 158.21813904 -522.83228485 157.35815308 -521.93894958 156.47210693 C-519.15827669 153.7194929 -516.36074881 150.98473395 -513.5625 148.25 C-511.67790319 146.39047077 -509.79442435 144.52980775 -507.91210938 142.66796875 C-503.28764699 138.09872871 -498.6492161 133.54404317 -494 129 C-490.94570433 130.46409141 -488.82191078 131.96125034 -486.375 134.3125 C-465.58514481 153.09810444 -438.86799721 169.39057013 -412.99414062 180.16894531 C-411.52874297 180.77964727 -410.06998986 181.40635578 -408.61523438 182.04199219 C-399.82271123 185.82482191 -390.83688185 188.83589911 -381.75 191.8125 C-380.21470312 192.31923559 -378.67954588 192.82639445 -377.14453125 193.33398438 C-373.43127472 194.56086157 -369.71619139 195.78204288 -366 197 C-366.19625977 196.17757812 -366.39251953 195.35515625 -366.59472656 194.5078125 C-368.19702983 187.69753211 -369.6576724 180.91040934 -370.75 174 C-370.88792969 173.19433594 -371.02585937 172.38867188 -371.16796875 171.55859375 C-371.29300781 170.77613281 -371.41804687 169.99367188 -371.546875 169.1875 C-371.65870117 168.50042969 -371.77052734 167.81335938 -371.88574219 167.10546875 C-372.07146494 163.68309055 -371.96993909 161.24047608 -369.78311157 158.44369507 C-368.09158864 156.62771801 -366.34247472 154.89331548 -364.55859375 153.16796875 C-363.91632339 152.53135818 -363.27405304 151.89474762 -362.61231995 151.23884583 C-360.56325815 149.21213477 -358.500716 147.19979019 -356.4375 145.1875 C-355.04400956 143.81407608 -353.65142022 142.43973724 -352.25976562 141.06445312 C-348.85020058 137.69893831 -345.42848004 134.34623954 -342 131 C-337.73451782 132.61983759 -334.22446139 134.77542011 -330.5 137.375 C-299.71317076 158.28440428 -263.99862032 173.67677401 -227 179 C-225.78183594 179.18691406 -224.56367187 179.37382812 -223.30859375 179.56640625 C-218.88429019 180.203419 -214.45349341 180.62651443 -210 181 C-209.07010254 181.08685059 -208.14020508 181.17370117 -207.18212891 181.26318359 C-190.7794811 182.63343597 -180.98076283 180.00453836 -168 170 C-166.89841564 169.21198933 -165.79322414 168.4289835 -164.68359375 167.65234375 C-133.13580703 144.98894025 -110.87341322 115.13966817 -97 79 C-96.72172363 78.28972656 -96.44344727 77.57945312 -96.15673828 76.84765625 C-89.68125563 60.05907842 -86.46674766 41.8938165 -85 24 C-83 25 -83 25 -82 27.80859375 C-81.67 29.00613281 -81.34 30.20367187 -81 31.4375 C-80.67 32.61183594 -80.34 33.78617188 -80 34.99609375 C-78.79696217 39.6239749 -77.9057231 44.30666806 -77 49 C-76.82436523 49.8552124 -76.64873047 50.7104248 -76.46777344 51.59155273 C-70.44508525 81.3470208 -70.9845482 113.44359656 -78 143 C-52.28639864 123.62984215 -34.20388717 98.60187639 -20 70 C-19.60288818 69.20207031 -19.20577637 68.40414062 -18.79663086 67.58203125 C-15.04611475 59.71613148 -12.43784704 51.57334298 -9.9375 43.25 C-9.61025436 42.17332062 -9.61025436 42.17332062 -9.27639771 41.07489014 C-5.6736831 29.16153899 -2.97436619 17.28101676 -1.32202148 4.92822266 C-1 3 -1 3 0 0 Z " fill="#D90101" transform="translate(915,161)"/>
<path d="M0 0 C3.6851921 1.68161285 4.95498242 3.08124792 6.91796875 6.6640625 C7.44543701 7.6135376 7.97290527 8.5630127 8.51635742 9.54125977 C9.06783447 10.55889404 9.61931152 11.57652832 10.1875 12.625 C10.76411377 13.66519287 11.34072754 14.70538574 11.93481445 15.77709961 C14.08032786 19.65061949 16.2031339 23.53623007 18.3203125 27.42529297 C23.61053264 37.13205865 29.32157356 46.18457707 36 55 C36.43570313 55.57991699 36.87140625 56.15983398 37.3203125 56.75732422 C44.04108286 65.66185366 51.26905471 73.96155937 59 82 C59.70406982 82.73694092 59.70406982 82.73694092 60.42236328 83.48876953 C66.87816683 90.21592034 73.66250113 96.25630212 81 102 C81.98484375 102.79019531 82.9696875 103.58039063 83.984375 104.39453125 C104.42771028 120.64931872 127.57848334 133.76773496 152 143 C153.0324585 143.391875 154.06491699 143.78375 155.12866211 144.1875 C169.09177373 149.34056482 183.50975757 152.70650408 198 156 C198.93666504 156.21495117 199.87333008 156.42990234 200.83837891 156.65136719 C213.74627819 159.4564178 226.91534318 159.29911619 240.0625 159.375 C241.38976105 159.38732666 241.38976105 159.38732666 242.74383545 159.39990234 C255.75437391 159.4891871 268.19876437 158.30001919 281 156 C281.76614624 155.86449738 282.53229248 155.72899475 283.32165527 155.58938599 C326.49992568 147.85948901 367.98382599 123.30142473 394.83203125 88.5078125 C399.14791931 83.51537983 404.45380627 79.87317582 409.875 76.1875 C410.76445313 75.57745117 410.76445313 75.57745117 411.671875 74.95507812 C413.11275433 73.96737858 414.55611412 72.98329914 416 72 C418.71589776 80.14769327 414.0333733 91.75832469 412.125 99.9375 C411.85888916 101.07904541 411.59277832 102.22059082 411.31860352 103.39672852 C408.53798663 115.16786646 405.2436724 126.0712236 400 137 C399.341612 138.4482487 398.68555176 139.89755686 398.03125 141.34765625 C389.24203305 160.64043235 378.14772152 177.74671663 363.578125 193.2109375 C360.97315145 195.9619304 360.97315145 195.9619304 358.671875 198.9140625 C341.28601871 219.99693084 311.64814524 235.82965488 286 244 C285.24589844 244.25007812 284.49179687 244.50015625 283.71484375 244.7578125 C251.96664484 254.82819279 217.74285041 257.52500069 185 251 C184.0423877 250.81244141 183.08477539 250.62488281 182.09814453 250.43164062 C146.68209548 243.38151393 113.7773362 229.46726699 84 209 C83.25862793 208.49065918 82.51725586 207.98131836 81.75341797 207.45654297 C66.22890191 196.70166701 52.50832579 184.66711536 39.125 171.375 C38.39490219 170.65307465 38.39490219 170.65307465 37.65005493 169.91656494 C30.97190399 163.2941723 24.81409344 156.39655271 19 149 C18.42024414 148.26894043 17.84048828 147.53788086 17.24316406 146.78466797 C-5.21781983 118.2566367 -23.42110986 86.50461249 -35 52 C-35.26796387 51.21238281 -35.53592773 50.42476563 -35.81201172 49.61328125 C-37.33569219 45.10384914 -37.33569219 45.10384914 -38 43 C-38.37487549 42.07105927 -38.37487549 42.07105927 -38.75732422 41.12335205 C-39 39 -39 39 -37.6396637 37.03839111 C-36.94461227 36.35444275 -36.24956085 35.67049438 -35.53344727 34.96582031 C-34.75256241 34.18531311 -33.97167755 33.40480591 -33.16712952 32.60064697 C-32.30889084 31.76821472 -31.45065216 30.93578247 -30.56640625 30.078125 C-29.69934555 29.21813904 -28.83228485 28.35815308 -27.93894958 27.47210693 C-25.15827669 24.7194929 -22.36074881 21.98473395 -19.5625 19.25 C-17.67790319 17.39047077 -15.79442435 15.52980775 -13.91210938 13.66796875 C-9.28764699 9.09872871 -4.6492161 4.54404317 0 0 Z " fill="#04756F" transform="translate(421,290)"/>
<path d="M0 0 C0.48106201 0.36206543 0.96212402 0.72413086 1.45776367 1.09716797 C25.35503164 19.05545286 50.25017696 36.46878933 78 48 C78.82685303 48.35328369 79.65370605 48.70656738 80.50561523 49.07055664 C100.44597055 57.52273928 120.69176527 64.10034623 142 68 C143.55732613 68.29669418 145.1146194 68.59356084 146.671875 68.890625 C148.11420584 69.15829217 149.55690393 69.42398963 151 69.6875 C151.68199463 69.8124585 152.36398926 69.93741699 153.06665039 70.06616211 C156.35223249 70.63969619 159.55563637 71.03406414 162.88671875 71.23828125 C172.5680594 71.90493061 177.2083306 74.82178634 184.27734375 80.921875 C204.81393051 98.46920433 231.4349323 107.07552541 257 114 C257.62302002 114.17917969 258.24604004 114.35835938 258.88793945 114.54296875 C269.04301849 116.74043817 280.09890112 116.20878984 290.4375 116.25 C291.72720703 116.270625 293.01691406 116.29125 294.34570312 116.3125 C303.65504614 116.34979331 311.97979653 115.12491911 321 113 C321.94351318 112.78722412 322.88702637 112.57444824 323.85913086 112.35522461 C336.00120432 109.52500239 355.59162432 103.88298502 364.37573242 94.53613281 C366.1690705 92.84010348 367.7184388 92.05775857 369.984375 91.09765625 C370.75523437 90.76443359 371.52609375 90.43121094 372.3203125 90.08789062 C373.12210938 89.74951172 373.92390625 89.41113281 374.75 89.0625 C379.29124528 87.13060959 383.72055369 85.23519827 387.953125 82.68359375 C388.95859375 82.12800781 389.9640625 81.57242188 391 81 C391.66 81.33 392.32 81.66 393 82 C357.56475368 123.8364521 311.66546696 151.14548876 256 156 C252.94901424 156.1548415 249.90220714 156.20892948 246.84765625 156.23828125 C245.99870285 156.24816574 245.14974945 156.25805023 244.27507019 156.26823425 C170.11546503 156.95308605 105.26373679 129.02501034 52.35644531 77.52270508 C46.44479347 71.69238051 41.08759026 65.57040551 36 59 C35.55188965 58.43361816 35.1037793 57.86723633 34.64208984 57.28369141 C21.55922121 40.72091254 6.71351715 20.14055145 0 0 Z " fill="#FD8C00" transform="translate(426,294)"/>
<path d="M0 0 C2 1 2 1 3 3.80859375 C3.495 5.60490234 3.495 5.60490234 4 7.4375 C4.495 9.19900391 4.495 9.19900391 5 10.99609375 C6.20303783 15.6239749 7.0942769 20.30666806 8 25 C8.17563477 25.8552124 8.35126953 26.7104248 8.53222656 27.59155273 C13.88291745 54.0269761 13.26922076 80.69565159 9.34570312 107.29907227 C8.99559039 110.0344516 8.84541547 112.74367904 8.69140625 115.49609375 C8.27950049 119.69011902 8.27950049 119.69011902 6.0234375 122.19140625 C5.14945313 122.64386719 4.27546875 123.09632813 3.375 123.5625 C2.3746875 124.11164063 1.374375 124.66078125 0.34375 125.2265625 C-1.31140625 126.10441406 -1.31140625 126.10441406 -3 127 C-4.16231549 127.7062589 -5.31844915 128.42277444 -6.46875 129.1484375 C-31.93945674 145.18273887 -63.12421023 157.35801738 -93.5625 157.0625 C-94.78066406 157.05347656 -95.99882813 157.04445313 -97.25390625 157.03515625 C-98.16011719 157.02355469 -99.06632813 157.01195312 -100 157 C-96.63555148 154.18509843 -93.27582388 151.92749479 -89.4375 149.8125 C-52.7696739 128.69936297 -26.96793183 93.99084391 -12 55 C-11.58258545 53.93458984 -11.58258545 53.93458984 -11.15673828 52.84765625 C-4.68125563 36.05907842 -1.46674766 17.8938165 0 0 Z " fill="#FE8C02" transform="translate(830,185)"/>
<path d="M0 0 C3.81504697 1.27168232 4.02227524 2.3866081 5.828125 5.890625 C6.35083984 6.88900391 6.87355469 7.88738281 7.41210938 8.91601562 C7.93611328 9.93373047 8.46011719 10.95144531 9 12 C9.94985938 13.7881968 10.90288304 15.57471711 11.859375 17.359375 C12.33004395 18.23988525 12.80071289 19.12039551 13.28564453 20.02758789 C29.65265127 50.45581266 51.5082187 78.78866874 79 100 C79.9796875 100.78503906 80.959375 101.57007813 81.96875 102.37890625 C102.4068465 118.64792611 125.57520494 131.7664956 150 141 C151.0324585 141.391875 152.06491699 141.78375 153.12866211 142.1875 C167.09177373 147.34056482 181.50975757 150.70650408 196 154 C196.93666504 154.21495117 197.87333008 154.42990234 198.83837891 154.65136719 C211.74627819 157.4564178 224.91534318 157.29911619 238.0625 157.375 C239.38976105 157.38732666 239.38976105 157.38732666 240.74383545 157.39990234 C253.75437391 157.4891871 266.19876437 156.30001919 279 154 C279.76614624 153.86449738 280.53229248 153.72899475 281.32165527 153.58938599 C325.17671306 145.73832861 365.29212316 120.9914741 393.01171875 86.37890625 C397.25976442 81.296274 402.21387892 78.12450538 408 75 C407.51040149 80.09182455 404.99432368 83.43935107 402.125 87.5 C401.63032227 88.20632568 401.13564453 88.91265137 400.62597656 89.64038086 C378.9823841 120.11228078 350.91258453 140.93296948 317 156 C316.31357422 156.30566895 315.62714844 156.61133789 314.91992188 156.92626953 C264.74732537 178.73205186 203.93454816 172.97138087 154 154 C147.20766553 151.2662471 140.58306309 148.20099956 134 145 C133.21415527 144.62004883 132.42831055 144.24009766 131.61865234 143.84863281 C109.26346543 132.90955026 88.8272655 118.54812905 70.71875 101.5078125 C68.79556514 99.73384026 66.88046422 98.05799361 64.859375 96.40625 C62.5649219 94.47539876 60.66260534 92.66006007 58.75 90.375 C56.02097697 87.16227705 53.1970564 84.0737833 50.3125 81 C32.93096916 61.88031608 20.48918806 39.66065923 8.55908203 16.92089844 C7.27245943 14.51044544 5.94367656 12.14352095 4.55859375 9.7890625 C3 7 3 7 3 5 C2.34 5 1.68 5 1 5 C0.67 3.35 0.34 1.7 0 0 Z " fill="#07504A" transform="translate(423,292)"/>
<path d="M0 0 C0.67095703 0.57790283 0.67095703 0.57790283 1.35546875 1.16748047 C6.30634666 5.42296588 11.32550217 9.58270996 16.39746094 13.69335938 C18.08845688 15.07212389 19.76680656 16.46544066 21.4453125 17.859375 C33.01639248 27.38886583 45.27057255 35.72506181 58.5625 42.6875 C60.93303407 43.96394142 63.16944904 45.36346744 65.4375 46.8125 C91.69303036 62.62361341 122.71036368 70.79086514 152.85522461 74.71801758 C154.82053554 74.97640507 156.78168469 75.26595085 158.7421875 75.55859375 C184.6641386 78.71520037 215.82683491 76.11016922 240.26953125 66.31640625 C244 65 244 65 247 66 C230.79697507 76.03341159 213.67722726 82.47591397 195 86 C193.60189087 86.26804443 193.60189087 86.26804443 192.17553711 86.54150391 C188.78259536 87.03138971 185.5526397 87.12953112 182.125 87.1328125 C180.80886719 87.13410156 179.49273438 87.13539063 178.13671875 87.13671875 C177.11457275 87.13357666 177.11457275 87.13357666 176.07177734 87.13037109 C174.03345034 87.12508672 171.99535085 87.13029495 169.95703125 87.13671875 C158.08952333 87.14526935 146.22838163 87.11904557 134.75 83.8125 C133.95553467 83.59182861 133.16106934 83.37115723 132.3425293 83.14379883 C129.88832494 82.45018244 127.44353341 81.73025136 125 81 C123.83815186 80.65727051 123.83815186 80.65727051 122.65283203 80.30761719 C111.47865342 76.96080749 101.23889565 72.56842898 91 67 C90.39704102 66.67773438 89.79408203 66.35546875 89.17285156 66.0234375 C78.93252737 60.52617672 68.62674132 54.27602303 60.1171875 46.296875 C56.23141585 43.43367483 53.32504914 42.96607545 48.625 42.4375 C46.94380389 42.20854268 45.26282412 41.97799279 43.58203125 41.74609375 C42.68693848 41.62862793 41.7918457 41.51116211 40.86962891 41.39013672 C35.6695618 40.68316826 30.49202592 39.84252027 25.3125 39 C24.30977051 38.84587646 23.30704102 38.69175293 22.27392578 38.53295898 C16.53071401 37.60466096 11.22360158 36.62378153 6 34 C4.66796875 31.6015625 4.66796875 31.6015625 4.1875 28.625 C3.98898437 27.48933594 3.79046875 26.35367187 3.5859375 25.18359375 C3.38810813 23.78941732 3.19308937 22.39484081 3 21 C2.72234372 19.1574027 2.4436285 17.31496477 2.1640625 15.47265625 C1.39709918 10.32099455 0.68322754 5.16338409 0 0 Z " fill="#830300" transform="translate(543,324)"/>
<path d="M0 0 C0.99 0.495 0.99 0.495 2 1 C-33.07022666 42.40549341 -77.99942146 69.24021368 -132.95239258 74.84326172 C-135.99357727 75.0760554 -139.01371971 75.09459242 -142.0625 75.0625 C-143.75052734 75.04896484 -143.75052734 75.04896484 -145.47265625 75.03515625 C-146.72369141 75.01775391 -146.72369141 75.01775391 -148 75 C-148 74.67 -148 74.34 -148 74 C-147.42258057 73.90501221 -146.84516113 73.81002441 -146.25024414 73.7121582 C-134.32706284 71.72240278 -122.67441579 69.48335908 -111.17773438 65.71386719 C-109.66636508 65.21843627 -108.15176941 64.73278285 -106.63476562 64.25488281 C-80.37370925 55.95588919 -47.06738051 39.83221124 -29.73217773 17.35620117 C-25.81190275 12.31988152 -21.95154736 10.12413436 -16.0625 7.8125 C-14.51021848 7.17682842 -12.95941117 6.53754407 -11.41015625 5.89453125 C-10.66781738 5.5898291 -9.92547852 5.28512695 -9.16064453 4.97119141 C-7.02240059 4.01006887 -5.06439315 2.90955227 -3.05859375 1.69921875 C-2.04925781 1.13847656 -1.03992188 0.57773437 0 0 Z " fill="#FAF7F4" transform="translate(817,375)"/>
<path d="M0 0 C-8.50899373 3.72628619 -16.56968083 3.17205317 -25.625 2.75 C-27.11453125 2.69518058 -28.60411561 2.64178495 -30.09375 2.58984375 C-36.45958356 2.34791394 -42.70455458 1.9854094 -49 1 C-49 0.67 -49 0.34 -49 0 C-47.27499268 0.00785522 -47.27499268 0.00785522 -45.51513672 0.01586914 C-41.23242985 0.03402316 -36.94972636 0.04546996 -32.66699219 0.05493164 C-30.81640042 0.05994811 -28.9658126 0.06676282 -27.11523438 0.07543945 C-24.44920883 0.0876229 -21.78323588 0.09325528 -19.1171875 0.09765625 C-18.29507782 0.10281754 -17.47296814 0.10797882 -16.62594604 0.11329651 C-13.20043904 0.11362807 -10.06765144 0.01158701 -6.68017578 -0.56860352 C-4.03576341 -0.99424358 -2.50234727 -0.86619713 0 0 Z " fill="#D76500" transform="translate(742,410)"/>
<path d="M0 0 C0 0.33 0 0.66 0 1 C-9.42817197 2.46051903 -18.43529656 3.29032827 -28 3 C-28 2.67 -28 2.34 -28 2 C-9.17995444 -1.62870159 -9.17995444 -1.62870159 0 0 Z " fill="#D2D2BF" transform="translate(697,447)"/>
<path d="M0 0 C0.99 0.33 1.98 0.66 3 1 C1 3 1 3 -2 5.5 C-6.94963438 9.706666 -11.45156246 14.36919639 -16 19 C-16.66 18.67 -17.32 18.34 -18 18 C-12.06 12.06 -6.12 6.12 0 0 Z " fill="#328A84" transform="translate(421,290)"/>
<path d="M0 0 C-4.1995459 2.62471619 -8.55634449 4.82779123 -13 7 C-12.7734375 5.14453125 -12.7734375 5.14453125 -12 3 C-10.0390625 1.69921875 -10.0390625 1.69921875 -7.625 0.6875 C-6.83351563 0.34074219 -6.04203125 -0.00601562 -5.2265625 -0.36328125 C-3 -1 -3 -1 0 0 Z " fill="#8F1100" transform="translate(790,390)"/>
<path d="M0 0 C4.65133934 -0.47618831 6.99723976 0.92584851 10.8125 3.5 C11.78832031 4.1496875 12.76414062 4.799375 13.76953125 5.46875 C14.50558594 5.9740625 15.24164062 6.479375 16 7 C15.67 8.32 15.34 9.64 15 11 C14.25234375 10.37351562 13.5046875 9.74703125 12.734375 9.1015625 C11.74953125 8.28429687 10.7646875 7.46703125 9.75 6.625 C8.77546875 5.81289063 7.8009375 5.00078125 6.796875 4.1640625 C4.5447318 2.42148243 2.59288614 1.123584 0 0 Z " fill="#921400" transform="translate(596,366)"/>
<path d="M0 0 C-1.03491649 2.82249951 -1.69915265 3.83374226 -4.375 5.3125 C-7.16653942 6.04361747 -8.30861211 5.79596365 -11 5 C-9.54462432 4.16151196 -8.08559627 3.32936066 -6.625 2.5 C-5.81289063 2.0359375 -5.00078125 1.571875 -4.1640625 1.09375 C-2 0 -2 0 0 0 Z " fill="#F58F0E" transform="translate(787,392)"/>
<path d="M0 0 C3 1 3 1 4.25 2.8125 C5.11637742 5.33943414 4.88492145 6.52221994 4 9 C3.67 7.68 3.34 6.36 3 5 C2.34 5 1.68 5 1 5 C0.67 3.35 0.34 1.7 0 0 Z " fill="#185952" transform="translate(423,292)"/>
</svg>
