<?xml version="1.0" encoding="UTF-8"?>
<svg xmlns="http://www.w3.org/2000/svg" xmlns:xlink="http://www.w3.org/1999/xlink" width="30px" height="30px" viewBox="0 0 30 30" version="1.1">
<g id="surface1">
<path style=" stroke:none;fill-rule:nonzero;fill:rgb(25.882354%,52.156866%,97.647059%);fill-opacity:1;" d="M 14.976562 1.566406 C 15.222656 1.566406 15.222656 1.566406 15.480469 1.566406 C 17.515625 1.59375 19.632812 2.003906 21.378906 3.117188 C 21.800781 3.382812 21.800781 3.382812 22.210938 3.316406 C 22.386719 3.253906 22.386719 3.253906 22.566406 3.1875 C 22.695312 3.148438 22.820312 3.109375 22.953125 3.066406 C 23.066406 3.027344 23.183594 2.988281 23.304688 2.945312 C 23.984375 2.765625 24.363281 2.835938 25.007812 3.078125 C 25.140625 3.128906 25.273438 3.179688 25.410156 3.230469 C 25.507812 3.269531 25.609375 3.308594 25.714844 3.347656 C 25.707031 3.441406 25.703125 3.53125 25.695312 3.625 C 25.582031 5.535156 25.558594 6.835938 26.757812 8.351562 C 28.5625 10.84375 28.773438 14.476562 28.308594 17.398438 C 27.878906 19.804688 26.769531 22.457031 24.910156 24.105469 C 24.347656 24.082031 24.347656 24.082031 24.105469 23.839844 C 24.042969 23.394531 24.082031 23.207031 24.332031 22.828125 C 24.433594 22.707031 24.539062 22.582031 24.644531 22.457031 C 26.429688 20.210938 27.421875 17.207031 27.1875 14.332031 C 27.136719 13.898438 27.078125 13.46875 27.011719 13.042969 C 26.988281 12.882812 26.988281 12.882812 26.964844 12.722656 C 26.84375 11.980469 26.640625 11.289062 26.382812 10.582031 C 26.367188 10.761719 26.367188 10.761719 26.347656 10.945312 C 26.242188 11.894531 26.082031 12.761719 25.773438 13.667969 C 25.542969 14.347656 25.402344 14.953125 25.371094 15.679688 C 25.261719 18.074219 24.246094 20.332031 22.632812 22.097656 C 22.566406 22.179688 22.496094 22.261719 22.425781 22.34375 C 20.902344 24.023438 18.417969 25.183594 16.179688 25.34375 C 16.039062 25.347656 15.898438 25.355469 15.753906 25.363281 C 14.898438 25.414062 14.171875 25.65625 13.367188 25.945312 C 12.59375 26.214844 11.789062 26.363281 10.980469 26.519531 C 12.636719 26.972656 12.636719 26.972656 14.332031 27.1875 C 14.421875 27.195312 14.515625 27.203125 14.609375 27.207031 C 17.535156 27.328125 20.746094 26.285156 22.917969 24.300781 C 23.304688 23.972656 23.304688 23.972656 23.679688 23.90625 C 23.972656 23.972656 23.972656 23.972656 24.242188 24.242188 C 24.238281 24.777344 24.160156 24.988281 23.785156 25.378906 C 20.5625 27.769531 16.941406 28.933594 12.910156 28.363281 C 10.789062 28.015625 8.070312 27.046875 6.5625 25.445312 C 6.507812 25.097656 6.507812 25.097656 6.5625 24.777344 C 6.652344 24.6875 6.738281 24.601562 6.832031 24.507812 C 7.207031 24.535156 7.542969 24.609375 7.894531 24.742188 C 9.066406 25.171875 10.289062 25.109375 11.519531 25.042969 C 11.5625 25 11.605469 24.957031 11.652344 24.910156 C 11.515625 24.847656 11.375 24.78125 11.234375 24.714844 C 8.28125 23.296875 6.328125 21.402344 5.089844 18.347656 C 4.859375 18.808594 4.929688 19.328125 4.929688 19.839844 C 4.929688 20.003906 4.929688 20.003906 4.925781 20.175781 C 4.921875 20.910156 5.03125 21.523438 5.222656 22.230469 C 5.160156 22.832031 5.160156 22.832031 4.957031 23.035156 C 4.363281 23.097656 4.363281 23.097656 4.082031 22.875 C 1.886719 19.796875 1.160156 16.160156 1.6875 12.425781 C 2.054688 10.410156 2.957031 8.160156 4.417969 6.695312 C 5.03125 6.769531 5.03125 6.769531 5.222656 6.964844 C 5.222656 7.636719 5.039062 8.015625 4.664062 8.570312 C 2.894531 11.222656 2.5 14.464844 3.082031 17.542969 C 3.195312 17.996094 3.328125 18.441406 3.480469 18.882812 C 3.71875 18.0625 3.9375 17.238281 4.152344 16.410156 C 4.285156 15.9375 4.285156 15.9375 4.433594 15.59375 C 4.582031 15.191406 4.589844 14.84375 4.605469 14.414062 C 4.757812 11.96875 5.714844 9.710938 7.367188 7.902344 C 7.433594 7.820312 7.503906 7.738281 7.574219 7.65625 C 9.101562 5.96875 11.597656 4.808594 13.84375 4.65625 C 14.074219 4.648438 14.074219 4.648438 14.304688 4.636719 C 15.132812 4.59375 15.820312 4.402344 16.597656 4.136719 C 17.523438 3.824219 18.449219 3.710938 19.417969 3.617188 C 16.28125 2.527344 12.957031 2.515625 9.90625 3.886719 C 9.347656 4.164062 8.816406 4.492188 8.296875 4.835938 C 7.839844 5.132812 7.515625 5.320312 6.964844 5.222656 C 6.695312 4.957031 6.695312 4.957031 6.679688 4.652344 C 7.15625 3.488281 8.957031 2.890625 10.042969 2.410156 C 11.664062 1.761719 13.238281 1.558594 14.976562 1.566406 Z M 18.214844 4.957031 C 18.214844 5.042969 18.214844 5.132812 18.214844 5.222656 C 18.3125 5.261719 18.414062 5.296875 18.515625 5.335938 C 21.738281 6.609375 23.5625 8.820312 24.910156 11.917969 C 24.953125 11.917969 25 11.917969 25.042969 11.917969 C 25.257812 10.457031 25.367188 8.785156 24.507812 7.5 C 24.410156 7.53125 24.3125 7.558594 24.210938 7.589844 C 23.636719 7.660156 23.359375 7.382812 22.90625 7.054688 C 22.265625 6.523438 22.203125 6.019531 22.097656 5.222656 C 21.804688 5.15625 21.511719 5.089844 21.21875 5.023438 C 21.054688 4.984375 20.894531 4.949219 20.726562 4.910156 C 19.863281 4.757812 19.070312 4.835938 18.214844 4.957031 Z M 18.214844 4.957031 "/>
<path style=" stroke:none;fill-rule:nonzero;fill:rgb(23.137255%,84.313726%,59.607846%);fill-opacity:1;" d="M 14.976562 1.566406 C 15.222656 1.566406 15.222656 1.566406 15.480469 1.566406 C 17.515625 1.59375 19.632812 2.003906 21.378906 3.117188 C 21.800781 3.382812 21.800781 3.382812 22.210938 3.316406 C 22.328125 3.273438 22.445312 3.234375 22.566406 3.1875 C 22.695312 3.148438 22.820312 3.109375 22.953125 3.066406 C 23.066406 3.027344 23.183594 2.988281 23.304688 2.945312 C 23.984375 2.765625 24.363281 2.835938 25.007812 3.078125 C 25.140625 3.128906 25.273438 3.179688 25.410156 3.230469 C 25.507812 3.269531 25.609375 3.308594 25.714844 3.347656 C 25.707031 3.441406 25.703125 3.53125 25.695312 3.625 C 25.582031 5.535156 25.558594 6.835938 26.757812 8.351562 C 28.5625 10.84375 28.773438 14.476562 28.308594 17.398438 C 27.878906 19.804688 26.769531 22.457031 24.910156 24.105469 C 24.347656 24.082031 24.347656 24.082031 24.105469 23.839844 C 24.042969 23.394531 24.082031 23.207031 24.332031 22.828125 C 24.433594 22.707031 24.539062 22.582031 24.644531 22.457031 C 26.429688 20.210938 27.421875 17.207031 27.1875 14.332031 C 27.136719 13.898438 27.078125 13.46875 27.011719 13.042969 C 26.988281 12.882812 26.988281 12.882812 26.964844 12.722656 C 26.84375 11.980469 26.640625 11.289062 26.382812 10.582031 C 26.367188 10.761719 26.367188 10.761719 26.347656 10.945312 C 26.242188 11.894531 26.082031 12.761719 25.773438 13.667969 C 25.542969 14.347656 25.402344 14.953125 25.371094 15.679688 C 25.261719 18.074219 24.246094 20.332031 22.632812 22.097656 C 22.566406 22.179688 22.496094 22.261719 22.425781 22.34375 C 20.902344 24.023438 18.417969 25.183594 16.179688 25.34375 C 16.039062 25.347656 15.898438 25.355469 15.753906 25.363281 C 14.898438 25.414062 14.171875 25.65625 13.367188 25.945312 C 12.59375 26.214844 11.789062 26.363281 10.980469 26.519531 C 12.636719 26.972656 12.636719 26.972656 14.332031 27.1875 C 14.421875 27.195312 14.515625 27.203125 14.609375 27.207031 C 17.535156 27.328125 20.746094 26.285156 22.917969 24.300781 C 23.304688 23.972656 23.304688 23.972656 23.679688 23.90625 C 23.972656 23.972656 23.972656 23.972656 24.242188 24.242188 C 24.238281 24.777344 24.160156 24.988281 23.785156 25.378906 C 20.5625 27.769531 16.941406 28.933594 12.910156 28.363281 C 10.789062 28.015625 8.070312 27.046875 6.5625 25.445312 C 6.507812 25.097656 6.507812 25.097656 6.5625 24.777344 C 6.695312 24.644531 6.695312 24.644531 6.832031 24.507812 C 7.207031 24.535156 7.542969 24.609375 7.894531 24.742188 C 10.359375 25.644531 13.117188 24.894531 15.402344 23.839844 C 16.761719 23.152344 17.976562 22.253906 19.152344 21.292969 C 19.253906 21.210938 19.359375 21.125 19.464844 21.039062 C 20.097656 20.507812 20.632812 19.917969 21.160156 19.285156 C 21.257812 19.175781 21.351562 19.066406 21.449219 18.953125 C 23.570312 16.449219 25.105469 13.332031 25.074219 9.988281 C 25.007812 9.210938 24.859375 8.335938 24.507812 7.632812 C 24.410156 7.664062 24.3125 7.691406 24.210938 7.722656 C 23.636719 7.792969 23.367188 7.523438 22.914062 7.199219 C 22.539062 6.882812 22.308594 6.605469 22.097656 6.160156 C 22.089844 5.847656 22.089844 5.535156 22.097656 5.222656 C 21.003906 5.003906 20.019531 4.945312 18.910156 5.03125 C 17.640625 5.125 16.503906 4.96875 15.269531 4.6875 C 15.558594 4.398438 15.6875 4.355469 16.070312 4.25 C 16.179688 4.222656 16.285156 4.195312 16.394531 4.164062 C 16.511719 4.136719 16.625 4.105469 16.742188 4.078125 C 16.855469 4.046875 16.972656 4.015625 17.089844 3.984375 C 17.867188 3.789062 18.617188 3.65625 19.417969 3.617188 C 16.28125 2.527344 12.957031 2.515625 9.90625 3.886719 C 9.347656 4.164062 8.816406 4.492188 8.296875 4.835938 C 7.839844 5.132812 7.515625 5.320312 6.964844 5.222656 C 6.695312 4.957031 6.695312 4.957031 6.679688 4.652344 C 7.15625 3.488281 8.957031 2.890625 10.042969 2.410156 C 11.664062 1.761719 13.238281 1.558594 14.976562 1.566406 Z M 14.976562 1.566406 "/>
<path style=" stroke:none;fill-rule:nonzero;fill:rgb(99.215686%,99.607843%,99.607843%);fill-opacity:1;" d="M 18.046875 17.21875 C 19.0625 17.890625 19.84375 18.710938 20.355469 19.820312 C 20.332031 20.238281 20.265625 20.441406 19.996094 20.761719 C 16.050781 24.222656 16.050781 24.222656 14.1875 24.324219 C 14.015625 24.296875 13.839844 24.269531 13.660156 24.242188 C 13.535156 24.222656 13.40625 24.203125 13.273438 24.179688 C 12.085938 23.957031 11.089844 23.496094 10.042969 22.902344 C 9.894531 22.816406 9.746094 22.734375 9.59375 22.644531 C 9.242188 22.367188 9.242188 22.367188 9.140625 22.046875 C 9.1875 20.359375 9.90625 18.976562 11.121094 17.820312 C 13.105469 16.152344 15.792969 15.921875 18.046875 17.21875 Z M 18.046875 17.21875 "/>
<path style=" stroke:none;fill-rule:nonzero;fill:rgb(99.215686%,99.215686%,99.607843%);fill-opacity:1;" d="M 16.816406 7.910156 C 17.953125 8.589844 18.601562 9.46875 19.019531 10.714844 C 19.132812 12.082031 18.972656 13.203125 18.121094 14.304688 C 17.457031 15.019531 16.40625 15.597656 15.433594 15.714844 C 14.070312 15.734375 13.027344 15.414062 12.019531 14.472656 C 11.082031 13.367188 10.867188 12.125 10.980469 10.714844 C 11.269531 9.578125 12.054688 8.667969 13.023438 8.042969 C 14.089844 7.414062 15.691406 7.378906 16.816406 7.910156 Z M 16.816406 7.910156 "/>
<path style=" stroke:none;fill-rule:nonzero;fill:rgb(23.137255%,84.705883%,59.215689%);fill-opacity:1;" d="M 4.417969 6.695312 C 5.03125 6.769531 5.03125 6.769531 5.222656 6.964844 C 5.222656 7.636719 5.039062 8.015625 4.664062 8.570312 C 2.894531 11.222656 2.5 14.464844 3.082031 17.542969 C 3.195312 17.996094 3.328125 18.441406 3.480469 18.882812 C 3.71875 18.0625 3.9375 17.238281 4.152344 16.410156 C 4.265625 16.015625 4.390625 15.644531 4.554688 15.269531 C 4.597656 15.269531 4.640625 15.269531 4.6875 15.269531 C 4.757812 15.699219 4.828125 16.132812 4.898438 16.566406 C 4.917969 16.6875 4.9375 16.808594 4.957031 16.933594 C 4.976562 17.054688 4.996094 17.171875 5.015625 17.296875 C 5.03125 17.402344 5.050781 17.511719 5.066406 17.625 C 5.089844 17.980469 5.03125 18.269531 4.957031 18.617188 C 4.925781 19.03125 4.929688 19.445312 4.929688 19.863281 C 4.929688 20.027344 4.929688 20.027344 4.925781 20.195312 C 4.921875 20.921875 5.035156 21.53125 5.222656 22.230469 C 5.160156 22.832031 5.160156 22.832031 4.957031 23.035156 C 4.363281 23.097656 4.363281 23.097656 4.082031 22.875 C 1.886719 19.796875 1.160156 16.160156 1.6875 12.425781 C 2.054688 10.410156 2.957031 8.160156 4.417969 6.695312 Z M 4.417969 6.695312 "/>
<path style=" stroke:none;fill-rule:nonzero;fill:rgb(23.137255%,84.705883%,59.215689%);fill-opacity:1;" d="M 14.976562 1.566406 C 15.222656 1.566406 15.222656 1.566406 15.480469 1.566406 C 16.625 1.582031 17.65625 1.648438 18.75 2.007812 C 18.835938 2.039062 18.921875 2.066406 19.011719 2.097656 C 20.097656 2.460938 21.117188 2.886719 22.097656 3.480469 C 22.097656 4.058594 22.097656 4.632812 22.097656 5.222656 C 21.84375 5.175781 21.589844 5.128906 21.328125 5.082031 C 20.5 4.957031 19.742188 4.96875 18.910156 5.03125 C 17.640625 5.125 16.503906 4.96875 15.269531 4.6875 C 15.558594 4.398438 15.6875 4.355469 16.070312 4.25 C 16.179688 4.222656 16.285156 4.195312 16.394531 4.164062 C 16.511719 4.136719 16.625 4.105469 16.742188 4.078125 C 16.855469 4.046875 16.972656 4.015625 17.089844 3.984375 C 17.867188 3.789062 18.617188 3.65625 19.417969 3.617188 C 16.28125 2.527344 12.957031 2.515625 9.90625 3.886719 C 9.347656 4.164062 8.816406 4.492188 8.296875 4.835938 C 7.839844 5.132812 7.515625 5.320312 6.964844 5.222656 C 6.695312 4.957031 6.695312 4.957031 6.679688 4.652344 C 7.15625 3.488281 8.957031 2.890625 10.042969 2.410156 C 11.664062 1.761719 13.238281 1.558594 14.976562 1.566406 Z M 14.976562 1.566406 "/>
<path style=" stroke:none;fill-rule:nonzero;fill:rgb(26.274511%,52.549022%,97.647059%);fill-opacity:1;" d="M 25.179688 14.867188 C 25.222656 14.867188 25.265625 14.867188 25.3125 14.867188 C 25.46875 17.414062 24.558594 19.886719 22.890625 21.816406 C 22.804688 21.910156 22.722656 22.003906 22.632812 22.097656 C 22.566406 22.179688 22.496094 22.261719 22.425781 22.34375 C 20.902344 24.023438 18.382812 25.222656 16.140625 25.335938 C 15.757812 25.335938 15.378906 25.332031 15 25.3125 C 15.335938 24.976562 15.675781 24.84375 16.105469 24.644531 C 18.632812 23.414062 20.984375 21.386719 22.683594 19.160156 C 22.757812 19.0625 22.832031 18.964844 22.910156 18.863281 C 23.839844 17.621094 24.585938 16.296875 25.179688 14.867188 Z M 25.179688 14.867188 "/>
<path style=" stroke:none;fill-rule:nonzero;fill:rgb(85.882354%,60.392159%,96.862745%);fill-opacity:1;" d="M 25.210938 3.15625 C 25.304688 3.191406 25.398438 3.226562 25.496094 3.265625 C 25.570312 3.292969 25.640625 3.320312 25.714844 3.347656 C 25.734375 3.824219 25.746094 4.300781 25.757812 4.78125 C 25.761719 4.914062 25.765625 5.050781 25.773438 5.1875 C 25.789062 6.195312 25.789062 6.195312 25.394531 6.714844 C 25.105469 6.921875 24.839844 7.097656 24.507812 7.230469 C 24.507812 7.320312 24.507812 7.410156 24.507812 7.5 C 24.210938 7.65625 24.210938 7.65625 23.839844 7.769531 C 23.527344 7.648438 23.527344 7.648438 23.226562 7.433594 C 23.128906 7.367188 23.027344 7.296875 22.925781 7.226562 C 22.472656 6.816406 22.136719 6.460938 22.054688 5.832031 C 22.046875 5.453125 22.050781 5.082031 22.066406 4.703125 C 22.066406 4.574219 22.070312 4.441406 22.070312 4.308594 C 22.078125 3.988281 22.085938 3.667969 22.097656 3.347656 C 23.277344 2.84375 23.992188 2.6875 25.210938 3.15625 Z M 25.210938 3.15625 "/>
<path style=" stroke:none;fill-rule:nonzero;fill:rgb(86.274511%,60.392159%,97.254902%);fill-opacity:1;" d="M 6.832031 5.222656 C 7.039062 5.636719 7.003906 5.972656 6.964844 6.429688 C 6.753906 6.753906 6.753906 6.753906 6.429688 6.964844 C 5.9375 7.027344 5.621094 7.027344 5.171875 6.8125 C 4.867188 6.460938 4.832031 6.222656 4.820312 5.757812 C 4.996094 5.335938 5.144531 5.140625 5.523438 4.886719 C 6.054688 4.792969 6.363281 4.972656 6.832031 5.222656 Z M 6.832031 5.222656 "/>
<path style=" stroke:none;fill-rule:nonzero;fill:rgb(86.274511%,60.392159%,97.254902%);fill-opacity:1;" d="M 6.292969 23.035156 C 6.554688 23.179688 6.554688 23.179688 6.695312 23.4375 C 6.75 23.851562 6.78125 24.113281 6.695312 24.507812 C 6.421875 24.851562 6.421875 24.851562 6.027344 25.042969 C 5.5625 25.035156 5.238281 24.992188 4.828125 24.769531 C 4.59375 24.335938 4.589844 23.90625 4.6875 23.4375 C 5.175781 22.832031 5.570312 22.835938 6.292969 23.035156 Z M 6.292969 23.035156 "/>
<path style=" stroke:none;fill-rule:nonzero;fill:rgb(95.294118%,98.039216%,98.431373%);fill-opacity:1;" d="M 20.757812 21.429688 C 20.757812 21.738281 20.757812 22.046875 20.757812 22.367188 C 20.464844 22.535156 20.167969 22.707031 19.871094 22.875 C 19.789062 22.925781 19.707031 22.972656 19.621094 23.019531 C 18.542969 23.640625 18.542969 23.640625 18.082031 23.839844 C 17.949219 23.796875 17.816406 23.75 17.679688 23.707031 C 17.800781 23.621094 17.925781 23.535156 18.050781 23.445312 C 18.882812 22.859375 19.695312 22.277344 20.445312 21.585938 C 20.625 21.429688 20.625 21.429688 20.757812 21.429688 Z M 20.757812 21.429688 "/>
</g>
</svg>
