<?xml version="1.0" encoding="UTF-8"?>
<!-- Created with Inkscape (http://www.inkscape.org/) -->
<svg width="800" height="800" version="1.1" viewBox="0 0 800 800" xml:space="preserve" xmlns="http://www.w3.org/2000/svg"><defs><clipPath id="clipPath758"><path d="m0 600h600v-600h-600z"/></clipPath></defs><g transform="matrix(1.3333 0 0 -1.3333 0 800)"><g transform="translate(154.92 430.59)"><path d="m0 0c13.067 14.642 27.939 27.187 44.616 37.635 21.422 13.421 45.221 22.437 71.399 27.047s53.079 3.134 80.704-4.427c6.668-1.825 13.407-4.011 20.219-6.559 6.812-2.547 13.652-5.613 20.52-9.2-6.768-13.506-9.509-27.262-8.223-41.267 1.286-14.004 5.541-26.517 12.764-37.539 7.222-11.022 16.987-19.924 29.296-26.706 12.308-6.782 26.099-9.704 41.374-8.765-13.383-16.474-17.103-34.74-11.159-54.798s19.307-33.272 40.09-39.644c-0.639-3.579-1.291-6.899-1.958-9.959s-1.479-6.336-2.435-9.829c-7.127-26.037-18.841-49.197-35.145-69.48-16.303-20.283-35.396-36.73-57.279-49.342-12.163-7.01-24.95-12.637-38.36-16.881m-32.79-7.445c-0.183-0.026-0.366-0.052-0.55-0.078-25.917-3.657-52.052-1.879-78.407 5.334-26.354 7.214-49.752 18.994-70.194 35.341-20.442 16.346-36.889 35.439-49.342 57.279-12.453 21.839-20.508 45.717-24.166 71.634s-1.879 52.053 5.334 78.408c1.96 7.159 4.324 14.162 7.092 21.008" fill="none" stroke="#4285fa" stroke-linecap="round" stroke-linejoin="round" stroke-miterlimit="10" stroke-width="25.168"/></g><g transform="translate(213.94 381.3)"><path d="m0 0c0 32.054 25.985 58.039 58.039 58.039 32.055 0 58.04-25.985 58.04-58.039s-25.985-58.039-58.04-58.039c-32.054 0-58.039 25.985-58.039 58.039z" fill="none" stroke="#dc9af8" stroke-linecap="round" stroke-linejoin="round" stroke-miterlimit="10" stroke-width="25.168"/></g><g transform="translate(175.62 237.35)"><path d="m0 0c0 23.065 18.698 41.763 41.763 41.763s41.762-18.698 41.762-41.763-18.697-41.763-41.762-41.763-41.763 18.698-41.763 41.763z" fill="none" stroke="#3bd897" stroke-linecap="round" stroke-linejoin="round" stroke-miterlimit="10" stroke-width="25.168"/></g><g transform="translate(346.96 216.46)"><path d="m0 0c0 18.611 15.087 33.698 33.698 33.698s33.698-15.087 33.698-33.698-15.087-33.698-33.698-33.698-33.698 15.087-33.698 33.698z" fill="none" stroke="#dc9af8" stroke-linecap="round" stroke-linejoin="round" stroke-miterlimit="10" stroke-width="25.168"/></g><g transform="translate(121.49 403.23)"><path d="m0 0c0.119 6.895 5.805 12.388 12.7 12.268 6.895-0.119 12.388-5.805 12.268-12.7-0.119-6.895-5.805-12.387-12.7-12.268s-12.387 5.805-12.268 12.7" fill="#4285fa"/></g></g></svg>
