<?xml version="1.0" encoding="UTF-8"?>
<!-- Created with Inkscape (http://www.inkscape.org/) -->
<svg width="800" height="800" version="1.1" viewBox="0 0 800 800" xml:space="preserve" xmlns="http://www.w3.org/2000/svg"><defs><clipPath id="clipPath998"><path d="m0 600h600v-600h-600z"/></clipPath><clipPath id="clipPath1054"><path d="m0 600h600v-600h-600z"/></clipPath></defs><g transform="matrix(1.3333 0 0 -1.3333 0 800)"><g transform="translate(93.246 282.21)"><path d="m0 0v169.59" fill="none" stroke="#4285fa" stroke-linecap="round" stroke-linejoin="round" stroke-miterlimit="10" stroke-width="25.168"/></g><g transform="translate(93.246 171.07)"><path d="m0 0v45.801z" fill="#fff"/></g><g transform="translate(93.246 171.07)"><path d="m0 0v45.801" fill="none" stroke="#4285fa" stroke-linecap="round" stroke-linejoin="round" stroke-miterlimit="10" stroke-width="25.168"/></g><g clip-path="url(#clipPath998)"><g transform="translate(202.69 67.718)"><path d="m0 0c-1.963-0.111-3.941-0.167-5.932-0.167-57.17 0-103.52 46.345-103.52 103.52v29.717" fill="none" stroke="#4285fa" stroke-linecap="round" stroke-linejoin="round" stroke-miterlimit="10" stroke-width="25.168"/></g><g transform="translate(507.31 425.49)"><path d="m0 0c0 57.17-46.346 103.52-103.52 103.52s-103.52-46.346-103.52-103.52v-254.42c0-43.537-26.877-80.796-64.944-96.091" fill="none" stroke="#4285fa" stroke-linecap="round" stroke-linejoin="round" stroke-miterlimit="10" stroke-width="25.168"/></g><g transform="translate(93.246 236.53)"><path d="m0 0c-7.062 0-12.786 5.725-12.786 12.786 0 7.062 5.724 12.786 12.786 12.786s12.786-5.724 12.786-12.786c0-7.061-5.724-12.786-12.786-12.786" fill="#4285fa"/></g><g transform="translate(507.31 418.71)"><path d="m0 0v8.087" fill="none" stroke="#4285fa" stroke-linecap="round" stroke-linejoin="round" stroke-miterlimit="10" stroke-width="25.168"/></g><g transform="translate(507.31 250.86)"><path d="m0 0v102.51" fill="#fff" stroke="#4285fa" stroke-linecap="round" stroke-linejoin="round" stroke-miterlimit="10" stroke-width="25.168"/></g><g transform="translate(507.31 140.35)"><path d="m0 0v77.088" fill="none" stroke="#4285fa" stroke-linecap="round" stroke-linejoin="round" stroke-miterlimit="10" stroke-width="25.168"/></g><g transform="translate(507.31 373.03)"><path d="m0 0c-7.062 0-12.786 5.724-12.786 12.786s5.724 12.786 12.786 12.786 12.786-5.724 12.786-12.786-5.724-12.786-12.786-12.786" fill="#4285fa"/></g><g transform="translate(446.17 111.44)"><path d="m0 0c0 33.778 27.383 61.161 61.161 61.161 33.779 0 61.161-27.383 61.161-61.161s-27.382-61.161-61.161-61.161c-33.778 0-61.161 27.383-61.161 61.161" fill="#dc9af8"/></g><g transform="translate(239.12 299.95)"><path d="m0 0c0 33.778 27.383 61.161 61.161 61.161 33.779 0 61.161-27.383 61.161-61.161s-27.382-61.161-61.161-61.161c-33.778 0-61.161 27.383-61.161 61.161" fill="#dc9af8"/></g><g transform="translate(32.085 487.96)"><path d="m0 0c0 33.778 27.383 61.161 61.161 61.161 33.779 0 61.161-27.383 61.161-61.161s-27.382-61.161-61.161-61.161c-33.778 0-61.161 27.383-61.161 61.161" fill="#3bd897"/></g><g transform="translate(62.443 452.25)"><path d="m0 0c0 16.522 13.008 30.006 29.341 30.768 17.633 0.824 32.264-13.554 32.264-31.206 0 0-30.953-22.094-61.605 0.438" fill="#fff"/></g><g transform="translate(71.903 509.42)"><path d="m0 0c0 11.787 9.556 21.343 21.343 21.343s21.343-9.556 21.343-21.343-9.556-21.343-21.343-21.343-21.343 9.556-21.343 21.343" fill="#fff"/></g></g><g clip-path="url(#clipPath1054)"><g transform="translate(288.02 301.1)"><path d="m0 0h23.981zm-11.477 23.981h50.531c1.314 0 2.313-0.585 2.998-1.756 0.685-1.17 0.714-2.355 0.086-3.554l-12.162-21.926c-0.628-1.141-1.47-2.026-2.527-2.655-1.056-0.628-2.212-0.942-3.468-0.942h-25.523l-3.768-6.851h41.11v-6.852h-41.11c-2.569 0-4.511 1.128-5.824 3.383s-1.37 4.496-0.171 6.723l4.625 8.394-12.333 26.036h-6.852v6.851h11.134zm3.255-6.852 8.222-17.129h23.981l9.421 17.129zm37.17-54.813c-1.884 0-3.497 0.671-4.839 2.013-1.342 1.341-2.012 2.954-2.012 4.839 0 1.884 0.67 3.497 2.012 4.839 1.342 1.341 2.955 2.012 4.839 2.012s3.497-0.671 4.839-2.012c1.342-1.342 2.013-2.955 2.013-4.839 0-1.885-0.671-3.498-2.013-4.839-1.342-1.342-2.955-2.013-4.839-2.013m-34.258 0c-1.884 0-3.497 0.671-4.839 2.013-1.342 1.341-2.013 2.954-2.013 4.839 0 1.884 0.671 3.497 2.013 4.839 1.342 1.341 2.955 2.012 4.839 2.012s3.497-0.671 4.839-2.012c1.342-1.342 2.013-2.955 2.013-4.839 0-1.885-0.671-3.498-2.013-4.839-1.342-1.342-2.955-2.013-4.839-2.013" fill="#fff"/></g><g transform="translate(477.32 89.84)"><path d="m0 0v45.894zm0 0h60.015v24.888h-60.015zm0 36.274h60.015v9.62h-60.015zm65.31 9.62v-45.894c0-1.412-0.529-2.648-1.588-3.707-1.06-1.059-2.295-1.588-3.707-1.588h-60.015c-1.412 0-2.648 0.529-3.707 1.588s-1.588 2.295-1.588 3.707v45.894c0 1.412 0.529 2.647 1.588 3.706 1.059 1.06 2.295 1.589 3.707 1.589h60.015c1.412 0 2.647-0.529 3.707-1.589 1.059-1.059 1.588-2.294 1.588-3.706" fill="#fff"/></g></g></g></svg>
