<?xml version="1.0" encoding="UTF-8"?>
<!-- Created with Inkscape (http://www.inkscape.org/) -->
<svg width="886.17" height="800" version="1.1" viewBox="0 0 886.17 800" xml:space="preserve" xmlns="http://www.w3.org/2000/svg">
    <defs>
        <clipPath id="clipPath794"><path d="m0 600h664.63v-600h-664.63z"/></clipPath>
    </defs>
    <g transform="matrix(1.3333 0 0 -1.3333 0 800)">
            <g transform="translate(178.56 486.78)">
                <path d="m0 0h417.61c12.747 0 23.081-10.334 23.081-23.081v-154.92" fill="none" stroke="#4285fa" stroke-linecap="round" stroke-linejoin="round" stroke-miterlimit="10" stroke-width="25.168"/>
            </g>
            <g transform="translate(45.954 374.41)">
                <path d="m0 0v89.286c0 12.748 10.334 23.082 23.081 23.082h109.52" fill="none" stroke="#4285fa" stroke-linecap="round" stroke-linejoin="round" stroke-miterlimit="10" stroke-width="25.168"/>
            </g>
            <g transform="translate(481.66 114.17)">
                <path d="m0 0h-412.63c-12.747 0-23.081 10.334-23.081 23.081v254.52" fill="none" stroke="#4285fa" stroke-linecap="round" stroke-linejoin="round" stroke-miterlimit="10" stroke-width="25.168"/>
            </g>
            <g transform="translate(572.01 114.17)">
                <path d="m0 0h-18.124" fill="#fff" stroke="#4285fa" stroke-linecap="round" stroke-linejoin="round" stroke-miterlimit="10" stroke-width="25.168"/>
            </g>
            <g transform="translate(619.25 338.14)">
                <path d="m0 0v-200.88c0-12.747-10.334-23.081-23.081-23.081h-42.963" fill="none" stroke="#4285fa" stroke-linecap="round" stroke-linejoin="round" stroke-miterlimit="10" stroke-width="25.168"/>
            </g>
            <g transform="translate(532.15 114.17)">
                <path d="m0 0c0-7.805-6.327-14.133-14.133-14.133-7.805 0-14.133 6.328-14.133 14.133s6.328 14.133 14.133 14.133c7.806 0 14.133-6.328 14.133-14.133" fill="#4285fa"/>
            </g>
            <g transform="translate(108.51 439.75)">
                <path d="m0 0c0-7.805-6.327-14.133-14.133-14.133-7.805 0-14.133 6.328-14.133 14.133s6.328 14.133 14.133 14.133c7.806 0 14.133-6.328 14.133-14.133" fill="#4285fa"/>
            </g>
            <g transform="translate(148.37 439.75)">
                <path d="m0 0c0-7.805-6.327-14.133-14.133-14.133-7.805 0-14.133 6.328-14.133 14.133s6.328 14.133 14.133 14.133c7.806 0 14.133-6.328 14.133-14.133" fill="#4285fa"/>
            </g>
            <g transform="translate(188.24 439.75)"><path d="m0 0c0-7.805-6.327-14.133-14.133-14.133-7.805 0-14.133 6.328-14.133 14.133s6.328 14.133 14.133 14.133c7.806 0 14.133-6.328 14.133-14.133" fill="#4285fa"/></g><g transform="translate(400.2 308.73)"><path d="m0 0-102.65 59.263c-5.505 3.178-12.387-0.795-12.387-7.152v-118.52c0-6.357 6.882-10.33 12.387-7.152l102.65 59.263c5.505 3.179 5.505 11.125 0 14.303" fill="#3bd897"/></g><g transform="translate(203.41 268.46)"><path d="m0 0c-2.706 10.49-4.146 21.489-4.146 32.824 0 72.353 58.654 131.01 131.01 131.01 20.484 0 39.869-4.701 57.137-13.083" fill="none" stroke="#dc9af8" stroke-linecap="round" stroke-linejoin="round" stroke-miterlimit="10" stroke-width="25.168"/></g><g transform="translate(443.36 367.47)"><path d="m0 0c11.392-19.423 17.924-42.041 17.924-66.185 0-72.354-58.654-131.01-131.01-131.01-47.808 0-89.634 25.607-112.51 63.854" fill="none" stroke="#dc9af8" stroke-linecap="round" stroke-linejoin="round" stroke-miterlimit="10" stroke-width="25.168"/></g><g transform="translate(433 397.57)"><path d="m0 0c0-7.805-6.327-14.133-14.133-14.133-7.805 0-14.133 6.328-14.133 14.133s6.328 14.133 14.133 14.133c7.806 0 14.133-6.328 14.133-14.133" fill="#dc9af8"/></g></g></svg>
