<?xml version="1.0" encoding="UTF-8" standalone="no"?>
<!-- Created with Inkscape (http://www.inkscape.org/) -->

<svg
   version="1.1"
   id="svg130"
   xml:space="preserve"
   width="797.95026"
   height="532.42798"
   viewBox="0 0 797.95025 532.42798"
   sodipodi:docname="Demos.svg"
   inkscape:version="1.1.2 (0a00cf5339, 2022-02-04)"
   xmlns:inkscape="http://www.inkscape.org/namespaces/inkscape"
   xmlns:sodipodi="http://sodipodi.sourceforge.net/DTD/sodipodi-0.dtd"
   xmlns="http://www.w3.org/2000/svg"
   xmlns:svg="http://www.w3.org/2000/svg"><defs
     id="defs134"><clipPath
       clipPathUnits="userSpaceOnUse"
       id="clipPath144"><path
         d="M 0,600 H 664.627 V 0 H 0 Z"
         id="path142" /></clipPath></defs><sodipodi:namedview
     id="namedview132"
     pagecolor="#ffffff"
     bordercolor="#666666"
     borderopacity="1.0"
     inkscape:pageshadow="2"
     inkscape:pageopacity="0.0"
     inkscape:pagecheckerboard="0"
     showgrid="false"
     inkscape:zoom="1.09125"
     inkscape:cx="398.16724"
     inkscape:cy="266.20848"
     inkscape:window-width="2560"
     inkscape:window-height="1371"
     inkscape:window-x="0"
     inkscape:window-y="32"
     inkscape:window-maximized="1"
     inkscape:current-layer="g136" /><g
     id="g136"
     inkscape:groupmode="layer"
     inkscape:label="Demos"
     transform="matrix(1.3333333,0,0,-1.3333333,-44.493333,665.81305)"><g
       id="g138"><g
         id="g140"
         clip-path="url(#clipPath144)"><g
           id="g146"
           transform="translate(178.5557,486.7756)"><path
             d="m 0,0 h 417.612 c 12.747,0 23.081,-10.334 23.081,-23.081 v -154.915"
             style="fill:none;stroke:#4285fa;stroke-width:25.168;stroke-linecap:round;stroke-linejoin:round;stroke-miterlimit:10;stroke-dasharray:none;stroke-opacity:1"
             id="path148" /></g><g
           id="g150"
           transform="translate(45.954,374.4078)"><path
             d="m 0,0 v 89.286 c 0,12.748 10.334,23.082 23.081,23.082 h 109.521"
             style="fill:none;stroke:#4285fa;stroke-width:25.168;stroke-linecap:round;stroke-linejoin:round;stroke-miterlimit:10;stroke-dasharray:none;stroke-opacity:1"
             id="path152" /></g><g
           id="g154"
           transform="translate(481.6613,114.1718)"><path
             d="m 0,0 h -412.626 c -12.747,0 -23.081,10.334 -23.081,23.081 v 254.524"
             style="fill:none;stroke:#4285fa;stroke-width:25.168;stroke-linecap:round;stroke-linejoin:round;stroke-miterlimit:10;stroke-dasharray:none;stroke-opacity:1"
             id="path156" /></g><g
           id="g158"
           transform="translate(572.0052,114.1718)"><path
             d="M 0,0 H -18.124"
             style="fill:#ffffff;fill-opacity:1;fill-rule:nonzero;stroke:#4285fa;stroke-width:25.168;stroke-linecap:round;stroke-linejoin:round;stroke-miterlimit:10;stroke-dasharray:none;stroke-opacity:1"
             id="path160" /></g><g
           id="g162"
           transform="translate(619.2486,338.137)"><path
             d="m 0,0 v -200.884 c 0,-12.747 -10.334,-23.081 -23.081,-23.081 h -42.963"
             style="fill:none;stroke:#4285fa;stroke-width:25.168;stroke-linecap:round;stroke-linejoin:round;stroke-miterlimit:10;stroke-dasharray:none;stroke-opacity:1"
             id="path164" /></g><g
           id="g166"
           transform="translate(532.152,114.1718)"><path
             d="m 0,0 c 0,-7.805 -6.327,-14.133 -14.133,-14.133 -7.805,0 -14.133,6.328 -14.133,14.133 0,7.805 6.328,14.133 14.133,14.133 C -6.327,14.133 0,7.805 0,0"
             style="fill:#4285fa;fill-opacity:1;fill-rule:nonzero;stroke:none"
             id="path168" /></g><g
           id="g170"
           transform="translate(108.5135,439.7533)"><path
             d="m 0,0 c 0,-7.805 -6.327,-14.133 -14.133,-14.133 -7.805,0 -14.133,6.328 -14.133,14.133 0,7.805 6.328,14.133 14.133,14.133 C -6.327,14.133 0,7.805 0,0"
             style="fill:#4285fa;fill-opacity:1;fill-rule:nonzero;stroke:none"
             id="path172" /></g><g
           id="g174"
           transform="translate(148.3744,439.7533)"><path
             d="m 0,0 c 0,-7.805 -6.327,-14.133 -14.133,-14.133 -7.805,0 -14.133,6.328 -14.133,14.133 0,7.805 6.328,14.133 14.133,14.133 C -6.327,14.133 0,7.805 0,0"
             style="fill:#4285fa;fill-opacity:1;fill-rule:nonzero;stroke:none"
             id="path176" /></g><g
           id="g178"
           transform="translate(188.2352,439.7533)"><path
             d="m 0,0 c 0,-7.805 -6.327,-14.133 -14.133,-14.133 -7.805,0 -14.133,6.328 -14.133,14.133 0,7.805 6.328,14.133 14.133,14.133 C -6.327,14.133 0,7.805 0,0"
             style="fill:#4285fa;fill-opacity:1;fill-rule:nonzero;stroke:none"
             id="path180" /></g><g
           id="g182"
           transform="translate(400.2,308.7275)"><path
             d="m 0,0 -102.646,59.263 c -5.505,3.178 -12.387,-0.795 -12.387,-7.152 V -66.414 c 0,-6.357 6.882,-10.33 12.387,-7.152 L 0,-14.303 C 5.505,-11.124 5.505,-3.178 0,0"
             style="fill:#3bd897;fill-opacity:1;fill-rule:nonzero;stroke:none"
             id="path184" /></g><g
           id="g186"
           transform="translate(203.4107,268.4573)"><path
             d="m 0,0 c -2.706,10.49 -4.146,21.489 -4.146,32.824 0,72.353 58.654,131.007 131.007,131.007 20.484,0 39.869,-4.701 57.137,-13.083"
             style="fill:none;stroke:#dc9af8;stroke-width:25.168;stroke-linecap:round;stroke-linejoin:round;stroke-miterlimit:10;stroke-dasharray:none;stroke-opacity:1"
             id="path188" /></g><g
           id="g190"
           transform="translate(443.3552,367.4664)"><path
             d="m 0,0 c 11.392,-19.423 17.924,-42.041 17.924,-66.185 0,-72.354 -58.654,-131.007 -131.007,-131.007 -47.808,0 -89.634,25.607 -112.511,63.854"
             style="fill:none;stroke:#dc9af8;stroke-width:25.168;stroke-linecap:round;stroke-linejoin:round;stroke-miterlimit:10;stroke-dasharray:none;stroke-opacity:1"
             id="path192" /></g><g
           id="g194"
           transform="translate(433.0046,397.5693)"><path
             d="m 0,0 c 0,-7.805 -6.327,-14.133 -14.133,-14.133 -7.805,0 -14.133,6.328 -14.133,14.133 0,7.805 6.328,14.133 14.133,14.133 C -6.327,14.133 0,7.805 0,0"
             style="fill:#dc9af8;fill-opacity:1;fill-rule:nonzero;stroke:none"
             id="path196" /></g></g></g></g></svg>
