<?xml version="1.0" encoding="UTF-8" standalone="no"?>
<!-- Created with Inkscape (http://www.inkscape.org/) -->

<svg
   version="1.1"
   id="svg266"
   xml:space="preserve"
   width="405.16489"
   height="573.37823"
   viewBox="0 0 405.16489 573.37823"
   sodipodi:docname="Help Center.svg"
   inkscape:version="1.1.2 (0a00cf5339, 2022-02-04)"
   xmlns:inkscape="http://www.inkscape.org/namespaces/inkscape"
   xmlns:sodipodi="http://sodipodi.sourceforge.net/DTD/sodipodi-0.dtd"
   xmlns="http://www.w3.org/2000/svg"
   xmlns:svg="http://www.w3.org/2000/svg"><defs
     id="defs270"><clipPath
       clipPathUnits="userSpaceOnUse"
       id="clipPath280"><path
         d="M 0,600 H 600 V 0 H 0 Z"
         id="path278" /></clipPath></defs><sodipodi:namedview
     id="namedview268"
     pagecolor="#ffffff"
     bordercolor="#666666"
     borderopacity="1.0"
     inkscape:pageshadow="2"
     inkscape:pageopacity="0.0"
     inkscape:pagecheckerboard="0"
     showgrid="false"
     inkscape:zoom="1.09125"
     inkscape:cx="202.06186"
     inkscape:cy="286.36884"
     inkscape:window-width="2560"
     inkscape:window-height="1371"
     inkscape:window-x="0"
     inkscape:window-y="32"
     inkscape:window-maximized="1"
     inkscape:current-layer="g272" /><g
     id="g272"
     inkscape:groupmode="layer"
     inkscape:label="Help Center"
     transform="matrix(1.3333333,0,0,-1.3333333,-197.80091,686.28838)"><g
       id="g274"><g
         id="g276"
         clip-path="url(#clipPath280)"><g
           id="g282"
           transform="translate(227.0123,481.6061)"><path
             d="m 0,0 c 7.01,2.472 14.696,-1.206 17.168,-8.216 2.472,-7.01 -1.206,-14.696 -8.216,-17.168 -7.01,-2.472 -14.696,1.206 -17.168,8.216 C -10.688,-10.159 -7.01,-2.472 0,0"
             style="fill:#dc9af8;fill-opacity:1;fill-rule:nonzero;stroke:none"
             id="path284" /></g><g
           id="g286"
           transform="translate(337.499,325.0203)"><path
             d="m 0,0 c 33.285,13.873 56.683,46.719 56.683,85.031 0,50.855 -41.227,92.081 -92.082,92.081 -15.376,0 -29.872,-3.769 -42.614,-10.433"
             style="fill:none;stroke:#4285fa;stroke-width:25.168;stroke-linecap:round;stroke-linejoin:round;stroke-miterlimit:10;stroke-dasharray:none;stroke-opacity:1"
             id="path288" /></g><g
           id="g290"
           transform="translate(213.7753,436.1673)"><path
             d="m 0,0 c -2.444,-8.279 -3.756,-17.044 -3.756,-26.116 0,-37.697 22.653,-70.104 55.089,-84.349"
             style="fill:none;stroke:#4285fa;stroke-width:25.168;stroke-linecap:round;stroke-linejoin:round;stroke-miterlimit:10;stroke-dasharray:none;stroke-opacity:1"
             id="path292" /></g><g
           id="g294"
           transform="translate(300.8225,344.1231)"><path
             d="m 0,0 c -6.326,0 -11.454,5.128 -11.454,11.454 v 4.998 c 0,4.939 0.616,9.267 1.855,12.973 1.229,3.706 3.299,7.304 6.212,10.794 2.903,3.491 6.683,7.338 11.338,11.558 2.908,2.614 5.454,5.087 7.632,7.412 2.183,2.325 3.848,4.798 5.013,7.417 1.165,2.614 1.748,5.59 1.748,8.939 0,5.522 -1.929,10.172 -5.782,13.957 -3.853,3.774 -9.262,5.669 -16.243,5.669 -4.651,0 -8.611,-0.984 -11.886,-2.948 -3.27,-1.963 -5.924,-4.435 -7.955,-7.411 -0.205,-0.299 -0.405,-0.599 -0.6,-0.899 -3.004,-4.621 -8.889,-6.413 -13.976,-4.293 v 0 c -6.694,2.789 -9.119,10.997 -5.073,17.015 0.624,0.93 1.287,1.858 1.986,2.785 3.779,5.018 8.758,9.267 14.936,12.757 6.178,3.491 13.629,5.234 22.353,5.234 9.007,0 16.928,-1.782 23.767,-5.341 6.829,-3.564 12.175,-8.47 16.023,-14.721 3.853,-6.251 5.781,-13.301 5.781,-21.148 0,-5.821 -1.057,-10.981 -3.162,-15.485 -2.11,-4.508 -4.724,-8.503 -7.847,-11.993 -3.134,-3.491 -6.144,-6.614 -9.052,-9.375 -3.197,-2.913 -5.777,-5.635 -7.74,-8.176 C 15.911,28.627 14.491,26.008 13.62,23.32 12.749,20.628 12.313,17.465 12.313,13.833 V 11.454 C 12.313,5.128 7.185,0 0.859,0 Z"
             style="fill:#3bd897;fill-opacity:1;fill-rule:nonzero;stroke:none"
             id="path296" /></g><g
           id="g298"
           transform="translate(295.0624,329.8004)"><path
             d="m 0,0 c -6.609,-3.401 -9.209,-11.516 -5.808,-18.125 3.401,-6.609 11.516,-9.209 18.125,-5.808 6.609,3.401 9.209,11.516 5.808,18.125 C 14.724,0.801 6.609,3.401 0,0"
             style="fill:#3bd897;fill-opacity:1;fill-rule:nonzero;stroke:none"
             id="path300" /></g><g
           id="g302"
           transform="translate(229.5633,109.4046)"><path
             d="m 0,0 c 22.398,-7.98 46.241,-12.138 70.724,-12.138 51.919,0 100.956,18.699 139.45,52.89 -1.58,12.655 -4.844,24.788 -9.559,36.167"
             style="fill:none;stroke:#4285fa;stroke-width:25.168;stroke-linecap:round;stroke-linejoin:round;stroke-miterlimit:10;stroke-dasharray:none;stroke-opacity:1"
             id="path304" /></g><g
           id="g306"
           transform="translate(384.9997,244.7145)"><path
             d="m 0,0 c -23.555,17.82 -52.899,28.391 -84.713,28.391 -71.661,0 -130.793,-53.634 -139.449,-122.95 10.761,-9.558 22.347,-17.906 34.59,-24.973"
             style="fill:none;stroke:#4285fa;stroke-width:25.168;stroke-linecap:round;stroke-linejoin:round;stroke-miterlimit:10;stroke-dasharray:none;stroke-opacity:1"
             id="path308" /></g><g
           id="g310"
           transform="translate(424.9278,218.7778)"><path
             d="m 0,0 c -0.129,7.432 -6.257,13.352 -13.689,13.224 -7.432,-0.129 -13.352,-6.258 -13.224,-13.689 0.129,-7.432 6.258,-13.353 13.689,-13.224 C -5.792,-13.561 0.129,-7.432 0,0"
             style="fill:#dc9af8;fill-opacity:1;fill-rule:nonzero;stroke:none"
             id="path312" /></g></g></g></g></svg>
