<?xml version="1.0" encoding="UTF-8"?>
<!-- Created with Inkscape (http://www.inkscape.org/) -->
<svg width="800" height="800" version="1.1" viewBox="0 0 800 800" xml:space="preserve" xmlns="http://www.w3.org/2000/svg">
  <defs>
    <clipPath id="clipPath1078">
      <path d="m0 600h600v-600h-600z" />
    </clipPath>
  </defs>
  <g transform="matrix(1.3333 0 0 -1.3333 0 800)">
      <g transform="translate(227.01 481.61)">
        <path d="m0 0c7.01 2.472 14.696-1.206 17.168-8.216s-1.206-14.696-8.216-17.168-14.696 1.206-17.168 8.216c-2.472 7.009 1.206 14.696 8.216 17.168" fill="#dc9af8" />
      </g>
      <g transform="translate(337.5 325.02)">
        <path d="m0 0c33.285 13.873 56.683 46.719 56.683 85.031 0 50.855-41.227 92.081-92.082 92.081-15.376 0-29.872-3.769-42.614-10.433" fill="none" stroke="#4285fa" stroke-linecap="round" stroke-linejoin="round" stroke-miterlimit="10" stroke-width="25.168" />
      </g>
      <g transform="translate(213.78 436.17)">
        <path d="m0 0c-2.444-8.279-3.756-17.044-3.756-26.116 0-37.697 22.653-70.104 55.089-84.349" fill="none" stroke="#4285fa" stroke-linecap="round" stroke-linejoin="round" stroke-miterlimit="10" stroke-width="25.168" />
      </g>
      <g transform="translate(300.82 344.12)">
        <path d="m0 0c-6.326 0-11.454 5.128-11.454 11.454v4.998c0 4.939 0.616 9.267 1.855 12.973 1.229 3.706 3.299 7.304 6.212 10.794 2.903 3.491 6.683 7.338 11.338 11.558 2.908 2.614 5.454 5.087 7.632 7.412 2.183 2.325 3.848 4.798 5.013 7.417 1.165 2.614 1.748 5.59 1.748 8.939 0 5.522-1.929 10.172-5.782 13.957-3.853 3.774-9.262 5.669-16.243 5.669-4.651 0-8.611-0.984-11.886-2.948-3.27-1.963-5.924-4.435-7.955-7.411-0.205-0.299-0.405-0.599-0.6-0.899-3.004-4.621-8.889-6.413-13.976-4.293-6.694 2.789-9.119 10.997-5.073 17.015 0.624 0.93 1.287 1.858 1.986 2.785 3.779 5.018 8.758 9.267 14.936 12.757 6.178 3.491 13.629 5.234 22.353 5.234 9.007 0 16.928-1.782 23.767-5.341 6.829-3.564 12.175-8.47 16.023-14.721 3.853-6.251 5.781-13.301 5.781-21.148 0-5.821-1.057-10.981-3.162-15.485-2.11-4.508-4.724-8.503-7.847-11.993-3.134-3.491-6.144-6.614-9.052-9.375-3.197-2.913-5.777-5.635-7.74-8.176-1.963-2.545-3.383-5.164-4.254-7.852-0.871-2.692-1.307-5.855-1.307-9.487v-2.379c0-6.326-5.128-11.454-11.454-11.454z" fill="#3bd897" />
      </g>
      <g transform="translate(295.06 329.8)">
        <path d="m0 0c-6.609-3.401-9.209-11.516-5.808-18.125s11.516-9.209 18.125-5.808 9.209 11.516 5.808 18.125-11.516 9.209-18.125 5.808" fill="#3bd897" />
      </g>
      <g transform="translate(229.56 109.4)">
        <path d="m0 0c22.398-7.98 46.241-12.138 70.724-12.138 51.919 0 100.96 18.699 139.45 52.89-1.58 12.655-4.844 24.788-9.559 36.167" fill="none" stroke="#4285fa" stroke-linecap="round" stroke-linejoin="round" stroke-miterlimit="10" stroke-width="25.168" />
      </g>
      <g transform="translate(385 244.71)">
        <path d="m0 0c-23.555 17.82-52.899 28.391-84.713 28.391-71.661 0-130.79-53.634-139.45-122.95 10.761-9.558 22.347-17.906 34.59-24.973" fill="none" stroke="#4285fa" stroke-linecap="round" stroke-linejoin="round" stroke-miterlimit="10" stroke-width="25.168" />
      </g>
      <g transform="translate(424.93 218.78)">
        <path d="m0 0c-0.129 7.432-6.257 13.352-13.689 13.224-7.432-0.129-13.352-6.258-13.224-13.689 0.129-7.432 6.258-13.353 13.689-13.224 7.432 0.128 13.353 6.257 13.224 13.689" fill="#dc9af8" />
      </g>
  </g>
</svg>