<?xml version="1.0" encoding="UTF-8"?>
<!-- Created with Inkscape (http://www.inkscape.org/) -->
<svg width="800" height="933.9" version="1.1" viewBox="0 0 800 933.9" xml:space="preserve" xmlns="http://www.w3.org/2000/svg"><defs><clipPath id="clipPath472"><path d="m0 700.42h600v-700.42h-600z"/></clipPath></defs><g transform="matrix(1.3333 0 0 -1.3333 0 933.9)"><g clip-path="url(#clipPath472)"><g transform="translate(444.5 378.55)"><path d="m0 0c0 78.979-63.489 143.13-142.21 144.2-79.501 1.078-146.14-64.574-146.21-144.08-0.03-39.438 15.772-75.182 41.399-101.23 24.551-24.956 37.845-58.865 37.845-93.873v-28.382c0-14.407 11.679-26.086 26.086-26.086h77.76c14.407 0 26.086 11.679 26.086 26.086v28.387c0 35.407 14.023 69.258 38.652 94.695 25.127 25.952 40.592 61.314 40.592 100.29z" fill="none" stroke="#4285fa" stroke-linecap="round" stroke-linejoin="round" stroke-miterlimit="10" stroke-width="25.168"/></g><g transform="translate(245.12 90.83)"><path d="m0 0h110.33" fill="none" stroke="#4285fa" stroke-linecap="round" stroke-linejoin="round" stroke-miterlimit="10" stroke-width="25.168"/></g><g transform="translate(270.77 52.569)"><path d="m0 0h59.03" fill="none" stroke="#4285fa" stroke-linecap="round" stroke-linejoin="round" stroke-miterlimit="10" stroke-width="25.168"/></g><g transform="translate(301.94 580.61)"><path d="m0 0v66.64" fill="none" stroke="#3bd897" stroke-linecap="round" stroke-linejoin="round" stroke-miterlimit="10" stroke-width="25.168"/></g><g transform="translate(442.24 521.13)"><path d="m0 0 47.122 47.122" fill="none" stroke="#3bd897" stroke-linecap="round" stroke-linejoin="round" stroke-miterlimit="10" stroke-width="25.168"/></g><g transform="translate(499.4 379.85)"><path d="m0 0h66.64" fill="none" stroke="#3bd897" stroke-linecap="round" stroke-linejoin="round" stroke-miterlimit="10" stroke-width="25.168"/></g><g transform="translate(439.91 239.55)"><path d="m0 0 47.122-47.122" fill="none" stroke="#3bd897" stroke-linecap="round" stroke-linejoin="round" stroke-miterlimit="10" stroke-width="25.168"/></g><g transform="translate(158.33 241.88)"><path d="m0 0-47.122-47.122" fill="none" stroke="#3bd897" stroke-linecap="round" stroke-linejoin="round" stroke-miterlimit="10" stroke-width="25.168"/></g><g transform="translate(101.18 383.15)"><path d="m0 0h-66.64" fill="none" stroke="#3bd897" stroke-linecap="round" stroke-linejoin="round" stroke-miterlimit="10" stroke-width="25.168"/></g><g transform="translate(160.66 523.46)"><path d="m0 0-47.122 47.122" fill="none" stroke="#3bd897" stroke-linecap="round" stroke-linejoin="round" stroke-miterlimit="10" stroke-width="25.168"/></g><g transform="translate(358.88 294)"><path d="m0 0c2.039-1.362 4.724-1.224 6.626 0.324 2.717 2.211 5.349 4.58 7.88 7.112 3.246 3.245 6.227 6.655 8.95 10.2 1.491 1.942 1.546 4.629 0.129 6.625l-10.499 14.79 8.917 22.428 17.783 3.543c2.404 0.479 4.207 2.474 4.456 4.912 0.823 8.027 0.707 16.132-0.345 24.138-0.319 2.43-2.178 4.373-4.594 4.783l-17.877 3.034-9.554 22.164 10.07 15.08c1.361 2.039 1.224 4.724-0.324 6.626-2.212 2.717-4.581 5.348-7.112 7.88-3.246 3.246-6.655 6.227-10.2 8.95-1.942 1.491-4.629 1.546-6.626 0.128l-14.789-10.498-22.429 8.917-3.543 17.783c-0.478 2.403-2.473 4.206-4.912 4.456-8.027 0.822-16.132 0.707-24.137-0.345-2.431-0.319-4.374-2.178-4.784-4.594l-1.596-9.408-1.437-8.469-22.165-9.554-15.079 10.069c-2.039 1.362-4.725 1.224-6.626-0.323-2.717-2.212-5.349-4.581-7.88-7.112-3.246-3.246-6.228-6.656-8.95-10.201-1.491-1.942-1.546-4.629-0.129-6.625l10.499-14.79-8.918-22.428-17.782-3.543c-2.404-0.479-4.207-2.474-4.456-4.912-0.823-8.027-0.707-16.132 0.344-24.138 0.319-2.43 2.178-4.373 4.595-4.783l17.877-3.033 9.553-22.165-10.069-15.08c-1.361-2.038-1.225-4.723 0.323-6.624 5.094-6.258 10.907-11.907 17.312-16.824 1.944-1.493 4.632-1.552 6.631-0.133l14.785 10.495 22.429-8.917 3.543-17.783c0.479-2.404 2.474-4.206 4.913-4.456 3.486-0.357 7.022-0.543 10.601-0.543 4.591 0 9.11 0.303 13.542 0.884 2.428 0.319 4.366 2.18 4.776 4.594l3.034 17.881 22.165 9.554 15.079-10.069" fill="#dc9af8"/></g><g transform="translate(239.37 374.54)"><path d="m0 0c0 33.645 27.274 60.919 60.919 60.919s60.919-27.274 60.919-60.919-27.274-60.919-60.919-60.919-60.919 27.274-60.919 60.919" fill="#fff"/></g><g transform="translate(272.74 374.54)"><path d="m0 0c0 15.216 12.335 27.55 27.55 27.55 15.216 0 27.55-12.334 27.55-27.55s-12.334-27.55-27.55-27.55c-15.215 0-27.55 12.334-27.55 27.55z" fill="none" stroke="#dc9af8" stroke-linecap="round" stroke-linejoin="round" stroke-miterlimit="10" stroke-width="25.168"/></g></g></g></svg>
