<?xml version="1.0" encoding="UTF-8" standalone="no"?>
<!-- Created with Inkscape (http://www.inkscape.org/) -->

<svg
   version="1.1"
   id="svg314"
   xml:space="preserve"
   width="742.21704"
   height="826.46582"
   viewBox="0 0 742.21704 826.46582"
   sodipodi:docname="Learning.svg"
   inkscape:version="1.1.2 (0a00cf5339, 2022-02-04)"
   xmlns:inkscape="http://www.inkscape.org/namespaces/inkscape"
   xmlns:sodipodi="http://sodipodi.sourceforge.net/DTD/sodipodi-0.dtd"
   xmlns="http://www.w3.org/2000/svg"
   xmlns:svg="http://www.w3.org/2000/svg"><defs
     id="defs318"><clipPath
       clipPathUnits="userSpaceOnUse"
       id="clipPath328"><path
         d="M 0,700.422 H 600 V 0 H 0 Z"
         id="path326" /></clipPath></defs><sodipodi:namedview
     id="namedview316"
     pagecolor="#ffffff"
     bordercolor="#666666"
     borderopacity="1.0"
     inkscape:pageshadow="2"
     inkscape:pageopacity="0.0"
     inkscape:pagecheckerboard="0"
     showgrid="false"
     inkscape:zoom="0.9347936"
     inkscape:cx="370.67006"
     inkscape:cy="412.3905"
     inkscape:window-width="2560"
     inkscape:window-height="1371"
     inkscape:window-x="0"
     inkscape:window-y="32"
     inkscape:window-maximized="1"
     inkscape:current-layer="g320" /><g
     id="g320"
     inkscape:groupmode="layer"
     inkscape:label="Learning"
     transform="matrix(1.3333333,0,0,-1.3333333,-29.274933,879.77958)"><g
       id="g322"><g
         id="g324"
         clip-path="url(#clipPath328)"><g
           id="g330"
           transform="translate(444.4974,378.5487)"><path
             d="m 0,0 c 0,78.979 -63.489,143.129 -142.214,144.197 -79.501,1.078 -146.144,-64.574 -146.206,-144.082 -0.03,-39.438 15.772,-75.182 41.399,-101.233 24.551,-24.956 37.845,-58.865 37.845,-93.873 v -28.382 c 0,-14.407 11.679,-26.086 26.086,-26.086 h 77.76 c 14.407,0 26.086,11.679 26.086,26.086 v 28.387 c 0,35.407 14.023,69.258 38.652,94.695 C -15.465,-74.339 0,-38.977 0,0 Z"
             style="fill:none;stroke:#4285fa;stroke-width:25.168;stroke-linecap:round;stroke-linejoin:round;stroke-miterlimit:10;stroke-dasharray:none;stroke-opacity:1"
             id="path332" /></g><g
           id="g334"
           transform="translate(245.1228,90.8295)"><path
             d="M 0,0 H 110.33"
             style="fill:none;stroke:#4285fa;stroke-width:25.168;stroke-linecap:round;stroke-linejoin:round;stroke-miterlimit:10;stroke-dasharray:none;stroke-opacity:1"
             id="path336" /></g><g
           id="g338"
           transform="translate(270.7726,52.5693)"><path
             d="M 0,0 H 59.03"
             style="fill:none;stroke:#4285fa;stroke-width:25.168;stroke-linecap:round;stroke-linejoin:round;stroke-miterlimit:10;stroke-dasharray:none;stroke-opacity:1"
             id="path340" /></g><g
           id="g342"
           transform="translate(301.9361,580.6107)"><path
             d="M 0,0 V 66.64"
             style="fill:none;stroke:#3bd897;stroke-width:25.168;stroke-linecap:round;stroke-linejoin:round;stroke-miterlimit:10;stroke-dasharray:none;stroke-opacity:1"
             id="path344" /></g><g
           id="g346"
           transform="translate(442.2434,521.1277)"><path
             d="M 0,0 47.122,47.122"
             style="fill:none;stroke:#3bd897;stroke-width:25.168;stroke-linecap:round;stroke-linejoin:round;stroke-miterlimit:10;stroke-dasharray:none;stroke-opacity:1"
             id="path348" /></g><g
           id="g350"
           transform="translate(499.395,379.8547)"><path
             d="M 0,0 H 66.64"
             style="fill:none;stroke:#3bd897;stroke-width:25.168;stroke-linecap:round;stroke-linejoin:round;stroke-miterlimit:10;stroke-dasharray:none;stroke-opacity:1"
             id="path352" /></g><g
           id="g354"
           transform="translate(439.9121,239.5474)"><path
             d="M 0,0 47.122,-47.122"
             style="fill:none;stroke:#3bd897;stroke-width:25.168;stroke-linecap:round;stroke-linejoin:round;stroke-miterlimit:10;stroke-dasharray:none;stroke-opacity:1"
             id="path356" /></g><g
           id="g358"
           transform="translate(158.3317,241.8787)"><path
             d="M 0,0 -47.122,-47.122"
             style="fill:none;stroke:#3bd897;stroke-width:25.168;stroke-linecap:round;stroke-linejoin:round;stroke-miterlimit:10;stroke-dasharray:none;stroke-opacity:1"
             id="path360" /></g><g
           id="g362"
           transform="translate(101.1802,383.1518)"><path
             d="M 0,0 H -66.64"
             style="fill:none;stroke:#3bd897;stroke-width:25.168;stroke-linecap:round;stroke-linejoin:round;stroke-miterlimit:10;stroke-dasharray:none;stroke-opacity:1"
             id="path364" /></g><g
           id="g366"
           transform="translate(160.6631,523.4591)"><path
             d="M 0,0 -47.122,47.122"
             style="fill:none;stroke:#3bd897;stroke-width:25.168;stroke-linecap:round;stroke-linejoin:round;stroke-miterlimit:10;stroke-dasharray:none;stroke-opacity:1"
             id="path368" /></g><g
           id="g370"
           transform="translate(358.8831,294.0002)"><path
             d="m 0,0 c 2.039,-1.362 4.724,-1.224 6.626,0.324 2.717,2.211 5.349,4.58 7.88,7.112 3.246,3.245 6.227,6.655 8.95,10.2 1.491,1.942 1.546,4.629 0.129,6.625 l -10.499,14.79 8.917,22.428 17.783,3.543 c 2.404,0.479 4.207,2.474 4.456,4.912 0.823,8.027 0.707,16.132 -0.345,24.138 -0.319,2.43 -2.178,4.373 -4.594,4.783 l -17.877,3.034 -9.554,22.164 10.07,15.08 c 1.361,2.039 1.224,4.724 -0.324,6.626 -2.212,2.717 -4.581,5.348 -7.112,7.88 -3.246,3.246 -6.655,6.227 -10.2,8.95 -1.942,1.491 -4.629,1.546 -6.626,0.128 l -14.789,-10.498 -22.429,8.917 -3.543,17.783 c -0.478,2.403 -2.473,4.206 -4.912,4.456 -8.027,0.822 -16.132,0.707 -24.137,-0.345 -2.431,-0.319 -4.374,-2.178 -4.784,-4.594 l -1.596,-9.408 -1.437,-8.469 -22.165,-9.554 -15.079,10.069 c -2.039,1.362 -4.725,1.224 -6.626,-0.323 -2.717,-2.212 -5.349,-4.581 -7.88,-7.112 -3.246,-3.246 -6.228,-6.656 -8.95,-10.201 -1.491,-1.942 -1.546,-4.629 -0.129,-6.625 l 10.499,-14.79 -8.918,-22.428 -17.782,-3.543 c -2.404,-0.479 -4.207,-2.474 -4.456,-4.912 -0.823,-8.027 -0.707,-16.132 0.344,-24.138 0.319,-2.43 2.178,-4.373 4.595,-4.783 l 9.407,-1.596 8.47,-1.437 9.553,-22.165 -10.069,-15.08 c -1.361,-2.038 -1.225,-4.723 0.323,-6.624 5.094,-6.258 10.907,-11.907 17.312,-16.824 1.944,-1.493 4.632,-1.552 6.631,-0.133 l 14.785,10.495 22.429,-8.917 3.543,-17.783 c 0.479,-2.404 2.474,-4.206 4.913,-4.456 3.486,-0.357 7.022,-0.543 10.601,-0.543 4.591,0 9.11,0.303 13.542,0.884 2.428,0.319 4.366,2.18 4.776,4.594 l 3.034,17.881 22.165,9.554 L 0,0"
             style="fill:#dc9af8;fill-opacity:1;fill-rule:nonzero;stroke:none"
             id="path372" /></g><g
           id="g374"
           transform="translate(239.3683,374.537)"><path
             d="m 0,0 c 0,33.645 27.274,60.919 60.919,60.919 33.645,0 60.919,-27.274 60.919,-60.919 0,-33.645 -27.274,-60.919 -60.919,-60.919 C 27.274,-60.919 0,-33.645 0,0"
             style="fill:#ffffff;fill-opacity:1;fill-rule:nonzero;stroke:none"
             id="path376" /></g><g
           id="g378"
           transform="translate(272.7374,374.537)"><path
             d="M 0,0 C 0,15.216 12.335,27.55 27.55,27.55 42.766,27.55 55.1,15.216 55.1,0 55.1,-15.216 42.766,-27.55 27.55,-27.55 12.335,-27.55 0,-15.216 0,0 Z"
             style="fill:none;stroke:#dc9af8;stroke-width:25.168;stroke-linecap:round;stroke-linejoin:round;stroke-miterlimit:10;stroke-dasharray:none;stroke-opacity:1"
             id="path380" /></g></g></g></g></svg>
