<svg width="129" height="128" viewBox="0 0 129 128" fill="none" xmlns="http://www.w3.org/2000/svg">
<path fill-rule="evenodd" clip-rule="evenodd" d="M64.2143 7.31429C32.9076 7.31429 7.52858 32.6933 7.52858 64C7.52858 68.6086 8.07779 73.0839 9.11264 77.3663C9.58708 79.3295 8.38015 81.3057 6.41688 81.7801C4.45361 82.2546 2.47745 81.0476 2.00301 79.0844C0.833228 74.2437 0.214294 69.1917 0.214294 64C0.214294 28.6538 28.8681 0 64.2143 0C74.3593 0 83.9627 2.36312 92.4948 6.57229C94.3061 7.4659 95.0501 9.6587 94.1565 11.4701C93.2629 13.2814 91.0701 14.0254 89.2587 13.1318C81.7108 9.40812 73.2123 7.31429 64.2143 7.31429ZM114.58 30.5522C116.326 29.537 118.564 30.1296 119.579 31.8757C125.071 41.3203 128.214 52.2986 128.214 64C128.214 99.3462 99.5605 128 64.2143 128C41.2827 128 21.1714 115.937 9.87531 97.8278C8.80634 96.1141 9.32901 93.8583 11.0427 92.7893C12.7564 91.7203 15.0123 92.243 16.0812 93.9567C26.0975 110.014 43.9111 120.686 64.2143 120.686C95.521 120.686 120.9 95.3067 120.9 64C120.9 53.6245 118.116 43.9104 113.256 35.552C112.241 33.8059 112.834 31.5674 114.58 30.5522Z" fill="#DC9AF8"/>
<circle cx="104.671" cy="19.8857" r="6.17143" fill="#3BD897"/>
</svg>
