<?xml version="1.0" encoding="UTF-8"?>
<!-- Created with Inkscape (http://www.inkscape.org/) -->
<svg width="800" height="800" version="1.1" viewBox="0 0 800 800" xml:space="preserve" xmlns="http://www.w3.org/2000/svg"><defs><clipPath id="clipPath386"><path d="m0 600h600v-600h-600z"/></clipPath></defs><g transform="matrix(1.3333 0 0 -1.3333 0 800)"><g transform="translate(160.92 468.35)"><path d="m0 0h377.82c11.533 0 20.882-9.349 20.882-20.882v-140.15" fill="none" stroke="#4285fa" stroke-linecap="round" stroke-linejoin="round" stroke-miterlimit="10" stroke-width="25.168"/></g><g transform="translate(40.956 366.69)"><path d="m0 0v80.778c0 11.533 9.349 20.882 20.882 20.882h99.083" fill="none" stroke="#4285fa" stroke-linecap="round" stroke-linejoin="round" stroke-miterlimit="10" stroke-width="25.168"/></g><g transform="translate(322.51 131.25)"><path d="m0 0h-260.68c-11.532 0-20.881 9.349-20.881 20.882v180.92" fill="none" stroke="#4285fa" stroke-linecap="round" stroke-linejoin="round" stroke-miterlimit="10" stroke-width="25.168"/></g><g transform="translate(516.88 131.25)"><path d="m0 0h-129.03" fill="#fff" stroke="#4285fa" stroke-linecap="round" stroke-linejoin="round" stroke-miterlimit="10" stroke-width="25.168"/></g><g transform="translate(559.62 333.87)"><path d="m0 0v-181.74c0-11.532-9.349-20.882-20.882-20.882h-38.868" fill="none" stroke="#4285fa" stroke-linecap="round" stroke-linejoin="round" stroke-miterlimit="10" stroke-width="25.168"/></g><g transform="translate(368.19 131.25)"><path d="m0 0c0-7.062-5.724-12.786-12.786-12.786s-12.786 5.724-12.786 12.786 5.724 12.786 12.786 12.786 12.786-5.724 12.786-12.786" fill="#4285fa"/></g><path d="m509.84 185.5h-138.43v197.79h138.43z" fill="#3bd897"/><g fill="#bfe2f7"><path d="m341.34 356.71h-248.91v26.579h248.91z"/><path d="m341.34 299.64h-248.91v26.579h248.91z"/><path d="m341.34 242.57h-248.91v26.579h248.91z"/><path d="m341.34 185.5h-248.91v26.579h248.91z"/></g><g transform="translate(97.554 425.81)"><path d="m0 0c0-7.062-5.725-12.786-12.786-12.786-7.062 0-12.786 5.724-12.786 12.786 0 7.061 5.724 12.786 12.786 12.786 7.061 0 12.786-5.725 12.786-12.786" fill="#4285fa"/></g><g transform="translate(133.62 425.81)"><path d="m0 0c0-7.062-5.724-12.786-12.786-12.786s-12.786 5.724-12.786 12.786c0 7.061 5.724 12.786 12.786 12.786s12.786-5.725 12.786-12.786" fill="#4285fa"/></g><g transform="translate(169.68 425.81)"><path d="m0 0c0-7.062-5.725-12.786-12.786-12.786-7.062 0-12.786 5.724-12.786 12.786 0 7.061 5.724 12.786 12.786 12.786 7.061 0 12.786-5.725 12.786-12.786" fill="#4285fa"/></g><g transform="translate(476.22 331.99)"><path d="m0 0 18.843-29.203c3.06-4.742 1.696-11.066-3.046-14.126l-80.166-51.727s-17.49-13.986-28.676 3.35c-2.934 4.548 0.249 9.777 3.328 13.421 3.746 4.432 7.717 8.614 11.308 13.166 12.603 15.974 23.284 33.161 34.344 50.201 3.357 5.185 5.94 0.381 8.602-2.444 4.664-4.952 13.18-5.913 19.224-3.138 3.935 1.807 6.607 5.407 7.114 9.685 0.45 3.796-1.159 8.907 2.46 11.605 2.142 1.596 5.114 1.614 6.665-0.79z" fill="none" stroke="#269667" stroke-linecap="round" stroke-linejoin="round" stroke-miterlimit="10" stroke-width="5"/></g><g transform="translate(494.76 303.25)"><path d="m0 0-89.981-58.06c-7.005-4.52-15.976-3.422-20.834 3.352-0.077 0.107-0.279 0.428-0.494 0.759" fill="none" stroke="#269667" stroke-linecap="round" stroke-linejoin="round" stroke-miterlimit="10" stroke-width="5"/></g><g transform="translate(447.61 292.3)"><path d="m0 0 38.283 24.702" fill="none" stroke="#269667" stroke-linecap="round" stroke-linejoin="round" stroke-miterlimit="10" stroke-width="5"/></g><g transform="translate(440.57 287.87)"><path d="m0 0c2.403-3.723 1.332-8.69-2.392-11.092-3.723-2.403-8.689-1.332-11.092 2.392-2.402 3.723-1.332 8.689 2.392 11.092 3.723 2.402 8.689 1.331 11.092-2.392" fill="#269667"/></g><g transform="translate(383.12 368.89)"><path d="m0 0h114.68" fill="none" stroke="#269667" stroke-linecap="round" stroke-linejoin="round" stroke-miterlimit="10" stroke-width="5"/></g><g transform="translate(512.54 157.57)"><path d="m0 0-12.613 27.14-14.44-20.181v62.631l48.713-38.274h-24.705l12.527-26.88z" fill="#dc9af8"/></g></g></svg>
