<?xml version="1.0" encoding="UTF-8" standalone="no"?>
<!-- Created with Inkscape (http://www.inkscape.org/) -->

<svg
   version="1.1"
   id="svg468"
   xml:space="preserve"
   width="570.38934"
   height="570.39172"
   viewBox="0 0 570.38934 570.39172"
   sodipodi:docname="Site Boundaries.svg"
   inkscape:version="1.1.2 (0a00cf5339, 2022-02-04)"
   xmlns:inkscape="http://www.inkscape.org/namespaces/inkscape"
   xmlns:sodipodi="http://sodipodi.sourceforge.net/DTD/sodipodi-0.dtd"
   xmlns="http://www.w3.org/2000/svg"
   xmlns:svg="http://www.w3.org/2000/svg"><defs
     id="defs472"><clipPath
       clipPathUnits="userSpaceOnUse"
       id="clipPath486"><path
         d="M 0,600 H 600 V 0 H 0 Z"
         id="path484" /></clipPath></defs><sodipodi:namedview
     id="namedview470"
     pagecolor="#ffffff"
     bordercolor="#666666"
     borderopacity="1.0"
     inkscape:pageshadow="2"
     inkscape:pageopacity="0.0"
     inkscape:pagecheckerboard="0"
     showgrid="false"
     inkscape:zoom="1.09125"
     inkscape:cx="284.53608"
     inkscape:cy="284.53608"
     inkscape:window-width="2560"
     inkscape:window-height="1371"
     inkscape:window-x="0"
     inkscape:window-y="32"
     inkscape:window-maximized="1"
     inkscape:current-layer="g474" /><g
     id="g474"
     inkscape:groupmode="layer"
     inkscape:label="Site Boundaries"
     transform="matrix(1.3333333,0,0,-1.3333333,-115.18758,684.79505)"><g
       id="g476"
       transform="translate(300.2878,367.6025)"><path
         d="M 0,0 V -67.901 H 62.899"
         style="fill:none;stroke:#4285fa;stroke-width:25.168;stroke-linecap:round;stroke-linejoin:round;stroke-miterlimit:10;stroke-dasharray:none;stroke-opacity:1"
         id="path478" /></g><g
       id="g480"><g
           id="g488"
           transform="translate(441.2792,299.7018)"><path
             d="m 0,0 h 60.319 v 161.655 c 0,21.901 -17.754,39.655 -39.656,39.655 h -161.654 v -57.199"
             style="fill:none;stroke:#4285fa;stroke-width:25.168;stroke-linecap:round;stroke-linejoin:round;stroke-miterlimit:10;stroke-dasharray:none;stroke-opacity:1"
             id="path490" /></g><g
           id="g492"
           transform="translate(300.2668,218.4715)"><path
             d="M 0,0 0.02,-0.013 V 81.225 H -66.918"
             style="fill:none;stroke:#4285fa;stroke-width:25.168;stroke-linecap:round;stroke-linejoin:round;stroke-miterlimit:10;stroke-dasharray:none;stroke-opacity:1"
             id="path494" /></g><g
           id="g496"
           transform="translate(162.4289,299.6965)"><path
             d="m 0,0 h -63.452 v -161.655 c 0,-21.901 17.754,-39.655 39.655,-39.655 h 161.655 v 81.238 l -0.02,0.013"
             style="fill:none;stroke:#4285fa;stroke-width:25.168;stroke-linecap:round;stroke-linejoin:round;stroke-miterlimit:10;stroke-dasharray:none;stroke-opacity:1"
             id="path498" /></g><g
           id="g500"
           transform="translate(300.2797,299.6965)"><path
             d="m 0,0 v -81.238 l -0.02,0.013 h -2.328 c -4.361,0 -8.477,2.023 -11.134,5.482 -6.975,9.077 -17.936,13.264 -30.269,13.264 -21.571,0 -38.963,-17.898 -38.134,-39.654 0.749,-19.677 16.71,-35.752 36.381,-36.633 12.991,-0.581 24.624,3.672 31.933,13.11 2.702,3.49 6.813,5.597 11.227,5.597 H -0.02 L 0,-120.072 v -81.238 l 0.009,0.004 h 161.654 c 21.902,0 39.656,17.755 39.656,39.656 V 0.005 h -81.238 l -0.014,-0.021 v -2.323 c 0,-4.414 2.108,-8.525 5.597,-11.227 9.439,-7.31 13.691,-18.942 13.11,-31.933 -0.88,-19.672 -16.956,-35.633 -36.633,-36.382 -21.756,-0.828 -39.653,16.563 -39.653,38.135 0,12.333 4.187,23.294 13.264,30.268 3.458,2.658 5.482,6.773 5.482,11.135 v 2.327 l 0.013,0.021 H 0.009 Z"
             style="fill:none;stroke:#4285fa;stroke-width:25.168;stroke-linecap:round;stroke-linejoin:round;stroke-miterlimit:10;stroke-dasharray:none;stroke-opacity:1"
             id="path502" /></g><g
           id="g504"
           transform="translate(300.2782,299.6973)"><path
             d="m 0,0 h -81.238 l -0.014,0.02 v 2.324 c 0,4.414 2.108,8.525 5.598,11.227 9.438,7.309 13.691,18.942 13.109,31.933 -0.88,19.671 -16.955,35.632 -36.633,36.381 -21.756,0.829 -39.653,-16.563 -39.653,-38.134 0,-12.333 4.187,-23.294 13.264,-30.269 3.458,-2.657 5.482,-6.773 5.482,-11.134 V 0.02 L -120.072,0 h -81.23 l 0.001,0.005 V 161.66 c 0,21.901 17.754,39.655 39.655,39.655 H 0.009 v -81.238 h 2.327 c 4.362,0 8.478,2.023 11.135,5.482 6.975,9.077 17.936,13.264 30.268,13.264 21.572,0 38.963,-17.898 38.135,-39.654 C 81.125,79.492 65.164,63.417 45.492,62.536 32.502,61.955 20.869,66.208 13.56,75.646 10.857,79.136 6.746,81.243 2.332,81.243 H 0.009 V 0.005 Z"
             style="fill:none;stroke:#4285fa;stroke-width:25.168;stroke-linecap:round;stroke-linejoin:round;stroke-miterlimit:10;stroke-dasharray:none;stroke-opacity:1"
             id="path506" /></g><g
           id="g508"
           transform="translate(399.9116,461.3217)"><path
             d="M 0,0 H 37.91 C 51.175,0 61.929,-10.753 61.929,-24.018 V -61.929"
             style="fill:none;stroke:#3bd897;stroke-width:25.168;stroke-linecap:round;stroke-linejoin:round;stroke-miterlimit:10;stroke-dasharray:none;stroke-opacity:1"
             id="path510" /></g><g
           id="g512"
           transform="translate(200.5963,139.4021)"><path
             d="M 0,0 H -37.91 C -51.175,0 -61.929,10.753 -61.929,24.018 V 61.929"
             style="fill:none;stroke:#3bd897;stroke-width:25.168;stroke-linecap:round;stroke-linejoin:round;stroke-miterlimit:10;stroke-dasharray:none;stroke-opacity:1"
             id="path514" /></g><g
           id="g516"
           transform="translate(462.1114,140.099)"><path
             d="M 0,0 V 0"
             style="fill:none;stroke:#dc9af8;stroke-width:25.168;stroke-linecap:round;stroke-linejoin:round;stroke-miterlimit:10;stroke-dasharray:none;stroke-opacity:1"
             id="path518" /></g><g
           id="g520"
           transform="translate(140.1655,462.0449)"><path
             d="M 0,0 V 0"
             style="fill:none;stroke:#dc9af8;stroke-width:25.168;stroke-linecap:round;stroke-linejoin:round;stroke-miterlimit:10;stroke-dasharray:none;stroke-opacity:1"
             id="path522" /></g></g></g></svg>
