<?xml version="1.0" encoding="UTF-8"?>
<!-- Created with Inkscape (http://www.inkscape.org/) -->
<svg width="800" height="800" version="1.1" viewBox="0 0 800 800" xml:space="preserve" xmlns="http://www.w3.org/2000/svg"><defs><clipPath id="clipPath934"><path d="m0 600h600v-600h-600z"/></clipPath></defs><g transform="matrix(1.3333 0 0 -1.3333 0 800)"><g transform="translate(300.29 367.6)"><path d="m0 0v-67.901h62.899" fill="none" stroke="#4285fa" stroke-linecap="round" stroke-linejoin="round" stroke-miterlimit="10" stroke-width="25.168"/></g><g transform="translate(441.28 299.7)"><path d="m0 0h60.319v161.66c0 21.901-17.754 39.655-39.656 39.655h-161.65v-57.199" fill="none" stroke="#4285fa" stroke-linecap="round" stroke-linejoin="round" stroke-miterlimit="10" stroke-width="25.168"/></g><g transform="translate(300.27 218.47)"><path d="m0 0 0.02-0.013v81.238h-66.938" fill="none" stroke="#4285fa" stroke-linecap="round" stroke-linejoin="round" stroke-miterlimit="10" stroke-width="25.168"/></g><g transform="translate(162.43 299.7)"><path d="m0 0h-63.452v-161.66c0-21.901 17.754-39.655 39.655-39.655h161.66v81.238l-0.02 0.013" fill="none" stroke="#4285fa" stroke-linecap="round" stroke-linejoin="round" stroke-miterlimit="10" stroke-width="25.168"/></g><g transform="translate(300.28 299.7)"><path d="m0 0v-81.238l-0.02 0.013h-2.328c-4.361 0-8.477 2.023-11.134 5.482-6.975 9.077-17.936 13.264-30.269 13.264-21.571 0-38.963-17.898-38.134-39.654 0.749-19.677 16.71-35.752 36.381-36.633 12.991-0.581 24.624 3.672 31.933 13.11 2.702 3.49 6.813 5.597 11.227 5.597h2.324l0.02-0.013v-81.238l9e-3 4e-3h161.65c21.902 0 39.656 17.755 39.656 39.656v161.66h-81.238l-0.014-0.021v-2.323c0-4.414 2.108-8.525 5.597-11.227 9.439-7.31 13.691-18.942 13.11-31.933-0.88-19.672-16.956-35.633-36.633-36.382-21.756-0.828-39.653 16.563-39.653 38.135 0 12.333 4.187 23.294 13.264 30.268 3.458 2.658 5.482 6.773 5.482 11.135v2.327l0.013 0.021h-81.238z" fill="none" stroke="#4285fa" stroke-linecap="round" stroke-linejoin="round" stroke-miterlimit="10" stroke-width="25.168"/></g><g transform="translate(300.28 299.7)"><path d="m0 0h-81.238l-0.014 0.02v2.324c0 4.414 2.108 8.525 5.598 11.227 9.438 7.309 13.691 18.942 13.109 31.933-0.88 19.671-16.955 35.632-36.633 36.381-21.756 0.829-39.653-16.563-39.653-38.134 0-12.333 4.187-23.294 13.264-30.269 3.458-2.657 5.482-6.773 5.482-11.134v-2.328l0.013-0.02h-81.23l1e-3 5e-3v161.66c0 21.901 17.754 39.655 39.655 39.655h161.66v-81.238h2.327c4.362 0 8.478 2.023 11.135 5.482 6.975 9.077 17.936 13.264 30.268 13.264 21.572 0 38.963-17.898 38.135-39.654-0.749-19.677-16.71-35.752-36.382-36.633-12.99-0.581-24.623 3.672-31.932 13.11-2.703 3.49-6.814 5.597-11.228 5.597h-2.323v-81.238z" fill="none" stroke="#4285fa" stroke-linecap="round" stroke-linejoin="round" stroke-miterlimit="10" stroke-width="25.168"/></g><g transform="translate(399.91 461.32)"><path d="m0 0h37.91c13.265 0 24.019-10.753 24.019-24.018v-37.911" fill="none" stroke="#3bd897" stroke-linecap="round" stroke-linejoin="round" stroke-miterlimit="10" stroke-width="25.168"/></g><g transform="translate(200.6 139.4)"><path d="m0 0h-37.91c-13.265 0-24.019 10.753-24.019 24.018v37.911" fill="none" stroke="#3bd897" stroke-linecap="round" stroke-linejoin="round" stroke-miterlimit="10" stroke-width="25.168"/></g><g transform="translate(462.11 140.1)"><path d="m0 0v0" fill="none" stroke="#dc9af8" stroke-linecap="round" stroke-linejoin="round" stroke-miterlimit="10" stroke-width="25.168"/></g><g transform="translate(140.17 462.04)"><path d="m0 0v0" fill="none" stroke="#dc9af8" stroke-linecap="round" stroke-linejoin="round" stroke-miterlimit="10" stroke-width="25.168"/></g></g></svg>
