<?xml version="1.0" encoding="UTF-8"?>
<!-- Created with Inkscape (http://www.inkscape.org/) -->
<svg width="800" height="800" version="1.1" viewBox="0 0 800 800" xml:space="preserve" xmlns="http://www.w3.org/2000/svg"><defs><clipPath id="clipPath862"><path d="m0 600h600v-600h-600z"/></clipPath></defs><g transform="matrix(1.3333 0 0 -1.3333 0 800)"><g transform="translate(146.84 511.91)"><path d="m0 0v33.087c0 11.533 9.349 20.882 20.882 20.882h265.33c11.533 0 20.882-9.349 20.882-20.882v-490.4c0-11.532-9.349-20.882-20.882-20.882h-28.754" fill="none" stroke="#4285fa" stroke-linecap="round" stroke-linejoin="round" stroke-miterlimit="10" stroke-width="25.168"/></g><g transform="translate(146.84 210.45)"><path d="m0 0v236.13" fill="#fff" stroke="#4285fa" stroke-linecap="round" stroke-linejoin="round" stroke-miterlimit="10" stroke-width="25.168"/></g><g transform="translate(337.51 33.719)"><path d="m0 0h-169.79c-11.533 0-20.882 9.349-20.882 20.882v122.43" fill="none" stroke="#4285fa" stroke-linecap="round" stroke-linejoin="round" stroke-miterlimit="10" stroke-width="25.168"/></g><g transform="translate(370.76 20.933)"><path d="m0 0c-7.062 0-12.786 5.724-12.786 12.786s5.724 12.786 12.786 12.786 12.786-5.724 12.786-12.786-5.724-12.786-12.786-12.786" fill="#4285fa"/></g><g transform="translate(146.84 466.23)"><path d="m0 0c-7.062 0-12.786 5.724-12.786 12.786s5.724 12.786 12.786 12.786 12.786-5.724 12.786-12.786-5.724-12.786-12.786-12.786" fill="#4285fa"/></g><g transform="translate(275.5 423.47)"><path d="m0 0h-63.743c-8.447 0-15.294 6.847-15.294 15.294v63.743c0 8.447 6.847 15.294 15.294 15.294h63.743c8.447 0 15.294-6.847 15.294-15.294v-63.743c0-8.447-6.847-15.294-15.294-15.294" fill="#3bd897"/></g><g transform="translate(389.36 423.47)"><path d="m0 0h-63.743c-8.447 0-15.294 6.847-15.294 15.294v63.743c0 8.447 6.847 15.294 15.294 15.294h63.743c8.447 0 15.294-6.847 15.294-15.294v-63.743c0-8.447-6.847-15.294-15.294-15.294" fill="#3bd897"/></g><g transform="translate(275.5 310.48)"><path d="m0 0h-63.743c-8.447 0-15.294 6.848-15.294 15.294v63.743c0 8.447 6.847 15.294 15.294 15.294h63.743c8.447 0 15.294-6.847 15.294-15.294v-63.743c0-8.446-6.847-15.294-15.294-15.294" fill="#3bd897"/></g><g transform="translate(389.36 310.48)"><path d="m0 0h-63.743c-8.447 0-15.294 6.848-15.294 15.294v63.743c0 8.447 6.847 15.294 15.294 15.294h63.743c8.447 0 15.294-6.847 15.294-15.294v-63.743c0-8.446-6.847-15.294-15.294-15.294" fill="#3bd897"/></g><g transform="translate(275.5 197.49)"><path d="m0 0h-63.743c-8.447 0-15.294 6.847-15.294 15.294v63.743c0 8.447 6.847 15.294 15.294 15.294h63.743c8.447 0 15.294-6.847 15.294-15.294v-63.743c0-8.447-6.847-15.294-15.294-15.294" fill="#3bd897"/></g><g transform="translate(389.36 197.49)"><path d="m0 0h-63.743c-8.447 0-15.294 6.847-15.294 15.294v63.743c0 8.447 6.847 15.294 15.294 15.294h63.743c8.447 0 15.294-6.847 15.294-15.294v-63.743c0-8.447-6.847-15.294-15.294-15.294" fill="#dc9af8"/></g><g transform="translate(275.5 84.506)"><path d="m0 0h-63.743c-8.447 0-15.294 6.847-15.294 15.294v63.743c0 8.447 6.847 15.294 15.294 15.294h63.743c8.447 0 15.294-6.847 15.294-15.294v-63.743c0-8.447-6.847-15.294-15.294-15.294" fill="#3bd897"/></g><g transform="translate(389.36 84.506)"><path d="m0 0h-63.743c-8.447 0-15.294 6.847-15.294 15.294v63.743c0 8.447 6.847 15.294 15.294 15.294h63.743c8.447 0 15.294-6.847 15.294-15.294v-63.743c0-8.447-6.847-15.294-15.294-15.294" fill="#3bd897"/></g></g></svg>
