<?xml version="1.0" encoding="UTF-8"?>
<!-- Created with Inkscape (http://www.inkscape.org/) -->
<svg width="1066.7" height="800" version="1.1" viewBox="0 0 1066.7 800" xml:space="preserve" xmlns="http://www.w3.org/2000/svg"><defs><clipPath id="clipPath77"><path d="m0 600h800v-600h-800z"/></clipPath></defs><g transform="matrix(1.3333 0 0 -1.3333 0 800)"><g clip-path="url(#clipPath77)"><g transform="translate(611.89 465.97)"><path d="m0 0h25.812c11.533 0 20.882-9.349 20.882-20.882v-300.33c0-11.533-9.349-20.882-20.882-20.882h-476.9c-11.532 0-20.882 9.349-20.882 20.882v118.3" fill="none" stroke="#4285fa" stroke-linecap="round" stroke-linejoin="round" stroke-miterlimit="10" stroke-width="25.168"/></g><g transform="translate(486.99 465.97)"><path d="m0 0h59.56" fill="#fff" stroke="#4285fa" stroke-linecap="round" stroke-linejoin="round" stroke-miterlimit="10" stroke-width="25.168"/></g><g transform="translate(139.92 329.85)"><path d="m0 0v115.24c0 11.532 9.349 20.881 20.882 20.881h292.78" fill="none" stroke="#4285fa" stroke-linecap="round" stroke-linejoin="round" stroke-miterlimit="10" stroke-width="25.168"/></g><g fill="#bfe2f7"><path d="m619.92 293.34h-112.77v112.77h112.77z"/><path d="m482.75 379.16h-278.53v26.944h278.53z"/><path d="m482.75 321.31h-278.53v26.944h278.53z"/><path d="m482.75 263.46h-278.53v26.944h278.53z"/><path d="m482.75 205.6h-278.53v26.944h278.53z"/></g><g transform="translate(127.33 336.6)"><path d="m0 0c-35.283-36.374-50.219-71.416-41.221-98.132 10.383-30.829 52.852-51.205 116.52-55.905 68.512-5.055 153.25 7.989 238.6 36.734 85.349 28.746 160.71 69.621 212.2 115.1 47.85 42.258 69.338 84.175 58.955 115-10.384 30.829-52.853 51.206-116.52 55.905-9.659 0.714-19.643 1.067-29.904 1.067-53.468 0-176.92-27.812-176.92-27.812l-81.036 0.013c13.336 5.279 26.974 10.271 40.858 14.948 88.599 29.84 177 43.35 248.94 38.04 75.843-5.599 125.4-31.793 139.53-73.758s-9.475-92.799-66.477-143.14c-54.062-47.744-132.63-90.472-221.23-120.31-75.977-25.589-151.82-39.171-217.25-39.171-10.868 0-21.44 0.375-31.687 1.131-75.843 5.599-125.39 31.793-139.53 73.757-14.108 41.889 9.389 92.617 66.169 142.87z" fill="#3bd897"/></g><g transform="translate(753.42 329.85)"><path d="m0 0c0-52.379-42.462-94.841-94.841-94.841-52.38 0-94.842 42.462-94.842 94.841s42.462 94.841 94.842 94.841c52.379 0 94.841-42.462 94.841-94.841" fill="#dc9af8"/></g><g transform="translate(637.5 352.79)"><path d="m0 0v9.414c0 11.639 9.436 21.075 21.076 21.075s21.075-9.436 21.075-21.075v-9.414" fill="none" stroke="#fff" stroke-miterlimit="10" stroke-width="13.982"/></g><g transform="translate(697.62 278.51)"><path d="m0 0h-78.076c-4.228 0-7.656 3.428-7.656 7.656v61.066c0 4.229 3.428 7.657 7.656 7.657h78.076c4.229 0 7.656-3.428 7.656-7.657v-61.066c0-4.228-3.427-7.656-7.656-7.656" fill="#fff"/></g><g transform="translate(127.13 296.6)"><path d="m0 0c0 7.062 5.724 12.786 12.786 12.786s12.786-5.724 12.786-12.786c0-7.061-5.724-12.786-12.786-12.786s-12.786 5.725-12.786 12.786" fill="#4285fa"/></g><g transform="translate(566.21 465.97)"><path d="m0 0c0 7.062 5.724 12.786 12.786 12.786s12.786-5.724 12.786-12.786-5.724-12.786-12.786-12.786-12.786 5.724-12.786 12.786" fill="#4285fa"/></g><g transform="translate(702.68 88.965)"><path d="m0 0h-606.76v-1.947c0-12.832 10.402-23.234 23.234-23.234h560.29c12.832 0 23.234 10.402 23.234 23.234z" fill="#4285fa"/></g></g></g></svg>
