<?xml version="1.0" encoding="UTF-8" standalone="no"?>
<!-- Created with Inkscape (http://www.inkscape.org/) -->

<svg
   version="1.1"
   id="svg592"
   xml:space="preserve"
   width="928.34076"
   height="625.20526"
   viewBox="0 0 928.34072 625.20526"
   sodipodi:docname="Privacy Protection.svg"
   inkscape:version="1.1.2 (0a00cf5339, 2022-02-04)"
   xmlns:inkscape="http://www.inkscape.org/namespaces/inkscape"
   xmlns:sodipodi="http://sodipodi.sourceforge.net/DTD/sodipodi-0.dtd"
   xmlns="http://www.w3.org/2000/svg"
   xmlns:svg="http://www.w3.org/2000/svg"><defs
     id="defs596"><clipPath
       clipPathUnits="userSpaceOnUse"
       id="clipPath606"><path
         d="M 0,600 H 800 V 0 H 0 Z"
         id="path604" /></clipPath></defs><sodipodi:namedview
     id="namedview594"
     pagecolor="#ffffff"
     bordercolor="#666666"
     borderopacity="1.0"
     inkscape:pageshadow="2"
     inkscape:pageopacity="0.0"
     inkscape:pagecheckerboard="0"
     showgrid="false"
     inkscape:zoom="1.09125"
     inkscape:cx="457.73196"
     inkscape:cy="310.19473"
     inkscape:window-width="2560"
     inkscape:window-height="1371"
     inkscape:window-x="0"
     inkscape:window-y="32"
     inkscape:window-maximized="1"
     inkscape:current-layer="g598" /><g
     id="g598"
     inkscape:groupmode="layer"
     inkscape:label="Privacy Protection"
     transform="matrix(1.3333333,0,0,-1.3333333,-76.221736,710.2511)"><g
       id="g600"><g
           id="g608"
           transform="translate(611.8863,465.9716)"><path
             d="m 0,0 h 25.812 c 11.533,0 20.882,-9.349 20.882,-20.882 v -300.333 c 0,-11.533 -9.349,-20.882 -20.882,-20.882 h -476.899 c -11.532,0 -20.882,9.349 -20.882,20.882 v 118.302"
             style="fill:none;stroke:#4285fa;stroke-width:25.168;stroke-linecap:round;stroke-linejoin:round;stroke-miterlimit:10;stroke-dasharray:none;stroke-opacity:1"
             id="path610" /></g><g
           id="g612"
           transform="translate(486.9886,465.9716)"><path
             d="M 0,0 H 59.56"
             style="fill:#ffffff;fill-opacity:1;fill-rule:nonzero;stroke:#4285fa;stroke-width:25.168;stroke-linecap:round;stroke-linejoin:round;stroke-miterlimit:10;stroke-dasharray:none;stroke-opacity:1"
             id="path614" /></g><g
           id="g616"
           transform="translate(139.9177,329.8492)"><path
             d="m 0,0 v 115.241 c 0,11.532 9.349,20.881 20.882,20.881 h 292.776"
             style="fill:none;stroke:#4285fa;stroke-width:25.168;stroke-linecap:round;stroke-linejoin:round;stroke-miterlimit:10;stroke-dasharray:none;stroke-opacity:1"
             id="path618" /></g><path
           d="m 619.925,293.338 h -112.77 v 112.77 h 112.77 z"
           style="fill:#bfe2f7;fill-opacity:1;fill-rule:nonzero;stroke:none"
           id="path620" /><path
           d="M 482.753,379.165 H 204.221 v 26.944 h 278.532 z"
           style="fill:#bfe2f7;fill-opacity:1;fill-rule:nonzero;stroke:none"
           id="path622" /><path
           d="M 482.753,321.311 H 204.221 v 26.944 h 278.532 z"
           style="fill:#bfe2f7;fill-opacity:1;fill-rule:nonzero;stroke:none"
           id="path624" /><path
           d="M 482.753,263.458 H 204.221 v 26.944 h 278.532 z"
           style="fill:#bfe2f7;fill-opacity:1;fill-rule:nonzero;stroke:none"
           id="path626" /><path
           d="M 482.753,205.604 H 204.221 v 26.944 h 278.532 z"
           style="fill:#bfe2f7;fill-opacity:1;fill-rule:nonzero;stroke:none"
           id="path628" /><g
           id="g630"
           transform="translate(127.3349,336.5996)"><path
             d="m 0,0 c -35.283,-36.374 -50.219,-71.416 -41.221,-98.132 10.383,-30.829 52.852,-51.205 116.517,-55.905 68.512,-5.055 153.247,7.989 238.595,36.734 85.349,28.746 160.712,69.621 212.204,115.096 47.85,42.258 69.338,84.175 58.955,115.004 -10.384,30.829 -52.853,51.206 -116.518,55.905 -9.659,0.714 -19.643,1.067 -29.904,1.067 -53.468,0 -176.917,-27.812 -176.917,-27.812 l -81.036,0.013 c 13.336,5.279 26.974,10.271 40.858,14.948 88.599,29.84 177.004,43.35 248.937,38.04 75.843,-5.599 125.395,-31.793 139.529,-73.758 14.134,-41.965 -9.475,-92.799 -66.477,-143.14 -54.062,-47.744 -132.629,-90.472 -221.227,-120.312 -75.977,-25.589 -151.823,-39.171 -217.25,-39.171 -10.868,0 -21.44,0.375 -31.687,1.131 -75.843,5.599 -125.394,31.793 -139.528,73.757 -14.108,41.889 9.389,92.617 66.169,142.868 z"
             style="fill:#3bd897;fill-opacity:1;fill-rule:nonzero;stroke:none"
             id="path632" /></g><g
           id="g634"
           transform="translate(753.4219,329.8492)"><path
             d="m 0,0 c 0,-52.379 -42.462,-94.841 -94.841,-94.841 -52.38,0 -94.842,42.462 -94.842,94.841 0,52.379 42.462,94.841 94.842,94.841 C -42.462,94.841 0,52.379 0,0"
             style="fill:#dc9af8;fill-opacity:1;fill-rule:nonzero;stroke:none"
             id="path636" /></g><g
           id="g638"
           transform="translate(637.5048,352.7939)"><path
             d="m 0,0 v 9.414 c 0,11.639 9.436,21.075 21.076,21.075 11.64,0 21.075,-9.436 21.075,-21.075 V 0"
             style="fill:none;stroke:#ffffff;stroke-width:13.982;stroke-linecap:butt;stroke-linejoin:miter;stroke-miterlimit:10;stroke-dasharray:none;stroke-opacity:1"
             id="path640" /></g><g
           id="g642"
           transform="translate(697.6184,278.5125)"><path
             d="m 0,0 h -78.076 c -4.228,0 -7.656,3.428 -7.656,7.656 v 61.066 c 0,4.229 3.428,7.657 7.656,7.657 H 0 c 4.229,0 7.656,-3.428 7.656,-7.657 V 7.656 C 7.656,3.428 4.229,0 0,0"
             style="fill:#ffffff;fill-opacity:1;fill-rule:nonzero;stroke:none"
             id="path644" /></g><g
           id="g646"
           transform="translate(127.1317,296.5991)"><path
             d="m 0,0 c 0,7.062 5.724,12.786 12.786,12.786 7.062,0 12.786,-5.724 12.786,-12.786 0,-7.061 -5.724,-12.786 -12.786,-12.786 C 5.724,-12.786 0,-7.061 0,0"
             style="fill:#4285fa;fill-opacity:1;fill-rule:nonzero;stroke:none"
             id="path648" /></g><g
           id="g650"
           transform="translate(566.207,465.9716)"><path
             d="m 0,0 c 0,7.062 5.724,12.786 12.786,12.786 7.062,0 12.786,-5.724 12.786,-12.786 0,-7.062 -5.724,-12.786 -12.786,-12.786 C 5.724,-12.786 0,-7.062 0,0"
             style="fill:#4285fa;fill-opacity:1;fill-rule:nonzero;stroke:none"
             id="path652" /></g><g
           id="g654"
           transform="translate(702.679,88.9654)"><path
             d="m 0,0 h -606.756 v -1.947 c 0,-12.832 10.402,-23.234 23.234,-23.234 H -23.234 C -10.402,-25.181 0,-14.779 0,-1.947 Z"
             style="fill:#4285fa;fill-opacity:1;fill-rule:nonzero;stroke:none"
             id="path656" /></g></g></g></svg>
