<?xml version="1.0" encoding="UTF-8"?>
<!-- Created with Inkscape (http://www.inkscape.org/) -->
<svg width="1138.4" height="814.91" version="1.1" viewBox="0 0 1138.4 814.91" xml:space="preserve" xmlns="http://www.w3.org/2000/svg"><defs><clipPath id="clipPath608"><path d="M 0,611.181 H 853.827 V 0 H 0 Z"/></clipPath></defs><g transform="matrix(1.3333 0 0 -1.3333 0 814.91)"><g transform="translate(561.03 117.5)"><path d="m0 0h25.812c11.533 0 20.882 9.349 20.882 20.882v300.33c0 11.533-9.349 20.882-20.882 20.882h-476.9c-11.532 0-20.882-9.349-20.882-20.882v-118.3" fill="none" stroke="#4285fa" stroke-linecap="round" stroke-linejoin="round" stroke-miterlimit="10" stroke-width="25.168"/></g><g transform="translate(436.13 117.5)"><path d="m0 0h59.56" fill="#fff" stroke="#4285fa" stroke-linecap="round" stroke-linejoin="round" stroke-miterlimit="10" stroke-width="25.168"/></g><g transform="translate(89.063 253.62)"><path d="m0 0v-115.24c0-11.532 9.349-20.881 20.882-20.881h292.78" fill="none" stroke="#4285fa" stroke-linecap="round" stroke-linejoin="round" stroke-miterlimit="10" stroke-width="25.168"/></g><g transform="translate(76.277 286.88)"><path d="m0 0c0-7.062 5.724-12.786 12.786-12.786s12.786 5.724 12.786 12.786-5.724 12.786-12.786 12.786-12.786-5.724-12.786-12.786" fill="#4285fa"/></g><g transform="translate(515.35 117.5)"><path d="m0 0c0-7.062 5.725-12.786 12.786-12.786 7.062 0 12.786 5.724 12.786 12.786s-5.724 12.786-12.786 12.786c-7.061 0-12.786-5.724-12.786-12.786" fill="#4285fa"/></g><g transform="translate(651.82 81.807)"><path d="m0 0h-606.76v-1.947c0-12.832 10.402-23.234 23.234-23.234h560.29c12.832 0 23.234 10.402 23.234 23.234z" fill="#4285fa"/></g><g fill="#bfe2f7"><path d="m351.89 382.74h-145v-13.951h145z"/><path d="m351.89 330.9h-145v-13.951h145z"/><path d="m351.89 356.82h-145v-13.951h145z"/><path d="m351.89 310.27h-145v-13.951h145z"/><path d="m559.23 382.74h-183.81v-210.73h183.81z"/></g><g transform="translate(141.43 420.71)"><path d="m0 0c0-7.062-5.724-12.786-12.786-12.786s-12.786 5.724-12.786 12.786 5.724 12.786 12.786 12.786 12.786-5.724 12.786-12.786" fill="#4285fa"/></g><g transform="translate(177.49 420.71)"><path d="m0 0c0-7.062-5.725-12.786-12.786-12.786-7.062 0-12.786 5.724-12.786 12.786s5.724 12.786 12.786 12.786c7.061 0 12.786-5.724 12.786-12.786" fill="#4285fa"/></g><g transform="translate(213.56 420.71)"><path d="m0 0c0-7.062-5.724-12.786-12.786-12.786s-12.786 5.724-12.786 12.786 5.724 12.786 12.786 12.786 12.786-5.724 12.786-12.786" fill="#4285fa"/></g><g fill="#bfe2f7"><path d="m199.75 382.74h-65.79v-65.79h65.79z"/><path d="m351.89 258.43h-145v-13.951h145z"/><path d="m351.89 284.35h-145v-13.951h145z"/><path d="m351.89 237.8h-145v-13.951h145z"/><path d="m351.89 185.96h-145v-13.951h145z"/><path d="m351.89 211.88h-145v-13.951h145z"/><path d="m199.75 310.27h-65.79v-65.79h65.79z"/><path d="m199.75 237.8h-65.79v-65.79h65.79z"/></g><g transform="translate(427.16 205.56)"><path d="m0 0c0-10.097-8.185-18.281-18.281-18.281-10.097 0-18.282 8.184-18.282 18.281s8.185 18.281 18.282 18.281c10.096 0 18.281-8.184 18.281-18.281" fill="#fff"/></g><g transform="translate(485.44 205.56)"><path d="m0 0c0-10.097-8.185-18.281-18.281-18.281-10.097 0-18.282 8.184-18.282 18.281s8.185 18.281 18.282 18.281c10.096 0 18.281-8.184 18.281-18.281" fill="#fff"/></g><g transform="translate(543.73 205.56)"><path d="m0 0c0-10.097-8.185-18.281-18.281-18.281-10.097 0-18.282 8.184-18.282 18.281s8.185 18.281 18.282 18.281c10.096 0 18.281-8.184 18.281-18.281" fill="#fff"/></g><g transform="translate(427.16 258.43)"><path d="m0 0c0-10.097-8.185-18.281-18.281-18.281-10.097 0-18.282 8.184-18.282 18.281s8.185 18.281 18.282 18.281c10.096 0 18.281-8.184 18.281-18.281" fill="#fff"/></g><g transform="translate(485.44 258.43)"><path d="m0 0c0-10.097-8.185-18.281-18.281-18.281-10.097 0-18.282 8.184-18.282 18.281s8.185 18.281 18.282 18.281c10.096 0 18.281-8.184 18.281-18.281" fill="#fff"/></g><g transform="translate(543.73 258.43)"><path d="m0 0c0-10.097-8.185-18.281-18.281-18.281-10.097 0-18.282 8.184-18.282 18.281s8.185 18.281 18.282 18.281c10.096 0 18.281-8.184 18.281-18.281" fill="#fff"/></g><g transform="translate(676.42 330.9)"><path d="m0 0h-224.11c-10.581 0-19.159 8.578-19.159 19.159v147.99c0 10.581 8.578 19.159 19.159 19.159h224.11c10.581 0 19.159-8.578 19.159-19.159v-147.99c0-10.581-8.578-19.159-19.159-19.159" fill="#2a569e"/></g><g transform="translate(695.58 489.96)"><path d="m0 0h-262.43v8.082c0 10.581 8.578 19.159 19.159 19.159h224.11c10.581 0 19.159-8.578 19.159-19.159z" fill="#4285fa"/></g><g transform="translate(476.42 442.65)"><path d="M 0,0 -13.465,13.465 0,26.929" fill="none" stroke="#dc9af8" stroke-linecap="round" stroke-linejoin="round" stroke-miterlimit="10" stroke-width="10"/></g><g transform="translate(491.58 469.58)"><path d="M 0,0 13.465,-13.465 0,-26.929" fill="none" stroke="#dc9af8" stroke-linecap="round" stroke-linejoin="round" stroke-miterlimit="10" stroke-width="10"/></g><g transform="translate(560.48 353.58)"><path d="M 0,0 -13.465,13.465 0,26.929" fill="none" stroke="#3bd897" stroke-linecap="round" stroke-linejoin="round" stroke-miterlimit="10" stroke-width="10"/></g><g transform="translate(593.64 380.51)"><path d="M 0,0 13.465,-13.465 0,-26.929" fill="none" stroke="#3bd897" stroke-linecap="round" stroke-linejoin="round" stroke-miterlimit="10" stroke-width="10"/></g><g transform="translate(580.96 382.49)"><path d="m0 0-7.574-30.594" fill="none" stroke="#3bd897" stroke-linecap="round" stroke-linejoin="round" stroke-miterlimit="10" stroke-width="10"/></g><g transform="translate(525.39 454.16)"><path d="m0 0h146.7" fill="none" stroke="#bfe2f7" stroke-linecap="round" stroke-linejoin="round" stroke-miterlimit="10" stroke-width="9"/></g><g transform="translate(456.57 425.19)"><path d="m0 0h215.52" fill="none" stroke="#bfe2f7" stroke-linecap="round" stroke-linejoin="round" stroke-miterlimit="10" stroke-width="9"/></g><g transform="translate(456.57 396.22)"><path d="m0 0h215.52" fill="none" stroke="#bfe2f7" stroke-linecap="round" stroke-linejoin="round" stroke-miterlimit="10" stroke-width="9"/></g><g transform="translate(456.57 367.25)"><path d="m0 0h72.449" fill="none" stroke="#bfe2f7" stroke-linecap="round" stroke-linejoin="round" stroke-miterlimit="10" stroke-width="9"/></g><g transform="translate(565.42 580.12)"><path d="m0 0 15.766-20 15.767 20 15.763-20 15.765 20 15.764-20 15.763 20 15.766-20 15.767 20 15.766-20 15.766 20 15.768-20 15.769 20 15.764-20 15.771 20 15.771-20 15.773 20 15.773-20" fill="none" stroke="#dc9af8" stroke-linecap="round" stroke-linejoin="round" stroke-miterlimit="10" stroke-width="10"/></g></g></svg>
