<?xml version="1.0" encoding="UTF-8" standalone="no"?>
<!-- Created with Inkscape (http://www.inkscape.org/) -->

<svg
   version="1.1"
   id="svg658"
   xml:space="preserve"
   width="1057.8624"
   height="704.66504"
   viewBox="0 0 1057.8624 704.66504"
   sodipodi:docname="Wiki.svg"
   inkscape:version="1.1.2 (0a00cf5339, 2022-02-04)"
   xmlns:inkscape="http://www.inkscape.org/namespaces/inkscape"
   xmlns:sodipodi="http://sodipodi.sourceforge.net/DTD/sodipodi-0.dtd"
   xmlns="http://www.w3.org/2000/svg"
   xmlns:svg="http://www.w3.org/2000/svg"><defs
     id="defs662"><clipPath
       clipPathUnits="userSpaceOnUse"
       id="clipPath672"><path
         d="M 0,611.181 H 853.827 V 0 H 0 Z"
         id="path670" /></clipPath></defs><sodipodi:namedview
     id="namedview660"
     pagecolor="#ffffff"
     bordercolor="#666666"
     borderopacity="1.0"
     inkscape:pageshadow="2"
     inkscape:pageopacity="0.0"
     inkscape:pagecheckerboard="0"
     showgrid="false"
     inkscape:zoom="1.0712865"
     inkscape:cx="509.20083"
     inkscape:cy="372.9161"
     inkscape:window-width="2560"
     inkscape:window-height="1371"
     inkscape:window-x="0"
     inkscape:window-y="32"
     inkscape:window-maximized="1"
     inkscape:current-layer="g664" /><g
     id="g664"
     inkscape:groupmode="layer"
     inkscape:label="Wiki"
     transform="matrix(1.3333333,0,0,-1.3333333,-60.090665,780.16638)"><g
       id="g666"><g
         id="g668"
         clip-path="url(#clipPath672)"><g
           id="g674"
           transform="translate(561.0313,117.5025)"><path
             d="m 0,0 h 25.812 c 11.533,0 20.882,9.349 20.882,20.882 v 300.333 c 0,11.533 -9.349,20.882 -20.882,20.882 h -476.899 c -11.532,0 -20.882,-9.349 -20.882,-20.882 V 202.913"
             style="fill:none;stroke:#4285fa;stroke-width:25.168;stroke-linecap:round;stroke-linejoin:round;stroke-miterlimit:10;stroke-dasharray:none;stroke-opacity:1"
             id="path676" /></g><g
           id="g678"
           transform="translate(436.1337,117.5025)"><path
             d="M 0,0 H 59.56"
             style="fill:#ffffff;fill-opacity:1;fill-rule:nonzero;stroke:#4285fa;stroke-width:25.168;stroke-linecap:round;stroke-linejoin:round;stroke-miterlimit:10;stroke-dasharray:none;stroke-opacity:1"
             id="path680" /></g><g
           id="g682"
           transform="translate(89.0627,253.6249)"><path
             d="m 0,0 v -115.241 c 0,-11.532 9.349,-20.881 20.882,-20.881 h 292.776"
             style="fill:none;stroke:#4285fa;stroke-width:25.168;stroke-linecap:round;stroke-linejoin:round;stroke-miterlimit:10;stroke-dasharray:none;stroke-opacity:1"
             id="path684" /></g><g
           id="g686"
           transform="translate(76.2767,286.875)"><path
             d="m 0,0 c 0,-7.062 5.724,-12.786 12.786,-12.786 7.062,0 12.786,5.724 12.786,12.786 0,7.062 -5.724,12.786 -12.786,12.786 C 5.724,12.786 0,7.062 0,0"
             style="fill:#4285fa;fill-opacity:1;fill-rule:nonzero;stroke:none"
             id="path688" /></g><g
           id="g690"
           transform="translate(515.3521,117.5025)"><path
             d="m 0,0 c 0,-7.062 5.725,-12.786 12.786,-12.786 7.062,0 12.786,5.724 12.786,12.786 0,7.062 -5.724,12.786 -12.786,12.786 C 5.725,12.786 0,7.062 0,0"
             style="fill:#4285fa;fill-opacity:1;fill-rule:nonzero;stroke:none"
             id="path692" /></g><g
           id="g694"
           transform="translate(651.824,81.807)"><path
             d="m 0,0 h -606.756 v -1.947 c 0,-12.832 10.402,-23.234 23.234,-23.234 H -23.234 C -10.402,-25.181 0,-14.779 0,-1.947 Z"
             style="fill:#4285fa;fill-opacity:1;fill-rule:nonzero;stroke:none"
             id="path696" /></g><path
           d="M 351.886,382.738 H 206.89 v -13.951 h 144.996 z"
           style="fill:#bfe2f7;fill-opacity:1;fill-rule:nonzero;stroke:none"
           id="path698" /><path
           d="M 351.886,330.899 H 206.89 v -13.951 h 144.996 z"
           style="fill:#bfe2f7;fill-opacity:1;fill-rule:nonzero;stroke:none"
           id="path700" /><path
           d="M 351.886,356.819 H 206.89 v -13.951 h 144.996 z"
           style="fill:#bfe2f7;fill-opacity:1;fill-rule:nonzero;stroke:none"
           id="path702" /><path
           d="M 351.886,310.267 H 206.89 v -13.951 h 144.996 z"
           style="fill:#bfe2f7;fill-opacity:1;fill-rule:nonzero;stroke:none"
           id="path704" /><path
           d="M 559.233,382.738 H 375.42 V 172.004 h 183.813 z"
           style="fill:#bfe2f7;fill-opacity:1;fill-rule:nonzero;stroke:none"
           id="path706" /><g
           id="g708"
           transform="translate(141.4315,420.714)"><path
             d="m 0,0 c 0,-7.062 -5.724,-12.786 -12.786,-12.786 -7.062,0 -12.786,5.724 -12.786,12.786 0,7.062 5.724,12.786 12.786,12.786 C -5.724,12.786 0,7.062 0,0"
             style="fill:#4285fa;fill-opacity:1;fill-rule:nonzero;stroke:none"
             id="path710" /></g><g
           id="g712"
           transform="translate(177.4939,420.714)"><path
             d="m 0,0 c 0,-7.062 -5.725,-12.786 -12.786,-12.786 -7.062,0 -12.786,5.724 -12.786,12.786 0,7.062 5.724,12.786 12.786,12.786 C -5.725,12.786 0,7.062 0,0"
             style="fill:#4285fa;fill-opacity:1;fill-rule:nonzero;stroke:none"
             id="path714" /></g><g
           id="g716"
           transform="translate(213.5562,420.714)"><path
             d="m 0,0 c 0,-7.062 -5.724,-12.786 -12.786,-12.786 -7.062,0 -12.786,5.724 -12.786,12.786 0,7.062 5.724,12.786 12.786,12.786 C -5.724,12.786 0,7.062 0,0"
             style="fill:#4285fa;fill-opacity:1;fill-rule:nonzero;stroke:none"
             id="path718" /></g><path
           d="m 199.75,382.738 h -65.79 v -65.79 h 65.79 z"
           style="fill:#bfe2f7;fill-opacity:1;fill-rule:nonzero;stroke:none"
           id="path720" /><path
           d="M 351.886,258.428 H 206.89 v -13.951 h 144.996 z"
           style="fill:#bfe2f7;fill-opacity:1;fill-rule:nonzero;stroke:none"
           id="path722" /><path
           d="M 351.886,284.347 H 206.89 v -13.951 h 144.996 z"
           style="fill:#bfe2f7;fill-opacity:1;fill-rule:nonzero;stroke:none"
           id="path724" /><path
           d="M 351.886,237.795 H 206.89 v -13.951 h 144.996 z"
           style="fill:#bfe2f7;fill-opacity:1;fill-rule:nonzero;stroke:none"
           id="path726" /><path
           d="M 351.886,185.956 H 206.89 v -13.951 h 144.996 z"
           style="fill:#bfe2f7;fill-opacity:1;fill-rule:nonzero;stroke:none"
           id="path728" /><path
           d="M 351.886,211.875 H 206.89 v -13.951 h 144.996 z"
           style="fill:#bfe2f7;fill-opacity:1;fill-rule:nonzero;stroke:none"
           id="path730" /><path
           d="m 199.75,310.267 h -65.79 v -65.79 h 65.79 z"
           style="fill:#bfe2f7;fill-opacity:1;fill-rule:nonzero;stroke:none"
           id="path732" /><path
           d="m 199.75,237.795 h -65.79 v -65.79 h 65.79 z"
           style="fill:#bfe2f7;fill-opacity:1;fill-rule:nonzero;stroke:none"
           id="path734" /><g
           id="g736"
           transform="translate(427.1556,205.5621)"><path
             d="m 0,0 c 0,-10.097 -8.185,-18.281 -18.281,-18.281 -10.097,0 -18.282,8.184 -18.282,18.281 0,10.097 8.185,18.281 18.282,18.281 C -8.185,18.281 0,10.097 0,0"
             style="fill:#ffffff;fill-opacity:1;fill-rule:nonzero;stroke:none"
             id="path738" /></g><g
           id="g740"
           transform="translate(485.4417,205.5621)"><path
             d="m 0,0 c 0,-10.097 -8.185,-18.281 -18.281,-18.281 -10.097,0 -18.282,8.184 -18.282,18.281 0,10.097 8.185,18.281 18.282,18.281 C -8.185,18.281 0,10.097 0,0"
             style="fill:#ffffff;fill-opacity:1;fill-rule:nonzero;stroke:none"
             id="path742" /></g><g
           id="g744"
           transform="translate(543.7277,205.5621)"><path
             d="m 0,0 c 0,-10.097 -8.185,-18.281 -18.281,-18.281 -10.097,0 -18.282,8.184 -18.282,18.281 0,10.097 8.185,18.281 18.282,18.281 C -8.185,18.281 0,10.097 0,0"
             style="fill:#ffffff;fill-opacity:1;fill-rule:nonzero;stroke:none"
             id="path746" /></g><g
           id="g748"
           transform="translate(427.1556,258.4276)"><path
             d="m 0,0 c 0,-10.097 -8.185,-18.281 -18.281,-18.281 -10.097,0 -18.282,8.184 -18.282,18.281 0,10.097 8.185,18.281 18.282,18.281 C -8.185,18.281 0,10.097 0,0"
             style="fill:#ffffff;fill-opacity:1;fill-rule:nonzero;stroke:none"
             id="path750" /></g><g
           id="g752"
           transform="translate(485.4417,258.4276)"><path
             d="m 0,0 c 0,-10.097 -8.185,-18.281 -18.281,-18.281 -10.097,0 -18.282,8.184 -18.282,18.281 0,10.097 8.185,18.281 18.282,18.281 C -8.185,18.281 0,10.097 0,0"
             style="fill:#ffffff;fill-opacity:1;fill-rule:nonzero;stroke:none"
             id="path754" /></g><g
           id="g756"
           transform="translate(543.7277,258.4276)"><path
             d="m 0,0 c 0,-10.097 -8.185,-18.281 -18.281,-18.281 -10.097,0 -18.282,8.184 -18.282,18.281 0,10.097 8.185,18.281 18.282,18.281 C -8.185,18.281 0,10.097 0,0"
             style="fill:#ffffff;fill-opacity:1;fill-rule:nonzero;stroke:none"
             id="path758" /></g><g
           id="g760"
           transform="translate(676.4221,330.8994)"><path
             d="m 0,0 h -224.112 c -10.581,0 -19.159,8.578 -19.159,19.159 v 147.986 c 0,10.581 8.578,19.159 19.159,19.159 H 0 c 10.581,0 19.159,-8.578 19.159,-19.159 V 19.159 C 19.159,8.578 10.581,0 0,0"
             style="fill:#2a569e;fill-opacity:1;fill-rule:nonzero;stroke:none"
             id="path762" /></g><g
           id="g764"
           transform="translate(695.5812,489.9629)"><path
             d="m 0,0 h -262.43 v 8.082 c 0,10.581 8.578,19.159 19.159,19.159 H -19.159 C -8.578,27.241 0,18.663 0,8.082 Z"
             style="fill:#4285fa;fill-opacity:1;fill-rule:nonzero;stroke:none"
             id="path766" /></g><g
           id="g768"
           transform="translate(476.4217,442.648)"><path
             d="M 0,0 -13.465,13.465 0,26.929"
             style="fill:none;stroke:#dc9af8;stroke-width:10;stroke-linecap:round;stroke-linejoin:round;stroke-miterlimit:10;stroke-dasharray:none;stroke-opacity:1"
             id="path770" /></g><g
           id="g772"
           transform="translate(491.5833,469.5774)"><path
             d="M 0,0 13.465,-13.465 0,-26.929"
             style="fill:none;stroke:#dc9af8;stroke-width:10;stroke-linecap:round;stroke-linejoin:round;stroke-miterlimit:10;stroke-dasharray:none;stroke-opacity:1"
             id="path774" /></g><g
           id="g776"
           transform="translate(560.4751,353.5821)"><path
             d="M 0,0 -13.465,13.465 0,26.929"
             style="fill:none;stroke:#3bd897;stroke-width:10;stroke-linecap:round;stroke-linejoin:round;stroke-miterlimit:10;stroke-dasharray:none;stroke-opacity:1"
             id="path778" /></g><g
           id="g780"
           transform="translate(593.6386,380.5114)"><path
             d="M 0,0 13.465,-13.465 0,-26.929"
             style="fill:none;stroke:#3bd897;stroke-width:10;stroke-linecap:round;stroke-linejoin:round;stroke-miterlimit:10;stroke-dasharray:none;stroke-opacity:1"
             id="path782" /></g><g
           id="g784"
           transform="translate(580.9554,382.4935)"><path
             d="M 0,0 -7.574,-30.594"
             style="fill:none;stroke:#3bd897;stroke-width:10;stroke-linecap:round;stroke-linejoin:round;stroke-miterlimit:10;stroke-dasharray:none;stroke-opacity:1"
             id="path786" /></g><g
           id="g788"
           transform="translate(525.3942,454.1614)"><path
             d="M 0,0 H 146.701"
             style="fill:none;stroke:#bfe2f7;stroke-width:9;stroke-linecap:round;stroke-linejoin:round;stroke-miterlimit:10;stroke-dasharray:none;stroke-opacity:1"
             id="path790" /></g><g
           id="g792"
           transform="translate(456.5711,425.1905)"><path
             d="M 0,0 H 215.524"
             style="fill:none;stroke:#bfe2f7;stroke-width:9;stroke-linecap:round;stroke-linejoin:round;stroke-miterlimit:10;stroke-dasharray:none;stroke-opacity:1"
             id="path794" /></g><g
           id="g796"
           transform="translate(456.5711,396.2195)"><path
             d="M 0,0 H 215.524"
             style="fill:none;stroke:#bfe2f7;stroke-width:9;stroke-linecap:round;stroke-linejoin:round;stroke-miterlimit:10;stroke-dasharray:none;stroke-opacity:1"
             id="path798" /></g><g
           id="g800"
           transform="translate(456.5711,367.2485)"><path
             d="M 0,0 H 72.449"
             style="fill:none;stroke:#bfe2f7;stroke-width:9;stroke-linecap:round;stroke-linejoin:round;stroke-miterlimit:10;stroke-dasharray:none;stroke-opacity:1"
             id="path802" /></g><g
           id="g804"
           transform="translate(565.4228,580.1248)"><path
             d="M 0,0 15.766,-20 31.533,0 47.296,-20 63.061,0 78.825,-20 94.588,0 l 15.766,-20 15.767,20 15.766,-20 15.766,20 15.768,-20 15.769,20 15.764,-20 15.771,20 15.771,-20 15.773,20 15.773,-20"
             style="fill:none;stroke:#dc9af8;stroke-width:10;stroke-linecap:round;stroke-linejoin:round;stroke-miterlimit:10;stroke-dasharray:none;stroke-opacity:1"
             id="path806" /></g></g></g></g></svg>
