<svg width="16" height="16" viewBox="0 0 16 16" fill="none" xmlns="http://www.w3.org/2000/svg">
<g clip-path="url(#clip0_1_52)">
<path d="M15.9875 7.625C15.8875 5.3875 14.8625 3.3875 13.2875 2C13.1 1.8375 12.9 1.675 12.6875 1.525C11.475 0.6375 9.9875 0.0875 8.375 0.0125C8.25 0 8.125 0 8 0C7.875 0 7.75 0 7.625 0.0125C6.0125 0.0875 4.525 0.6375 3.3125 1.525C3.1 1.675 2.9 1.8375 2.7125 2C1.1375 3.3875 0.1125 5.3875 0.0125 7.625C0 7.75 0 7.875 0 8C0 8.125 0 8.25 0.0125 8.375C0.1125 10.6125 1.1375 12.6125 2.7125 14C2.9 14.1625 3.1 14.325 3.3125 14.475C4.5375 15.3625 6.025 15.9125 7.625 15.9875C7.75 15.9875 7.875 16 8 16C8.125 16 8.25 16 8.375 15.9875C9.9875 15.9125 11.475 15.3625 12.6875 14.475C12.9 14.325 13.1 14.1625 13.2875 14C14.8625 12.6125 15.8875 10.6125 15.9875 8.375C15.9875 8.25 16 8.125 16 8C16 7.875 16 7.75 15.9875 7.625ZM15.2375 7.625H12C11.9625 6.025 11.6875 4.5375 11.25 3.3125C11.7625 3.0875 12.25 2.8 12.7 2.475C14.1625 3.7375 15.1375 5.5625 15.2375 7.625ZM8.375 0.8125C9.0125 1 9.65 1.6625 10.1625 2.6875C10.2 2.75 10.225 2.825 10.2625 2.9C9.6625 3.1 9.0375 3.2125 8.375 3.25V0.8125ZM7.625 0.8125V3.25C6.975 3.2125 6.3375 3.1 5.7375 2.9C6.275 1.75 6.95 1.0125 7.625 0.8125ZM7.625 3.9875V7.625H4.75C4.7875 6.0625 5.05 4.6875 5.45 3.5875C6.1375 3.8125 6.875 3.9625 7.625 3.9875ZM7.625 8.375V12.0125C6.875 12.05 6.1375 12.1875 5.45 12.4125C5.0375 11.2375 4.7875 9.85 4.75 8.375H7.625ZM7.625 12.7625V15.2C6.9875 15.0125 6.35 14.35 5.8375 13.325C5.8 13.2625 5.775 13.1875 5.7375 13.1125C6.3375 12.9125 6.975 12.7875 7.625 12.7625ZM8.375 15.1875V12.75C9.025 12.7875 9.6625 12.9 10.2625 13.1C9.725 14.25 9.05 14.9875 8.375 15.1875ZM8.375 12.0125V8.375H11.25C11.2125 9.9375 10.95 11.3125 10.55 12.4125C9.8625 12.1875 9.125 12.0375 8.375 12.0125ZM8.375 7.625V3.9875C9.125 3.95 9.8625 3.8125 10.55 3.5875C10.975 4.7625 11.2125 6.15 11.25 7.625H8.375ZM12.0625 2C11.7125 2.2375 11.35 2.4375 10.9625 2.6125C10.675 1.975 10.3375 1.4375 9.9625 1.0125C10.7125 1.225 11.425 1.5625 12.0625 2ZM6.05 1.0125C5.675 1.4375 5.3375 1.975 5.05 2.6125C4.6625 2.4375 4.2875 2.2375 3.95 2C4.575 1.5625 5.2875 1.225 6.05 1.0125ZM3.3125 2.475C3.7625 2.8 4.25 3.0875 4.7625 3.3125C4.325 4.5375 4.05 6.0125 4.0125 7.625H0.7625C0.8625 5.5625 1.8375 3.7375 3.3125 2.475ZM0.7625 8.375H4.0125C4.05 9.975 4.325 11.4625 4.7625 12.6875C4.25 12.9125 3.7625 13.2 3.3125 13.525C1.8375 12.2625 0.8625 10.4375 0.7625 8.375ZM3.9375 14C4.2875 13.7625 4.65 13.5625 5.0375 13.3875C5.325 14.025 5.6625 14.5625 6.0375 14.9875C5.2875 14.775 4.575 14.4375 3.9375 14ZM9.95 14.9875C10.325 14.5625 10.6625 14.025 10.95 13.3875C11.3375 13.5625 11.7125 13.7625 12.05 14C11.425 14.4375 10.7125 14.775 9.95 14.9875ZM12.6875 13.525C12.2375 13.2 11.75 12.9125 11.2375 12.6875C11.675 11.4625 11.95 9.9875 11.9875 8.375H15.2375C15.1375 10.4375 14.1625 12.2625 12.6875 13.525Z" fill="#505050"/>
</g>
<defs>
<clipPath id="clip0_1_52">
<rect width="16" height="16" fill="white"/>
</clipPath>
</defs>
</svg>
