<?xml version="1.0" encoding="utf-8"?>
<!-- Generator: Adobe Illustrator 24.0.2, SVG Export Plug-In . SVG Version: 6.00 Build 0)  -->
<svg version="1.1" id="Layer_1" xmlns="http://www.w3.org/2000/svg" xmlns:xlink="http://www.w3.org/1999/xlink" x="0px" y="0px"
	 viewBox="0 0 128 128" style="enable-background:new 0 0 128 128;" xml:space="preserve">
<style type="text/css">
	.st0{fill:#BAE7FC;}
	.st1{fill:#A3DEFB;}
	.st2{fill:#7ACEF9;}
	.st3{fill:#6E6F80;}
	.st4{fill:#585966;}
	.st5{fill:#545561;}
	.st6{fill:#804B33;}
	.st7{fill:#40261A;}
	.st8{fill:#A66242;}
	.st9{fill:#CC7852;}
</style>
<g id="Jar">
	<path class="st0" d="M128,39.9v74c0,7.7-6.3,14-14,14H14c-7.7,0-14-6.3-14-14v-74c0-5.1,2.8-9.6,6.9-12.1c0.9-0.6,1.8-1.2,2.6-1.9
		c2.8-2.5,4.4-6.1,4.4-9.9V0h100.2v16c0,3.8,1.7,7.4,4.4,9.9c0.8,0.7,1.7,1.4,2.6,1.9C125.2,30.3,128,34.8,128,39.9z"/>
	<path class="st1" d="M128,39.9V114c0,7.7-6.3,14-14,14h-12.3c7.7,0,14-6.3,14-14V40c0-5.2-2.8-9.7-6.9-12.1c-4.2-2.6-7-7-7-11.9V0
		h12.3v16c0,5,2.7,9.4,7,11.9C125.2,30.3,128,34.8,128,39.9z"/>
	<path class="st1" d="M118.5,25.9c0,0-40.9,0-54.5,0s-54.5,0-54.5,0c2.8-2.5,4.4-6.1,4.4-9.9V0h100.2v16
		C114.1,19.9,115.8,23.4,118.5,25.9z"/>
	<ellipse id="path4727_3_" class="st1" cx="64" cy="114.4" rx="52.3" ry="13.1"/>
	<path class="st2" d="M118.5,25.9h-12.3c-2.8-2.5-4.4-6.1-4.4-9.9V0h12.3v16C114.1,19.9,115.8,23.4,118.5,25.9z"/>
</g>
<g id="Lid">
	<g>
		<path class="st3" d="M121.9,8.1V5c0-2.8-2.2-5-5-5H11.2c-2.8,0-5,2.2-5,5v3.1c0,2.8,2.2,5,5,5h105.7
			C119.6,13.1,121.9,10.9,121.9,8.1z"/>
		<path class="st4" d="M121.9,8.1V5c0-2.8-2.2-5-5-5h-15v13.1h15C119.6,13.1,121.9,10.9,121.9,8.1z"/>
	</g>
	<g>
		<path id="path12363_1_" class="st5" d="M15.1,6.5L15.1,6.5c-1.8,0-3.3,1.5-3.3,3.2v3.4h6.5V9.7C18.3,8,16.8,6.5,15.1,6.5z"/>
		<path id="path12363_2_" class="st5" d="M113,6.5L113,6.5c-1.8,0-3.3,1.5-3.3,3.3v3.3h6.6V9.8C116.3,8,114.8,6.5,113,6.5z"/>
		<path id="path12363_3_" class="st5" d="M64,6.5L64,6.5c-1.8,0-3.2,1.5-3.2,3.2v3.4h6.5V9.7C67.3,8,65.8,6.5,64,6.5z"/>
		<path id="path12363_4_" class="st5" d="M88.5,6.5L88.5,6.5c-1.8,0-3.2,1.5-3.2,3.2v3.4h6.5V9.7C91.8,8,90.3,6.5,88.5,6.5z"/>
		<path id="path12363_5_" class="st5" d="M39.6,6.5L39.6,6.5c-1.8,0-3.3,1.5-3.3,3.2v3.4h6.5V9.7C42.8,8,41.3,6.5,39.6,6.5z"/>
		<path id="path12363_6_" class="st5" d="M27.3,6.5L27.3,6.5C25.5,6.5,24,8,24,9.7v3.4h6.5V9.7C30.5,8,29,6.5,27.3,6.5z"/>
		<path id="path12363_7_" class="st5" d="M51.8,6.5L51.8,6.5c-1.8,0-3.2,1.5-3.2,3.2v3.4h6.5V9.7C55,8,53.5,6.5,51.8,6.5z"/>
		<path id="path12363_8_" class="st5" d="M76.2,6.5L76.2,6.5c-1.8,0-3.3,1.5-3.3,3.3v3.3h6.6V9.8C79.5,8,78,6.5,76.2,6.5z"/>
		<path id="path12363_9_" class="st5" d="M100.8,6.5L100.8,6.5c-1.8,0-3.2,1.5-3.2,3.2v3.4h6.5V9.7C104,8,102.5,6.5,100.8,6.5z"/>
	</g>
</g>
<g id="Cookie_1_">
	<g>
		<path class="st6" d="M76.5,88.9c0,17.9-14.5,32.4-32.4,32.4s-32.4-14.5-32.4-32.4c0-3.6,0.6-7.1,1.7-10.4c0.8-2.5,2-4.8,3.3-7
			c5.8-9,15.9-15,27.4-15C62,56.5,76.5,71,76.5,88.9z"/>
	</g>
	<circle id="circle12381_2_" class="st7" cx="38.4" cy="85.2" r="3.7"/>
	<circle id="circle12381_1_" class="st7" cx="36.2" cy="106" r="6.2"/>
	<path class="st7" d="M19.5,75.3c0,2.2-1.8,3.9-3.9,3.9c-0.8,0-1.5-0.2-2.2-0.6c0.8-2.5,2-4.8,3.3-7C18.3,72.1,19.5,73.6,19.5,75.3z
		"/>
	<path class="st7" d="M54,119.8c0-0.1,0-0.2,0-0.3c0-1.3-1-2.3-2.3-2.3s-2.3,1-2.3,2.3c0,0.5,0.2,0.9,0.4,1.3L54,119.8z"/>
</g>
<g id="Cookie_2_">
	<g>
		<ellipse id="circle12373_2_" class="st8" cx="64.2" cy="65.2" rx="32.4" ry="32.4"/>
	</g>
	<circle id="circle12381_3_" class="st7" cx="75.3" cy="47.4" r="6.2"/>
	<circle id="circle12381_4_" class="st7" cx="47.6" cy="67.9" r="3.9"/>
	<circle id="circle12381_5_" class="st7" cx="49.4" cy="47.4" r="2.3"/>
	<path class="st6" d="M65.1,32.8c-1,0-2,0-3,0.1c17.4,1,30.9,15.7,30.4,33.3C92.1,83,78.7,96.5,62.2,97.5c0.3,0,0.7,0,1,0.1
		C81.1,98.1,96,84,96.6,66.2C97.1,48.3,83,33.3,65.1,32.8z"/>
</g>
<g id="Cookie">
	<g>
		<path class="st9" d="M116.3,88.9c0,6.4-1.8,12.3-5,17.3c-1.3,2.1-2.8,4-4.6,5.7c-5.8,5.8-13.9,9.4-22.8,9.4
			c-17.9,0-32.4-14.5-32.4-32.4c0-9.2,3.8-17.5,10-23.4c3-2.9,6.5-5.1,10.4-6.7c3.7-1.5,7.8-2.3,12.1-2.3
			C101.8,56.5,116.3,71,116.3,88.9z"/>
	</g>
	<circle id="circle12381_6_" class="st7" cx="102.7" cy="81.5" r="6.2"/>
	<circle id="circle12381_7_" class="st7" cx="84.8" cy="102.8" r="4.8"/>
	<circle id="circle12381_8_" class="st7" cx="76.5" cy="81.5" r="3.9"/>
	<path class="st7" d="M72.6,61.7c0,3.4-2.8,6.2-6.2,6.2c-2,0-3.8-1-4.9-2.4c3-2.9,6.5-5.1,10.4-6.7C72.3,59.7,72.6,60.7,72.6,61.7z"
		/>
	<circle id="circle12381_9_" class="st7" cx="59.2" cy="99.8" r="2.3"/>
	<path class="st6" d="M84,56.5c-0.7,0-1.4,0-2,0.1c16.9,1,30.3,15.1,30.3,32.3c0,6.4-1.8,12.3-5,17.3c-1.3,2.1-2.8,4-4.6,5.7
		c-5.4,5.4-12.7,8.8-20.8,9.3c0.7,0,1.3,0.1,2,0.1c8.9,0,17-3.6,22.8-9.4c1.8-1.7,3.3-3.6,4.6-5.7c3.2-5,5-10.9,5-17.3
		C116.3,71,101.8,56.5,84,56.5z"/>
</g>
</svg>
