<?xml version="1.0" encoding="UTF-8"?>
<!DOCTYPE svg PUBLIC "-//W3C//DTD SVG 1.1//EN" "http://www.w3.org/Graphics/SVG/1.1/DTD/svg11.dtd">
<!-- Creator: CorelDRAW -->
<svg xmlns="http://www.w3.org/2000/svg" xml:space="preserve" width="1.70666in" height="1.70666in" version="1.1" style="shape-rendering:geometricPrecision; text-rendering:geometricPrecision; image-rendering:optimizeQuality; fill-rule:evenodd; clip-rule:evenodd"
viewBox="0 0 1707 1707"
 xmlns:xlink="http://www.w3.org/1999/xlink">
 <defs>
  <style type="text/css">
   <![CDATA[
    .fil0 {fill:#000002}
   ]]>
  </style>
 </defs>
 <g id="Layer_x0020_1">
  <metadata id="CorelCorpID_0Corel-Layer"/>
  <g>
   <path class="fil0" d="M1132 1377c-66,0 -129,-11 -187,-32 -104,87 -234,135 -370,135 -317,0 -575,-258 -575,-575 0,-397 394,-670 762,-544 178,-149 435,-178 643,-65 21,11 6,34 6,51 0,39 31,67 68,67 25,0 23,21 23,35 0,32 22,59 53,65 21,4 18,21 18,36 0,33 25,62 58,66 18,3 26,27 12,40 -44,39 -19,114 42,116 17,0 22,15 22,30 0,317 -258,575 -575,575zm-386 -149c-244,-223 -252,-600 -23,-831 -334,-98 -678,153 -678,508 0,292 238,530 530,530 116,0 229,-39 321,-109 -56,-25 -106,-58 -150,-98l0 0zm-90 -659c-168,344 78,762 476,762 287,0 522,-231 529,-517 -72,-16 -108,-99 -72,-164 -36,-18 -61,-55 -62,-97 -39,-15 -67,-53 -71,-96 -59,-11 -100,-70 -89,-130 -264,-131 -584,-18 -711,242zm51 776c-30,0 -30,-46 0,-46 29,0 29,46 0,46zm-201 -660c-30,0 -30,-45 0,-45 29,0 29,45 0,45zm-16 -184c-29,0 -29,-46 0,-46 30,0 30,46 0,46zm-172 759c-30,0 -30,-45 0,-45 29,0 29,45 0,45zm-160 -406c-29,0 -29,-45 0,-45 30,0 30,45 0,45zm317 205c-29,0 -29,-45 0,-45 30,0 30,45 0,45zm-28 -181c-29,0 -29,-46 0,-46 30,0 30,46 0,46zm58 494c-56,0 -102,-46 -102,-103 0,-56 46,-102 102,-102 57,0 103,46 103,102 0,57 -46,103 -103,103zm0 -160c-31,0 -57,26 -57,57 0,32 26,57 57,57 32,0 57,-25 57,-57 0,-31 -25,-57 -57,-57zm-238 -76c-56,0 -102,-46 -102,-103 0,-56 46,-102 102,-102 57,0 103,46 103,102 0,57 -46,103 -103,103zm0 -160c-31,0 -57,26 -57,57 0,32 26,57 57,57 32,0 57,-25 57,-57 0,-31 -25,-57 -57,-57zm61 -190c-57,0 -103,-46 -103,-102 0,-57 46,-103 103,-103 56,0 102,46 102,103 0,56 -46,102 -102,102zm0 -159c-32,0 -57,25 -57,57 0,31 25,57 57,57 31,0 57,-26 57,-57 0,-32 -26,-57 -57,-57zm804 -72c-57,0 -103,-46 -103,-102 0,-57 46,-103 103,-103 56,0 102,46 102,103 0,56 -46,102 -102,102zm11 658c-30,0 -30,-46 0,-46 29,0 29,46 0,46zm336 -292c-29,0 -29,-46 0,-46 30,0 30,46 0,46zm-132 -409c-29,0 -29,-46 0,-46 30,0 30,46 0,46zm-472 -20c-29,0 -29,-45 0,-45 30,0 30,45 0,45zm-117 444c-29,0 -29,-45 0,-45 30,0 30,45 0,45zm186 -67c-29,0 -29,-45 0,-45 30,0 30,45 0,45zm216 141c-29,0 -29,-46 0,-46 29,0 29,46 0,46zm153 -151c-29,0 -29,-46 0,-46 30,0 30,46 0,46zm-36 -236c-30,0 -30,-45 0,-45 29,0 29,45 0,45zm-250 30c-29,0 -29,-46 0,-46 30,0 30,46 0,46zm105 251c-57,0 -103,-46 -103,-102 0,-57 46,-103 103,-103 56,0 102,46 102,103 0,56 -46,102 -102,102zm0 -160c-32,0 -57,26 -57,58 0,31 25,57 57,57 31,0 57,-26 57,-57 0,-32 -26,-58 -57,-58zm-185 418c-57,0 -103,-46 -103,-102 0,-57 46,-103 103,-103 56,0 102,46 102,103 0,56 -46,102 -102,102zm0 -160c-32,0 -58,26 -58,58 0,31 26,57 58,57 31,0 57,-26 57,-57 0,-32 -26,-58 -57,-58zm-111 -208c-56,0 -102,-46 -102,-102 0,-57 46,-103 102,-103 57,0 103,46 103,103 0,56 -46,102 -103,102zm0 -160c-31,0 -57,26 -57,58 0,31 26,57 57,57 32,0 57,-26 57,-57 0,-32 -25,-58 -57,-58zm529 528c-56,0 -102,-46 -102,-102 0,-57 46,-103 102,-103 57,0 103,46 103,103 0,56 -46,102 -103,102zm0 -160c-31,0 -57,26 -57,58 0,31 26,57 57,57 32,0 57,-26 57,-57 0,-32 -25,-58 -57,-58zm67 -208c-57,0 -103,-46 -103,-102 0,-57 46,-103 103,-103 56,0 102,46 102,103 0,56 -46,102 -102,102zm0 -160c-32,0 -57,26 -57,58 0,31 25,57 57,57 31,0 57,-26 57,-57 0,-32 -26,-58 -57,-58zm-300 -238c-32,0 -57,25 -57,57 0,31 25,57 57,57 31,0 57,-26 57,-57 0,-32 -26,-57 -57,-57z"/>
  </g>
 </g>
</svg>
