<svg version="1.1" xmlns="http://www.w3.org/2000/svg" viewBox="0 0 257.70703125 237.89453125" width="515.4140625" height="475.7890625">
  <g stroke-linecap="round" transform="translate(57.22265625 37.41015625) rotate(0 95.2421875 95.2421875)"><path d="M190.48 95.24 C190.48 98.35, 190.33 101.48, 190.03 104.58 C189.72 107.67, 189.26 110.77, 188.65 113.82 C188.05 116.88, 187.29 119.91, 186.38 122.89 C185.48 125.87, 184.43 128.81, 183.23 131.69 C182.04 134.56, 180.71 137.39, 179.24 140.14 C177.77 142.88, 176.16 145.57, 174.43 148.16 C172.7 150.74, 170.84 153.26, 168.87 155.66 C166.89 158.07, 164.79 160.39, 162.59 162.59 C160.39 164.79, 158.07 166.89, 155.66 168.87 C153.26 170.84, 150.74 172.7, 148.16 174.43 C145.57 176.16, 142.88 177.77, 140.14 179.24 C137.39 180.71, 134.56 182.04, 131.69 183.23 C128.81 184.43, 125.87 185.48, 122.89 186.38 C119.91 187.29, 116.88 188.05, 113.82 188.65 C110.77 189.26, 107.67 189.72, 104.58 190.03 C101.48 190.33, 98.35 190.48, 95.24 190.48 C92.13 190.48, 89 190.33, 85.91 190.03 C82.81 189.72, 79.71 189.26, 76.66 188.65 C73.61 188.05, 70.57 187.29, 67.59 186.38 C64.62 185.48, 61.67 184.43, 58.79 183.23 C55.92 182.04, 53.09 180.71, 50.35 179.24 C47.6 177.77, 44.92 176.16, 42.33 174.43 C39.74 172.7, 37.23 170.84, 34.82 168.87 C32.42 166.89, 30.1 164.79, 27.9 162.59 C25.7 160.39, 23.59 158.07, 21.62 155.66 C19.64 153.26, 17.78 150.74, 16.05 148.16 C14.32 145.57, 12.71 142.88, 11.25 140.14 C9.78 137.39, 8.44 134.56, 7.25 131.69 C6.06 128.81, 5 125.87, 4.1 122.89 C3.2 119.91, 2.44 116.88, 1.83 113.82 C1.22 110.77, 0.76 107.67, 0.46 104.58 C0.15 101.48, 0 98.35, 0 95.24 C0 92.13, 0.15 89, 0.46 85.91 C0.76 82.81, 1.22 79.71, 1.83 76.66 C2.44 73.61, 3.2 70.57, 4.1 67.59 C5 64.62, 6.06 61.67, 7.25 58.79 C8.44 55.92, 9.78 53.09, 11.25 50.35 C12.71 47.6, 14.32 44.92, 16.05 42.33 C17.78 39.74, 19.64 37.23, 21.62 34.82 C23.59 32.42, 25.7 30.1, 27.9 27.9 C30.1 25.7, 32.42 23.59, 34.82 21.62 C37.23 19.64, 39.74 17.78, 42.33 16.05 C44.92 14.32, 47.6 12.71, 50.35 11.25 C53.09 9.78, 55.92 8.44, 58.79 7.25 C61.67 6.06, 64.62 5, 67.59 4.1 C70.57 3.2, 73.61 2.44, 76.66 1.83 C79.71 1.22, 82.81 0.76, 85.91 0.46 C89 0.15, 92.13 0, 95.24 0 C98.35 0, 101.48 0.15, 104.58 0.46 C107.67 0.76, 110.77 1.22, 113.82 1.83 C116.88 2.44, 119.91 3.2, 122.89 4.1 C125.87 5, 128.81 6.06, 131.69 7.25 C134.56 8.44, 137.39 9.78, 140.14 11.25 C142.88 12.71, 145.57 14.32, 148.16 16.05 C150.74 17.78, 153.26 19.64, 155.66 21.62 C158.07 23.59, 160.39 25.7, 162.59 27.9 C164.79 30.1, 166.89 32.42, 168.87 34.82 C170.84 37.23, 172.7 39.74, 174.43 42.33 C176.16 44.92, 177.77 47.6, 179.24 50.35 C180.71 53.09, 182.04 55.92, 183.23 58.79 C184.43 61.67, 185.48 64.62, 186.38 67.59 C187.29 70.57, 188.05 73.61, 188.65 76.66 C189.26 79.71, 189.72 82.81, 190.03 85.91 C190.33 89, 190.41 93.69, 190.48 95.24 C190.56 96.8, 190.56 93.69, 190.48 95.24" stroke="none" stroke-width="0" fill="#ffffff"></path><path d="M190.48 95.24 C190.48 98.35, 190.33 101.48, 190.03 104.58 C189.72 107.67, 189.26 110.77, 188.65 113.82 C188.05 116.88, 187.29 119.91, 186.38 122.89 C185.48 125.87, 184.43 128.81, 183.23 131.69 C182.04 134.56, 180.71 137.39, 179.24 140.14 C177.77 142.88, 176.16 145.57, 174.43 148.16 C172.7 150.74, 170.84 153.26, 168.87 155.66 C166.89 158.07, 164.79 160.39, 162.59 162.59 C160.39 164.79, 158.07 166.89, 155.66 168.87 C153.26 170.84, 150.74 172.7, 148.16 174.43 C145.57 176.16, 142.88 177.77, 140.14 179.24 C137.39 180.71, 134.56 182.04, 131.69 183.23 C128.81 184.43, 125.87 185.48, 122.89 186.38 C119.91 187.29, 116.88 188.05, 113.82 188.65 C110.77 189.26, 107.67 189.72, 104.58 190.03 C101.48 190.33, 98.35 190.48, 95.24 190.48 C92.13 190.48, 89 190.33, 85.91 190.03 C82.81 189.72, 79.71 189.26, 76.66 188.65 C73.61 188.05, 70.57 187.29, 67.59 186.38 C64.62 185.48, 61.67 184.43, 58.79 183.23 C55.92 182.04, 53.09 180.71, 50.35 179.24 C47.6 177.77, 44.92 176.16, 42.33 174.43 C39.74 172.7, 37.23 170.84, 34.82 168.87 C32.42 166.89, 30.1 164.79, 27.9 162.59 C25.7 160.39, 23.59 158.07, 21.62 155.66 C19.64 153.26, 17.78 150.74, 16.05 148.16 C14.32 145.57, 12.71 142.88, 11.25 140.14 C9.78 137.39, 8.44 134.56, 7.25 131.69 C6.06 128.81, 5 125.87, 4.1 122.89 C3.2 119.91, 2.44 116.88, 1.83 113.82 C1.22 110.77, 0.76 107.67, 0.46 104.58 C0.15 101.48, 0 98.35, 0 95.24 C0 92.13, 0.15 89, 0.46 85.91 C0.76 82.81, 1.22 79.71, 1.83 76.66 C2.44 73.61, 3.2 70.57, 4.1 67.59 C5 64.62, 6.06 61.67, 7.25 58.79 C8.44 55.92, 9.78 53.09, 11.25 50.35 C12.71 47.6, 14.32 44.92, 16.05 42.33 C17.78 39.74, 19.64 37.23, 21.62 34.82 C23.59 32.42, 25.7 30.1, 27.9 27.9 C30.1 25.7, 32.42 23.59, 34.82 21.62 C37.23 19.64, 39.74 17.78, 42.33 16.05 C44.92 14.32, 47.6 12.71, 50.35 11.25 C53.09 9.78, 55.92 8.44, 58.79 7.25 C61.67 6.06, 64.62 5, 67.59 4.1 C70.57 3.2, 73.61 2.44, 76.66 1.83 C79.71 1.22, 82.81 0.76, 85.91 0.46 C89 0.15, 92.13 0, 95.24 0 C98.35 0, 101.48 0.15, 104.58 0.46 C107.67 0.76, 110.77 1.22, 113.82 1.83 C116.88 2.44, 119.91 3.2, 122.89 4.1 C125.87 5, 128.81 6.06, 131.69 7.25 C134.56 8.44, 137.39 9.78, 140.14 11.25 C142.88 12.71, 145.57 14.32, 148.16 16.05 C150.74 17.78, 153.26 19.64, 155.66 21.62 C158.07 23.59, 160.39 25.7, 162.59 27.9 C164.79 30.1, 166.89 32.42, 168.87 34.82 C170.84 37.23, 172.7 39.74, 174.43 42.33 C176.16 44.92, 177.77 47.6, 179.24 50.35 C180.71 53.09, 182.04 55.92, 183.23 58.79 C184.43 61.67, 185.48 64.62, 186.38 67.59 C187.29 70.57, 188.05 73.61, 188.65 76.66 C189.26 79.71, 189.72 82.81, 190.03 85.91 C190.33 89, 190.41 93.69, 190.48 95.24 C190.56 96.8, 190.56 93.69, 190.48 95.24" stroke="#1e1e1e" stroke-width="4" fill="none"></path></g><g stroke-linecap="round" transform="translate(10 10) rotate(0 95.2421875 95.2421875)"><path d="M190.48 95.24 C190.48 98.35, 190.33 101.48, 190.03 104.58 C189.72 107.67, 189.26 110.77, 188.65 113.82 C188.05 116.88, 187.29 119.91, 186.38 122.89 C185.48 125.87, 184.43 128.81, 183.23 131.69 C182.04 134.56, 180.71 137.39, 179.24 140.14 C177.77 142.88, 176.16 145.57, 174.43 148.16 C172.7 150.74, 170.84 153.26, 168.87 155.66 C166.89 158.07, 164.79 160.39, 162.59 162.59 C160.39 164.79, 158.07 166.89, 155.66 168.87 C153.26 170.84, 150.74 172.7, 148.16 174.43 C145.57 176.16, 142.88 177.77, 140.14 179.24 C137.39 180.71, 134.56 182.04, 131.69 183.23 C128.81 184.43, 125.87 185.48, 122.89 186.38 C119.91 187.29, 116.88 188.05, 113.82 188.65 C110.77 189.26, 107.67 189.72, 104.58 190.03 C101.48 190.33, 98.35 190.48, 95.24 190.48 C92.13 190.48, 89 190.33, 85.91 190.03 C82.81 189.72, 79.71 189.26, 76.66 188.65 C73.61 188.05, 70.57 187.29, 67.59 186.38 C64.62 185.48, 61.67 184.43, 58.79 183.23 C55.92 182.04, 53.09 180.71, 50.35 179.24 C47.6 177.77, 44.92 176.16, 42.33 174.43 C39.74 172.7, 37.23 170.84, 34.82 168.87 C32.42 166.89, 30.1 164.79, 27.9 162.59 C25.7 160.39, 23.59 158.07, 21.62 155.66 C19.64 153.26, 17.78 150.74, 16.05 148.16 C14.32 145.57, 12.71 142.88, 11.25 140.14 C9.78 137.39, 8.44 134.56, 7.25 131.69 C6.06 128.81, 5 125.87, 4.1 122.89 C3.2 119.91, 2.44 116.88, 1.83 113.82 C1.22 110.77, 0.76 107.67, 0.46 104.58 C0.15 101.48, 0 98.35, 0 95.24 C0 92.13, 0.15 89, 0.46 85.91 C0.76 82.81, 1.22 79.71, 1.83 76.66 C2.44 73.61, 3.2 70.57, 4.1 67.59 C5 64.62, 6.06 61.67, 7.25 58.79 C8.44 55.92, 9.78 53.09, 11.25 50.35 C12.71 47.6, 14.32 44.92, 16.05 42.33 C17.78 39.74, 19.64 37.23, 21.62 34.82 C23.59 32.42, 25.7 30.1, 27.9 27.9 C30.1 25.7, 32.42 23.59, 34.82 21.62 C37.23 19.64, 39.74 17.78, 42.33 16.05 C44.92 14.32, 47.6 12.71, 50.35 11.25 C53.09 9.78, 55.92 8.44, 58.79 7.25 C61.67 6.06, 64.62 5, 67.59 4.1 C70.57 3.2, 73.61 2.44, 76.66 1.83 C79.71 1.22, 82.81 0.76, 85.91 0.46 C89 0.15, 92.13 0, 95.24 0 C98.35 0, 101.48 0.15, 104.58 0.46 C107.67 0.76, 110.77 1.22, 113.82 1.83 C116.88 2.44, 119.91 3.2, 122.89 4.1 C125.87 5, 128.81 6.06, 131.69 7.25 C134.56 8.44, 137.39 9.78, 140.14 11.25 C142.88 12.71, 145.57 14.32, 148.16 16.05 C150.74 17.78, 153.26 19.64, 155.66 21.62 C158.07 23.59, 160.39 25.7, 162.59 27.9 C164.79 30.1, 166.89 32.42, 168.87 34.82 C170.84 37.23, 172.7 39.74, 174.43 42.33 C176.16 44.92, 177.77 47.6, 179.24 50.35 C180.71 53.09, 182.04 55.92, 183.23 58.79 C184.43 61.67, 185.48 64.62, 186.38 67.59 C187.29 70.57, 188.05 73.61, 188.65 76.66 C189.26 79.71, 189.72 82.81, 190.03 85.91 C190.33 89, 190.41 93.69, 190.48 95.24 C190.56 96.8, 190.56 93.69, 190.48 95.24" stroke="none" stroke-width="0" fill="#ffffff"></path><path d="M190.48 95.24 C190.48 98.35, 190.33 101.48, 190.03 104.58 C189.72 107.67, 189.26 110.77, 188.65 113.82 C188.05 116.88, 187.29 119.91, 186.38 122.89 C185.48 125.87, 184.43 128.81, 183.23 131.69 C182.04 134.56, 180.71 137.39, 179.24 140.14 C177.77 142.88, 176.16 145.57, 174.43 148.16 C172.7 150.74, 170.84 153.26, 168.87 155.66 C166.89 158.07, 164.79 160.39, 162.59 162.59 C160.39 164.79, 158.07 166.89, 155.66 168.87 C153.26 170.84, 150.74 172.7, 148.16 174.43 C145.57 176.16, 142.88 177.77, 140.14 179.24 C137.39 180.71, 134.56 182.04, 131.69 183.23 C128.81 184.43, 125.87 185.48, 122.89 186.38 C119.91 187.29, 116.88 188.05, 113.82 188.65 C110.77 189.26, 107.67 189.72, 104.58 190.03 C101.48 190.33, 98.35 190.48, 95.24 190.48 C92.13 190.48, 89 190.33, 85.91 190.03 C82.81 189.72, 79.71 189.26, 76.66 188.65 C73.61 188.05, 70.57 187.29, 67.59 186.38 C64.62 185.48, 61.67 184.43, 58.79 183.23 C55.92 182.04, 53.09 180.71, 50.35 179.24 C47.6 177.77, 44.92 176.16, 42.33 174.43 C39.74 172.7, 37.23 170.84, 34.82 168.87 C32.42 166.89, 30.1 164.79, 27.9 162.59 C25.7 160.39, 23.59 158.07, 21.62 155.66 C19.64 153.26, 17.78 150.74, 16.05 148.16 C14.32 145.57, 12.71 142.88, 11.25 140.14 C9.78 137.39, 8.44 134.56, 7.25 131.69 C6.06 128.81, 5 125.87, 4.1 122.89 C3.2 119.91, 2.44 116.88, 1.83 113.82 C1.22 110.77, 0.76 107.67, 0.46 104.58 C0.15 101.48, 0 98.35, 0 95.24 C0 92.13, 0.15 89, 0.46 85.91 C0.76 82.81, 1.22 79.71, 1.83 76.66 C2.44 73.61, 3.2 70.57, 4.1 67.59 C5 64.62, 6.06 61.67, 7.25 58.79 C8.44 55.92, 9.78 53.09, 11.25 50.35 C12.71 47.6, 14.32 44.92, 16.05 42.33 C17.78 39.74, 19.64 37.23, 21.62 34.82 C23.59 32.42, 25.7 30.1, 27.9 27.9 C30.1 25.7, 32.42 23.59, 34.82 21.62 C37.23 19.64, 39.74 17.78, 42.33 16.05 C44.92 14.32, 47.6 12.71, 50.35 11.25 C53.09 9.78, 55.92 8.44, 58.79 7.25 C61.67 6.06, 64.62 5, 67.59 4.1 C70.57 3.2, 73.61 2.44, 76.66 1.83 C79.71 1.22, 82.81 0.76, 85.91 0.46 C89 0.15, 92.13 0, 95.24 0 C98.35 0, 101.48 0.15, 104.58 0.46 C107.67 0.76, 110.77 1.22, 113.82 1.83 C116.88 2.44, 119.91 3.2, 122.89 4.1 C125.87 5, 128.81 6.06, 131.69 7.25 C134.56 8.44, 137.39 9.78, 140.14 11.25 C142.88 12.71, 145.57 14.32, 148.16 16.05 C150.74 17.78, 153.26 19.64, 155.66 21.62 C158.07 23.59, 160.39 25.7, 162.59 27.9 C164.79 30.1, 166.89 32.42, 168.87 34.82 C170.84 37.23, 172.7 39.74, 174.43 42.33 C176.16 44.92, 177.77 47.6, 179.24 50.35 C180.71 53.09, 182.04 55.92, 183.23 58.79 C184.43 61.67, 185.48 64.62, 186.38 67.59 C187.29 70.57, 188.05 73.61, 188.65 76.66 C189.26 79.71, 189.72 82.81, 190.03 85.91 C190.33 89, 190.41 93.69, 190.48 95.24 C190.56 96.8, 190.56 93.69, 190.48 95.24" stroke="#1e1e1e" stroke-width="4" fill="none"></path></g><g stroke-linecap="round" transform="translate(86.171875 44.359375) rotate(0 12.857421875 12.857421875)"><path d="M25.71 12.86 C25.71 13.6, 25.65 14.36, 25.52 15.09 C25.39 15.82, 25.19 16.56, 24.94 17.25 C24.68 17.95, 24.36 18.64, 23.99 19.29 C23.62 19.93, 23.19 20.55, 22.71 21.12 C22.23 21.69, 21.69 22.23, 21.12 22.71 C20.55 23.19, 19.93 23.62, 19.29 23.99 C18.64 24.36, 17.95 24.68, 17.25 24.94 C16.56 25.19, 15.82 25.39, 15.09 25.52 C14.36 25.65, 13.6 25.71, 12.86 25.71 C12.11 25.71, 11.36 25.65, 10.62 25.52 C9.89 25.39, 9.16 25.19, 8.46 24.94 C7.76 24.68, 7.07 24.36, 6.43 23.99 C5.78 23.62, 5.16 23.19, 4.59 22.71 C4.02 22.23, 3.49 21.69, 3.01 21.12 C2.53 20.55, 2.09 19.93, 1.72 19.29 C1.35 18.64, 1.03 17.95, 0.78 17.25 C0.52 16.56, 0.32 15.82, 0.2 15.09 C0.07 14.36, 0 13.6, 0 12.86 C0 12.11, 0.07 11.36, 0.2 10.62 C0.32 9.89, 0.52 9.16, 0.78 8.46 C1.03 7.76, 1.35 7.07, 1.72 6.43 C2.09 5.78, 2.53 5.16, 3.01 4.59 C3.49 4.02, 4.02 3.49, 4.59 3.01 C5.16 2.53, 5.78 2.09, 6.43 1.72 C7.07 1.35, 7.76 1.03, 8.46 0.78 C9.16 0.52, 9.89 0.32, 10.62 0.2 C11.36 0.07, 12.11 0, 12.86 0 C13.6 0, 14.36 0.07, 15.09 0.2 C15.82 0.32, 16.56 0.52, 17.25 0.78 C17.95 1.03, 18.64 1.35, 19.29 1.72 C19.93 2.09, 20.55 2.53, 21.12 3.01 C21.69 3.49, 22.23 4.02, 22.71 4.59 C23.19 5.16, 23.62 5.78, 23.99 6.43 C24.36 7.07, 24.68 7.76, 24.94 8.46 C25.19 9.16, 25.39 9.89, 25.52 10.62 C25.65 11.36, 25.68 12.49, 25.71 12.86 C25.75 13.23, 25.75 12.49, 25.71 12.86" stroke="none" stroke-width="0" fill="#ffffff"></path><path d="M25.71 12.86 C25.71 13.6, 25.65 14.36, 25.52 15.09 C25.39 15.82, 25.19 16.56, 24.94 17.25 C24.68 17.95, 24.36 18.64, 23.99 19.29 C23.62 19.93, 23.19 20.55, 22.71 21.12 C22.23 21.69, 21.69 22.23, 21.12 22.71 C20.55 23.19, 19.93 23.62, 19.29 23.99 C18.64 24.36, 17.95 24.68, 17.25 24.94 C16.56 25.19, 15.82 25.39, 15.09 25.52 C14.36 25.65, 13.6 25.71, 12.86 25.71 C12.11 25.71, 11.36 25.65, 10.62 25.52 C9.89 25.39, 9.16 25.19, 8.46 24.94 C7.76 24.68, 7.07 24.36, 6.43 23.99 C5.78 23.62, 5.16 23.19, 4.59 22.71 C4.02 22.23, 3.49 21.69, 3.01 21.12 C2.53 20.55, 2.09 19.93, 1.72 19.29 C1.35 18.64, 1.03 17.95, 0.78 17.25 C0.52 16.56, 0.32 15.82, 0.2 15.09 C0.07 14.36, 0 13.6, 0 12.86 C0 12.11, 0.07 11.36, 0.2 10.62 C0.32 9.89, 0.52 9.16, 0.78 8.46 C1.03 7.76, 1.35 7.07, 1.72 6.43 C2.09 5.78, 2.53 5.16, 3.01 4.59 C3.49 4.02, 4.02 3.49, 4.59 3.01 C5.16 2.53, 5.78 2.09, 6.43 1.72 C7.07 1.35, 7.76 1.03, 8.46 0.78 C9.16 0.52, 9.89 0.32, 10.62 0.2 C11.36 0.07, 12.11 0, 12.86 0 C13.6 0, 14.36 0.07, 15.09 0.2 C15.82 0.32, 16.56 0.52, 17.25 0.78 C17.95 1.03, 18.64 1.35, 19.29 1.72 C19.93 2.09, 20.55 2.53, 21.12 3.01 C21.69 3.49, 22.23 4.02, 22.71 4.59 C23.19 5.16, 23.62 5.78, 23.99 6.43 C24.36 7.07, 24.68 7.76, 24.94 8.46 C25.19 9.16, 25.39 9.89, 25.52 10.62 C25.65 11.36, 25.68 12.49, 25.71 12.86 C25.75 13.23, 25.75 12.49, 25.71 12.86" stroke="#1e1e1e" stroke-width="4" fill="none"></path></g><g stroke-linecap="round" transform="translate(44.958984375 114.677734375) rotate(0 20.078125 20.078125)"><path d="M40.16 20.08 C40.16 21.24, 40.05 22.42, 39.85 23.56 C39.65 24.71, 39.34 25.85, 38.95 26.95 C38.55 28.04, 38.05 29.11, 37.47 30.12 C36.89 31.12, 36.21 32.09, 35.46 32.98 C34.71 33.87, 33.87 34.71, 32.98 35.46 C32.09 36.21, 31.12 36.89, 30.12 37.47 C29.11 38.05, 28.04 38.55, 26.95 38.95 C25.85 39.34, 24.71 39.65, 23.56 39.85 C22.42 40.05, 21.24 40.16, 20.08 40.16 C18.92 40.16, 17.74 40.05, 16.59 39.85 C15.45 39.65, 14.3 39.34, 13.21 38.95 C12.12 38.55, 11.05 38.05, 10.04 37.47 C9.03 36.89, 8.06 36.21, 7.17 35.46 C6.28 34.71, 5.44 33.87, 4.7 32.98 C3.95 32.09, 3.27 31.12, 2.69 30.12 C2.11 29.11, 1.61 28.04, 1.21 26.95 C0.81 25.85, 0.51 24.71, 0.31 23.56 C0.1 22.42, 0 21.24, 0 20.08 C0 18.92, 0.1 17.74, 0.31 16.59 C0.51 15.45, 0.81 14.3, 1.21 13.21 C1.61 12.12, 2.11 11.05, 2.69 10.04 C3.27 9.03, 3.95 8.06, 4.7 7.17 C5.44 6.28, 6.28 5.44, 7.17 4.7 C8.06 3.95, 9.03 3.27, 10.04 2.69 C11.05 2.11, 12.12 1.61, 13.21 1.21 C14.3 0.81, 15.45 0.51, 16.59 0.31 C17.74 0.1, 18.92 0, 20.08 0 C21.24 0, 22.42 0.1, 23.56 0.31 C24.71 0.51, 25.85 0.81, 26.95 1.21 C28.04 1.61, 29.11 2.11, 30.12 2.69 C31.12 3.27, 32.09 3.95, 32.98 4.7 C33.87 5.44, 34.71 6.28, 35.46 7.17 C36.21 8.06, 36.89 9.03, 37.47 10.04 C38.05 11.05, 38.55 12.12, 38.95 13.21 C39.34 14.3, 39.65 15.45, 39.85 16.59 C40.05 17.74, 40.11 19.5, 40.16 20.08 C40.21 20.66, 40.21 19.5, 40.16 20.08" stroke="none" stroke-width="0" fill="#ffffff"></path><path d="M40.16 20.08 C40.16 21.24, 40.05 22.42, 39.85 23.56 C39.65 24.71, 39.34 25.85, 38.95 26.95 C38.55 28.04, 38.05 29.11, 37.47 30.12 C36.89 31.12, 36.21 32.09, 35.46 32.98 C34.71 33.87, 33.87 34.71, 32.98 35.46 C32.09 36.21, 31.12 36.89, 30.12 37.47 C29.11 38.05, 28.04 38.55, 26.95 38.95 C25.85 39.34, 24.71 39.65, 23.56 39.85 C22.42 40.05, 21.24 40.16, 20.08 40.16 C18.92 40.16, 17.74 40.05, 16.59 39.85 C15.45 39.65, 14.3 39.34, 13.21 38.95 C12.12 38.55, 11.05 38.05, 10.04 37.47 C9.03 36.89, 8.06 36.21, 7.17 35.46 C6.28 34.71, 5.44 33.87, 4.7 32.98 C3.95 32.09, 3.27 31.12, 2.69 30.12 C2.11 29.11, 1.61 28.04, 1.21 26.95 C0.81 25.85, 0.51 24.71, 0.31 23.56 C0.1 22.42, 0 21.24, 0 20.08 C0 18.92, 0.1 17.74, 0.31 16.59 C0.51 15.45, 0.81 14.3, 1.21 13.21 C1.61 12.12, 2.11 11.05, 2.69 10.04 C3.27 9.03, 3.95 8.06, 4.7 7.17 C5.44 6.28, 6.28 5.44, 7.17 4.7 C8.06 3.95, 9.03 3.27, 10.04 2.69 C11.05 2.11, 12.12 1.61, 13.21 1.21 C14.3 0.81, 15.45 0.51, 16.59 0.31 C17.74 0.1, 18.92 0, 20.08 0 C21.24 0, 22.42 0.1, 23.56 0.31 C24.71 0.51, 25.85 0.81, 26.95 1.21 C28.04 1.61, 29.11 2.11, 30.12 2.69 C31.12 3.27, 32.09 3.95, 32.98 4.7 C33.87 5.44, 34.71 6.28, 35.46 7.17 C36.21 8.06, 36.89 9.03, 37.47 10.04 C38.05 11.05, 38.55 12.12, 38.95 13.21 C39.34 14.3, 39.65 15.45, 39.85 16.59 C40.05 17.74, 40.11 19.5, 40.16 20.08 C40.21 20.66, 40.21 19.5, 40.16 20.08" stroke="#1e1e1e" stroke-width="4" fill="none"></path></g><g stroke-linecap="round" transform="translate(131.8359375 101.1796875) rotate(0 8.67578125 8.67578125)"><path d="M17.35 8.68 C17.35 9.18, 17.31 9.69, 17.22 10.18 C17.13 10.68, 17 11.17, 16.83 11.64 C16.66 12.11, 16.44 12.58, 16.19 13.01 C15.94 13.45, 15.64 13.87, 15.32 14.25 C15 14.64, 14.64 15, 14.25 15.32 C13.87 15.64, 13.45 15.94, 13.01 16.19 C12.58 16.44, 12.11 16.66, 11.64 16.83 C11.17 17, 10.68 17.13, 10.18 17.22 C9.69 17.31, 9.18 17.35, 8.68 17.35 C8.17 17.35, 7.66 17.31, 7.17 17.22 C6.67 17.13, 6.18 17, 5.71 16.83 C5.24 16.66, 4.77 16.44, 4.34 16.19 C3.9 15.94, 3.48 15.64, 3.1 15.32 C2.71 15, 2.35 14.64, 2.03 14.25 C1.71 13.87, 1.41 13.45, 1.16 13.01 C0.91 12.58, 0.69 12.11, 0.52 11.64 C0.35 11.17, 0.22 10.68, 0.13 10.18 C0.04 9.69, 0 9.18, 0 8.68 C0 8.17, 0.04 7.66, 0.13 7.17 C0.22 6.67, 0.35 6.18, 0.52 5.71 C0.69 5.24, 0.91 4.77, 1.16 4.34 C1.41 3.9, 1.71 3.48, 2.03 3.1 C2.35 2.71, 2.71 2.35, 3.1 2.03 C3.48 1.71, 3.9 1.41, 4.34 1.16 C4.77 0.91, 5.24 0.69, 5.71 0.52 C6.18 0.35, 6.67 0.22, 7.17 0.13 C7.66 0.04, 8.17 0, 8.68 0 C9.18 0, 9.69 0.04, 10.18 0.13 C10.68 0.22, 11.17 0.35, 11.64 0.52 C12.11 0.69, 12.58 0.91, 13.01 1.16 C13.45 1.41, 13.87 1.71, 14.25 2.03 C14.64 2.35, 15 2.71, 15.32 3.1 C15.64 3.48, 15.94 3.9, 16.19 4.34 C16.44 4.77, 16.66 5.24, 16.83 5.71 C17 6.18, 17.13 6.67, 17.22 7.17 C17.31 7.66, 17.33 8.42, 17.35 8.68 C17.37 8.93, 17.37 8.42, 17.35 8.68" stroke="none" stroke-width="0" fill="#ffffff"></path><path d="M17.35 8.68 C17.35 9.18, 17.31 9.69, 17.22 10.18 C17.13 10.68, 17 11.17, 16.83 11.64 C16.66 12.11, 16.44 12.58, 16.19 13.01 C15.94 13.45, 15.64 13.87, 15.32 14.25 C15 14.64, 14.64 15, 14.25 15.32 C13.87 15.64, 13.45 15.94, 13.01 16.19 C12.58 16.44, 12.11 16.66, 11.64 16.83 C11.17 17, 10.68 17.13, 10.18 17.22 C9.69 17.31, 9.18 17.35, 8.68 17.35 C8.17 17.35, 7.66 17.31, 7.17 17.22 C6.67 17.13, 6.18 17, 5.71 16.83 C5.24 16.66, 4.77 16.44, 4.34 16.19 C3.9 15.94, 3.48 15.64, 3.1 15.32 C2.71 15, 2.35 14.64, 2.03 14.25 C1.71 13.87, 1.41 13.45, 1.16 13.01 C0.91 12.58, 0.69 12.11, 0.52 11.64 C0.35 11.17, 0.22 10.68, 0.13 10.18 C0.04 9.69, 0 9.18, 0 8.68 C0 8.17, 0.04 7.66, 0.13 7.17 C0.22 6.67, 0.35 6.18, 0.52 5.71 C0.69 5.24, 0.91 4.77, 1.16 4.34 C1.41 3.9, 1.71 3.48, 2.03 3.1 C2.35 2.71, 2.71 2.35, 3.1 2.03 C3.48 1.71, 3.9 1.41, 4.34 1.16 C4.77 0.91, 5.24 0.69, 5.71 0.52 C6.18 0.35, 6.67 0.22, 7.17 0.13 C7.66 0.04, 8.17 0, 8.68 0 C9.18 0, 9.69 0.04, 10.18 0.13 C10.68 0.22, 11.17 0.35, 11.64 0.52 C12.11 0.69, 12.58 0.91, 13.01 1.16 C13.45 1.41, 13.87 1.71, 14.25 2.03 C14.64 2.35, 15 2.71, 15.32 3.1 C15.64 3.48, 15.94 3.9, 16.19 4.34 C16.44 4.77, 16.66 5.24, 16.83 5.71 C17 6.18, 17.13 6.67, 17.22 7.17 C17.31 7.66, 17.33 8.42, 17.35 8.68 C17.37 8.93, 17.37 8.42, 17.35 8.68" stroke="#1e1e1e" stroke-width="4" fill="none"></path></g><g stroke-linecap="round" transform="translate(111.43359375 144.75) rotate(0 2.0078125 2.0078125)"><path d="M4.02 2.01 C4.02 2.12, 4.01 2.24, 3.99 2.36 C3.96 2.47, 3.93 2.59, 3.89 2.69 C3.85 2.8, 3.8 2.91, 3.75 3.01 C3.69 3.11, 3.62 3.21, 3.55 3.3 C3.47 3.39, 3.39 3.47, 3.3 3.55 C3.21 3.62, 3.11 3.69, 3.01 3.75 C2.91 3.8, 2.8 3.85, 2.69 3.89 C2.59 3.93, 2.47 3.96, 2.36 3.99 C2.24 4.01, 2.12 4.02, 2.01 4.02 C1.89 4.02, 1.77 4.01, 1.66 3.99 C1.54 3.96, 1.43 3.93, 1.32 3.89 C1.21 3.85, 1.1 3.8, 1 3.75 C0.9 3.69, 0.81 3.62, 0.72 3.55 C0.63 3.47, 0.54 3.39, 0.47 3.3 C0.4 3.21, 0.33 3.11, 0.27 3.01 C0.21 2.91, 0.16 2.8, 0.12 2.69 C0.08 2.59, 0.05 2.47, 0.03 2.36 C0.01 2.24, 0 2.12, 0 2.01 C0 1.89, 0.01 1.77, 0.03 1.66 C0.05 1.54, 0.08 1.43, 0.12 1.32 C0.16 1.21, 0.21 1.1, 0.27 1 C0.33 0.9, 0.4 0.81, 0.47 0.72 C0.54 0.63, 0.63 0.54, 0.72 0.47 C0.81 0.4, 0.9 0.33, 1 0.27 C1.1 0.21, 1.21 0.16, 1.32 0.12 C1.43 0.08, 1.54 0.05, 1.66 0.03 C1.77 0.01, 1.89 0, 2.01 0 C2.12 0, 2.24 0.01, 2.36 0.03 C2.47 0.05, 2.59 0.08, 2.69 0.12 C2.8 0.16, 2.91 0.21, 3.01 0.27 C3.11 0.33, 3.21 0.4, 3.3 0.47 C3.39 0.54, 3.47 0.63, 3.55 0.72 C3.62 0.81, 3.69 0.9, 3.75 1 C3.8 1.1, 3.85 1.21, 3.89 1.32 C3.93 1.43, 3.96 1.54, 3.99 1.66 C4.01 1.77, 4.01 1.95, 4.02 2.01 C4.02 2.07, 4.02 1.95, 4.02 2.01" stroke="none" stroke-width="0" fill="#ffffff"></path><path d="M4.02 2.01 C4.02 2.12, 4.01 2.24, 3.99 2.36 C3.96 2.47, 3.93 2.59, 3.89 2.69 C3.85 2.8, 3.8 2.91, 3.75 3.01 C3.69 3.11, 3.62 3.21, 3.55 3.3 C3.47 3.39, 3.39 3.47, 3.3 3.55 C3.21 3.62, 3.11 3.69, 3.01 3.75 C2.91 3.8, 2.8 3.85, 2.69 3.89 C2.59 3.93, 2.47 3.96, 2.36 3.99 C2.24 4.01, 2.12 4.02, 2.01 4.02 C1.89 4.02, 1.77 4.01, 1.66 3.99 C1.54 3.96, 1.43 3.93, 1.32 3.89 C1.21 3.85, 1.1 3.8, 1 3.75 C0.9 3.69, 0.81 3.62, 0.72 3.55 C0.63 3.47, 0.54 3.39, 0.47 3.3 C0.4 3.21, 0.33 3.11, 0.27 3.01 C0.21 2.91, 0.16 2.8, 0.12 2.69 C0.08 2.59, 0.05 2.47, 0.03 2.36 C0.01 2.24, 0 2.12, 0 2.01 C0 1.89, 0.01 1.77, 0.03 1.66 C0.05 1.54, 0.08 1.43, 0.12 1.32 C0.16 1.21, 0.21 1.1, 0.27 1 C0.33 0.9, 0.4 0.81, 0.47 0.72 C0.54 0.63, 0.63 0.54, 0.72 0.47 C0.81 0.4, 0.9 0.33, 1 0.27 C1.1 0.21, 1.21 0.16, 1.32 0.12 C1.43 0.08, 1.54 0.05, 1.66 0.03 C1.77 0.01, 1.89 0, 2.01 0 C2.12 0, 2.24 0.01, 2.36 0.03 C2.47 0.05, 2.59 0.08, 2.69 0.12 C2.8 0.16, 2.91 0.21, 3.01 0.27 C3.11 0.33, 3.21 0.4, 3.3 0.47 C3.39 0.54, 3.47 0.63, 3.55 0.72 C3.62 0.81, 3.69 0.9, 3.75 1 C3.8 1.1, 3.85 1.21, 3.89 1.32 C3.93 1.43, 3.96 1.54, 3.99 1.66 C4.01 1.77, 4.01 1.95, 4.02 2.01 C4.02 2.07, 4.02 1.95, 4.02 2.01" stroke="#1e1e1e" stroke-width="4" fill="none"></path></g><g stroke-linecap="round" transform="translate(44.3671875 67.98046875) rotate(0 2.0078125 2.0078125)"><path d="M4.02 2.01 C4.02 2.12, 4.01 2.24, 3.99 2.36 C3.96 2.47, 3.93 2.59, 3.89 2.69 C3.85 2.8, 3.8 2.91, 3.75 3.01 C3.69 3.11, 3.62 3.21, 3.55 3.3 C3.47 3.39, 3.39 3.47, 3.3 3.55 C3.21 3.62, 3.11 3.69, 3.01 3.75 C2.91 3.8, 2.8 3.85, 2.69 3.89 C2.59 3.93, 2.47 3.96, 2.36 3.99 C2.24 4.01, 2.12 4.02, 2.01 4.02 C1.89 4.02, 1.77 4.01, 1.66 3.99 C1.54 3.96, 1.43 3.93, 1.32 3.89 C1.21 3.85, 1.1 3.8, 1 3.75 C0.9 3.69, 0.81 3.62, 0.72 3.55 C0.63 3.47, 0.54 3.39, 0.47 3.3 C0.4 3.21, 0.33 3.11, 0.27 3.01 C0.21 2.91, 0.16 2.8, 0.12 2.69 C0.08 2.59, 0.05 2.47, 0.03 2.36 C0.01 2.24, 0 2.12, 0 2.01 C0 1.89, 0.01 1.77, 0.03 1.66 C0.05 1.54, 0.08 1.43, 0.12 1.32 C0.16 1.21, 0.21 1.1, 0.27 1 C0.33 0.9, 0.4 0.81, 0.47 0.72 C0.54 0.63, 0.63 0.54, 0.72 0.47 C0.81 0.4, 0.9 0.33, 1 0.27 C1.1 0.21, 1.21 0.16, 1.32 0.12 C1.43 0.08, 1.54 0.05, 1.66 0.03 C1.77 0.01, 1.89 0, 2.01 0 C2.12 0, 2.24 0.01, 2.36 0.03 C2.47 0.05, 2.59 0.08, 2.69 0.12 C2.8 0.16, 2.91 0.21, 3.01 0.27 C3.11 0.33, 3.21 0.4, 3.3 0.47 C3.39 0.54, 3.47 0.63, 3.55 0.72 C3.62 0.81, 3.69 0.9, 3.75 1 C3.8 1.1, 3.85 1.21, 3.89 1.32 C3.93 1.43, 3.96 1.54, 3.99 1.66 C4.01 1.77, 4.01 1.95, 4.02 2.01 C4.02 2.07, 4.02 1.95, 4.02 2.01" stroke="none" stroke-width="0" fill="#ffffff"></path><path d="M4.02 2.01 C4.02 2.12, 4.01 2.24, 3.99 2.36 C3.96 2.47, 3.93 2.59, 3.89 2.69 C3.85 2.8, 3.8 2.91, 3.75 3.01 C3.69 3.11, 3.62 3.21, 3.55 3.3 C3.47 3.39, 3.39 3.47, 3.3 3.55 C3.21 3.62, 3.11 3.69, 3.01 3.75 C2.91 3.8, 2.8 3.85, 2.69 3.89 C2.59 3.93, 2.47 3.96, 2.36 3.99 C2.24 4.01, 2.12 4.02, 2.01 4.02 C1.89 4.02, 1.77 4.01, 1.66 3.99 C1.54 3.96, 1.43 3.93, 1.32 3.89 C1.21 3.85, 1.1 3.8, 1 3.75 C0.9 3.69, 0.81 3.62, 0.72 3.55 C0.63 3.47, 0.54 3.39, 0.47 3.3 C0.4 3.21, 0.33 3.11, 0.27 3.01 C0.21 2.91, 0.16 2.8, 0.12 2.69 C0.08 2.59, 0.05 2.47, 0.03 2.36 C0.01 2.24, 0 2.12, 0 2.01 C0 1.89, 0.01 1.77, 0.03 1.66 C0.05 1.54, 0.08 1.43, 0.12 1.32 C0.16 1.21, 0.21 1.1, 0.27 1 C0.33 0.9, 0.4 0.81, 0.47 0.72 C0.54 0.63, 0.63 0.54, 0.72 0.47 C0.81 0.4, 0.9 0.33, 1 0.27 C1.1 0.21, 1.21 0.16, 1.32 0.12 C1.43 0.08, 1.54 0.05, 1.66 0.03 C1.77 0.01, 1.89 0, 2.01 0 C2.12 0, 2.24 0.01, 2.36 0.03 C2.47 0.05, 2.59 0.08, 2.69 0.12 C2.8 0.16, 2.91 0.21, 3.01 0.27 C3.11 0.33, 3.21 0.4, 3.3 0.47 C3.39 0.54, 3.47 0.63, 3.55 0.72 C3.62 0.81, 3.69 0.9, 3.75 1 C3.8 1.1, 3.85 1.21, 3.89 1.32 C3.93 1.43, 3.96 1.54, 3.99 1.66 C4.01 1.77, 4.01 1.95, 4.02 2.01 C4.02 2.07, 4.02 1.95, 4.02 2.01" stroke="#1e1e1e" stroke-width="4" fill="none"></path></g><g stroke-linecap="round" transform="translate(142.05078125 146.09765625) rotate(0 8.67578125 8.67578125)"><path d="M17.35 8.68 C17.35 9.18, 17.31 9.69, 17.22 10.18 C17.13 10.68, 17 11.17, 16.83 11.64 C16.66 12.11, 16.44 12.58, 16.19 13.01 C15.94 13.45, 15.64 13.87, 15.32 14.25 C15 14.64, 14.64 15, 14.25 15.32 C13.87 15.64, 13.45 15.94, 13.01 16.19 C12.58 16.44, 12.11 16.66, 11.64 16.83 C11.17 17, 10.68 17.13, 10.18 17.22 C9.69 17.31, 9.18 17.35, 8.68 17.35 C8.17 17.35, 7.66 17.31, 7.17 17.22 C6.67 17.13, 6.18 17, 5.71 16.83 C5.24 16.66, 4.77 16.44, 4.34 16.19 C3.9 15.94, 3.48 15.64, 3.1 15.32 C2.71 15, 2.35 14.64, 2.03 14.25 C1.71 13.87, 1.41 13.45, 1.16 13.01 C0.91 12.58, 0.69 12.11, 0.52 11.64 C0.35 11.17, 0.22 10.68, 0.13 10.18 C0.04 9.69, 0 9.18, 0 8.68 C0 8.17, 0.04 7.66, 0.13 7.17 C0.22 6.67, 0.35 6.18, 0.52 5.71 C0.69 5.24, 0.91 4.77, 1.16 4.34 C1.41 3.9, 1.71 3.48, 2.03 3.1 C2.35 2.71, 2.71 2.35, 3.1 2.03 C3.48 1.71, 3.9 1.41, 4.34 1.16 C4.77 0.91, 5.24 0.69, 5.71 0.52 C6.18 0.35, 6.67 0.22, 7.17 0.13 C7.66 0.04, 8.17 0, 8.68 0 C9.18 0, 9.69 0.04, 10.18 0.13 C10.68 0.22, 11.17 0.35, 11.64 0.52 C12.11 0.69, 12.58 0.91, 13.01 1.16 C13.45 1.41, 13.87 1.71, 14.25 2.03 C14.64 2.35, 15 2.71, 15.32 3.1 C15.64 3.48, 15.94 3.9, 16.19 4.34 C16.44 4.77, 16.66 5.24, 16.83 5.71 C17 6.18, 17.13 6.67, 17.22 7.17 C17.31 7.66, 17.33 8.42, 17.35 8.68 C17.37 8.93, 17.37 8.42, 17.35 8.68" stroke="none" stroke-width="0" fill="#ffffff"></path><path d="M17.35 8.68 C17.35 9.18, 17.31 9.69, 17.22 10.18 C17.13 10.68, 17 11.17, 16.83 11.64 C16.66 12.11, 16.44 12.58, 16.19 13.01 C15.94 13.45, 15.64 13.87, 15.32 14.25 C15 14.64, 14.64 15, 14.25 15.32 C13.87 15.64, 13.45 15.94, 13.01 16.19 C12.58 16.44, 12.11 16.66, 11.64 16.83 C11.17 17, 10.68 17.13, 10.18 17.22 C9.69 17.31, 9.18 17.35, 8.68 17.35 C8.17 17.35, 7.66 17.31, 7.17 17.22 C6.67 17.13, 6.18 17, 5.71 16.83 C5.24 16.66, 4.77 16.44, 4.34 16.19 C3.9 15.94, 3.48 15.64, 3.1 15.32 C2.71 15, 2.35 14.64, 2.03 14.25 C1.71 13.87, 1.41 13.45, 1.16 13.01 C0.91 12.58, 0.69 12.11, 0.52 11.64 C0.35 11.17, 0.22 10.68, 0.13 10.18 C0.04 9.69, 0 9.18, 0 8.68 C0 8.17, 0.04 7.66, 0.13 7.17 C0.22 6.67, 0.35 6.18, 0.52 5.71 C0.69 5.24, 0.91 4.77, 1.16 4.34 C1.41 3.9, 1.71 3.48, 2.03 3.1 C2.35 2.71, 2.71 2.35, 3.1 2.03 C3.48 1.71, 3.9 1.41, 4.34 1.16 C4.77 0.91, 5.24 0.69, 5.71 0.52 C6.18 0.35, 6.67 0.22, 7.17 0.13 C7.66 0.04, 8.17 0, 8.68 0 C9.18 0, 9.69 0.04, 10.18 0.13 C10.68 0.22, 11.17 0.35, 11.64 0.52 C12.11 0.69, 12.58 0.91, 13.01 1.16 C13.45 1.41, 13.87 1.71, 14.25 2.03 C14.64 2.35, 15 2.71, 15.32 3.1 C15.64 3.48, 15.94 3.9, 16.19 4.34 C16.44 4.77, 16.66 5.24, 16.83 5.71 C17 6.18, 17.13 6.67, 17.22 7.17 C17.31 7.66, 17.33 8.42, 17.35 8.68 C17.37 8.93, 17.37 8.42, 17.35 8.68" stroke="#1e1e1e" stroke-width="4" fill="none"></path></g><g stroke-linecap="round" transform="translate(210.8359375 124.0546875) rotate(0 8.67578125 8.67578125)"><path d="M17.35 8.68 C17.35 9.18, 17.31 9.69, 17.22 10.18 C17.13 10.68, 17 11.17, 16.83 11.64 C16.66 12.11, 16.44 12.58, 16.19 13.01 C15.94 13.45, 15.64 13.87, 15.32 14.25 C15 14.64, 14.64 15, 14.25 15.32 C13.87 15.64, 13.45 15.94, 13.01 16.19 C12.58 16.44, 12.11 16.66, 11.64 16.83 C11.17 17, 10.68 17.13, 10.18 17.22 C9.69 17.31, 9.18 17.35, 8.68 17.35 C8.17 17.35, 7.66 17.31, 7.17 17.22 C6.67 17.13, 6.18 17, 5.71 16.83 C5.24 16.66, 4.77 16.44, 4.34 16.19 C3.9 15.94, 3.48 15.64, 3.1 15.32 C2.71 15, 2.35 14.64, 2.03 14.25 C1.71 13.87, 1.41 13.45, 1.16 13.01 C0.91 12.58, 0.69 12.11, 0.52 11.64 C0.35 11.17, 0.22 10.68, 0.13 10.18 C0.04 9.69, 0 9.18, 0 8.68 C0 8.17, 0.04 7.66, 0.13 7.17 C0.22 6.67, 0.35 6.18, 0.52 5.71 C0.69 5.24, 0.91 4.77, 1.16 4.34 C1.41 3.9, 1.71 3.48, 2.03 3.1 C2.35 2.71, 2.71 2.35, 3.1 2.03 C3.48 1.71, 3.9 1.41, 4.34 1.16 C4.77 0.91, 5.24 0.69, 5.71 0.52 C6.18 0.35, 6.67 0.22, 7.17 0.13 C7.66 0.04, 8.17 0, 8.68 0 C9.18 0, 9.69 0.04, 10.18 0.13 C10.68 0.22, 11.17 0.35, 11.64 0.52 C12.11 0.69, 12.58 0.91, 13.01 1.16 C13.45 1.41, 13.87 1.71, 14.25 2.03 C14.64 2.35, 15 2.71, 15.32 3.1 C15.64 3.48, 15.94 3.9, 16.19 4.34 C16.44 4.77, 16.66 5.24, 16.83 5.71 C17 6.18, 17.13 6.67, 17.22 7.17 C17.31 7.66, 17.33 8.42, 17.35 8.68 C17.37 8.93, 17.37 8.42, 17.35 8.68" stroke="none" stroke-width="0" fill="#ffffff"></path><path d="M17.35 8.68 C17.35 9.18, 17.31 9.69, 17.22 10.18 C17.13 10.68, 17 11.17, 16.83 11.64 C16.66 12.11, 16.44 12.58, 16.19 13.01 C15.94 13.45, 15.64 13.87, 15.32 14.25 C15 14.64, 14.64 15, 14.25 15.32 C13.87 15.64, 13.45 15.94, 13.01 16.19 C12.58 16.44, 12.11 16.66, 11.64 16.83 C11.17 17, 10.68 17.13, 10.18 17.22 C9.69 17.31, 9.18 17.35, 8.68 17.35 C8.17 17.35, 7.66 17.31, 7.17 17.22 C6.67 17.13, 6.18 17, 5.71 16.83 C5.24 16.66, 4.77 16.44, 4.34 16.19 C3.9 15.94, 3.48 15.64, 3.1 15.32 C2.71 15, 2.35 14.64, 2.03 14.25 C1.71 13.87, 1.41 13.45, 1.16 13.01 C0.91 12.58, 0.69 12.11, 0.52 11.64 C0.35 11.17, 0.22 10.68, 0.13 10.18 C0.04 9.69, 0 9.18, 0 8.68 C0 8.17, 0.04 7.66, 0.13 7.17 C0.22 6.67, 0.35 6.18, 0.52 5.71 C0.69 5.24, 0.91 4.77, 1.16 4.34 C1.41 3.9, 1.71 3.48, 2.03 3.1 C2.35 2.71, 2.71 2.35, 3.1 2.03 C3.48 1.71, 3.9 1.41, 4.34 1.16 C4.77 0.91, 5.24 0.69, 5.71 0.52 C6.18 0.35, 6.67 0.22, 7.17 0.13 C7.66 0.04, 8.17 0, 8.68 0 C9.18 0, 9.69 0.04, 10.18 0.13 C10.68 0.22, 11.17 0.35, 11.64 0.52 C12.11 0.69, 12.58 0.91, 13.01 1.16 C13.45 1.41, 13.87 1.71, 14.25 2.03 C14.64 2.35, 15 2.71, 15.32 3.1 C15.64 3.48, 15.94 3.9, 16.19 4.34 C16.44 4.77, 16.66 5.24, 16.83 5.71 C17 6.18, 17.13 6.67, 17.22 7.17 C17.31 7.66, 17.33 8.42, 17.35 8.68 C17.37 8.93, 17.37 8.42, 17.35 8.68" stroke="#1e1e1e" stroke-width="4" fill="none"></path></g><g stroke-linecap="round" transform="translate(159.16015625 202.97265625) rotate(0 4.201171875 4.201171875)"><path d="M8.4 4.2 C8.4 4.44, 8.38 4.69, 8.34 4.93 C8.3 5.17, 8.23 5.41, 8.15 5.64 C8.07 5.87, 7.96 6.09, 7.84 6.3 C7.72 6.51, 7.58 6.72, 7.42 6.9 C7.26 7.09, 7.09 7.26, 6.9 7.42 C6.72 7.58, 6.51 7.72, 6.3 7.84 C6.09 7.96, 5.87 8.07, 5.64 8.15 C5.41 8.23, 5.17 8.3, 4.93 8.34 C4.69 8.38, 4.44 8.4, 4.2 8.4 C3.96 8.4, 3.71 8.38, 3.47 8.34 C3.23 8.3, 2.99 8.23, 2.76 8.15 C2.54 8.07, 2.31 7.96, 2.1 7.84 C1.89 7.72, 1.69 7.58, 1.5 7.42 C1.31 7.26, 1.14 7.09, 0.98 6.9 C0.83 6.72, 0.68 6.51, 0.56 6.3 C0.44 6.09, 0.34 5.87, 0.25 5.64 C0.17 5.41, 0.11 5.17, 0.06 4.93 C0.02 4.69, 0 4.44, 0 4.2 C0 3.96, 0.02 3.71, 0.06 3.47 C0.11 3.23, 0.17 2.99, 0.25 2.76 C0.34 2.54, 0.44 2.31, 0.56 2.1 C0.68 1.89, 0.83 1.69, 0.98 1.5 C1.14 1.31, 1.31 1.14, 1.5 0.98 C1.69 0.83, 1.89 0.68, 2.1 0.56 C2.31 0.44, 2.54 0.34, 2.76 0.25 C2.99 0.17, 3.23 0.11, 3.47 0.06 C3.71 0.02, 3.96 0, 4.2 0 C4.44 0, 4.69 0.02, 4.93 0.06 C5.17 0.11, 5.41 0.17, 5.64 0.25 C5.87 0.34, 6.09 0.44, 6.3 0.56 C6.51 0.68, 6.72 0.83, 6.9 0.98 C7.09 1.14, 7.26 1.31, 7.42 1.5 C7.58 1.69, 7.72 1.89, 7.84 2.1 C7.96 2.31, 8.07 2.54, 8.15 2.76 C8.23 2.99, 8.3 3.23, 8.34 3.47 C8.38 3.71, 8.39 4.08, 8.4 4.2 C8.41 4.32, 8.41 4.08, 8.4 4.2" stroke="none" stroke-width="0" fill="#ffffff"></path><path d="M8.4 4.2 C8.4 4.44, 8.38 4.69, 8.34 4.93 C8.3 5.17, 8.23 5.41, 8.15 5.64 C8.07 5.87, 7.96 6.09, 7.84 6.3 C7.72 6.51, 7.58 6.72, 7.42 6.9 C7.26 7.09, 7.09 7.26, 6.9 7.42 C6.72 7.58, 6.51 7.72, 6.3 7.84 C6.09 7.96, 5.87 8.07, 5.64 8.15 C5.41 8.23, 5.17 8.3, 4.93 8.34 C4.69 8.38, 4.44 8.4, 4.2 8.4 C3.96 8.4, 3.71 8.38, 3.47 8.34 C3.23 8.3, 2.99 8.23, 2.76 8.15 C2.54 8.07, 2.31 7.96, 2.1 7.84 C1.89 7.72, 1.69 7.58, 1.5 7.42 C1.31 7.26, 1.14 7.09, 0.98 6.9 C0.83 6.72, 0.68 6.51, 0.56 6.3 C0.44 6.09, 0.34 5.87, 0.25 5.64 C0.17 5.41, 0.11 5.17, 0.06 4.93 C0.02 4.69, 0 4.44, 0 4.2 C0 3.96, 0.02 3.71, 0.06 3.47 C0.11 3.23, 0.17 2.99, 0.25 2.76 C0.34 2.54, 0.44 2.31, 0.56 2.1 C0.68 1.89, 0.83 1.69, 0.98 1.5 C1.14 1.31, 1.31 1.14, 1.5 0.98 C1.69 0.83, 1.89 0.68, 2.1 0.56 C2.31 0.44, 2.54 0.34, 2.76 0.25 C2.99 0.17, 3.23 0.11, 3.47 0.06 C3.71 0.02, 3.96 0, 4.2 0 C4.44 0, 4.69 0.02, 4.93 0.06 C5.17 0.11, 5.41 0.17, 5.64 0.25 C5.87 0.34, 6.09 0.44, 6.3 0.56 C6.51 0.68, 6.72 0.83, 6.9 0.98 C7.09 1.14, 7.26 1.31, 7.42 1.5 C7.58 1.69, 7.72 1.89, 7.84 2.1 C7.96 2.31, 8.07 2.54, 8.15 2.76 C8.23 2.99, 8.3 3.23, 8.34 3.47 C8.38 3.71, 8.39 4.08, 8.4 4.2 C8.41 4.32, 8.41 4.08, 8.4 4.2" stroke="#1e1e1e" stroke-width="4" fill="none"></path></g></svg>
