
<svg width="128" height="128" viewBox="0 0 128 128" fill="none" xmlns="http://www.w3.org/2000/svg">
<g clip-path="url(#clip0_39_520)">
<path d="M103.888 23.4451C111.213 30.7588 113.807 41.817 111.625 54.1503C109.444 66.4729 102.512 79.7944 91.2216 91.0676C79.9308 102.341 66.5885 109.262 54.2467 111.439C41.8942 113.618 30.8187 111.028 23.4936 103.714C16.1684 96.4007 13.5747 85.3425 15.7572 73.0092C17.9378 60.6866 24.8693 47.3652 36.1601 36.0919C47.451 24.8187 60.7932 17.898 73.135 15.7208C85.4875 13.5417 96.563 16.1314 103.888 23.4451Z" stroke="#9E9E9E" stroke-width="5.6" stroke-miterlimit="9.9999"/>
<path d="M120.543 63.5847C120.543 94.9268 95.0949 120.342 63.6932 120.342C32.2916 120.342 6.84297 94.9268 6.84297 63.5847C6.84297 32.2426 32.2916 6.82734 63.6932 6.82734C95.0949 6.82734 120.543 32.2426 120.543 63.5847Z" stroke="#858585" stroke-width="5.6" stroke-miterlimit="10"/>
<path d="M41.2943 20.918H23.6219C19.1888 20.918 15.6094 17.3292 15.6094 12.918C15.6094 8.4918 19.2038 4.91797 23.6219 4.91797H41.2943C45.7273 4.91797 49.3067 8.50675 49.3067 12.918C49.3067 17.3142 45.7273 20.918 41.2943 20.918Z" fill="#9CD1FB"/>
<path d="M27.8083 83.9317V93.2642C27.8083 102.222 21.8873 110.509 13.8977 112.962C5.92107 110.496 0 102.248 0 93.2642V83.9317L13.9106 77.7617L27.8083 83.9317Z" fill="#05BB72"/>
<path d="M109.625 34.4219C116.418 34.4219 121.925 28.9234 121.925 22.1406C121.925 15.3579 116.418 9.85938 109.625 9.85938C102.831 9.85938 97.3242 15.3579 97.3242 22.1406C97.3242 28.9234 102.831 34.4219 109.625 34.4219Z" fill="#05BB72"/>
<path d="M93.2167 32.4453H32.4805V95.1186H93.2167V32.4453Z" fill="#4582F4"/>
<path d="M71.1472 60.1624C75.8213 55.4956 75.8213 47.9292 71.1472 43.2624C66.4731 38.5955 58.8949 38.5955 54.2208 43.2624C49.5467 47.9292 49.5467 55.4956 54.2208 60.1624C58.8949 64.8293 66.4731 64.8293 71.1472 60.1624Z" fill="white"/>
<path d="M40.1396 84.15C40.1396 79.3448 43.009 74.9847 47.433 73.1015C58.0302 68.4903 70.0905 68.4903 80.6991 73.1015C85.1346 74.9847 87.9925 79.3448 87.9925 84.15V87.5628H40.1396V84.15Z" fill="white"/>
<path d="M50.2336 95.1185H93.2166V50.0225" stroke="#241F20" stroke-width="2.287" stroke-miterlimit="10"/>
<path d="M113.464 104H84.5761L80 112.4L84.5761 120.8H113.464L118.04 112.4L113.464 104Z" fill="#9CD1FB"/>
</g>
<defs>
<clipPath id="clip0_39_520">
<rect width="128" height="128" fill="white"/>
</clipPath>
</defs>
</svg>
