<?xml version="1.0" encoding="utf-8"?>
<!-- Generator: Adobe Illustrator 24.0.2, SVG Export Plug-In . SVG Version: 6.00 Build 0)  -->
<svg version="1.1" id="Layer_1" xmlns="http://www.w3.org/2000/svg" xmlns:xlink="http://www.w3.org/1999/xlink" x="0px" y="0px"
	 viewBox="0 0 128 195.7" style="enable-background:new 0 0 128 195.7;" xml:space="preserve">
<style type="text/css">
	.st0{fill:#E1F0F4;}
	.st1{fill:#C4E7F2;}
	.st2{fill:#FFFFFF;}
	.st3{fill:#733A10;}
	.st4{fill:#8C4815;}
	.st5{fill:#BF6724;}
	.st6{fill:#A35418;}
	.st7{fill:#895D3C;}
	.st8{fill:#714C2F;}
	.st9{fill:none;}
</style>
<g>
	<path class="st0" d="M120,189.3V62.2c0-3.5-2.8-6.3-6.3-6.3H6.3c-3.5,0-6.3,2.8-6.3,6.3v127.1c0,3.5,2.8,6.3,6.3,6.3h107.4
		C117.2,195.7,120,192.8,120,189.3z M6.4,179.4c0,0.6-0.4,1-1,1s-1-0.4-1-1V72.1c0-0.6,0.4-1,1-1s1,0.4,1,1V179.4z"/>
	<path class="st1" d="M127.9,61.3c0-0.3-0.1-0.6-0.2-0.9c-0.1-0.2-0.1-0.4-0.2-0.6c-0.2-0.6-0.6-1.1-0.9-1.6
		c-0.5-0.6-1.1-1.1-1.9-1.5c-0.9-0.5-1.9-0.8-3-0.8h-8c0,0,0,0,0,0c3.5,0,6.3,2.8,6.3,6.3v127.1c0,3.5-2.8,6.3-6.3,6.3h8
		c3.5,0,6.3-2.8,6.3-6.3V62.2v0C128,61.9,128,61.6,127.9,61.3z"/>
	<path class="st2" d="M5.4,71.1c-0.6,0-1,0.4-1,1v107.3c0,0.6,0.4,1,1,1s1-0.4,1-1V72.1C6.4,71.6,5.9,71.1,5.4,71.1z"/>
</g>
<circle class="st3" cx="54.7" cy="137" r="2.8"/>
<g>
	<path class="st4" d="M58.5,184.6c-0.5-0.8-1-1.6-1.4-2.4c-1.2,1.2-2.4,2.3-3.7,3.2c-1,0.7-2,1.3-3.1,1.8c-1.1,0.5-2.1,1-3.2,1.4
		c-0.7,0.3-1.5,0.5-2.2,0.7s-1.5,0.3-2.3,0.4c-0.8,0.1-1.5,0.2-2.3,0.2c-1.4,0.1-2.9,0-4.3-0.3c4.3,2.6,9.6,4.5,15.4,5.5
		c7.9,1.3,15.3,0.5,21.1-1.8C66.6,192.1,61.7,189.3,58.5,184.6z"/>
	<path class="st4" d="M27.5,144.6c-4.7-3.1-8.4-7.7-10.5-13.1c0,0,0,0,0-0.1c-3.6,6.2-4.3,13.1-1.2,18.6c0.9,1.6,2.2,3,3.6,4.1
		C21.5,150.3,24.3,147,27.5,144.6z"/>
	<path class="st5" d="M92.6,190.2c-0.3,0.1-0.5,0.2-0.8,0.4C92,190.4,92.3,190.3,92.6,190.2z"/>
	<path class="st5" d="M93.9,189.5c-0.2,0.1-0.5,0.2-0.7,0.4C93.5,189.8,93.7,189.6,93.9,189.5z"/>
	<path class="st5" d="M96.7,188c-0.2,0.1-0.3,0.2-0.5,0.3C96.3,188.2,96.5,188.1,96.7,188z"/>
	<path class="st5" d="M91.2,190.8c-0.3,0.1-0.6,0.2-0.9,0.4C90.6,191,90.9,190.9,91.2,190.8z"/>
	<path class="st5" d="M95.3,188.8c-0.2,0.1-0.4,0.2-0.6,0.3C94.9,189,95.1,188.9,95.3,188.8z"/>
	<path class="st5" d="M89.8,191.4c-0.3,0.1-0.7,0.2-1,0.4C89.2,191.6,89.5,191.5,89.8,191.4z"/>
	<path class="st5" d="M85.7,192.7c-0.4,0.1-0.9,0.2-1.3,0.3C84.8,192.9,85.3,192.8,85.7,192.7z"/>
	<path class="st5" d="M88.4,191.9c-0.4,0.1-0.7,0.2-1.1,0.3C87.7,192.1,88.1,192,88.4,191.9z"/>
	<path class="st5" d="M87.1,192.3c-0.4,0.1-0.8,0.2-1.2,0.3C86.3,192.5,86.7,192.4,87.1,192.3z"/>
	<path class="st5" d="M112,170.2c2-5.1,2.4-10.3,1.1-15C114.4,159.9,113.9,165.1,112,170.2z"/>
	<path class="st5" d="M110.2,173.9c-0.4,0.8-0.9,1.6-1.5,2.4C109.3,175.6,109.8,174.8,110.2,173.9z"/>
	<path class="st5" d="M59.1,185.4c8.7,6.6,23,6.1,35.1-2c14.4-9.7,20-26.4,12.6-37.5c-0.2-0.3-0.4-0.5-0.6-0.8
		c1.2,0.9,2.4,2,3.4,3.2c-2.9-3.6-7-5.9-11.6-7c0.7-0.3,1.3-0.6,2-0.9c-4.5,2.2-9.7,3.5-15.3,3.5c-0.6,0-1.2,0-1.7,0
		c0.6,0,1.2,0,1.7,0c0.1,0,0.3,0,0.4,0c-0.3,1.5-1,3-2.3,4.2c-2.8,2.8-7,3.2-9.4,0.8c-1.8-1.8-2-4.6-0.8-7.2c0.3,0.1,0.6,0.2,1,0.3
		c-3-1-5.8-2.4-8.2-4.1c-5.1,6.9-13.2,11.3-22.4,11.3c-5.7,0-11-1.7-15.4-4.7c-3.3,2.4-6.1,5.6-8.1,9.6c-0.1,0.2-0.2,0.4-0.3,0.6
		c-5.5,11.8-1.7,25.3,8.4,31.6c-2.2-1.4-4.1-3.1-5.7-5.1c1.3,1,2.7,1.9,4.3,2.6c11.8,5.6,26.3-0.2,32.2-12.8c1.5-3.3,2.3-6.6,2.5-10
		c0.3,0.1,0.5,0.2,0.8,0.3c-5.1-1.5-9.5-4.5-12.7-8.5c4.5,3.6,10.2,5.8,16.4,5.8c10.5,0,19.5-6.2,23.6-15.2c1.9-0.2,3.7-0.6,5.5-1.1
		c-0.8,3.5-2.4,6.8-4.5,9.6c-1.2,1.7-2.7,3.2-4.3,4.5c-0.6,0.5-1.3,1-2,1.5c-0.3,0.2-0.7,0.5-1.1,0.7c-2.5,1.5-5.3,2.6-8.2,3.2
		c-0.4,0.1-0.9,0.2-1.3,0.2c-1.3,0.2-2.6,0.3-4,0.3c-1.5,0-3-0.1-4.5-0.4c0.2,4.2-0.5,8.6-2.5,12.8c-2,4.3-5.1,7.9-8.7,10.4
		c1.3-0.9,2.6-2,3.7-3.2c0.4,0.8,0.9,1.7,1.4,2.4c3.1,4.7,8.1,7.6,13.9,8.6c3.7,0.7,7.8,0.6,11.9-0.3
		C74.2,195.1,64.5,192.4,59.1,185.4z M33.7,155.6c1.9,0,3.5,1.6,3.5,3.5c0,1.9-1.6,3.5-3.5,3.5c-1.9,0-3.5-1.6-3.5-3.5
		C30.2,157.1,31.7,155.6,33.7,155.6z M38.2,182.1c-3.6,0-6.5-2.9-6.5-6.5s2.9-6.5,6.5-6.5s6.5,2.9,6.5,6.5S41.7,182.1,38.2,182.1z
		 M96.5,156.1c1.6,0,3,1.3,3,3c0,1.6-1.3,3-3,3c-1.6,0-3-1.3-3-3C93.6,157.4,94.9,156.1,96.5,156.1z M84.4,172.5
		c3.7-2.5,8.2-2.4,10,0.3c1.8,2.7,0.2,6.8-3.5,9.3c-3.7,2.5-8.2,2.4-10-0.3C79.1,179.2,80.6,175,84.4,172.5z"/>
	<path class="st5" d="M113.1,155.2c-0.5-2-1.4-3.8-2.5-5.6c-0.3-0.4-0.6-0.8-0.9-1.2c0.3,0.4,0.6,0.8,0.9,1.2
		C111.7,151.3,112.6,153.2,113.1,155.2z"/>
	<ellipse transform="matrix(0.8299 -0.5579 0.5579 0.8299 -84.039 79.0358)" class="st3" cx="87.6" cy="177.3" rx="8.1" ry="5.8"/>
	<path class="st3" d="M96.5,162c1.6,0,3-1.3,3-3c0-1.6-1.3-3-3-3c-1.6,0-3,1.3-3,3C93.6,160.7,94.9,162,96.5,162z"/>
	<path class="st6" d="M113.1,155.2c-0.5-2-1.4-3.8-2.5-5.6c-0.3-0.4-0.6-0.8-0.9-1.2c0,0-0.1-0.1-0.1-0.1c-1-1.2-2.1-2.3-3.4-3.2
		c0.2,0.3,0.4,0.5,0.6,0.8c7.4,11.1,1.8,27.8-12.6,37.5c-12,8.1-26.4,8.6-35.1,2c5.3,7.1,15.1,9.7,25.2,7.6c0,0,0,0,0.1,0
		c0.4-0.1,0.9-0.2,1.3-0.3c0.1,0,0.1,0,0.2-0.1c0.4-0.1,0.8-0.2,1.2-0.3c0.1,0,0.2-0.1,0.3-0.1c0.4-0.1,0.7-0.2,1.1-0.3
		c0.1,0,0.3-0.1,0.4-0.1c0.3-0.1,0.7-0.2,1-0.4c0.2-0.1,0.3-0.1,0.5-0.2c0.3-0.1,0.6-0.2,0.9-0.4c0.2-0.1,0.4-0.2,0.6-0.3
		c0.3-0.1,0.5-0.2,0.8-0.4c0.2-0.1,0.4-0.2,0.7-0.3c0.2-0.1,0.5-0.2,0.7-0.4c0.2-0.1,0.5-0.3,0.7-0.4c0.2-0.1,0.4-0.2,0.6-0.3
		c0.3-0.2,0.6-0.3,0.9-0.5c0.2-0.1,0.3-0.2,0.5-0.3c0.4-0.3,0.9-0.6,1.3-0.9c4.5-3,8.1-6.7,10.8-10.7c0.5-0.8,1-1.6,1.5-2.4
		c0.7-1.2,1.3-2.5,1.7-3.8C113.9,165.1,114.4,159.9,113.1,155.2z"/>
	<path class="st5" d="M28.6,187.1c-0.3-0.2-0.7-0.4-1-0.6C27.9,186.7,28.2,186.9,28.6,187.1z"/>
	<path class="st5" d="M29.9,187.8c-0.4-0.2-0.8-0.4-1.2-0.6C29.1,187.4,29.5,187.6,29.9,187.8z"/>
	<path class="st5" d="M47.1,188.6c-0.7,0.3-1.5,0.5-2.2,0.7C45.6,189.1,46.4,188.8,47.1,188.6z"/>
	<path class="st5" d="M42.6,189.7c-0.8,0.1-1.5,0.2-2.3,0.2C41.1,189.8,41.8,189.8,42.6,189.7z"/>
	<path class="st5" d="M50.4,187.2c-1.1,0.5-2.1,1-3.2,1.4C48.2,188.2,49.3,187.7,50.4,187.2z"/>
	<circle class="st3" cx="38.2" cy="175.7" r="6.5"/>
	<path class="st3" d="M33.7,162.5c1.9,0,3.5-1.6,3.5-3.5c0-1.9-1.6-3.5-3.5-3.5c-1.9,0-3.5,1.6-3.5,3.5
		C30.2,161,31.7,162.5,33.7,162.5z"/>
	<path class="st6" d="M40.3,189.9c0.8,0,1.5-0.1,2.3-0.2c0.8-0.1,1.5-0.2,2.3-0.4s1.5-0.4,2.2-0.7c1.1-0.4,2.2-0.8,3.2-1.4
		c1.1-0.5,2.1-1.2,3.1-1.8c3.6-2.5,6.6-6.1,8.7-10.4c2-4.2,2.7-8.6,2.5-12.8c1.5,0.3,3,0.4,4.5,0.4c1.3,0,2.7-0.1,4-0.3
		c0.4-0.1,0.9-0.1,1.3-0.2c3-0.6,5.7-1.7,8.2-3.2c0.4-0.2,0.7-0.4,1.1-0.7c0.7-0.5,1.4-1,2-1.5c1.6-1.3,3.1-2.8,4.3-4.5
		c2.1-2.8,3.6-6.1,4.5-9.6c-1.7,0.5-3.6,0.9-5.5,1.1c-4.1,8.9-13.2,15.2-23.6,15.2c-6.2,0-11.9-2.2-16.4-5.8c3.2,4,7.7,7,12.7,8.5
		c-0.3-0.1-0.5-0.2-0.8-0.3c-0.2,3.3-1,6.7-2.5,10C52.4,183.8,38,189.5,26.1,184c-1.5-0.7-3-1.6-4.3-2.6c1.6,2,3.5,3.7,5.7,5.1
		c0,0,0,0,0.1,0c0.3,0.2,0.6,0.4,1,0.6c0.1,0,0.1,0.1,0.2,0.1c0.4,0.2,0.8,0.4,1.2,0.6c2,0.9,4,1.5,6,1.8
		C37.4,189.8,38.8,189.9,40.3,189.9z M62.9,161.8c-0.3-0.1-0.6-0.2-0.9-0.2C62.3,161.6,62.6,161.7,62.9,161.8z M64.3,162.1
		c-0.3-0.1-0.6-0.1-0.9-0.2C63.7,162,64,162,64.3,162.1z"/>
	<path class="st5" d="M63.4,161.9c0.3,0.1,0.6,0.1,0.9,0.2C64,162,63.7,162,63.4,161.9z"/>
	<path class="st5" d="M62,161.6c0.3,0.1,0.6,0.2,0.9,0.2C62.6,161.7,62.3,161.6,62,161.6z"/>
	<path class="st3" d="M81.1,143.7c-0.2,0-0.4,0-0.6-0.1c-0.4,0-0.8-0.1-1.3-0.2c-0.1,0-0.3,0-0.4-0.1c-0.6-0.1-1.1-0.2-1.7-0.3
		c0,0,0,0,0,0c-0.5-0.1-1.1-0.2-1.6-0.4c-0.1,0-0.2-0.1-0.4-0.1c-0.4-0.1-0.9-0.2-1.3-0.4c-0.1,0-0.2-0.1-0.4-0.1
		c-0.3-0.1-0.7-0.2-1-0.3c-1.2,2.5-1,5.4,0.8,7.2c2.4,2.4,6.6,2,9.4-0.8c1.2-1.2,2-2.7,2.3-4.2c-0.1,0-0.3,0-0.4,0
		c-0.6,0-1.2,0-1.7,0c-0.2,0-0.3,0-0.5,0C81.9,143.7,81.5,143.7,81.1,143.7z"/>
	<path class="st5" d="M104.4,137.6c-1.4,1-2.9,2-4.5,2.8C101.5,139.6,103,138.6,104.4,137.6z"/>
	<path class="st5" d="M114.1,118.5c0,0.2,0,0.5,0,0.7C114.1,119,114.1,118.7,114.1,118.5z"/>
	<path class="st5" d="M109.4,132.8c-0.4,0.5-0.8,0.9-1.2,1.4C108.7,133.7,109,133.3,109.4,132.8z"/>
	<path class="st5" d="M113.8,116.1c0,0.3,0.1,0.5,0.1,0.8C113.9,116.6,113.8,116.3,113.8,116.1z"/>
	<path class="st5" d="M114,117.3c0,0.3,0,0.5,0.1,0.8C114,117.8,114,117.5,114,117.3z"/>
	<path class="st5" d="M113.5,114.9c0.1,0.3,0.1,0.6,0.2,0.9C113.6,115.5,113.6,115.2,113.5,114.9z"/>
	<path class="st5" d="M70.7,121.6c0,5.7-1.7,10.9-4.6,15.3c4.3,2,9.3,3.2,14.7,3.2c16.3,0,29.5-10.8,29.5-24.1
		c0-4.9-1.8-9.5-4.9-13.3c4,3.3,6.9,7.4,8.1,12.1c-2.8-10.9-14.7-19.1-28.9-19.1c-8.3,0-15.7,2.8-21.1,7.3
		C68,107.8,70.7,114.4,70.7,121.6z M101.3,118.6c3.4,0,6.2,2.1,6.2,4.8s-2.8,4.8-6.2,4.8c-3.4,0-6.2-2.1-6.2-4.8
		S97.9,118.6,101.3,118.6z"/>
	<path class="st5" d="M73.9,142.2c0.4,0.1,0.8,0.3,1.3,0.4C74.7,142.5,74.3,142.3,73.9,142.2z"/>
	<path class="st5" d="M75.5,142.7c0.5,0.1,1.1,0.3,1.6,0.4C76.6,143,76.1,142.8,75.5,142.7z"/>
	<path class="st5" d="M81.1,143.7c0.4,0,0.8,0.1,1.2,0.1C81.9,143.7,81.5,143.7,81.1,143.7z"/>
	<path class="st5" d="M79.3,143.5c0.4,0.1,0.8,0.1,1.3,0.2C80.1,143.6,79.7,143.5,79.3,143.5z"/>
	<path class="st5" d="M78.9,143.4c-0.6-0.1-1.1-0.2-1.7-0.3C77.7,143.2,78.3,143.3,78.9,143.4z"/>
	<ellipse class="st3" cx="101.3" cy="123.4" rx="6.2" ry="4.8"/>
	<path class="st6" d="M15.9,127.5c-0.1-0.6-0.2-1.2-0.3-1.8C15.6,126.3,15.7,126.9,15.9,127.5z"/>
	<path class="st6" d="M15.5,125.6c-0.1-0.6-0.1-1.1-0.2-1.7C15.4,124.5,15.4,125,15.5,125.6z"/>
	<path class="st6" d="M17,131.5c-0.2-0.6-0.4-1.2-0.6-1.8C16.6,130.3,16.8,130.9,17,131.5z"/>
	<path class="st6" d="M16.4,129.6c-0.2-0.6-0.3-1.1-0.4-1.7C16.1,128.5,16.2,129,16.4,129.6z"/>
	<path class="st6" d="M43,93.8c-4.3,0-8.4,1-12,2.7C34.6,94.8,38.7,93.8,43,93.8L43,93.8z"/>
	<path class="st6" d="M23.3,101.9c2.2-2.2,4.8-4,7.6-5.4C28.1,97.9,25.5,99.7,23.3,101.9z"/>
	<path class="st6" d="M65.1,119.7c0,15.3-12.4,27.8-27.8,27.8c-2,0-3.9-0.2-5.8-0.6c-6.6-3-11.8-8.5-14.4-15.2
		c2.1,5.4,5.8,9.9,10.5,13.1c4.4,3,9.7,4.7,15.4,4.7c9.2,0,17.3-4.5,22.4-11.3c2.4,1.7,5.2,3.1,8.2,4.1c0.1,0,0.2,0.1,0.4,0.1
		c0.4,0.1,0.8,0.3,1.3,0.4c0.1,0,0.2,0.1,0.4,0.1c0.5,0.1,1.1,0.3,1.6,0.4c0,0,0,0,0,0c0.6,0.1,1.1,0.2,1.7,0.3c0.1,0,0.3,0,0.4,0.1
		c0.4,0.1,0.8,0.1,1.3,0.2c0.2,0,0.4,0,0.6,0.1c0.4,0,0.8,0.1,1.2,0.1c0.2,0,0.3,0,0.5,0c0.6,0,1.2,0,1.7,0c5.6,0,10.8-1.3,15.3-3.5
		c1.6-0.8,3.1-1.7,4.5-2.8c1.4-1,2.7-2.2,3.8-3.4c0.4-0.4,0.8-0.9,1.2-1.4c3-3.8,4.7-8.2,4.7-13.1c0-0.2,0-0.4,0-0.5
		c0-0.2,0-0.5,0-0.7c0-0.2,0-0.3,0-0.5c0-0.3,0-0.5-0.1-0.8c0-0.1,0-0.3-0.1-0.4c0-0.3-0.1-0.5-0.1-0.8c0-0.1,0-0.2-0.1-0.3
		c-0.1-0.3-0.1-0.6-0.2-0.9c0,0,0-0.1,0-0.1c-1.2-4.7-4.1-8.9-8.1-12.1c3.1,3.8,4.9,8.4,4.9,13.3c0,13.3-13.2,24.1-29.5,24.1
		c-5.4,0-10.4-1.2-14.7-3.2c2.9-4.4,4.6-9.6,4.6-15.3c0-7.2-2.7-13.7-7.2-18.7c-5.1-5.6-12.4-9.1-20.5-9.1c2,0,3.9,0.2,5.8,0.6
		C58.4,98.8,65.1,108.4,65.1,119.7z"/>
	<path class="st6" d="M15.2,121.6c0,0.6,0,1.2,0.1,1.9C15.2,122.8,15.2,122.2,15.2,121.6L15.2,121.6z"/>
	<path class="st6" d="M16.9,112c0.3-0.9,0.7-1.7,1.1-2.5C17.6,110.3,17.2,111.2,16.9,112z"/>
	<path class="st6" d="M17.9,109.5c0.3-0.6,0.6-1.1,0.9-1.7C18.5,108.4,18.2,109,17.9,109.5z"/>
	<path class="st6" d="M19.7,106.4c0.3-0.5,0.7-1,1-1.5C20.4,105.4,20,105.9,19.7,106.4z"/>
	<path class="st6" d="M20.7,105c0.8-1.1,1.7-2.1,2.6-3C22.4,102.9,21.5,103.9,20.7,105z"/>
	<path class="st5" d="M31.5,146.8c1.9,0.4,3.8,0.6,5.8,0.6c15.3,0,27.8-12.4,27.8-27.8c0-11.2-6.7-20.9-16.3-25.2
		C46.9,94,45,93.8,43,93.8c0,0,0,0,0,0l0,0c-4.3,0-8.4,1-12,2.7c-2.8,1.4-5.4,3.2-7.6,5.4c-0.9,0.9-1.8,2-2.6,3
		c-0.4,0.5-0.7,1-1,1.5c-0.3,0.5-0.6,0.9-0.8,1.4c-0.3,0.6-0.6,1.1-0.9,1.7c-0.4,0.8-0.7,1.6-1.1,2.5c-0.2,0.4-0.3,0.9-0.4,1.3
		c-0.8,2.6-1.2,5.4-1.2,8.3l0,0c0,0.6,0,1.2,0.1,1.9c0,0.2,0,0.3,0,0.5c0,0.6,0.1,1.1,0.2,1.7c0,0,0,0.1,0,0.1
		c0.1,0.6,0.2,1.2,0.3,1.8c0,0.1,0.1,0.2,0.1,0.4c0.1,0.6,0.3,1.1,0.4,1.7c0,0,0,0.1,0,0.1c0.2,0.6,0.4,1.2,0.6,1.8c0,0,0,0,0,0.1
		c0,0,0,0,0,0.1C19.7,138.3,24.9,143.8,31.5,146.8z M48.2,121.8c2.5,0,4.5,2,4.5,4.5s-2,4.5-4.5,4.5s-4.5-2-4.5-4.5
		S45.7,121.8,48.2,121.8z M27.7,107.3c4,0,7.2,3.2,7.2,7.2s-3.2,7.2-7.2,7.2c-4,0-7.2-3.2-7.2-7.2S23.7,107.3,27.7,107.3z"/>
	<ellipse transform="matrix(0.9732 -0.2298 0.2298 0.9732 -25.5709 9.4359)" class="st3" cx="27.7" cy="114.5" rx="7.2" ry="7.2"/>
	<circle class="st3" cx="48.2" cy="126.3" r="4.5"/>
</g>
<g>
	<path class="st7" d="M125.8,15.4c1.1-0.7,1.8-1.8,1.8-3.1v0C127.6,13.6,126.9,14.7,125.8,15.4z"/>
	<path class="st7" d="M119.6,12.3V3.8c0-2.1-1.8-3.8-4-3.8H4.4c-2.2,0-4,1.7-4,3.8v8.5c0,2.1,1.8,3.8,4,3.8h111.2
		C117.8,16.1,119.6,14.4,119.6,12.3z"/>
	<path class="st7" d="M125.8,15.4c-0.4,0.3-0.9,0.5-1.4,0.6C124.9,15.9,125.4,15.7,125.8,15.4z"/>
	<path class="st8" d="M124.4,0.1C124.1,0,123.9,0,123.6,0h-8c2.2,0,4,1.7,4,3.8v8.5c0,2.1-1.8,3.8-4,3.8h8c0.3,0,0.5,0,0.8-0.1
		c0.5-0.1,1-0.3,1.4-0.6c1.1-0.7,1.8-1.8,1.8-3.1V3.8v0C127.6,1.9,126.2,0.4,124.4,0.1z"/>
</g>
<g>
	<polygon class="st9" points="6.1,41.6 119.6,41.6 121.9,41.6 121.9,37.8 119.6,37.8 6.1,37.8 	"/>
	<polygon class="st9" points="6.1,31.2 119.6,31.2 119.6,31.2 121.9,31.2 121.9,27.4 6.1,27.4 	"/>
	<path class="st7" d="M127.6,43.6L127.6,43.6c0,0.3,0,0.5-0.1,0.7C127.6,44.1,127.6,43.8,127.6,43.6z"/>
	<path class="st7" d="M119.6,43.6v-2H6.1v-3.8h113.5v-6.6H6.1v-3.8h115.9v0h-2.3v-2c0-2-1.6-3.7-3.7-3.7H4.1c-2,0-3.7,1.6-3.7,3.7
		v5.8v6.6v5.8c0,2,1.6,3.7,3.7,3.7h111.9C118,47.2,119.6,45.6,119.6,43.6z"/>
	<path class="st8" d="M123.9,21.7h-8c2,0,3.7,1.6,3.7,3.7v2h2.3v0v3.8h-2.3v0v6.6h2.3v3.8h-2.3v2c0,2-1.6,3.7-3.7,3.7h8
		c1.8,0,3.3-1.3,3.6-2.9c0-0.2,0.1-0.5,0.1-0.7v-5.8v-6.6v0v-5.8C127.6,23.4,126,21.7,123.9,21.7z"/>
</g>
</svg>
